<!-- Generator: Adobe Illustrator 25.1.0, SVG Export Plug-In  -->
<svg version="1.1" xmlns="http://www.w3.org/2000/svg" xmlns:xlink="http://www.w3.org/1999/xlink" x="0px" y="0px"
	 width="189.51px" height="22.2px" viewBox="0 0 189.51 22.2" style="overflow:visible;enable-background:new 0 0 189.51 22.2;"
	 xml:space="preserve">
<style type="text/css">
	.st0{fill:#00;}
</style>
<defs>
</defs>
<g>
	<path class="st0" d="M16.59,16.11c0,4.11-2.34,5.94-6.63,5.94H0V0.15h8.04c4.56,0,6.9,2.07,6.9,5.97c0,3.15-2.04,4.14-2.73,4.35
		C14.64,11.01,16.59,12.66,16.59,16.11z M3.15,3.3v6.27h4.71c2.67,0,3.93-0.99,3.93-3.09c0-2.01-1.2-3.18-4.14-3.18H3.15z M9.6,18.9
		c2.55,0,3.84-0.84,3.84-3.03c0-2.1-1.26-3.39-4.14-3.39H3.15v6.42H9.6z"/>
	<path class="st0" d="M32.73,18.9v3.15h-13.5V0.15h3.15V18.9H32.73z"/>
	<path class="st0" d="M50.67,22.05c-0.84-2.37-1.65-4.62-2.4-6.63h-9.48c-0.72,2.01-1.53,4.26-2.37,6.63h-3.3
		c4.89-13.89,8.46-21.9,8.46-21.9h3.9c0,0,3.57,8.01,8.49,21.9H50.67z M47.19,12.48C45,6.6,43.53,3.03,43.53,3.03
		s-1.44,3.57-3.63,9.45H47.19z"/>
	<path class="st0" d="M65.22,0c6,0,8.19,2.85,8.85,3.72c-0.54,1.8-1.74,2.91-1.74,2.91c-1.05-1.5-2.76-3.51-7.11-3.51
		c-4.29,0-7.89,2.55-7.89,7.98c0,5.76,3.48,7.98,7.89,7.98c4.26,0,6.36-1.86,7.35-3.45c0,0,1.08,0.99,1.71,2.67
		c-0.63,0.96-3.03,3.9-9.03,3.9c-6.27,0-11.07-3.63-11.07-11.1C54.18,3.87,58.95,0,65.22,0z"/>
	<path class="st0" d="M91.68,22.05c-2.82-4.41-5.28-7.68-6.33-9.03c-1.56,0.96-3.36,1.71-5.37,2.28v6.75h-3.15V0.15h3.15v12
		c5.16-1.41,8.91-4.77,10.8-12h3.15c-1.44,5.07-3.39,8.55-6.03,10.98c1.08,1.41,4.05,5.4,7.47,10.92H91.68z"/>
	<path class="st0" d="M125.61,0.15v21.9h-4.95V14.1h-11.1v7.95h-4.95V0.15h4.95v9h11.1v-9H125.61z"/>
	<path class="st0" d="M139.26,0c6.3,0,10.95,3.75,10.95,11.1c0,7.35-4.65,11.1-10.95,11.1s-10.95-3.75-10.95-11.1
		C128.31,3.75,132.96,0,139.26,0z M139.26,17.25c3.75,0,6-2.4,6-6.15c0-3.75-2.25-6.15-6-6.15s-6,2.4-6,6.15
		C133.26,14.85,135.51,17.25,139.26,17.25z"/>
	<path class="st0" d="M164.91,7.95c0,0,0.3-0.45,0.3-1.35c0-1.35-0.75-2.37-3.9-2.37c-3,0-4.05,1.02-4.05,2.37
		c0,4.5,13.2,0.9,13.2,9c0,4.2-2.55,6.6-9,6.6c-6.75,0-8.85-2.7-9.3-6.45c0,0,1.8-0.75,4.65-1.05c0.3,2.25,1.5,3.45,4.95,3.45
		c3,0,4.05-0.75,4.05-2.25c0-4.2-13.35-0.75-13.35-9.45c0-3.75,2.55-6.45,9-6.45c6.75,0,8.7,2.7,8.7,5.55c0,1.8-0.45,2.4-0.45,2.4
		H164.91z"/>
	<path class="st0" d="M189.51,5.1h-6.6v16.95h-4.95V5.1h-6.6V0.15h18.15V5.1z"/>
</g>
</svg>
