<svg id="Layer_1" data-name="Layer 1" xmlns="http://www.w3.org/2000/svg" xmlns:xlink="http://www.w3.org/1999/xlink" viewBox="0 0 3000 1111.48"><defs><style>.cls-1{fill:#171c29;}.cls-2{fill:url(#Degradado_sin_nombre_176);}.cls-3{fill:url(#Degradado_sin_nombre_176-2);}</style><linearGradient id="Degradado_sin_nombre_176" x1="0.99" y1="457.42" x2="788.83" y2="457.42" gradientUnits="userSpaceOnUse"><stop offset="0.07" stop-color="#0016ae"/><stop offset="0.49" stop-color="#ce0039"/><stop offset="0.65" stop-color="#ff5734"/><stop offset="0.94" stop-color="#ffb800"/></linearGradient><linearGradient id="Degradado_sin_nombre_176-2" x1="241.21" y1="652.63" x2="1029.05" y2="652.63" xlink:href="#Degradado_sin_nombre_176"/></defs><path class="cls-1" d="M1519.93,378.28q56.46,0,101.08,25.2t70.72,67.08l-48.56,35.82q-21.27-32.79-52.21-51t-71-18.21q-31,0-57.37,11.23a139.5,139.5,0,0,0-76.19,77.71q-10.93,27-10.93,59.19t10.93,59.19a139.5,139.5,0,0,0,76.19,77.71q26.4,11.24,57.37,11.23,40.07,0,71-18.21t52.21-51L1691.73,700q-25.49,41.88-70.42,67.08t-101.38,25.2q-44.33,0-82.57-15.79a210.48,210.48,0,0,1-66.78-43.4,201.32,201.32,0,0,1-44.92-65.57q-16.4-37.93-16.39-82.26,0-43.71,16.39-81.65a204.91,204.91,0,0,1,44.92-65.88,208.26,208.26,0,0,1,66.78-43.71Q1475.61,378.28,1519.93,378.28Z"/><path class="cls-1" d="M1875.69,480.88q27.32,0,49.78,7.89A105.15,105.15,0,0,1,1964,512.14q16.08,15.48,25.19,38.86t9.11,54.34v180.3h-59.5V752.25q-15.79,18.82-40.06,29.44t-55.25,10.63q-23.67,0-42.8-6.07a94.39,94.39,0,0,1-32.78-17.61,78.41,78.41,0,0,1-21-27.32,83.09,83.09,0,0,1-7.28-35.21q0-39.47,29.75-62.23t80.13-22.76H1934V601.69q0-31-16.39-47.35T1870.22,538q-26.1,0-45.53,11.53t-37.64,32.78l-36.42-37.63q23.05-32.79,55.24-48.27T1875.69,480.88Zm-18.82,262.27a85.11,85.11,0,0,0,29.74-5.17,76.54,76.54,0,0,0,24.59-14.57A67.9,67.9,0,0,0,1927.9,701a66.21,66.21,0,0,0,6.07-28.23v-5.47h-76.49q-25.5,0-39.16,9.11t-13.66,27.32q0,19.44,15.17,29.45T1856.87,743.15Z"/><path class="cls-1" d="M2182.26,480.88q32.79,0,58.59,11.84a126.57,126.57,0,0,1,44.62,34.3l-34.61,39.46A105.27,105.27,0,0,0,2218.08,544a93.77,93.77,0,0,0-37.64-7.9q-17.61,0-29.14,7t-11.53,21.55a23.07,23.07,0,0,0,9.71,19.43q9.7,7.27,30.35,15.78l27.93,11.54q40.66,17,61.32,37t20.64,52.81q0,22.47-8.81,39.46a83.71,83.71,0,0,1-24,28.54,106,106,0,0,1-35.21,17.3,153.17,153.17,0,0,1-42.5,5.77q-40.07,0-70.42-16.09T2059,734.64l35.82-40.07a179.44,179.44,0,0,0,38.55,30.66q20.34,11.85,45.84,11.84,19.42,0,33.39-8.19t14-25.2q0-14.56-11.54-22.16t-29.74-14.87l-30.36-12.75a256.35,256.35,0,0,1-32.48-15.48,109.65,109.65,0,0,1-24.28-18.52,75.59,75.59,0,0,1-15.48-23.07q-5.46-12.74-5.46-29.74,0-20.64,8.19-36.73a80.09,80.09,0,0,1,22.16-27q14-10.92,33.39-16.69A144.55,144.55,0,0,1,2182.26,480.88Z"/><path class="cls-1" d="M2498.55,480.88a146.08,146.08,0,0,1,55.24,10.32A127.62,127.62,0,0,1,2626,563.14a142.17,142.17,0,0,1,10.32,54.34,169.36,169.36,0,0,1-1.52,23.06,119.5,119.5,0,0,1-3.34,17H2409.31q6.66,37.05,32.78,57.68t64.35,20.64q26.1,0,47.35-9.41a149.26,149.26,0,0,0,39.47-25.81l31,43.71a180.06,180.06,0,0,1-53.43,35.22q-29.74,12.73-65.56,12.75-34.61,0-64.36-11.84t-51-32.79a152.33,152.33,0,0,1-33.39-49.47,154.85,154.85,0,0,1-12.14-61.32,158.36,158.36,0,0,1,11.84-61.32A151,151,0,0,1,2389,526.11,156.93,156.93,0,0,1,2437.84,493Q2465.75,480.89,2498.55,480.88Zm-1.82,54q-32.79,0-55.86,19.73t-30.35,53.12h162.09q-1.21-35.21-23.37-54T2496.73,534.91Z"/><path class="cls-1" d="M3000,785.64h-59.5V743.75a114,114,0,0,1-44,35.82q-27,12.73-59.8,12.75-32.19,0-58.88-11.84a138.82,138.82,0,0,1-46.15-32.79,152.38,152.38,0,0,1-30.35-49.17q-10.92-28.23-10.93-61.62T2701.31,575a151.7,151.7,0,0,1,30.35-49.48,138.8,138.8,0,0,1,46.15-32.78q26.7-11.85,58.88-11.84,31,0,56.76,11.53a116,116,0,0,1,42.81,32.18V330.32H3000ZM2846.41,539.16a90.7,90.7,0,0,0-35.82,7,88.22,88.22,0,0,0-28.84,19.73,90.17,90.17,0,0,0-19.43,30.66q-7,17.93-7,39.76t7,39.77a92.22,92.22,0,0,0,19.13,30.65,87.65,87.65,0,0,0,28.84,20,89.19,89.19,0,0,0,36.12,7.28,100.21,100.21,0,0,0,32.48-5.46,79.7,79.7,0,0,0,28.83-17.3q12.75-11.85,20.64-30.36t7.9-44q0-25.5-7.59-43.71a88.15,88.15,0,0,0-20.34-30.35,81.54,81.54,0,0,0-28.84-17.92A97.73,97.73,0,0,0,2846.41,539.16Z"/><path class="cls-2" d="M139.2,916.18,42.43,848.34A97.2,97.2,0,0,1,1,768.77V397.85C-.22,348.24,23,250.4,118.42,191,209.19,134.58,372,45.77,392.76,34.46c48.46-30,156.66-62.42,267.9-.77l5.74,3.55L746.82,92.7a97.19,97.19,0,0,1,42,80V277L591,153.06c-64.61-34.14-120.17-4.15-126.26-.63l-4.08,2.38c-1.77,1-177.73,96.6-269.27,153.55-49.07,30.52-52.06,78.37-52.2,86.49l.13,2h-.12Z"/><path class="cls-3" d="M502.73,1111.48c-41.19,0-87-9.35-133.35-35l-5.73-3.55-80.43-55.47a97.19,97.19,0,0,1-42-80V821.06l197.84,136c64.62,34.14,120.17,4.16,126.26.64l4.07-2.38c1.77-1,177.73-96.61,269.27-153.56,49.07-30.52,52.07-78.36,52.21-86.49l-.14-1.95h.13V193.78l97,68.51A97.19,97.19,0,0,1,1029,341.68v370.6c1.26,49.62-22,147.45-117.37,206.81-90.78,56.46-253.6,145.28-274.36,156.58C609,1093.16,560.4,1111.48,502.73,1111.48Z"/></svg>