<?xml version="1.0" encoding="UTF-8"?>
<svg id="Layer_1" data-name="Layer 1" xmlns="http://www.w3.org/2000/svg" width="447.34" height="184.98" viewBox="0 0 447.34 184.98">
  <g>
    <path d="m42.53,82.36c2.74-10.15,9.4-18.81,18.51-24.07l-8.52-14.72c-13.01,7.51-22.5,19.88-26.41,34.38l16.43,4.4Z" style="fill: #1a1a1a;"/>
    <path d="m70.61,54.32c3.34-.89,6.79-1.34,10.25-1.34v-16.99c-4.95,0-9.87.63-14.65,1.9l4.4,16.43Z" style="fill: #1a1a1a;"/>
    <path d="m91.19,54.34c10.14,2.75,18.78,9.4,24.03,18.51l14.73-8.5c-7.51-13-19.87-22.5-34.36-26.41l-4.4,16.41Z" style="fill: #1a1a1a;"/>
    <path d="m24.18,92.64c0,4.94.64,9.87,1.91,14.64l16.43-4.39c-.9-3.34-1.35-6.79-1.34-10.25h-17Z" style="fill: #1a1a1a;"/>
    <path d="m31.76,120.98c2.47,4.27,5.49,8.21,8.99,11.7l12.07-12c-2.45-2.45-4.57-5.21-6.31-8.2l-14.75,8.5Z" style="fill: #1a1a1a;"/>
    <path d="m52.51,141.7c8.6,4.98,18.36,7.6,28.3,7.58v-16.99c-6.95,0-13.78-1.83-19.79-5.31l-8.5,14.72Z" style="fill: #1a1a1a;"/>
    <path d="m115.21,112.51c-5.27,9.08-13.93,15.71-24.07,18.43l4.4,16.43c14.5-3.9,26.86-13.38,34.4-26.36l-14.72-8.5Z" style="fill: #1a1a1a;"/>
    <path d="m136.3,107.25c2.62-9.61,2.66-19.75.13-29.38l-16.48,4.4c1.77,6.75,1.73,13.84-.11,20.57l16.46,4.41Z" style="fill: #1a1a1a;"/>
  </g>
  <g>
    <path d="m203.57,86.51c-2-5.07-6.38-8.07-11.2-8.07-7.38,0-12.39,6.32-12.39,13.52s5.13,13.77,12.45,13.77c4.69,0,8.7-2.63,11.14-7.82h12.39c-2.88,11.14-12.45,18.21-23.41,18.21-6.45,0-12.52-2.25-17.27-6.95-5.01-4.88-7.13-10.76-7.13-17.77,0-12.27,10.58-23.34,23.85-23.34,6.38,0,11.52,1.75,16.15,5.7,4.38,3.76,7.01,8.01,7.82,12.77h-12.39Z" style="fill: #1a1a1a;"/>
    <path d="m238.75,116.3c-10.58,0-18.71-7.82-18.71-18.46s8.32-18.46,18.71-18.46,18.71,7.82,18.71,18.34-8.26,18.59-18.71,18.59Zm8.32-18.46c0-4.63-3.5-8.76-8.39-8.76-4.57,0-8.26,4.01-8.26,8.76s3.63,8.76,8.32,8.76,8.32-4.13,8.32-8.76Z" style="fill: #1a1a1a;"/>
    <path d="m289.64,115.23v-3.76h-.12c-1.94,3.19-5.45,4.88-10.39,4.88-10.51,0-17.4-8.07-17.4-18.59s7.07-18.46,17.21-18.46c4.01,0,7.26,1.19,10.2,4.13v-14.52h10.39v46.31h-9.89Zm.06-17.52c0-4.82-3.69-8.7-8.83-8.7s-8.76,3.63-8.76,8.7,3.69,8.95,8.7,8.95,8.89-3.82,8.89-8.95Z" style="fill: #1a1a1a;"/>
    <path d="m333.14,115.23v-3.76h-.12c-1.5,3.07-5.63,4.94-10.2,4.94-10.26,0-17.4-8.07-17.4-18.59s7.45-18.52,17.4-18.52c4.26,0,8.2,1.69,10.2,4.88h.12v-3.69h10.39v34.73h-10.39Zm0-17.4c0-4.88-3.94-8.82-8.82-8.82s-8.51,3.94-8.51,8.95,3.82,8.76,8.63,8.76,8.7-3.88,8.7-8.89Z" style="fill: #1a1a1a;"/>
    <path d="m375.64,93.89c-1.5-3.25-4.2-4.88-7.76-4.88-4.76,0-8.01,3.94-8.01,8.82s3.44,8.82,8.26,8.82c3.5,0,5.94-1.63,7.51-4.63h10.57c-2.06,8.7-9.51,14.33-18.4,14.33-10.26,0-18.4-8.32-18.4-18.59s8.2-18.46,18.21-18.46c9.14,0,16.58,5.76,18.52,14.58h-10.51Z" style="fill: #1a1a1a;"/>
    <path d="m394.36,126.81l5.51-13.33-12.89-32.98h11.08l6.95,20.15h.12l6.64-20.15h11.01l-17.4,46.31h-11.01Z" style="fill: #1a1a1a;"/>
  </g>
</svg>