<svg id="Layer_1" data-name="Layer 1" xmlns="http://www.w3.org/2000/svg" viewBox="0 0 2400 380">
  <defs>
    <style>
      .cls-1 {
        fill: #080808;
      }

      .cls-2 {
        fill: #3ddc97;
      }

      .cls-3 {
        fill: #f12a1f;
      }

      .cls-4 {
        fill: #ffb400;
      }
    </style>
  </defs>
  <path class="cls-1" d="M139.25,329.76V34.9H243.11c32.27,0,59.35,7,82,21.51,22.25,14.09,39.31,32.64,50.44,55.26S392.6,158,392.6,182.52a152.37,152.37,0,0,1-17.07,70.84c-11.13,22.63-28.19,40.8-50.44,55.26-22.26,14.1-49.71,21.52-82,21.52H158.54C153,329.76,139.62,329.76,139.25,329.76Z"/>
  <path class="cls-2" d="M181.17,101.29H286.51a16.32,16.32,0,0,1,0,32.64H181.17Z"/>
  <path class="cls-3" d="M181.17,230.37H310.25a16.32,16.32,0,1,1,0,32.63H181.17Z"/>
  <path class="cls-4" d="M181.17,165.83h73.07a16.32,16.32,0,0,1,0,32.64H181.17Z"/>
  <path class="cls-1" d="M661.78,53.86V278.25H637.2l-1.06-28.76A65.29,65.29,0,0,1,611,273.55a76.08,76.08,0,0,1-34,8.36c-23.54,0-42.37-7.32-57.54-22S497,225.43,497,199.8s7.33-46,22.49-60.15C534.67,125,553.5,118.2,577,118.2a73.16,73.16,0,0,1,34.52,8.37c11,5.76,19.36,13.08,24.58,23.53V53.86Zm-83.17,87.35c-16.22,0-29.29,5.23-39.76,15.17s-15.69,24.06-15.69,42.37c0,17.78,5.24,31.91,15.69,41.84,10.47,10.46,24.07,15.17,39.76,15.17,16.22,0,29.29-5.23,40.28-16.22C629.35,229.09,635.1,215,635.1,197.7c0-16.74-5.23-30.33-16.21-40.79C607.38,147,594.31,141.21,578.61,141.21Z"/>
  <path class="cls-1" d="M851.14,253.15c-7.84,9.41-17.79,16.21-30.34,20.92a107.8,107.8,0,0,1-38.19,7.32c-24.58,0-45-7.32-60.15-22.49s-23-35-23-60.15c0-24.06,7.84-43.41,23-59.1s35-23,59.11-23c25.62,0,46,7.84,61.2,24s20.92,38.71,18.3,69.05H726.65c1.56,14.11,7.32,25.62,18.3,34.51,10.46,8.9,23.53,13.08,39.24,13.08a76.9,76.9,0,0,0,28.24-5.24c9.41-3.66,16.74-8.36,22-14.63ZM836,187.77c-.52-15.17-5.76-26.68-15.17-35.05s-22.5-12.55-38.19-12.55c-14.13,0-26.68,4.18-37.13,12.55s-16.75,19.88-18.83,34.52Z"/>
  <path class="cls-1" d="M1038.93,253.15c-7.85,9.41-17.79,16.21-30.35,20.92a107.71,107.71,0,0,1-38.18,7.32c-24.58,0-45-7.32-60.15-22.49s-23-35-23-60.15c0-24.06,7.85-43.41,23-59.1s35-23,59.1-23c25.64,0,46,7.84,61.21,24s20.91,38.71,18.31,69.05H914.43c1.57,14.11,7.33,25.62,18.31,34.51,10.46,8.9,23.54,13.08,39.23,13.08a76.91,76.91,0,0,0,28.25-5.24c9.41-3.66,16.73-8.36,22-14.63Zm-15.17-65.38c-.53-15.17-5.75-26.68-15.18-35.05s-22.49-12.55-38.18-12.55c-14.12,0-26.67,4.18-37.13,12.55s-16.74,19.88-18.84,34.52Z"/>
  <path class="cls-1" d="M1085,120.82h25.1l1,30.32a64.48,64.48,0,0,1,25.63-24.57,74.28,74.28,0,0,1,35-8.89c23,.52,41.84,8.36,56.5,23,14.63,15.17,22,34.53,22,58.58,0,24.58-7.33,44.46-22.49,59.63s-34,22.49-58.06,22.49a79.54,79.54,0,0,1-34.53-7.84,56,56,0,0,1-25.11-24.06v103h-25.63V120.82Zm124,120.82c10.46-10.46,15.69-24.06,15.69-41.84,0-17.26-5.23-31.39-15.69-41.33s-23.54-15.17-40.28-15.17-29.81,5.24-40.27,16.22c-10.47,10.46-15.18,24.06-15.18,40.8,0,16.21,5.23,29.81,15.69,40.27,10.47,11,23.54,16.22,39.76,16.74C1185.39,257.33,1198.47,252.09,1208.93,241.64Z"/>
  <path class="cls-1" d="M1391,155.34c-11.51-10.46-26.16-15.17-44.47-15.17-11.51,0-20.92,1.57-28.24,5.75s-11,9.94-11,17.27c0,12.55,13.6,20.39,39.23,23.53,7.32,1.05,13.6,1.57,18.31,2.61s10.47,2.62,17.26,4.72,12,4.7,16.21,8.36c4.19,3.13,7.33,7.85,10.47,13.08,3.14,5.74,4.18,12,4.18,19.87,0,15.17-6.81,26.68-19.36,35S1365.33,283,1346.5,283q-47.09,0-70.61-29.8l15.16-18.31c13.08,16.21,31.91,24.58,56.49,24.58a65.66,65.66,0,0,0,27.74-5.75q11.76-5.49,12.55-18.83c0-7.85-3.14-13.61-11-17.26s-17.79-6.28-31.91-7.84a184.72,184.72,0,0,1-23-4.2,97.19,97.19,0,0,1-19.36-7.31,37.27,37.27,0,0,1-15.16-13.08c-3.67-5.75-5.23-12.55-5.23-20.92,0-10.47,3.12-19.88,9.93-26.68,6.8-7.32,14.64-12.55,24.05-15.17,9.43-3.14,19.36-4.18,30.35-4.18,24.58,0,44.47,6.8,60.16,20.92Z"/>
  <path class="cls-1" d="M1462.11,139.65c15.69-15.7,35-23,58.58-23,24.06,0,43.94,7.84,59.11,23s23,35.57,23,60.15c0,24-7.85,43.41-23,58.58-15.7,15.17-35,23-59.11,23-23.54,0-43.41-7.84-58.58-23-15.69-15.17-23-35-23-58.58C1439.09,175.22,1446.42,155.34,1462.11,139.65Zm99.38,17.26c-10.46-11-24.06-16.74-40.28-16.74s-29.82,5.23-40.27,16.21-15.69,25.1-15.69,42.37q0,25.11,15.69,40.79c10.45,10.47,24,16.22,40.27,16.22s29.82-5.23,40.28-16.22c10.46-10.45,16.22-24.58,16.22-40.79C1577.18,182,1572,167.89,1561.49,156.91Z"/>
  <path class="cls-1" d="M1763.92,278.25l-1-25.1c-13.6,18.3-31.91,27.2-54.92,27.72-20.41,0-37.16-6.8-49.71-19.87s-18.83-30.87-18.83-53.88V119.76h26.16v87.36q0,22.75,12.56,36.09c8.37,8.88,20.4,13.08,35,13.08,14.12,0,26.16-5.24,35-15.17s13.61-22,13.61-36.62V119.76H1788V278.25Z"/>
  <path class="cls-1" d="M1860.69,119.76l2.1,23.54c9.41-17.26,25.62-26.14,48.63-26.14a53.49,53.49,0,0,1,36.63,12l-12,22.5a47.32,47.32,0,0,0-27.73-8.9,46.73,46.73,0,0,0-33,13.08c-8.89,8.89-13.59,19.88-13.59,34v87.88h-26.16v-158Z"/>
  <path class="cls-1" d="M2099.75,256.81c-16.22,16.21-36.1,24.58-59.11,24.58-23.54,0-42.89-7.32-59.12-22-15.69-14.64-23.54-34.53-23.54-60.15s7.85-45.51,23.54-60.15,35.58-22,59.12-22c22,0,41.32,7.84,57.53,23.53L2081.43,158c-11-10.45-24-16.21-40.27-16.21s-29.82,5.22-40.28,15.69c-11,10.46-16.22,24-16.22,41.32,0,17.78,5.24,31.91,16.22,41.84s24.07,15.17,40.28,15.17c16.73,0,30.35-5.75,41.32-16.74Z"/>
  <path class="cls-1" d="M2271.32,253.15c-7.85,9.41-17.79,16.21-30.34,20.92a107.8,107.8,0,0,1-38.19,7.32c-24.58,0-45-7.32-60.15-22.49s-23-35-23-60.15c0-24.06,7.85-43.41,23-59.1s35-23,59.11-23c25.64,0,46,7.84,61.2,24s20.92,38.71,18.3,69.05H2146.83c1.56,14.11,7.32,25.62,18.3,34.51,10.46,8.9,23.54,13.08,39.23,13.08a76.91,76.91,0,0,0,28.25-5.24c9.41-3.66,16.74-8.36,22-14.63Zm-15.18-65.38c-.51-15.17-5.74-26.68-15.16-35.05s-22.5-12.55-38.19-12.55c-14.12,0-26.68,4.18-37.13,12.55s-16.75,19.88-18.83,34.52Z"/>
</svg>
