<svg width="181" height="52" viewBox="0 0 181 52" fill="none" xmlns="http://www.w3.org/2000/svg">
<g clip-path="url(#clip0_3912_3322)">
<path fill-rule="evenodd" clip-rule="evenodd" d="M162.947 14.5801L150.479 35.5914L154.362 39.8877L155.886 37.228H170.06L173.431 43.1382H179.907L162.947 14.5801ZM158.117 33.3225L162.947 24.8168L167.823 33.3225H158.117ZM62.2881 26.984V15.6582H68.4405V43.1328H62.2881V31.2407H46.7872V43.1328H40.6367V33.755C43.6785 28.1251 45.6582 21.9924 46.4786 15.6582H46.7853V26.984H62.2881ZM81.0975 43.1328V30.7876L68.6575 15.6582H75.6213L84.1432 26.0836L92.7642 15.6582H99.6899L87.2956 30.7876V43.1328H81.0975ZM110.216 15.6582C119.694 15.6582 127.303 21.5665 127.303 29.3946C127.303 37.2226 119.694 43.1328 110.216 43.1328H99.9624V15.6582H110.216ZM106.115 19.8658V38.9158H109.804C116.503 38.9158 121.153 34.6271 121.153 29.3946C121.153 24.162 116.503 19.8658 109.85 19.8658H106.115ZM129.172 43.1328H135.323L135.326 32.5129H138.288L147.812 43.1328H154.959L144.614 31.6899C148.624 30.4498 151.13 27.8901 151.13 24.1639C151.13 18.7822 145.896 15.6582 138.559 15.6582H129.172V43.1328ZM138.561 28.4545H135.323V19.8355H138.561C142.342 19.8355 144.894 21.3796 144.894 24.1639C144.894 26.9123 142.342 28.4545 138.561 28.4545Z" fill="url(#paint0_linear_3912_3322)"/>
</g>
<path fill-rule="evenodd" clip-rule="evenodd" d="M23.4048 21.016C19.321 20.1445 15.782 20.7976 12.9788 22.3844L12.9631 22.388C12.9687 22.3847 12.9739 22.3816 12.9788 22.3787V22.3844C14.0991 21.7494 15.3126 21.2786 16.5787 20.9877C16.5787 20.9877 12.7065 21.2067 9.69285 23.1435L9.65432 23.1524C9.61809 23.1737 9.57223 23.2097 9.51827 23.2583C8.29771 24.0795 7.23675 25.1942 6.66097 26.7053C6.02068 25.0947 5.46631 23.454 5 21.7896C9.83136 18.2885 18.6836 18.1474 23.4048 21.016Z" fill="url(#paint1_linear_3912_3322)"/>
<path fill-rule="evenodd" clip-rule="evenodd" d="M12.9803 22.3846C14.1006 21.7496 15.314 21.2788 16.5802 20.9879C16.5802 20.9879 8.6584 21.4359 6.65779 26.7176V26.7364C6.35681 27.7152 7.24794 30.277 7.24794 30.277L9.53575 32.677C7.75547 25.6937 12.4649 22.682 12.9803 22.3789V22.3846Z" fill="url(#paint2_linear_3912_3322)"/>
<path fill-rule="evenodd" clip-rule="evenodd" d="M11.481 13.2365C10.7728 13.1726 10.3105 13.1613 10.3105 13.1613C10.3105 13.1613 10.5269 13.4022 10.7591 13.6732C10.8928 13.8389 11.0266 14.0121 11.1525 14.1984C12.0298 14.0309 14.8449 13.8709 14.8449 13.8709C13.7508 13.5439 12.6229 13.3312 11.481 13.2365Z" fill="url(#paint3_linear_3912_3322)"/>
<path fill-rule="evenodd" clip-rule="evenodd" d="M5.91818 16.7526C5.91818 16.7526 6.46112 16.6039 7.14372 16.4383C7.75748 16.2915 8.48139 16.1315 9.00269 16.0618C9.00269 16.0618 8.51483 15.9338 7.82239 15.8247C7.03553 15.7042 5.96932 15.6082 5.06836 15.7607C5.4012 16.0494 5.68757 16.3837 5.91818 16.7526Z" fill="url(#paint4_linear_3912_3322)"/>
<path d="M27.793 13.1423H27.791L27.793 13.1443V13.1423Z" fill="#270C59"/>
<path d="M23.905 46.6793C22.4022 46.4152 20.9598 45.8997 19.6441 45.1565C17.2461 43.7684 15.3178 41.7475 14.0908 39.3364C7.96699 27.5664 19.111 19.0641 30.7822 23.9016H30.8019C30.8019 23.9016 29.175 24.2781 28.0911 25.0479C30.4261 24.6508 32.5605 24.9388 34.386 25.4056C34.386 25.4056 35.464 23.0245 35.6647 22.4033C35.8653 21.7822 35.3696 20.5794 35.0017 19.9394C34.9818 20.2442 34.9114 20.5441 34.7932 20.8278L32.6293 19.4782C33.1624 17.4679 28.8681 17.5432 27.7783 13.1368C27.7783 13.2874 27.6878 15.4181 29.0294 16.444L27.798 15.7833L27.7803 15.7381C27.6859 15.7042 24.0427 14.3829 21.6821 12.7264C23.2912 14.5956 25.4767 15.0172 25.223 16.5814L27.3869 17.931C27.5051 17.6466 27.5755 17.3461 27.5954 17.0407C27.9632 17.6825 28.457 18.8853 28.2563 19.5065C28.0557 20.1276 26.9797 22.5087 26.9797 22.5087C25.1463 22.0419 23.0119 21.7558 20.6847 22.1492C21.7686 21.3756 23.3935 21.0048 23.3935 21.0048C19.3195 20.1333 15.7806 20.7864 12.9675 22.3732V22.3487C12.4521 22.6555 7.74273 25.671 9.52302 32.6486L12.1866 37.1266C13.3669 39.4757 16.353 43.7146 17.5648 44.8685C19.7444 46.956 23.183 49.0434 23.183 49.0434" fill="url(#paint5_linear_3912_3322)"/>
<path d="M29.0425 16.4515C27.7009 15.4256 27.7835 13.2949 27.7914 13.1443C27.4728 13.8872 27.4393 14.7141 27.6969 15.4783C27.7264 15.5668 27.7599 15.6571 27.7992 15.7494L27.8169 15.7946L29.0425 16.4515Z" fill="url(#paint6_linear_3912_3322)"/>
<path d="M17.9474 33.7084V33.6896V33.6745C15.7264 28.3401 20.0483 21.4396 30.7989 23.9017C19.1277 19.0679 7.1673 27.4799 13.295 39.2461C14.522 41.6572 17.0936 44.2579 19.4916 45.6459C20.8073 46.3892 21.3553 48.5146 22.933 48.0421C24.8312 46.4982 27.5989 43.462 29.2448 41.6724C28.0559 41.6574 26.8749 41.4851 25.7354 41.1604C19.9912 39.5078 18.0792 34.1056 17.9474 33.7084Z" fill="url(#paint7_linear_3912_3322)"/>
<path fill-rule="evenodd" clip-rule="evenodd" d="M0 10.5297C0.231327 18.5776 2.39637 26.4664 6.32731 33.5847C10.2583 40.7029 15.8495 46.8594 22.6677 51.5769C29.4846 46.8584 35.0748 40.7017 39.0053 33.5836C42.9358 26.4655 45.101 18.5772 45.3333 10.5297C40.837 8.23987 35.9903 6.64529 30.973 5.80518C35.0608 7.78911 39.0935 10.2229 41.9636 12.412L41.938 12.7885C41.4126 19.4805 39.4647 25.9994 36.2137 31.9458C32.9627 37.8922 28.477 43.1408 23.0316 47.37L22.6775 47.6467L22.3234 47.37C16.8758 43.1408 12.3882 37.8916 9.13583 31.9442C5.88343 25.9968 3.93469 19.4764 3.4091 12.7828L3.38352 12.4064C5.3073 10.2256 7.54151 8.31395 10.0207 6.7275C6.5495 7.63828 3.19413 8.91344 0.0157347 10.5297H0Z" fill="url(#paint8_linear_3912_3322)"/>
<path d="M25.9313 1.31785C25.9313 1.31785 25.7916 3.5766 27.1824 4.63445L25.9529 3.97376C25.9521 3.96877 25.9521 3.96369 25.9529 3.95871C24.1254 3.14555 21.7215 1.7583 20.2107 0.421875C20.2107 0.499049 20.2009 0.576224 20.2009 0.653398C20.2009 0.576224 20.2009 0.499049 20.2107 0.421875C20.2107 0.421875 21.391 3.43355 24.867 4.5121L21.5681 4.06411C21.5681 4.06411 18.6724 3.36014 15.881 4.26928C15.881 4.26928 16.9669 4.23164 19.9294 4.87727C19.9294 4.87727 17.622 5.12761 16.7308 5.31208C16.6364 5.31208 12.9716 5.45889 10.6464 6.8612L10.6601 6.8725C12.4503 6.49604 14.9014 6.70685 14.9014 6.70685C13.8784 6.97038 11.4962 7.86635 11.4962 7.86635V7.85505C11.3605 7.89458 8.36644 8.7962 6.40517 10.927C7.41469 10.5103 8.45323 10.1612 9.51329 9.88229C8.77105 10.4026 8.07314 10.9786 7.42613 11.6046C7.42613 11.6046 5.41962 13.5113 3.82031 17.0124L4.01703 17.4999C4.62882 17.1933 5.26646 16.9364 5.92321 16.732C5.69239 16.3632 5.40605 16.0289 5.0734 15.74C6.51533 14.8704 8.4707 14.4864 9.77296 14.317C10.0975 14.0911 10.43 13.8746 10.7664 13.6657L10.3179 13.1537C10.9997 12.9348 11.7063 12.7939 12.4227 12.734C13.2976 12.2883 14.2049 11.9033 15.1374 11.582C14.8004 10.8711 14.6305 10.0981 14.6397 9.3176C15.3815 9.95708 16.1777 10.5363 17.02 11.0493C18.0738 10.7982 19.1488 10.637 20.2324 10.5674C20.2321 10.5718 20.2321 10.5762 20.2324 10.5806C20.2666 10.4515 20.3127 10.3255 20.3701 10.2042C20.4016 10.3246 20.4389 10.4413 20.4743 10.5561C23.384 10.4105 26.287 10.9441 28.9332 12.1109H28.9745H28.9607H28.9489C28.7738 12.1523 27.2768 12.5231 26.2578 13.2516C28.5928 12.8544 30.7252 13.1424 32.5527 13.6092C32.5527 13.6092 33.6308 11.2281 33.8314 10.5976C34.0321 9.96699 33.5363 8.77361 33.1685 8.13363C33.1517 8.43839 33.0853 8.73879 32.9718 9.02396L30.8079 7.67247C31.3626 5.45889 26.9266 5.57371 25.9431 1.28397" fill="url(#paint9_linear_3912_3322)"/>
<path fill-rule="evenodd" clip-rule="evenodd" d="M20.1982 0.42749C20.1982 0.466078 20.1957 0.504665 20.1933 0.543252C20.1908 0.58184 20.1884 0.620426 20.1884 0.659013C20.1884 1.67545 20.6447 2.81989 21.2605 3.68951C21.3568 3.82315 21.4572 3.95114 21.5555 4.06596L24.8545 4.51395C21.3824 3.42975 20.1982 0.42749 20.1982 0.42749ZM27.1816 4.63441C25.7908 3.57092 25.9305 1.31781 25.9305 1.31781C25.7386 1.75248 25.6493 2.22229 25.6689 2.69377C25.6816 3.12904 25.7777 3.55839 25.9521 3.96055C25.952 3.96172 25.9518 3.96289 25.9517 3.96406C25.9517 3.96472 25.9516 3.96538 25.9516 3.96604C25.9515 3.96726 25.9515 3.96847 25.9516 3.96969C25.9516 3.97167 25.9518 3.97365 25.9521 3.97561L27.1816 4.63441ZM6.38672 10.9194C7.4022 10.5046 8.44667 10.158 9.51254 9.88225C8.7703 10.4026 8.0724 10.9785 7.42538 11.6045C7.14089 11.3005 6.78486 11.0657 6.38672 10.9194ZM14.8849 6.70681C14.8849 6.70681 12.4338 6.49412 10.6378 6.87057C10.9657 7.15604 11.2474 7.48654 11.4738 7.85125V7.86254C11.4738 7.86254 13.8619 6.97034 14.8849 6.70681ZM15.8688 4.27489C15.8895 4.27429 16.9802 4.24289 19.9169 4.88288C19.9169 4.88288 17.6094 5.13322 16.7183 5.31204C16.458 4.94965 16.1741 4.60325 15.8685 4.2749L15.8688 4.27489Z" fill="#31284B"/>
<path fill-rule="evenodd" clip-rule="evenodd" d="M29.2154 41.7928C31.7682 39.0182 33.9872 35.9781 35.831 32.7296L35.7641 32.6581C30.2993 40.5261 20.0622 38.9769 17.916 33.8176C17.916 33.8176 19.7475 39.5793 25.6962 41.294C26.8391 41.6185 28.0233 41.7908 29.2154 41.806V41.7928Z" fill="url(#paint10_linear_3912_3322)"/>
<path fill-rule="evenodd" clip-rule="evenodd" d="M20.3666 10.2098C20.1858 10.6307 20.0944 11.0818 20.0977 11.5368C20.1011 11.9919 20.1992 12.4417 20.3863 12.8601L21.6177 13.5189C20.225 12.4573 20.3666 10.2023 20.3666 10.2023V10.2098Z" fill="url(#paint11_linear_3912_3322)"/>
<path d="M28.9494 12.1203L28.9448 12.1184H28.9376C26.099 11.5142 23.522 11.6064 21.2775 12.2069C21.2047 12.0996 21.1339 11.9885 21.065 11.8756L21.0355 11.8248C20.9647 11.7119 20.8998 11.5914 20.8388 11.469C20.8352 11.4625 20.8318 11.4559 20.8286 11.4492C20.8245 11.4409 20.8207 11.4324 20.8172 11.4239C20.6781 11.1422 20.5598 10.8516 20.4631 10.5542C23.3727 10.4086 26.2757 10.9422 28.9219 12.109L28.9448 12.1184H28.9494V12.1203Z" fill="url(#paint12_linear_3912_3322)"/>
<path d="M17.0205 11.0455H17.0343C17.3982 11.2733 17.7582 11.4822 18.0966 11.6742L18.1123 11.6836L18.5057 11.8963H18.5175L18.7025 11.9961L18.7615 12.0281L19.0251 12.1674L19.1431 12.2276L19.2867 12.3029L19.45 12.3857L19.5267 12.4234L19.7234 12.5175L19.7687 12.5401L19.7724 12.5419C19.832 12.5713 19.8878 12.5989 19.9418 12.6229C20.048 12.5815 20.1582 12.5438 20.2683 12.5062C20.2369 12.4102 20.2132 12.3179 20.1916 12.2238L20.1739 12.1316C20.1621 12.0714 20.1503 12.013 20.1424 11.9547L20.1351 11.9023L20.1351 11.902C20.1326 11.8843 20.131 11.8728 20.1287 11.853C20.1247 11.8191 20.1188 11.7438 20.1149 11.6911C20.1123 11.6559 20.1131 11.64 20.114 11.6243L20.114 11.6242C20.1145 11.6165 20.1149 11.6088 20.1149 11.5989V11.3806V11.2789V11.1641C20.1149 11.1283 20.1149 11.0926 20.1267 11.0587C20.1324 11.0424 20.1326 11.0271 20.1328 11.0119C20.133 10.9955 20.1333 10.9793 20.1405 10.9627C20.15 10.9406 20.151 10.9184 20.1521 10.8963L20.1521 10.8962L20.1528 10.8824C20.1532 10.8772 20.1536 10.8719 20.1542 10.8667C20.1573 10.8416 20.164 10.8153 20.1706 10.7897L20.1759 10.7688C20.1799 10.7526 20.1833 10.7364 20.1866 10.7204L20.1927 10.6891L20.1955 10.6747C20.2 10.652 20.2101 10.6164 20.2189 10.5849L20.2194 10.5834L20.227 10.5561C20.2268 10.5517 20.2268 10.5473 20.227 10.5429C19.1448 10.6196 18.0718 10.7878 17.0205 11.0455Z" fill="url(#paint13_linear_3912_3322)"/>
<path d="M12.4095 12.7415L12.4116 12.7413C13.2852 12.2965 14.1911 11.9122 15.1222 11.5914C15.2826 11.9484 15.4804 12.2889 15.7124 12.6078C15.797 12.7226 15.8855 12.8375 15.9838 12.9504H15.9701C14.8017 12.7095 13.602 12.639 12.4116 12.7413L12.4075 12.7433L12.4095 12.7415Z" fill="url(#paint14_linear_3912_3322)"/>
<path d="M11.1623 14.1984C11.1623 14.1984 10.5938 14.2172 9.76562 14.3245C10.0902 14.0986 10.4227 13.8821 10.7689 13.6732L10.7936 13.705L10.8321 13.7544C10.9396 13.8924 11.0557 14.0414 11.1623 14.1984Z" fill="url(#paint15_linear_3912_3322)"/>
<path fill-rule="evenodd" clip-rule="evenodd" d="M15.5363 11.2385C14.9888 10.6419 14.5061 9.9905 14.0961 9.29492C14.0865 10.0688 14.248 10.8355 14.5692 11.5418C14.7841 12.0305 15.066 12.4879 15.4071 12.9011C15.8327 13.0472 16.5472 13.3074 17.2673 13.5565L19.6195 14.3916C18.9754 14.0635 18.3596 13.684 17.7784 13.2569C16.9598 12.6651 16.2082 11.9884 15.5363 11.2385Z" fill="url(#paint16_linear_3912_3322)"/>
<defs>
<linearGradient id="paint0_linear_3912_3322" x1="43.6215" y1="28.9261" x2="69.9279" y2="92.0151" gradientUnits="userSpaceOnUse">
<stop stop-color="#3A3584"/>
<stop offset="1" stop-color="#1F1931"/>
</linearGradient>
<linearGradient id="paint1_linear_3912_3322" x1="20.0723" y1="17.5569" x2="0.960933" y2="30.1865" gradientUnits="userSpaceOnUse">
<stop stop-color="#363176"/>
<stop offset="1" stop-color="#A1ABFF" stop-opacity="0"/>
</linearGradient>
<linearGradient id="paint2_linear_3912_3322" x1="13.6981" y1="20.9573" x2="13.0588" y2="40.5612" gradientUnits="userSpaceOnUse">
<stop stop-color="#353073"/>
<stop offset="1" stop-color="#A1ABFF" stop-opacity="0"/>
</linearGradient>
<linearGradient id="paint3_linear_3912_3322" x1="10.3105" y1="13.1613" x2="11.1401" y2="15.5686" gradientUnits="userSpaceOnUse">
<stop stop-color="#3A3584"/>
<stop offset="1" stop-color="#1F1931"/>
</linearGradient>
<linearGradient id="paint4_linear_3912_3322" x1="5.06836" y1="15.6821" x2="6.04393" y2="18.0621" gradientUnits="userSpaceOnUse">
<stop stop-color="#3A3584"/>
<stop offset="1" stop-color="#1F1931"/>
</linearGradient>
<linearGradient id="paint5_linear_3912_3322" x1="16.9028" y1="22.1645" x2="26.8883" y2="38.3841" gradientUnits="userSpaceOnUse">
<stop stop-color="#3A3584"/>
<stop offset="1" stop-color="#1F1931"/>
</linearGradient>
<linearGradient id="paint6_linear_3912_3322" x1="27.5254" y1="13.1443" x2="29.9185" y2="13.873" gradientUnits="userSpaceOnUse">
<stop stop-color="#3A3584"/>
<stop offset="1" stop-color="#1F1931"/>
</linearGradient>
<linearGradient id="paint7_linear_3912_3322" x1="11.6348" y1="22.5115" x2="37.5685" y2="36.0799" gradientUnits="userSpaceOnUse">
<stop stop-color="#1F1931"/>
<stop offset="0.497327" stop-color="#3A3584"/>
</linearGradient>
<linearGradient id="paint8_linear_3912_3322" x1="-37.4522" y1="-10.0545" x2="31.9803" y2="32.1723" gradientUnits="userSpaceOnUse">
<stop stop-color="#1F1931"/>
<stop offset="1" stop-color="#3A3584"/>
</linearGradient>
<linearGradient id="paint9_linear_3912_3322" x1="33.8776" y1="6.0761" x2="3.82031" y2="6.0761" gradientUnits="userSpaceOnUse">
<stop stop-color="#373279"/>
<stop offset="1" stop-color="#47419B"/>
</linearGradient>
<linearGradient id="paint10_linear_3912_3322" x1="17.916" y1="32.6581" x2="29.3962" y2="47.5815" gradientUnits="userSpaceOnUse">
<stop stop-color="#1F1931"/>
<stop offset="1" stop-color="#3A3584"/>
</linearGradient>
<linearGradient id="paint11_linear_3912_3322" x1="20.0977" y1="10.2023" x2="22.4958" y2="10.9319" gradientUnits="userSpaceOnUse">
<stop stop-color="#3A3584"/>
<stop offset="1" stop-color="#1F1931"/>
</linearGradient>
<linearGradient id="paint12_linear_3912_3322" x1="21.2598" y1="6.95796" x2="42.1411" y2="26.6825" gradientUnits="userSpaceOnUse">
<stop stop-color="#29234E"/>
<stop offset="1" stop-color="#47429B"/>
</linearGradient>
<linearGradient id="paint13_linear_3912_3322" x1="21.2598" y1="6.95796" x2="42.1411" y2="26.6825" gradientUnits="userSpaceOnUse">
<stop stop-color="#29234E"/>
<stop offset="1" stop-color="#47429B"/>
</linearGradient>
<linearGradient id="paint14_linear_3912_3322" x1="21.2598" y1="6.95796" x2="42.1411" y2="26.6825" gradientUnits="userSpaceOnUse">
<stop stop-color="#29234E"/>
<stop offset="1" stop-color="#47429B"/>
</linearGradient>
<linearGradient id="paint15_linear_3912_3322" x1="21.2598" y1="6.95796" x2="42.1411" y2="26.6825" gradientUnits="userSpaceOnUse">
<stop stop-color="#29234E"/>
<stop offset="1" stop-color="#47429B"/>
</linearGradient>
<linearGradient id="paint16_linear_3912_3322" x1="14.0957" y1="9.29492" x2="20.3697" y2="13.8086" gradientUnits="userSpaceOnUse">
<stop stop-color="#3A3584"/>
<stop offset="1" stop-color="#1F1931"/>
</linearGradient>
<clipPath id="clip0_3912_3322">
<rect width="139.551" height="30" fill="white" transform="translate(40.4512 14)"/>
</clipPath>
</defs>
</svg>
