<svg width="150" height="33" viewBox="0 0 150 33" fill="none" xmlns="http://www.w3.org/2000/svg">
<path d="M43.5181 1.56982H50.7952V21.7883H63.0716V27.6344H43.5181V1.56982Z" fill="#1A3154"/>
<path d="M65.5698 1.56982H72.8469V21.7883H85.1234V27.6344H65.5698V1.56982Z" fill="#1A3154"/>
<path d="M92.7878 26.4226C90.6434 25.268 88.9588 23.6608 87.7339 21.6008C86.5089 19.5409 85.8965 17.2073 85.8965 14.6002C85.8965 11.9931 86.5089 9.66123 87.7339 7.59965C88.9588 5.53969 90.6434 3.93244 92.7878 2.77789C94.9322 1.62334 97.3515 1.04688 100.047 1.04688C102.399 1.04688 104.519 1.46864 106.406 2.31216C108.294 3.15568 109.861 4.37212 111.112 5.96146L106.48 10.2068C104.813 8.17123 102.793 7.15346 100.415 7.15346C99.0185 7.15346 97.7743 7.46449 96.6844 8.08492C95.5945 8.70535 94.749 9.58144 94.1477 10.7099C93.5465 11.8401 93.2476 13.1363 93.2476 14.6002C93.2476 16.0658 93.5482 17.362 94.1477 18.4905C94.7473 19.6207 95.5929 20.4951 96.6844 21.1156C97.7743 21.736 99.0185 22.047 100.415 22.047C102.791 22.047 104.813 21.0293 106.48 18.9937L111.112 23.239C109.863 24.8284 108.294 26.0448 106.406 26.8883C104.519 27.7318 102.401 28.1536 100.047 28.1536C97.3515 28.1536 94.9306 27.5771 92.7878 26.4226Z" fill="#1A3154"/>
<path d="M112.933 26.3901C112.933 25.838 113.071 25.4472 113.347 25.2176C113.624 24.988 113.96 24.874 114.354 24.874C114.756 24.874 115.096 24.988 115.376 25.2176C115.656 25.4472 115.796 25.838 115.796 26.3901C115.796 26.9291 115.656 27.3215 115.376 27.5674C115.096 27.815 114.756 27.9387 114.354 27.9387C113.958 27.9387 113.624 27.815 113.347 27.5674C113.071 27.3199 112.933 26.9275 112.933 26.3901Z" fill="#1A3154"/>
<path d="M128.985 21.6008C128.985 22.5892 128.858 23.4718 128.603 24.247C128.349 25.0221 127.979 25.6751 127.494 26.2108C127.01 26.745 126.426 27.1521 125.745 27.4322C125.063 27.7123 124.291 27.8523 123.43 27.8523C122.626 27.8523 121.888 27.7123 121.216 27.4322C120.544 27.1521 119.966 26.745 119.477 26.2108C118.988 25.6767 118.612 25.0221 118.347 24.247C118.082 23.4718 117.948 22.5909 117.948 21.6008C117.948 20.285 118.17 19.163 118.615 18.2348C119.061 17.3083 119.697 16.6031 120.527 16.1179C121.356 15.6342 122.345 15.3916 123.494 15.3916C124.586 15.3916 125.544 15.6359 126.368 16.1228C127.193 16.6097 127.836 17.3148 128.296 18.2397C128.755 19.1647 128.985 20.285 128.985 21.6008ZM120.167 21.6008C120.167 22.5241 120.284 23.3188 120.517 23.9848C120.75 24.6508 121.109 25.1605 121.594 25.5171C122.078 25.8738 122.705 26.0513 123.473 26.0513C124.227 26.0513 124.848 25.8738 125.336 25.5171C125.825 25.1605 126.183 24.6492 126.413 23.9848C126.643 23.3188 126.757 22.5257 126.757 21.6008C126.757 20.684 126.643 19.8991 126.413 19.2445C126.183 18.5898 125.827 18.0883 125.341 17.7398C124.857 17.3913 124.227 17.2171 123.451 17.2171C122.316 17.2171 121.486 17.6014 120.957 18.3684C120.43 19.1337 120.167 20.2117 120.167 21.6008Z" fill="#1A3154"/>
<path d="M137.135 15.3931C137.351 15.3931 137.584 15.4061 137.835 15.4305C138.085 15.4566 138.301 15.4875 138.481 15.5233L138.254 17.5638C138.082 17.5198 137.883 17.484 137.656 17.4547C137.429 17.4253 137.221 17.4107 137.026 17.4107C136.566 17.4107 136.129 17.4986 135.713 17.6729C135.296 17.8471 134.93 18.0995 134.615 18.4317C134.298 18.7623 134.051 19.1661 133.872 19.6433C133.692 20.1188 133.604 20.6626 133.604 21.2733V27.6323H131.429V15.6113H133.173L133.432 17.782H133.528C133.772 17.3455 134.068 16.9466 134.417 16.5818C134.766 16.2187 135.168 15.9288 135.623 15.7139C136.078 15.5005 136.582 15.3931 137.135 15.3931Z" fill="#1A3154"/>
<path d="M143.496 32.9996C141.91 32.9996 140.691 32.7048 139.841 32.1154C138.99 31.5259 138.564 30.7051 138.564 29.6499C138.564 28.9008 138.798 28.2658 139.264 27.7463C139.73 27.2268 140.384 26.8751 141.223 26.6943C140.907 26.5494 140.637 26.3247 140.41 26.0234C140.183 25.7222 140.071 25.3818 140.071 25.004C140.071 24.5611 140.194 24.1768 140.442 23.8527C140.69 23.5287 141.061 23.2144 141.556 22.9099C140.932 22.6477 140.429 22.2129 140.048 21.6071C139.667 20.9997 139.478 20.2897 139.478 19.4739C139.478 18.6092 139.659 17.8699 140.021 17.2592C140.383 16.6486 140.905 16.1829 141.588 15.8637C142.27 15.5445 143.099 15.3833 144.075 15.3833C144.29 15.3833 144.512 15.3931 144.742 15.411C144.972 15.4289 145.191 15.4566 145.4 15.4924C145.608 15.5282 145.776 15.5657 145.906 15.6015H149.999V16.8994L147.89 17.2267C148.097 17.5035 148.266 17.8308 148.396 18.2086C148.524 18.5864 148.59 19.0017 148.59 19.4527C148.59 20.674 148.179 21.6397 147.357 22.3497C146.536 23.0597 145.4 23.4131 143.95 23.4131C143.612 23.4065 143.271 23.3772 142.927 23.3251C142.619 23.5075 142.385 23.7045 142.228 23.9195C142.07 24.1344 141.992 24.3787 141.992 24.6555C141.992 24.8672 142.062 25.0366 142.202 25.1685C142.342 25.2988 142.545 25.3965 142.81 25.4567C143.075 25.5186 143.398 25.5495 143.779 25.5495H145.846C147.139 25.5495 148.129 25.8264 148.819 26.3784C149.508 26.9305 149.852 27.7381 149.852 28.7999C149.852 30.145 149.307 31.1806 148.216 31.9085C147.121 32.6364 145.549 32.9996 143.496 32.9996ZM143.572 31.3956C144.498 31.3956 145.271 31.3011 145.893 31.1122C146.514 30.9233 146.983 30.6547 147.298 30.3045C147.613 29.9561 147.772 29.5408 147.772 29.0604C147.772 28.624 147.669 28.2918 147.465 28.0622C147.261 27.8326 146.957 27.6779 146.555 27.5981C146.153 27.5183 145.658 27.4776 145.07 27.4776H143.11C142.607 27.4776 142.17 27.5574 141.797 27.717C141.424 27.8766 141.133 28.1078 140.924 28.4091C140.715 28.7103 140.612 29.0832 140.612 29.5278C140.612 30.1319 140.87 30.5928 141.382 30.9136C141.894 31.236 142.625 31.3956 143.572 31.3956ZM144.046 21.9165C144.843 21.9165 145.438 21.7032 145.834 21.2782C146.229 20.8532 146.425 20.2441 146.425 19.4511C146.425 18.6011 146.224 17.9611 145.822 17.5312C145.42 17.1029 144.824 16.888 144.035 16.888C143.266 16.888 142.68 17.1078 142.275 17.5475C141.869 17.9872 141.665 18.6287 141.665 19.4723C141.665 20.2507 141.869 20.8515 142.279 21.2782C142.689 21.7048 143.278 21.9165 144.046 21.9165Z" fill="#1A3154"/>
<path d="M13.7056 0H5.771V24.8449H30.2965V16.807H13.7056V0Z" fill="#3D8AFF"/>
<path fill-rule="evenodd" clip-rule="evenodd" d="M5.7709 24.8449V0L0 7.30674V30.6909H21.6401L30.2964 24.8449H5.7709ZM27.9141 25.576H5.04914V2.08275L0.721764 7.56403V29.9614H21.4231L27.9141 25.576Z" fill="#3D8AFF"/>
<path d="M30.2982 0H18.0347V12.4232H30.2982V0Z" fill="#FF813A"/>
</svg>
