<?xml version="1.0" standalone="no"?>
<!DOCTYPE svg PUBLIC "-//W3C//DTD SVG 20010904//EN"
 "http://www.w3.org/TR/2001/REC-SVG-20010904/DTD/svg10.dtd">
<svg version="1.0" xmlns="http://www.w3.org/2000/svg"
 viewBox="0 0 5563.000000 1400.000000"
 preserveAspectRatio="xMidYMid meet">
   <style>
       path { fill: black; }
    </style>
<g transform="translate(0.000000,1400.000000) scale(0.100000,-0.100000)"
 stroke="none">
<path d="M6770 13354 c-239 -51 -430 -159 -636 -357 -273 -262 -496 -606 -703
-1083 -364 -842 -635 -2040 -746 -3304 -8 -96 -18 -198 -21 -227 l-5 -51 -182
-128 c-484 -338 -932 -692 -1372 -1083 -177 -157 -655 -636 -795 -796 -552
-634 -865 -1166 -972 -1656 -19 -89 -22 -133 -22 -299 0 -180 2 -203 27 -295
126 -468 517 -759 1157 -860 139 -22 586 -31 775 -16 299 24 614 73 941 147
200 44 535 132 679 178 l75 24 6 -27 c216 -911 484 -1601 817 -2101 468 -703
1058 -950 1623 -681 116 56 197 108 305 197 408 338 784 1024 1060 1932 70
234 65 318 -27 421 -59 65 -127 95 -219 94 -76 0 -116 -14 -182 -62 -56 -41
-85 -94 -127 -237 -183 -616 -420 -1136 -667 -1461 -84 -110 -244 -265 -325
-313 -137 -82 -285 -102 -415 -56 -403 142 -829 850 -1125 1866 -46 158 -154
582 -154 605 0 8 21 21 48 31 298 108 802 319 1160 485 118 55 217 99 220 99
3 0 69 -30 146 -66 1192 -564 2381 -937 3356 -1055 249 -31 758 -34 945 -6
610 89 988 345 1145 774 80 221 82 498 5 790 -74 280 -256 644 -487 973 -249
353 -610 766 -983 1122 l-140 133 128 120 c243 229 577 590 775 837 752 943
955 1731 588 2281 -338 508 -1118 685 -2246 511 -1340 -207 -3122 -925 -4745
-1912 -142 -87 -150 -90 -153 -68 -2 13 11 136 28 272 183 1477 557 2688 1026
3321 77 104 255 280 326 322 118 69 173 85 283 85 85 0 109 -3 163 -26 227
-94 430 -313 642 -692 144 -258 267 -550 391 -931 98 -302 99 -304 149 -359
124 -134 340 -118 452 33 35 48 58 117 58 172 0 85 -183 623 -318 934 -209
485 -431 828 -706 1092 -208 200 -402 309 -638 357 -95 20 -298 20 -388 0z
m4410 -3134 c243 -19 396 -53 545 -124 105 -50 206 -136 248 -214 87 -161 71
-402 -47 -692 -187 -457 -655 -1069 -1259 -1643 l-157 -150 -52 44 c-234 197
-667 527 -983 749 -332 234 -871 583 -951 616 -57 24 -175 16 -238 -16 -175
-89 -212 -338 -70 -471 22 -20 120 -87 219 -149 353 -221 808 -535 1135 -783
201 -153 480 -377 480 -385 -1 -10 -318 -261 -535 -424 -587 -439 -1243 -862
-1936 -1248 -481 -267 -1215 -623 -1684 -815 -224 -92 -468 -185 -473 -181
-13 14 -93 598 -127 928 -56 551 -75 904 -82 1531 -5 464 8 1146 23 1199 7 26
502 335 906 566 1481 849 3028 1444 4199 1616 327 48 606 63 839 46z m-6564
-2957 c-20 -902 57 -2027 200 -2906 20 -121 33 -221 31 -224 -9 -9 -301 -94
-492 -143 -352 -91 -664 -150 -980 -187 -211 -24 -638 -24 -790 0 -536 84
-741 303 -670 713 119 677 979 1725 2215 2695 114 90 483 368 489 369 2 0 1
-143 -3 -317z m6173 -926 c715 -710 1143 -1347 1227 -1827 68 -392 -130 -615
-626 -705 -127 -23 -513 -32 -703 -16 -780 66 -1741 336 -2801 788 -172 74
-245 109 -235 115 8 5 107 60 220 123 918 507 1807 1111 2608 1771 l26 22 30
-25 c16 -13 131 -124 254 -246z"/>
<path d="M6835 7745 c-296 -54 -520 -264 -602 -566 -24 -87 -23 -270 1 -358
96 -354 409 -585 766 -568 198 10 352 79 496 222 77 76 98 105 137 185 57 115
76 186 84 305 24 381 -258 724 -645 784 -88 14 -147 13 -237 -4z" style="fill:#2188ff"/>
<path d="M2667 10810 c-740 -67 -1187 -369 -1329 -898 -26 -97 -35 -330 -19
-456 62 -463 357 -1020 861 -1623 88 -107 110 -127 165 -154 152 -74 325 -15
396 135 51 107 36 224 -39 318 -20 25 -84 105 -142 176 -360 443 -588 864
-645 1188 -36 209 -2 356 112 475 137 144 360 221 718 249 322 26 807 -22
1280 -126 88 -19 191 -42 229 -50 84 -18 146 -8 224 36 119 69 172 220 122
352 -24 66 -69 121 -123 153 -92 53 -665 166 -1067 210 -171 19 -603 27 -743
15z"/>
<path d="M34665 10654 c-265 -27 -422 -55 -605 -111 -972 -294 -1631 -1120
-1835 -2300 -57 -332 -60 -382 -60 -1233 0 -852 4 -926 61 -1255 200 -1145
838 -1968 1763 -2274 286 -95 496 -125 866 -125 355 0 577 26 852 100 425 114
751 299 1044 593 203 204 331 388 450 651 117 255 215 618 244 903 l7 67 -301
0 -301 0 -4 -22 c-3 -13 -10 -57 -16 -98 -78 -511 -263 -924 -540 -1200 -328
-328 -777 -482 -1415 -484 -263 -1 -356 8 -547 55 -335 82 -600 237 -853 500
-323 336 -548 809 -645 1359 -51 293 -53 320 -57 1125 -5 794 -1 920 38 1190
52 360 133 632 274 920 121 248 263 445 448 621 283 270 599 423 1012 491 151
24 538 24 710 -1 404 -57 714 -190 967 -412 308 -271 524 -713 603 -1239 10
-60 19 -116 21 -122 3 -10 72 -13 305 -13 l301 0 -7 68 c-40 390 -174 817
-349 1117 -128 218 -329 456 -513 607 -332 271 -748 437 -1263 503 -118 16
-563 28 -655 19z"/>
<path d="M16740 7005 l0 -3555 300 0 300 0 0 3035 c0 1669 3 3035 8 3035 4 -1
923 -1365 2043 -3033 l2036 -3032 301 -3 302 -2 0 3555 0 3555 -295 0 -295 0
0 -3042 c-1 -2877 -2 -3042 -18 -3022 -9 11 -930 1380 -2047 3042 l-2030 3022
-302 0 -303 0 0 -3555z"/>
<path d="M24730 8078 c0 -1609 4 -2525 10 -2603 30 -345 103 -627 231 -894
194 -405 529 -740 950 -951 397 -200 868 -292 1404 -277 386 11 687 68 997
189 544 211 937 568 1178 1071 118 246 174 444 222 787 9 63 12 729 15 2623
l4 2537 -305 0 -306 0 -3 -2542 c-3 -2787 1 -2582 -59 -2843 -134 -579 -531
-1017 -1093 -1203 -236 -78 -433 -107 -745 -107 -394 0 -684 59 -962 194 -466
227 -773 626 -887 1154 -52 242 -51 161 -51 2849 l0 2498 -300 0 -300 0 0
-2482z"/>
<path d="M39910 7005 l0 -3555 2060 0 2060 0 0 255 0 255 -1760 0 -1760 0 0
3300 0 3300 -300 0 -300 0 0 -3555z"/>
<path d="M46180 7005 l0 -3555 2210 0 2210 0 0 255 0 255 -1910 0 -1910 0 0
1450 0 1450 1660 0 1660 0 0 255 0 255 -1660 0 -1660 0 0 1340 0 1340 1900 0
1900 0 0 255 0 255 -2200 0 -2200 0 0 -3555z"/>
<path d="M53000 7005 l0 -3555 300 0 300 0 0 3555 0 3555 -300 0 -300 0 0
-3555z"/>
</g>
</svg>
