<svg width="756" height="120" viewBox="0 0 756 120" fill="none" xmlns="http://www.w3.org/2000/svg">
<rect width="756" height="120" fill="white"/>
<g clip-path="url(#clip0_1945_42)">
<path d="M134.724 51.7143C126.103 60.2633 115.327 70.9496 102.498 83.6713L81.4593 104.535C74.5831 110.845 66.0648 114 56.0071 114C45.9493 114 37.431 110.845 30.5548 104.535L22.0366 96.0878L5 112.982V62.5023H55.9044L38.9705 79.3968L47.4888 87.8441C49.7466 89.9813 52.6203 90.9991 56.0071 90.9991C59.3938 90.9991 62.1649 89.9813 64.5253 87.8441L117.79 35.0233C116.764 30.9524 116.661 26.9832 117.688 22.9122C118.611 18.8413 120.767 15.2792 123.948 12.1242C128.874 7.3408 134.519 5 140.882 5C147.245 5 152.89 7.3408 157.816 12.1242C162.537 17.0093 165 22.6069 165 28.9169C165 35.2269 162.64 40.8245 157.816 45.7096C154.634 48.8646 151.042 50.9001 146.937 51.9178C142.832 52.8338 138.829 52.8338 134.724 51.7143ZM151.042 18.7395C148.169 15.9916 144.679 14.6685 140.882 14.6685C136.982 14.6685 133.595 16.0934 130.824 18.8413C127.951 21.6909 126.616 24.9477 126.616 28.8151C126.616 32.6825 128.053 36.0411 130.824 38.789C133.698 41.6387 136.982 42.9617 140.882 42.9617C144.782 42.9617 148.169 41.5369 150.94 38.789C153.813 35.9393 155.148 32.6825 155.148 28.8151C155.148 25.0495 153.711 21.6909 151.042 18.7395Z" fill="#333333"/>
</g>
<path d="M727.304 96.0227C722.054 96.0227 717.52 94.9317 713.702 92.7499C709.906 90.5454 706.986 87.4317 704.94 83.409C702.895 79.3636 701.872 74.6022 701.872 69.1249C701.872 63.7386 702.895 59.0113 704.94 54.9431C707.009 50.8522 709.895 47.6704 713.599 45.3976C717.304 43.1022 721.656 41.9545 726.656 41.9545C729.884 41.9545 732.929 42.4772 735.793 43.5226C738.679 44.5454 741.224 46.1363 743.429 48.2954C745.656 50.4545 747.406 53.2045 748.679 56.5454C749.952 59.8636 750.588 63.8181 750.588 68.409V72.1931H707.668V63.8749H738.759C738.736 61.5113 738.224 59.409 737.224 57.5681C736.224 55.7045 734.827 54.2386 733.031 53.1704C731.259 52.1022 729.19 51.5681 726.827 51.5681C724.304 51.5681 722.088 52.1817 720.179 53.409C718.27 54.6136 716.781 56.2045 715.713 58.1817C714.668 60.1363 714.134 62.284 714.111 64.6249V71.8863C714.111 74.9317 714.668 77.5454 715.781 79.7272C716.895 81.8863 718.452 83.5454 720.452 84.7045C722.452 85.8408 724.793 86.409 727.474 86.409C729.27 86.409 730.895 86.159 732.349 85.659C733.804 85.1363 735.065 84.3749 736.134 83.3749C737.202 82.3749 738.009 81.1363 738.554 79.659L750.077 80.9545C749.349 83.9999 747.963 86.659 745.918 88.9317C743.895 91.1817 741.304 92.9317 738.145 94.1817C734.986 95.409 731.372 96.0227 727.304 96.0227Z" fill="#333333"/>
<path d="M697.364 42.6364L678.716 95H665.08L646.432 42.6364H659.591L671.625 81.5341H672.17L684.239 42.6364H697.364Z" fill="#333333"/>
<path d="M616.807 96.0227C611.693 96.0227 607.261 94.8977 603.511 92.6477C599.761 90.3977 596.852 87.2499 594.784 83.2045C592.739 79.159 591.716 74.4317 591.716 69.0227C591.716 63.6136 592.739 58.8749 594.784 54.8067C596.852 50.7386 599.761 47.5795 603.511 45.3295C607.261 43.0795 611.693 41.9545 616.807 41.9545C621.92 41.9545 626.352 43.0795 630.102 45.3295C633.852 47.5795 636.75 50.7386 638.795 54.8067C640.864 58.8749 641.898 63.6136 641.898 69.0227C641.898 74.4317 640.864 79.159 638.795 83.2045C636.75 87.2499 633.852 90.3977 630.102 92.6477C626.352 94.8977 621.92 96.0227 616.807 96.0227ZM616.875 86.1363C619.648 86.1363 621.966 85.3749 623.83 83.8522C625.693 82.3067 627.08 80.2386 627.989 77.6477C628.92 75.0567 629.386 72.1704 629.386 68.9886C629.386 65.784 628.92 62.8863 627.989 60.2954C627.08 57.6817 625.693 55.6022 623.83 54.0567C621.966 52.5113 619.648 51.7386 616.875 51.7386C614.034 51.7386 611.67 52.5113 609.784 54.0567C607.92 55.6022 606.523 57.6817 605.591 60.2954C604.682 62.8863 604.227 65.784 604.227 68.9886C604.227 72.1704 604.682 75.0567 605.591 77.6477C606.523 80.2386 607.92 82.3067 609.784 83.8522C611.67 85.3749 614.034 86.1363 616.875 86.1363Z" fill="#333333"/>
<path d="M558.06 95V42.6364H570.026V51.3636H570.571C571.526 48.3409 573.162 46.0114 575.48 44.375C577.821 42.7159 580.492 41.8864 583.492 41.8864C584.173 41.8864 584.935 41.9204 585.776 41.9886C586.639 42.0341 587.355 42.1136 587.923 42.2273V53.5795C587.401 53.3977 586.571 53.2386 585.435 53.1023C584.321 52.9432 583.242 52.8636 582.196 52.8636C579.946 52.8636 577.923 53.3523 576.128 54.3295C574.355 55.2841 572.957 56.6136 571.935 58.3182C570.912 60.0227 570.401 61.9886 570.401 64.2159V95H558.06Z" fill="#333333"/>
<path d="M498.06 114.636V42.6363H510.196V51.2954H510.912C511.548 50.0227 512.446 48.6704 513.605 47.2386C514.764 45.784 516.332 44.5454 518.31 43.5226C520.287 42.4772 522.81 41.9545 525.878 41.9545C529.923 41.9545 533.571 42.9886 536.821 45.0567C540.094 47.1022 542.685 50.1363 544.594 54.159C546.526 58.159 547.491 63.0681 547.491 68.8863C547.491 74.6363 546.548 79.5227 544.662 83.5454C542.776 87.5681 540.207 90.6363 536.957 92.7499C533.707 94.8636 530.026 95.9204 525.912 95.9204C522.912 95.9204 520.423 95.4204 518.446 94.4204C516.469 93.4204 514.878 92.2158 513.673 90.8067C512.491 89.3749 511.571 88.0227 510.912 86.7499H510.401V114.636H498.06ZM510.162 68.8181C510.162 72.2045 510.639 75.1704 511.594 77.7158C512.571 80.2613 513.969 82.2499 515.787 83.6817C517.628 85.0908 519.855 85.7954 522.469 85.7954C525.196 85.7954 527.48 85.0681 529.321 83.6136C531.162 82.1363 532.548 80.1249 533.48 77.5795C534.435 75.0113 534.912 72.0908 534.912 68.8181C534.912 65.5681 534.446 62.6817 533.514 60.159C532.582 57.6363 531.196 55.659 529.355 54.2272C527.514 52.7954 525.219 52.0795 522.469 52.0795C519.832 52.0795 517.594 52.7726 515.753 54.159C513.912 55.5454 512.514 57.4886 511.56 59.9886C510.628 62.4886 510.162 65.4317 510.162 68.8181Z" fill="#333333"/>
<path d="M438.06 114.636V42.6363H450.196V51.2954H450.912C451.548 50.0227 452.446 48.6704 453.605 47.2386C454.764 45.784 456.332 44.5454 458.31 43.5226C460.287 42.4772 462.81 41.9545 465.878 41.9545C469.923 41.9545 473.571 42.9886 476.821 45.0567C480.094 47.1022 482.685 50.1363 484.594 54.159C486.526 58.159 487.491 63.0681 487.491 68.8863C487.491 74.6363 486.548 79.5227 484.662 83.5454C482.776 87.5681 480.207 90.6363 476.957 92.7499C473.707 94.8636 470.026 95.9204 465.912 95.9204C462.912 95.9204 460.423 95.4204 458.446 94.4204C456.469 93.4204 454.878 92.2158 453.673 90.8067C452.491 89.3749 451.571 88.0227 450.912 86.7499H450.401V114.636H438.06ZM450.162 68.8181C450.162 72.2045 450.639 75.1704 451.594 77.7158C452.571 80.2613 453.969 82.2499 455.787 83.6817C457.628 85.0908 459.855 85.7954 462.469 85.7954C465.196 85.7954 467.48 85.0681 469.321 83.6136C471.162 82.1363 472.548 80.1249 473.48 77.5795C474.435 75.0113 474.912 72.0908 474.912 68.8181C474.912 65.5681 474.446 62.6817 473.514 60.159C472.582 57.6363 471.196 55.659 469.355 54.2272C467.514 52.7954 465.219 52.0795 462.469 52.0795C459.832 52.0795 457.594 52.7726 455.753 54.159C453.912 55.5454 452.514 57.4886 451.56 59.9886C450.628 62.4886 450.162 65.4317 450.162 68.8181Z" fill="#333333"/>
<path d="M378.102 94.9999H364.602L389.182 25.1818H404.795L429.409 94.9999H415.909L397.261 39.4999H396.716L378.102 94.9999ZM378.545 67.6249H415.364V77.784H378.545V67.6249Z" fill="#333333"/>
<path d="M355.901 25.1818V94.9999H343.56V25.1818H355.901Z" fill="#333333"/>
<path d="M330.869 25.1818V94.9999H318.528V25.1818H330.869Z" fill="#333333"/>
<path d="M293.497 72.9773V42.6364H305.838V95H293.872V85.6932H293.327C292.145 88.625 290.202 91.0227 287.497 92.8864C284.815 94.75 281.508 95.6818 277.577 95.6818C274.145 95.6818 271.111 94.9204 268.474 93.3977C265.861 91.8523 263.815 89.6136 262.338 86.6818C260.861 83.7273 260.122 80.1591 260.122 75.9773V42.6364H272.463V74.0682C272.463 77.3864 273.372 80.0227 275.19 81.9773C277.008 83.9318 279.395 84.9091 282.349 84.9091C284.168 84.9091 285.929 84.4659 287.633 83.5795C289.338 82.6932 290.736 81.375 291.827 79.625C292.94 77.8523 293.497 75.6364 293.497 72.9773Z" fill="#333333"/>
<path d="M198.886 94.9999V25.1818H225.068C230.432 25.1818 234.932 26.1818 238.568 28.1818C242.227 30.1818 244.989 32.9318 246.852 36.4318C248.739 39.909 249.682 43.8636 249.682 48.2954C249.682 52.7727 248.739 56.7499 246.852 60.2272C244.966 63.7045 242.182 66.4431 238.5 68.4431C234.818 70.4204 230.284 71.409 224.898 71.409H207.545V61.0113H223.193C226.33 61.0113 228.898 60.4659 230.898 59.3749C232.898 58.284 234.375 56.784 235.33 54.8749C236.307 52.9659 236.795 50.7727 236.795 48.2954C236.795 45.8181 236.307 43.6363 235.33 41.7499C234.375 39.8636 232.886 38.3977 230.864 37.3522C228.864 36.284 226.284 35.7499 223.125 35.7499H211.534V94.9999H198.886Z" fill="#333333"/>
<defs>
<clipPath id="clip0_1945_42">
<rect width="160" height="109" fill="white" transform="translate(5 5)"/>
</clipPath>
</defs>
</svg>
