<svg xmlns:dc="http://purl.org/dc/elements/1.1/" xmlns:cc="http://creativecommons.org/ns#" xmlns:rdf="http://www.w3.org/1999/02/22-rdf-syntax-ns#" xmlns:svg="http://www.w3.org/2000/svg" xmlns="http://www.w3.org/2000/svg" xmlns:sodipodi="http://sodipodi.sourceforge.net/DTD/sodipodi-0.dtd" xmlns:inkscape="http://www.inkscape.org/namespaces/inkscape" preserveAspectRatio="xMidYMin meet" viewBox="-21 35 697 334"><g style="stroke-width: 42px; stroke: rgb(255, 255, 255); stroke-linejoin: round;"><rect x="0" y="98" width="190" height="60" shape-rendering="geometricPrecision" style="fill: rgb(230, 0, 141);"></rect><rect x="28" y="56" width="14" height="14" shape-rendering="geometricPrecision" style="fill: rgb(230, 0, 141);"></rect><rect x="0" y="70" width="14" height="14" shape-rendering="geometricPrecision" style="fill: rgb(230, 0, 141);"></rect><rect x="28" y="70" width="14" height="14" shape-rendering="geometricPrecision" style="fill: rgb(230, 0, 141);"></rect><rect x="42" y="70" width="14" height="14" shape-rendering="geometricPrecision" style="fill: rgb(230, 0, 141);"></rect><rect x="70" y="70" width="14" height="14" shape-rendering="geometricPrecision" style="fill: rgb(230, 0, 141);"></rect><rect x="0" y="84" width="14" height="14" shape-rendering="geometricPrecision" style="fill: rgb(230, 0, 141);"></rect><rect x="14" y="84" width="14" height="14" shape-rendering="geometricPrecision" style="fill: rgb(230, 0, 141);"></rect><rect x="28" y="84" width="14" height="14" shape-rendering="geometricPrecision" style="fill: rgb(230, 0, 141);"></rect><rect x="42" y="84" width="14" height="14" shape-rendering="geometricPrecision" style="fill: rgb(230, 0, 141);"></rect><rect x="70" y="84" width="14" height="14" shape-rendering="geometricPrecision" style="fill: rgb(230, 0, 141);"></rect><rect x="98" y="84" width="14" height="14" shape-rendering="geometricPrecision" style="fill: rgb(230, 0, 141);"></rect><rect x="0" y="172" width="190" height="60" shape-rendering="geometricPrecision" style="fill: rgb(141, 32, 137);"></rect><rect x="0" y="246" width="190" height="60" shape-rendering="geometricPrecision" style="fill: rgb(95, 38, 136);"></rect><rect x="148" y="334" width="14" height="14" shape-rendering="geometricPrecision" style="fill: rgb(95, 38, 136);"></rect><rect x="176" y="320" width="14" height="14" shape-rendering="geometricPrecision" style="fill: rgb(95, 38, 136);"></rect><rect x="148" y="320" width="14" height="14" shape-rendering="geometricPrecision" style="fill: rgb(95, 38, 136);"></rect><rect x="134" y="320" width="14" height="14" shape-rendering="geometricPrecision" style="fill: rgb(95, 38, 136);"></rect><rect x="106" y="320" width="14" height="14" shape-rendering="geometricPrecision" style="fill: rgb(95, 38, 136);"></rect><rect x="176" y="306" width="14" height="14" shape-rendering="geometricPrecision" style="fill: rgb(95, 38, 136);"></rect><rect x="162" y="306" width="14" height="14" shape-rendering="geometricPrecision" style="fill: rgb(95, 38, 136);"></rect><rect x="148" y="306" width="14" height="14" shape-rendering="geometricPrecision" style="fill: rgb(95, 38, 136);"></rect><rect x="134" y="306" width="14" height="14" shape-rendering="geometricPrecision" style="fill: rgb(95, 38, 136);"></rect><rect x="106" y="306" width="14" height="14" shape-rendering="geometricPrecision" style="fill: rgb(95, 38, 136);"></rect><rect x="78" y="306" width="14" height="14" shape-rendering="geometricPrecision" style="fill: rgb(95, 38, 136);"></rect><path d="M209.19400 158L209.19400 97.97920L240.41600 97.97920Q251.04080 97.97920 256.44640 103.75760Q261.85200 109.53600 261.85200 119.32200L261.85200 119.32200Q261.85200 125.28680 258.86960 129.90020Q255.88720 134.51360 250.76120 137.03000L250.76120 137.03000Q251.78640 137.86880 252.53200 138.98720Q253.27760 140.10560 254.20960 142.24920L254.20960 142.24920L261.10640 158L242.83920 158L236.50160 143.55400Q235.75600 141.87640 234.68420 141.17740Q233.61240 140.47840 231.65520 140.47840L231.65520 140.47840L226.71560 140.47840L226.71560 158L209.19400 158ZM226.71560 127.05760L235.94240 127.05760Q239.76360 127.05760 241.86060 125.05380Q243.95760 123.05000 243.95760 119.32200L243.95760 119.32200Q243.95760 111.40000 236.50160 111.40000L236.50160 111.40000L226.71560 111.40000L226.71560 127.05760Z" shape-rendering="geometricPrecision" style="fill: rgb(230, 0, 141);"></path><path d="M262.31800 158L279.37360 135.53880L262.97040 113.82320L281.98320 113.82320L288.88000 123.14320L295.87000 113.82320L314.78960 113.82320L298.47960 135.53880L315.53520 158L296.33600 158L288.88000 148.12080L281.42400 158L262.31800 158Z" shape-rendering="geometricPrecision" style="fill: rgb(230, 0, 141);"></path><path d="M317.86520 158L317.86520 97.97920L344.70680 97.97920Q359.05960 97.97920 366.46900 105.20220Q373.87840 112.42520 373.87840 128.36240L373.87840 128.36240Q373.87840 143.55400 366.46900 150.77700Q359.05960 158 344.70680 158L344.70680 158L317.86520 158ZM335.38680 144.57920L342.47000 144.57920Q347.13000 144.57920 350.01920 143.22780Q352.90840 141.87640 354.44620 138.38140Q355.98400 134.88640 355.98400 128.36240L355.98400 128.36240Q355.98400 121.74520 354.58600 118.06380Q353.18800 114.38240 350.25220 112.89120Q347.31640 111.40000 342.47000 111.40000L342.47000 111.40000L335.38680 111.40000L335.38680 144.57920Z" shape-rendering="geometricPrecision" style="fill: rgb(230, 0, 141);"></path><path d="M380.40240 158L380.40240 97.97920L413.39520 97.97920Q422.43560 97.97920 427.23540 102.26640Q432.03520 106.55360 432.03520 114.56880L432.03520 114.56880Q432.03520 119.04240 430.35760 122.30440Q428.68000 125.56640 425.79080 127.43040L425.79080 127.43040Q429.98480 129.10800 432.08180 131.99720Q434.17880 134.88640 434.17880 140.19880L434.17880 140.19880Q434.17880 148.68000 428.95960 153.34000Q423.74040 158 414.14080 158L414.14080 158L380.40240 158ZM397.27160 121.93160L408.64200 121.93160Q415.07280 121.93160 415.07280 116.15320L415.07280 116.15320Q415.07280 113.17080 413.44180 111.72620Q411.81080 110.28160 408.17600 110.28160L408.17600 110.28160L397.27160 110.28160L397.27160 121.93160ZM397.27160 145.79080L409.38760 145.79080Q412.92920 145.79080 414.60680 144.29960Q416.28440 142.80840 416.28440 139.36000L416.28440 139.36000Q416.28440 136.37760 414.56020 134.93300Q412.83600 133.48840 409.01480 133.48840L409.01480 133.48840L397.27160 133.48840L397.27160 145.79080Z" shape-rendering="geometricPrecision" style="fill: rgb(230, 0, 141);"></path><path d="M219.72560 232.93200Q211.61720 232.93200 205.46600 230.78840L205.46600 230.78840L205.46600 216.24920Q210.03280 218.11320 216.09080 218.11320L216.09080 218.11320Q221.12360 218.11320 223.26720 216.06280Q225.41080 214.01240 225.41080 209.25920L225.41080 209.25920L225.41080 171.97920L242.93240 171.97920L242.93240 212.05520Q242.93240 221.93440 236.92100 227.43320Q230.90960 232.93200 219.72560 232.93200L219.72560 232.93200Z" shape-rendering="geometricPrecision" style="fill: rgb(141, 32, 137);"></path><path d="M264.64800 232.93200Q257.84440 232.93200 253.41740 229.34380Q248.99040 225.75560 248.99040 218.76560L248.99040 218.76560Q248.99040 211.68240 253.69700 207.86120Q258.40360 204.04000 267.72360 204.04000L267.72360 204.04000L279.18720 204.04000L279.18720 203.20120Q279.18720 200.59160 276.99700 199.38000Q274.80680 198.16840 269.49440 198.16840L269.49440 198.16840Q261.85200 198.16840 254.39600 200.49840L254.39600 200.49840L254.39600 189.96680Q257.84440 188.56880 262.87720 187.73000Q267.91000 186.89120 273.03600 186.89120L273.03600 186.89120Q283.84720 186.89120 289.85860 191.31820Q295.87000 195.74520 295.87000 204.78560L295.87000 204.78560L295.87000 232L280.58520 232L279.74640 228.45840Q274.71360 232.93200 264.64800 232.93200L264.64800 232.93200ZM270.61280 222.68000Q275.92520 222.68000 279.18720 219.13840L279.18720 219.13840L279.18720 213.63960L270.70600 213.63960Q267.72360 213.63960 266.32560 214.75800Q264.92760 215.87640 264.92760 218.20640L264.92760 218.20640Q264.92760 222.68000 270.61280 222.68000L270.61280 222.68000Z" shape-rendering="geometricPrecision" style="fill: rgb(141, 32, 137);"></path><path d="M315.16240 232L297.73400 187.82320L316.00120 187.82320L324.38920 213.73280L332.77720 187.82320L351.04440 187.82320L333.61600 232L315.16240 232Z" shape-rendering="geometricPrecision" style="fill: rgb(141, 32, 137);"></path><path d="M365.77000 232.93200Q358.96640 232.93200 354.53940 229.34380Q350.11240 225.75560 350.11240 218.76560L350.11240 218.76560Q350.11240 211.68240 354.81900 207.86120Q359.52560 204.04000 368.84560 204.04000L368.84560 204.04000L380.30920 204.04000L380.30920 203.20120Q380.30920 200.59160 378.11900 199.38000Q375.92880 198.16840 370.61640 198.16840L370.61640 198.16840Q362.97400 198.16840 355.51800 200.49840L355.51800 200.49840L355.51800 189.96680Q358.96640 188.56880 363.99920 187.73000Q369.03200 186.89120 374.15800 186.89120L374.15800 186.89120Q384.96920 186.89120 390.98060 191.31820Q396.99200 195.74520 396.99200 204.78560L396.99200 204.78560L396.99200 232L381.70720 232L380.86840 228.45840Q375.83560 232.93200 365.77000 232.93200L365.77000 232.93200ZM371.73480 222.68000Q377.04720 222.68000 380.30920 219.13840L380.30920 219.13840L380.30920 213.63960L371.82800 213.63960Q368.84560 213.63960 367.44760 214.75800Q366.04960 215.87640 366.04960 218.20640L366.04960 218.20640Q366.04960 222.68000 371.73480 222.68000L371.73480 222.68000Z" shape-rendering="geometricPrecision" style="fill: rgb(141, 32, 137);"></path><path d="M424.57920 232.93200Q418.42800 232.93200 413.02240 231.95340Q407.61680 230.97480 403.88880 229.20400L403.88880 229.20400L403.88880 214.75800Q408.17600 216.71520 413.30200 217.92680Q418.42800 219.13840 422.80840 219.13840L422.80840 219.13840Q427.84120 219.13840 430.03140 218.25300Q432.22160 217.36760 432.22160 214.75800L432.22160 214.75800Q432.22160 213.08040 431.14980 212.00860Q430.07800 210.93680 428.02760 210.14460Q425.97720 209.35240 421.50360 207.95440L421.50360 207.95440Q420.01240 207.58160 419.26680 207.30200L419.26680 207.30200Q413.11560 205.34480 409.62060 203.01480Q406.12560 200.68480 404.58780 197.37620Q403.05000 194.06760 403.05000 189.12800L403.05000 189.12800Q403.05000 180.27400 409.38760 175.66060Q415.72520 171.04720 428.02760 171.04720L428.02760 171.04720Q432.78080 171.04720 438.04660 171.83940Q443.31240 172.63160 446.76080 173.75000L446.76080 173.75000L446.76080 188.28920Q438.55920 185.02720 430.82360 185.02720L430.82360 185.02720Q425.88400 185.02720 423.41420 185.77280Q420.94440 186.51840 420.94440 189.03480L420.94440 189.03480Q420.94440 190.61920 421.96960 191.55120Q422.99480 192.48320 425.09180 193.18220Q427.18880 193.88120 432.22160 195.18600L432.22160 195.18600Q439.39800 197.14320 443.26580 199.89260Q447.13360 202.64200 448.62480 206.18360Q450.11600 209.72520 450.11600 214.75800L450.11600 214.75800Q450.11600 223.14600 443.63860 228.03900Q437.16120 232.93200 424.57920 232.93200L424.57920 232.93200Z" shape-rendering="geometricPrecision" style="fill: rgb(141, 32, 137);"></path><path d="M479.38080 232.93200Q467.07840 232.93200 460.22820 227.10700Q453.37800 221.28200 453.37800 209.91160L453.37800 209.91160Q453.37800 198.54120 460.36800 192.71620Q467.35800 186.89120 479.47400 186.89120L479.47400 186.89120Q484.50680 186.89120 488.37460 187.59020Q492.24240 188.28920 495.78400 189.96680L495.78400 189.96680L495.78400 202.26920Q490.28520 199.65960 483.29520 199.65960L483.29520 199.65960Q477.14400 199.65960 474.20820 201.98960Q471.27240 204.31960 471.27240 209.91160L471.27240 209.91160Q471.27240 215.31720 474.16160 217.74040Q477.05080 220.16360 483.29520 220.16360L483.29520 220.16360Q489.91240 220.16360 495.87720 217.08800L495.87720 217.08800L495.87720 229.94960Q489.26000 232.93200 479.38080 232.93200L479.38080 232.93200Z" shape-rendering="geometricPrecision" style="fill: rgb(141, 32, 137);"></path><path d="M502.40120 232L502.40120 187.82320L519.27040 187.82320L519.73640 191.36480Q522.62560 189.68720 526.77300 188.42900Q530.92040 187.17080 535.11440 186.89120L535.11440 186.89120L535.11440 199.93920Q531.20000 200.21880 526.81960 201.15080Q522.43920 202.08280 519.92280 203.29440L519.92280 203.29440L519.92280 232L502.40120 232Z" shape-rendering="geometricPrecision" style="fill: rgb(141, 32, 137);"></path><path d="M544.80720 181.95160L544.80720 169.27640L563.72680 169.27640L563.72680 181.95160L544.80720 181.95160ZM546.20520 232L546.20520 200.59160L539.77440 200.59160L541.26560 187.82320L563.72680 187.82320L563.72680 232L546.20520 232Z" shape-rendering="geometricPrecision" style="fill: rgb(141, 32, 137);"></path><path d="M572.11480 252.13120L572.11480 187.82320L587.30640 187.82320L588.14520 191.36480Q590.94120 189.12800 594.15660 188.00960Q597.37200 186.89120 601.56600 186.89120L601.56600 186.89120Q611.72480 186.89120 616.94400 192.06380Q622.16320 197.23640 622.16320 208.79320L622.16320 208.79320Q622.16320 220.53640 616.52460 226.73420Q610.88600 232.93200 600.82040 232.93200L600.82040 232.93200Q597.65160 232.93200 594.71580 232.27960Q591.78000 231.62720 589.63640 230.41560L589.63640 230.41560L589.63640 252.13120L572.11480 252.13120ZM596.34680 220.16360Q604.26880 220.16360 604.26880 209.07280L604.26880 209.07280Q604.26880 203.76040 602.45140 201.71000Q600.63400 199.65960 596.53320 199.65960L596.53320 199.65960Q594.48280 199.65960 592.85180 200.31200Q591.22080 200.96440 589.63640 202.26920L589.63640 202.26920L589.63640 217.92680Q591.22080 219.13840 592.71200 219.65100Q594.20320 220.16360 596.34680 220.16360L596.34680 220.16360Z" shape-rendering="geometricPrecision" style="fill: rgb(141, 32, 137);"></path><path d="M644.34480 232.93200Q635.67720 232.93200 631.57640 228.59820Q627.47560 224.26440 627.47560 216.34240L627.47560 216.34240L627.47560 200.77800L621.69720 200.77800L621.69720 187.82320L627.47560 187.82320L627.47560 178.78280L644.99720 174.58880L644.99720 187.82320L655.15600 187.82320L654.50360 200.77800L644.99720 200.77800L644.99720 215.03760Q644.99720 217.83360 646.34860 218.99860Q647.70000 220.16360 650.68240 220.16360L650.68240 220.16360Q653.38520 220.16360 656.18120 219.23160L656.18120 219.23160L656.18120 230.88160Q651.24160 232.93200 644.34480 232.93200L644.34480 232.93200Z" shape-rendering="geometricPrecision" style="fill: rgb(141, 32, 137);"></path><path d="M209.19400 306L209.19400 245.97920L236.03560 245.97920Q250.38840 245.97920 257.79780 253.20220Q265.20720 260.42520 265.20720 276.36240L265.20720 276.36240Q265.20720 291.55400 257.79780 298.77700Q250.38840 306 236.03560 306L236.03560 306L209.19400 306ZM226.71560 292.57920L233.79880 292.57920Q238.45880 292.57920 241.34800 291.22780Q244.23720 289.87640 245.77500 286.38140Q247.31280 282.88640 247.31280 276.36240L247.31280 276.36240Q247.31280 269.74520 245.91480 266.06380Q244.51680 262.38240 241.58100 260.89120Q238.64520 259.40000 233.79880 259.40000L233.79880 259.40000L226.71560 259.40000L226.71560 292.57920Z" shape-rendering="geometricPrecision" style="fill: rgb(95, 38, 136);"></path><path d="M282.72880 306.93200Q275.92520 306.93200 271.49820 303.34380Q267.07120 299.75560 267.07120 292.76560L267.07120 292.76560Q267.07120 285.68240 271.77780 281.86120Q276.48440 278.04000 285.80440 278.04000L285.80440 278.04000L297.26800 278.04000L297.26800 277.20120Q297.26800 274.59160 295.07780 273.38000Q292.88760 272.16840 287.57520 272.16840L287.57520 272.16840Q279.93280 272.16840 272.47680 274.49840L272.47680 274.49840L272.47680 263.96680Q275.92520 262.56880 280.95800 261.73000Q285.99080 260.89120 291.11680 260.89120L291.11680 260.89120Q301.92800 260.89120 307.93940 265.31820Q313.95080 269.74520 313.95080 278.78560L313.95080 278.78560L313.95080 306L298.66600 306L297.82720 302.45840Q292.79440 306.93200 282.72880 306.93200L282.72880 306.93200ZM288.69360 296.68000Q294.00600 296.68000 297.26800 293.13840L297.26800 293.13840L297.26800 287.63960L288.78680 287.63960Q285.80440 287.63960 284.40640 288.75800Q283.00840 289.87640 283.00840 292.20640L283.00840 292.20640Q283.00840 296.68000 288.69360 296.68000L288.69360 296.68000Z" shape-rendering="geometricPrecision" style="fill: rgb(95, 38, 136);"></path><path d="M340.79240 306.93200Q332.12480 306.93200 328.02400 302.59820Q323.92320 298.26440 323.92320 290.34240L323.92320 290.34240L323.92320 274.77800L318.14480 274.77800L318.14480 261.82320L323.92320 261.82320L323.92320 252.78280L341.44480 248.58880L341.44480 261.82320L351.60360 261.82320L350.95120 274.77800L341.44480 274.77800L341.44480 289.03760Q341.44480 291.83360 342.79620 292.99860Q344.14760 294.16360 347.13000 294.16360L347.13000 294.16360Q349.83280 294.16360 352.62880 293.23160L352.62880 293.23160L352.62880 304.88160Q347.68920 306.93200 340.79240 306.93200L340.79240 306.93200Z" shape-rendering="geometricPrecision" style="fill: rgb(95, 38, 136);"></path><path d="M367.82040 306.93200Q361.01680 306.93200 356.58980 303.34380Q352.16280 299.75560 352.16280 292.76560L352.16280 292.76560Q352.16280 285.68240 356.86940 281.86120Q361.57600 278.04000 370.89600 278.04000L370.89600 278.04000L382.35960 278.04000L382.35960 277.20120Q382.35960 274.59160 380.16940 273.38000Q377.97920 272.16840 372.66680 272.16840L372.66680 272.16840Q365.02440 272.16840 357.56840 274.49840L357.56840 274.49840L357.56840 263.96680Q361.01680 262.56880 366.04960 261.73000Q371.08240 260.89120 376.20840 260.89120L376.20840 260.89120Q387.01960 260.89120 393.03100 265.31820Q399.04240 269.74520 399.04240 278.78560L399.04240 278.78560L399.04240 306L383.75760 306L382.91880 302.45840Q377.88600 306.93200 367.82040 306.93200L367.82040 306.93200ZM373.78520 296.68000Q379.09760 296.68000 382.35960 293.13840L382.35960 293.13840L382.35960 287.63960L373.87840 287.63960Q370.89600 287.63960 369.49800 288.75800Q368.10000 289.87640 368.10000 292.20640L368.10000 292.20640Q368.10000 296.68000 373.78520 296.68000L373.78520 296.68000Z" shape-rendering="geometricPrecision" style="fill: rgb(95, 38, 136);"></path><path d="M436.41560 306.93200Q432.22160 306.93200 429.00620 305.81360Q425.79080 304.69520 422.99480 302.55160L422.99480 302.55160L422.15600 306L406.96440 306L406.96440 243.18320L424.48600 243.18320L424.48600 263.40760Q426.72280 262.19600 429.75180 261.54360Q432.78080 260.89120 435.85640 260.89120L435.85640 260.89120Q457.01280 260.89120 457.01280 283.53880L457.01280 283.53880Q457.01280 295.09560 451.51400 301.01380Q446.01520 306.93200 436.41560 306.93200L436.41560 306.93200ZM431.38280 294.25680Q435.48360 294.25680 437.30100 291.78700Q439.11840 289.31720 439.11840 283.72520L439.11840 283.72520Q439.11840 278.22640 437.25440 275.89640Q435.39040 273.56640 431.38280 273.56640L431.38280 273.56640Q427.09560 273.56640 424.48600 275.89640L424.48600 275.89640L424.48600 291.55400Q427.37520 294.25680 431.38280 294.25680L431.38280 294.25680Z" shape-rendering="geometricPrecision" style="fill: rgb(95, 38, 136);"></path><path d="M475.00040 306.93200Q468.19680 306.93200 463.76980 303.34380Q459.34280 299.75560 459.34280 292.76560L459.34280 292.76560Q459.34280 285.68240 464.04940 281.86120Q468.75600 278.04000 478.07600 278.04000L478.07600 278.04000L489.53960 278.04000L489.53960 277.20120Q489.53960 274.59160 487.34940 273.38000Q485.15920 272.16840 479.84680 272.16840L479.84680 272.16840Q472.20440 272.16840 464.74840 274.49840L464.74840 274.49840L464.74840 263.96680Q468.19680 262.56880 473.22960 261.73000Q478.26240 260.89120 483.38840 260.89120L483.38840 260.89120Q494.19960 260.89120 500.21100 265.31820Q506.22240 269.74520 506.22240 278.78560L506.22240 278.78560L506.22240 306L490.93760 306L490.09880 302.45840Q485.06600 306.93200 475.00040 306.93200L475.00040 306.93200ZM480.96520 296.68000Q486.27760 296.68000 489.53960 293.13840L489.53960 293.13840L489.53960 287.63960L481.05840 287.63960Q478.07600 287.63960 476.67800 288.75800Q475.28000 289.87640 475.28000 292.20640L475.28000 292.20640Q475.28000 296.68000 480.96520 296.68000L480.96520 296.68000Z" shape-rendering="geometricPrecision" style="fill: rgb(95, 38, 136);"></path><path d="M531.38640 306.93200Q525.88760 306.93200 520.85480 306.13980Q515.82200 305.34760 512.83960 304.13600L512.83960 304.13600L512.83960 291.55400Q515.91520 293.04520 520.38880 293.88400Q524.86240 294.72280 528.31080 294.72280L528.31080 294.72280Q532.41160 294.72280 533.76300 294.48980Q535.11440 294.25680 535.11440 292.95200L535.11440 292.95200Q535.11440 291.83360 533.66980 291.18120Q532.22520 290.52880 528.96320 289.59680L528.96320 289.59680L524.30320 288.10560Q517.87240 285.77560 515.07640 282.88640Q512.28040 279.99720 512.28040 274.68480L512.28040 274.68480Q512.28040 260.89120 533.90280 260.89120L533.90280 260.89120Q538.00360 260.89120 542.57040 261.54360Q547.13720 262.19600 549.93320 263.03480L549.93320 263.03480L549.93320 275.33720Q547.23040 274.21880 543.92180 273.61300Q540.61320 273.00720 537.81720 273.00720L537.81720 273.00720Q533.99600 273.00720 532.08540 273.33340Q530.17480 273.65960 530.17480 274.87120L530.17480 274.87120Q530.17480 275.89640 531.43300 276.45560Q532.69120 277.01480 535.86000 277.85360L535.86000 277.85360L539.96080 279.06520Q544.99360 280.55640 547.83620 282.32720Q550.67880 284.09800 551.84380 286.56780Q553.00880 289.03760 553.00880 292.85880L553.00880 292.85880Q553.00880 299.66240 547.51000 303.29720Q542.01120 306.93200 531.38640 306.93200L531.38640 306.93200Z" shape-rendering="geometricPrecision" style="fill: rgb(95, 38, 136);"></path><path d="M581.52800 306.93200Q569.59840 306.93200 562.46860 301.01380Q555.33880 295.09560 555.33880 284.00480L555.33880 284.00480Q555.33880 273.19360 561.39680 267.04240Q567.45480 260.89120 579.10480 260.89120L579.10480 260.89120Q589.82280 260.89120 595.97400 266.39000Q602.12520 271.88880 602.12520 281.39520L602.12520 281.39520L602.12520 289.13080L571.46240 289.13080Q572.58080 292.57920 576.07580 294.11700Q579.57080 295.65480 585.81520 295.65480L585.81520 295.65480Q589.54320 295.65480 593.41100 295.00240Q597.27880 294.35000 599.70200 293.32480L599.70200 293.32480L599.70200 303.85640Q593.17800 306.93200 581.52800 306.93200L581.52800 306.93200ZM571.46240 279.62440L587.02680 279.62440L587.02680 278.04000Q587.02680 272.07520 579.66400 272.07520L579.66400 272.07520Q575.28360 272.07520 573.37300 273.93920Q571.46240 275.80320 571.46240 279.62440L571.46240 279.62440Z" shape-rendering="geometricPrecision" style="fill: rgb(95, 38, 136);"></path></g><g id="normal-group"><rect x="0" y="98" width="190" height="60" shape-rendering="crispEdges" style="fill: rgb(230, 0, 141);"></rect><rect x="28" y="56" width="14" height="14" shape-rendering="crispEdges" style="fill: rgb(230, 0, 141);"></rect><rect x="0" y="70" width="14" height="14" shape-rendering="crispEdges" style="fill: rgb(230, 0, 141);"></rect><rect x="28" y="70" width="14" height="14" shape-rendering="crispEdges" style="fill: rgb(230, 0, 141);"></rect><rect x="42" y="70" width="14" height="14" shape-rendering="crispEdges" style="fill: rgb(230, 0, 141);"></rect><rect x="70" y="70" width="14" height="14" shape-rendering="crispEdges" style="fill: rgb(230, 0, 141);"></rect><rect x="0" y="84" width="14" height="14" shape-rendering="crispEdges" style="fill: rgb(230, 0, 141);"></rect><rect x="14" y="84" width="14" height="14" shape-rendering="crispEdges" style="fill: rgb(230, 0, 141);"></rect><rect x="28" y="84" width="14" height="14" shape-rendering="crispEdges" style="fill: rgb(230, 0, 141);"></rect><rect x="42" y="84" width="14" height="14" shape-rendering="crispEdges" style="fill: rgb(230, 0, 141);"></rect><rect x="70" y="84" width="14" height="14" shape-rendering="crispEdges" style="fill: rgb(230, 0, 141);"></rect><rect x="98" y="84" width="14" height="14" shape-rendering="crispEdges" style="fill: rgb(230, 0, 141);"></rect><rect x="0" y="172" width="190" height="60" shape-rendering="crispEdges" style="fill: rgb(141, 32, 137);"></rect><rect x="0" y="246" width="190" height="60" shape-rendering="crispEdges" style="fill: rgb(95, 38, 136);"></rect><rect x="148" y="334" width="14" height="14" shape-rendering="crispEdges" style="fill: rgb(95, 38, 136);"></rect><rect x="176" y="320" width="14" height="14" shape-rendering="crispEdges" style="fill: rgb(95, 38, 136);"></rect><rect x="148" y="320" width="14" height="14" shape-rendering="crispEdges" style="fill: rgb(95, 38, 136);"></rect><rect x="134" y="320" width="14" height="14" shape-rendering="crispEdges" style="fill: rgb(95, 38, 136);"></rect><rect x="106" y="320" width="14" height="14" shape-rendering="crispEdges" style="fill: rgb(95, 38, 136);"></rect><rect x="176" y="306" width="14" height="14" shape-rendering="crispEdges" style="fill: rgb(95, 38, 136);"></rect><rect x="162" y="306" width="14" height="14" shape-rendering="crispEdges" style="fill: rgb(95, 38, 136);"></rect><rect x="148" y="306" width="14" height="14" shape-rendering="crispEdges" style="fill: rgb(95, 38, 136);"></rect><rect x="134" y="306" width="14" height="14" shape-rendering="crispEdges" style="fill: rgb(95, 38, 136);"></rect><rect x="106" y="306" width="14" height="14" shape-rendering="crispEdges" style="fill: rgb(95, 38, 136);"></rect><rect x="78" y="306" width="14" height="14" shape-rendering="crispEdges" style="fill: rgb(95, 38, 136);"></rect><path d="M209.19400 158L209.19400 97.97920L240.41600 97.97920Q251.04080 97.97920 256.44640 103.75760Q261.85200 109.53600 261.85200 119.32200L261.85200 119.32200Q261.85200 125.28680 258.86960 129.90020Q255.88720 134.51360 250.76120 137.03000L250.76120 137.03000Q251.78640 137.86880 252.53200 138.98720Q253.27760 140.10560 254.20960 142.24920L254.20960 142.24920L261.10640 158L242.83920 158L236.50160 143.55400Q235.75600 141.87640 234.68420 141.17740Q233.61240 140.47840 231.65520 140.47840L231.65520 140.47840L226.71560 140.47840L226.71560 158L209.19400 158ZM226.71560 127.05760L235.94240 127.05760Q239.76360 127.05760 241.86060 125.05380Q243.95760 123.05000 243.95760 119.32200L243.95760 119.32200Q243.95760 111.40000 236.50160 111.40000L236.50160 111.40000L226.71560 111.40000L226.71560 127.05760Z" shape-rendering="geometricPrecision" style="fill: rgb(230, 0, 141);"></path><path d="M262.31800 158L279.37360 135.53880L262.97040 113.82320L281.98320 113.82320L288.88000 123.14320L295.87000 113.82320L314.78960 113.82320L298.47960 135.53880L315.53520 158L296.33600 158L288.88000 148.12080L281.42400 158L262.31800 158Z" shape-rendering="geometricPrecision" style="fill: rgb(230, 0, 141);"></path><path d="M317.86520 158L317.86520 97.97920L344.70680 97.97920Q359.05960 97.97920 366.46900 105.20220Q373.87840 112.42520 373.87840 128.36240L373.87840 128.36240Q373.87840 143.55400 366.46900 150.77700Q359.05960 158 344.70680 158L344.70680 158L317.86520 158ZM335.38680 144.57920L342.47000 144.57920Q347.13000 144.57920 350.01920 143.22780Q352.90840 141.87640 354.44620 138.38140Q355.98400 134.88640 355.98400 128.36240L355.98400 128.36240Q355.98400 121.74520 354.58600 118.06380Q353.18800 114.38240 350.25220 112.89120Q347.31640 111.40000 342.47000 111.40000L342.47000 111.40000L335.38680 111.40000L335.38680 144.57920Z" shape-rendering="geometricPrecision" style="fill: rgb(230, 0, 141);"></path><path d="M380.40240 158L380.40240 97.97920L413.39520 97.97920Q422.43560 97.97920 427.23540 102.26640Q432.03520 106.55360 432.03520 114.56880L432.03520 114.56880Q432.03520 119.04240 430.35760 122.30440Q428.68000 125.56640 425.79080 127.43040L425.79080 127.43040Q429.98480 129.10800 432.08180 131.99720Q434.17880 134.88640 434.17880 140.19880L434.17880 140.19880Q434.17880 148.68000 428.95960 153.34000Q423.74040 158 414.14080 158L414.14080 158L380.40240 158ZM397.27160 121.93160L408.64200 121.93160Q415.07280 121.93160 415.07280 116.15320L415.07280 116.15320Q415.07280 113.17080 413.44180 111.72620Q411.81080 110.28160 408.17600 110.28160L408.17600 110.28160L397.27160 110.28160L397.27160 121.93160ZM397.27160 145.79080L409.38760 145.79080Q412.92920 145.79080 414.60680 144.29960Q416.28440 142.80840 416.28440 139.36000L416.28440 139.36000Q416.28440 136.37760 414.56020 134.93300Q412.83600 133.48840 409.01480 133.48840L409.01480 133.48840L397.27160 133.48840L397.27160 145.79080Z" shape-rendering="geometricPrecision" style="fill: rgb(230, 0, 141);"></path><path d="M219.72560 232.93200Q211.61720 232.93200 205.46600 230.78840L205.46600 230.78840L205.46600 216.24920Q210.03280 218.11320 216.09080 218.11320L216.09080 218.11320Q221.12360 218.11320 223.26720 216.06280Q225.41080 214.01240 225.41080 209.25920L225.41080 209.25920L225.41080 171.97920L242.93240 171.97920L242.93240 212.05520Q242.93240 221.93440 236.92100 227.43320Q230.90960 232.93200 219.72560 232.93200L219.72560 232.93200Z" shape-rendering="geometricPrecision" style="fill: rgb(141, 32, 137);"></path><path d="M264.64800 232.93200Q257.84440 232.93200 253.41740 229.34380Q248.99040 225.75560 248.99040 218.76560L248.99040 218.76560Q248.99040 211.68240 253.69700 207.86120Q258.40360 204.04000 267.72360 204.04000L267.72360 204.04000L279.18720 204.04000L279.18720 203.20120Q279.18720 200.59160 276.99700 199.38000Q274.80680 198.16840 269.49440 198.16840L269.49440 198.16840Q261.85200 198.16840 254.39600 200.49840L254.39600 200.49840L254.39600 189.96680Q257.84440 188.56880 262.87720 187.73000Q267.91000 186.89120 273.03600 186.89120L273.03600 186.89120Q283.84720 186.89120 289.85860 191.31820Q295.87000 195.74520 295.87000 204.78560L295.87000 204.78560L295.87000 232L280.58520 232L279.74640 228.45840Q274.71360 232.93200 264.64800 232.93200L264.64800 232.93200ZM270.61280 222.68000Q275.92520 222.68000 279.18720 219.13840L279.18720 219.13840L279.18720 213.63960L270.70600 213.63960Q267.72360 213.63960 266.32560 214.75800Q264.92760 215.87640 264.92760 218.20640L264.92760 218.20640Q264.92760 222.68000 270.61280 222.68000L270.61280 222.68000Z" shape-rendering="geometricPrecision" style="fill: rgb(141, 32, 137);"></path><path d="M315.16240 232L297.73400 187.82320L316.00120 187.82320L324.38920 213.73280L332.77720 187.82320L351.04440 187.82320L333.61600 232L315.16240 232Z" shape-rendering="geometricPrecision" style="fill: rgb(141, 32, 137);"></path><path d="M365.77000 232.93200Q358.96640 232.93200 354.53940 229.34380Q350.11240 225.75560 350.11240 218.76560L350.11240 218.76560Q350.11240 211.68240 354.81900 207.86120Q359.52560 204.04000 368.84560 204.04000L368.84560 204.04000L380.30920 204.04000L380.30920 203.20120Q380.30920 200.59160 378.11900 199.38000Q375.92880 198.16840 370.61640 198.16840L370.61640 198.16840Q362.97400 198.16840 355.51800 200.49840L355.51800 200.49840L355.51800 189.96680Q358.96640 188.56880 363.99920 187.73000Q369.03200 186.89120 374.15800 186.89120L374.15800 186.89120Q384.96920 186.89120 390.98060 191.31820Q396.99200 195.74520 396.99200 204.78560L396.99200 204.78560L396.99200 232L381.70720 232L380.86840 228.45840Q375.83560 232.93200 365.77000 232.93200L365.77000 232.93200ZM371.73480 222.68000Q377.04720 222.68000 380.30920 219.13840L380.30920 219.13840L380.30920 213.63960L371.82800 213.63960Q368.84560 213.63960 367.44760 214.75800Q366.04960 215.87640 366.04960 218.20640L366.04960 218.20640Q366.04960 222.68000 371.73480 222.68000L371.73480 222.68000Z" shape-rendering="geometricPrecision" style="fill: rgb(141, 32, 137);"></path><path d="M424.57920 232.93200Q418.42800 232.93200 413.02240 231.95340Q407.61680 230.97480 403.88880 229.20400L403.88880 229.20400L403.88880 214.75800Q408.17600 216.71520 413.30200 217.92680Q418.42800 219.13840 422.80840 219.13840L422.80840 219.13840Q427.84120 219.13840 430.03140 218.25300Q432.22160 217.36760 432.22160 214.75800L432.22160 214.75800Q432.22160 213.08040 431.14980 212.00860Q430.07800 210.93680 428.02760 210.14460Q425.97720 209.35240 421.50360 207.95440L421.50360 207.95440Q420.01240 207.58160 419.26680 207.30200L419.26680 207.30200Q413.11560 205.34480 409.62060 203.01480Q406.12560 200.68480 404.58780 197.37620Q403.05000 194.06760 403.05000 189.12800L403.05000 189.12800Q403.05000 180.27400 409.38760 175.66060Q415.72520 171.04720 428.02760 171.04720L428.02760 171.04720Q432.78080 171.04720 438.04660 171.83940Q443.31240 172.63160 446.76080 173.75000L446.76080 173.75000L446.76080 188.28920Q438.55920 185.02720 430.82360 185.02720L430.82360 185.02720Q425.88400 185.02720 423.41420 185.77280Q420.94440 186.51840 420.94440 189.03480L420.94440 189.03480Q420.94440 190.61920 421.96960 191.55120Q422.99480 192.48320 425.09180 193.18220Q427.18880 193.88120 432.22160 195.18600L432.22160 195.18600Q439.39800 197.14320 443.26580 199.89260Q447.13360 202.64200 448.62480 206.18360Q450.11600 209.72520 450.11600 214.75800L450.11600 214.75800Q450.11600 223.14600 443.63860 228.03900Q437.16120 232.93200 424.57920 232.93200L424.57920 232.93200Z" shape-rendering="geometricPrecision" style="fill: rgb(141, 32, 137);"></path><path d="M479.38080 232.93200Q467.07840 232.93200 460.22820 227.10700Q453.37800 221.28200 453.37800 209.91160L453.37800 209.91160Q453.37800 198.54120 460.36800 192.71620Q467.35800 186.89120 479.47400 186.89120L479.47400 186.89120Q484.50680 186.89120 488.37460 187.59020Q492.24240 188.28920 495.78400 189.96680L495.78400 189.96680L495.78400 202.26920Q490.28520 199.65960 483.29520 199.65960L483.29520 199.65960Q477.14400 199.65960 474.20820 201.98960Q471.27240 204.31960 471.27240 209.91160L471.27240 209.91160Q471.27240 215.31720 474.16160 217.74040Q477.05080 220.16360 483.29520 220.16360L483.29520 220.16360Q489.91240 220.16360 495.87720 217.08800L495.87720 217.08800L495.87720 229.94960Q489.26000 232.93200 479.38080 232.93200L479.38080 232.93200Z" shape-rendering="geometricPrecision" style="fill: rgb(141, 32, 137);"></path><path d="M502.40120 232L502.40120 187.82320L519.27040 187.82320L519.73640 191.36480Q522.62560 189.68720 526.77300 188.42900Q530.92040 187.17080 535.11440 186.89120L535.11440 186.89120L535.11440 199.93920Q531.20000 200.21880 526.81960 201.15080Q522.43920 202.08280 519.92280 203.29440L519.92280 203.29440L519.92280 232L502.40120 232Z" shape-rendering="geometricPrecision" style="fill: rgb(141, 32, 137);"></path><path d="M544.80720 181.95160L544.80720 169.27640L563.72680 169.27640L563.72680 181.95160L544.80720 181.95160ZM546.20520 232L546.20520 200.59160L539.77440 200.59160L541.26560 187.82320L563.72680 187.82320L563.72680 232L546.20520 232Z" shape-rendering="geometricPrecision" style="fill: rgb(141, 32, 137);"></path><path d="M572.11480 252.13120L572.11480 187.82320L587.30640 187.82320L588.14520 191.36480Q590.94120 189.12800 594.15660 188.00960Q597.37200 186.89120 601.56600 186.89120L601.56600 186.89120Q611.72480 186.89120 616.94400 192.06380Q622.16320 197.23640 622.16320 208.79320L622.16320 208.79320Q622.16320 220.53640 616.52460 226.73420Q610.88600 232.93200 600.82040 232.93200L600.82040 232.93200Q597.65160 232.93200 594.71580 232.27960Q591.78000 231.62720 589.63640 230.41560L589.63640 230.41560L589.63640 252.13120L572.11480 252.13120ZM596.34680 220.16360Q604.26880 220.16360 604.26880 209.07280L604.26880 209.07280Q604.26880 203.76040 602.45140 201.71000Q600.63400 199.65960 596.53320 199.65960L596.53320 199.65960Q594.48280 199.65960 592.85180 200.31200Q591.22080 200.96440 589.63640 202.26920L589.63640 202.26920L589.63640 217.92680Q591.22080 219.13840 592.71200 219.65100Q594.20320 220.16360 596.34680 220.16360L596.34680 220.16360Z" shape-rendering="geometricPrecision" style="fill: rgb(141, 32, 137);"></path><path d="M644.34480 232.93200Q635.67720 232.93200 631.57640 228.59820Q627.47560 224.26440 627.47560 216.34240L627.47560 216.34240L627.47560 200.77800L621.69720 200.77800L621.69720 187.82320L627.47560 187.82320L627.47560 178.78280L644.99720 174.58880L644.99720 187.82320L655.15600 187.82320L654.50360 200.77800L644.99720 200.77800L644.99720 215.03760Q644.99720 217.83360 646.34860 218.99860Q647.70000 220.16360 650.68240 220.16360L650.68240 220.16360Q653.38520 220.16360 656.18120 219.23160L656.18120 219.23160L656.18120 230.88160Q651.24160 232.93200 644.34480 232.93200L644.34480 232.93200Z" shape-rendering="geometricPrecision" style="fill: rgb(141, 32, 137);"></path><path d="M209.19400 306L209.19400 245.97920L236.03560 245.97920Q250.38840 245.97920 257.79780 253.20220Q265.20720 260.42520 265.20720 276.36240L265.20720 276.36240Q265.20720 291.55400 257.79780 298.77700Q250.38840 306 236.03560 306L236.03560 306L209.19400 306ZM226.71560 292.57920L233.79880 292.57920Q238.45880 292.57920 241.34800 291.22780Q244.23720 289.87640 245.77500 286.38140Q247.31280 282.88640 247.31280 276.36240L247.31280 276.36240Q247.31280 269.74520 245.91480 266.06380Q244.51680 262.38240 241.58100 260.89120Q238.64520 259.40000 233.79880 259.40000L233.79880 259.40000L226.71560 259.40000L226.71560 292.57920Z" shape-rendering="geometricPrecision" style="fill: rgb(95, 38, 136);"></path><path d="M282.72880 306.93200Q275.92520 306.93200 271.49820 303.34380Q267.07120 299.75560 267.07120 292.76560L267.07120 292.76560Q267.07120 285.68240 271.77780 281.86120Q276.48440 278.04000 285.80440 278.04000L285.80440 278.04000L297.26800 278.04000L297.26800 277.20120Q297.26800 274.59160 295.07780 273.38000Q292.88760 272.16840 287.57520 272.16840L287.57520 272.16840Q279.93280 272.16840 272.47680 274.49840L272.47680 274.49840L272.47680 263.96680Q275.92520 262.56880 280.95800 261.73000Q285.99080 260.89120 291.11680 260.89120L291.11680 260.89120Q301.92800 260.89120 307.93940 265.31820Q313.95080 269.74520 313.95080 278.78560L313.95080 278.78560L313.95080 306L298.66600 306L297.82720 302.45840Q292.79440 306.93200 282.72880 306.93200L282.72880 306.93200ZM288.69360 296.68000Q294.00600 296.68000 297.26800 293.13840L297.26800 293.13840L297.26800 287.63960L288.78680 287.63960Q285.80440 287.63960 284.40640 288.75800Q283.00840 289.87640 283.00840 292.20640L283.00840 292.20640Q283.00840 296.68000 288.69360 296.68000L288.69360 296.68000Z" shape-rendering="geometricPrecision" style="fill: rgb(95, 38, 136);"></path><path d="M340.79240 306.93200Q332.12480 306.93200 328.02400 302.59820Q323.92320 298.26440 323.92320 290.34240L323.92320 290.34240L323.92320 274.77800L318.14480 274.77800L318.14480 261.82320L323.92320 261.82320L323.92320 252.78280L341.44480 248.58880L341.44480 261.82320L351.60360 261.82320L350.95120 274.77800L341.44480 274.77800L341.44480 289.03760Q341.44480 291.83360 342.79620 292.99860Q344.14760 294.16360 347.13000 294.16360L347.13000 294.16360Q349.83280 294.16360 352.62880 293.23160L352.62880 293.23160L352.62880 304.88160Q347.68920 306.93200 340.79240 306.93200L340.79240 306.93200Z" shape-rendering="geometricPrecision" style="fill: rgb(95, 38, 136);"></path><path d="M367.82040 306.93200Q361.01680 306.93200 356.58980 303.34380Q352.16280 299.75560 352.16280 292.76560L352.16280 292.76560Q352.16280 285.68240 356.86940 281.86120Q361.57600 278.04000 370.89600 278.04000L370.89600 278.04000L382.35960 278.04000L382.35960 277.20120Q382.35960 274.59160 380.16940 273.38000Q377.97920 272.16840 372.66680 272.16840L372.66680 272.16840Q365.02440 272.16840 357.56840 274.49840L357.56840 274.49840L357.56840 263.96680Q361.01680 262.56880 366.04960 261.73000Q371.08240 260.89120 376.20840 260.89120L376.20840 260.89120Q387.01960 260.89120 393.03100 265.31820Q399.04240 269.74520 399.04240 278.78560L399.04240 278.78560L399.04240 306L383.75760 306L382.91880 302.45840Q377.88600 306.93200 367.82040 306.93200L367.82040 306.93200ZM373.78520 296.68000Q379.09760 296.68000 382.35960 293.13840L382.35960 293.13840L382.35960 287.63960L373.87840 287.63960Q370.89600 287.63960 369.49800 288.75800Q368.10000 289.87640 368.10000 292.20640L368.10000 292.20640Q368.10000 296.68000 373.78520 296.68000L373.78520 296.68000Z" shape-rendering="geometricPrecision" style="fill: rgb(95, 38, 136);"></path><path d="M436.41560 306.93200Q432.22160 306.93200 429.00620 305.81360Q425.79080 304.69520 422.99480 302.55160L422.99480 302.55160L422.15600 306L406.96440 306L406.96440 243.18320L424.48600 243.18320L424.48600 263.40760Q426.72280 262.19600 429.75180 261.54360Q432.78080 260.89120 435.85640 260.89120L435.85640 260.89120Q457.01280 260.89120 457.01280 283.53880L457.01280 283.53880Q457.01280 295.09560 451.51400 301.01380Q446.01520 306.93200 436.41560 306.93200L436.41560 306.93200ZM431.38280 294.25680Q435.48360 294.25680 437.30100 291.78700Q439.11840 289.31720 439.11840 283.72520L439.11840 283.72520Q439.11840 278.22640 437.25440 275.89640Q435.39040 273.56640 431.38280 273.56640L431.38280 273.56640Q427.09560 273.56640 424.48600 275.89640L424.48600 275.89640L424.48600 291.55400Q427.37520 294.25680 431.38280 294.25680L431.38280 294.25680Z" shape-rendering="geometricPrecision" style="fill: rgb(95, 38, 136);"></path><path d="M475.00040 306.93200Q468.19680 306.93200 463.76980 303.34380Q459.34280 299.75560 459.34280 292.76560L459.34280 292.76560Q459.34280 285.68240 464.04940 281.86120Q468.75600 278.04000 478.07600 278.04000L478.07600 278.04000L489.53960 278.04000L489.53960 277.20120Q489.53960 274.59160 487.34940 273.38000Q485.15920 272.16840 479.84680 272.16840L479.84680 272.16840Q472.20440 272.16840 464.74840 274.49840L464.74840 274.49840L464.74840 263.96680Q468.19680 262.56880 473.22960 261.73000Q478.26240 260.89120 483.38840 260.89120L483.38840 260.89120Q494.19960 260.89120 500.21100 265.31820Q506.22240 269.74520 506.22240 278.78560L506.22240 278.78560L506.22240 306L490.93760 306L490.09880 302.45840Q485.06600 306.93200 475.00040 306.93200L475.00040 306.93200ZM480.96520 296.68000Q486.27760 296.68000 489.53960 293.13840L489.53960 293.13840L489.53960 287.63960L481.05840 287.63960Q478.07600 287.63960 476.67800 288.75800Q475.28000 289.87640 475.28000 292.20640L475.28000 292.20640Q475.28000 296.68000 480.96520 296.68000L480.96520 296.68000Z" shape-rendering="geometricPrecision" style="fill: rgb(95, 38, 136);"></path><path d="M531.38640 306.93200Q525.88760 306.93200 520.85480 306.13980Q515.82200 305.34760 512.83960 304.13600L512.83960 304.13600L512.83960 291.55400Q515.91520 293.04520 520.38880 293.88400Q524.86240 294.72280 528.31080 294.72280L528.31080 294.72280Q532.41160 294.72280 533.76300 294.48980Q535.11440 294.25680 535.11440 292.95200L535.11440 292.95200Q535.11440 291.83360 533.66980 291.18120Q532.22520 290.52880 528.96320 289.59680L528.96320 289.59680L524.30320 288.10560Q517.87240 285.77560 515.07640 282.88640Q512.28040 279.99720 512.28040 274.68480L512.28040 274.68480Q512.28040 260.89120 533.90280 260.89120L533.90280 260.89120Q538.00360 260.89120 542.57040 261.54360Q547.13720 262.19600 549.93320 263.03480L549.93320 263.03480L549.93320 275.33720Q547.23040 274.21880 543.92180 273.61300Q540.61320 273.00720 537.81720 273.00720L537.81720 273.00720Q533.99600 273.00720 532.08540 273.33340Q530.17480 273.65960 530.17480 274.87120L530.17480 274.87120Q530.17480 275.89640 531.43300 276.45560Q532.69120 277.01480 535.86000 277.85360L535.86000 277.85360L539.96080 279.06520Q544.99360 280.55640 547.83620 282.32720Q550.67880 284.09800 551.84380 286.56780Q553.00880 289.03760 553.00880 292.85880L553.00880 292.85880Q553.00880 299.66240 547.51000 303.29720Q542.01120 306.93200 531.38640 306.93200L531.38640 306.93200Z" shape-rendering="geometricPrecision" style="fill: rgb(95, 38, 136);"></path><path d="M581.52800 306.93200Q569.59840 306.93200 562.46860 301.01380Q555.33880 295.09560 555.33880 284.00480L555.33880 284.00480Q555.33880 273.19360 561.39680 267.04240Q567.45480 260.89120 579.10480 260.89120L579.10480 260.89120Q589.82280 260.89120 595.97400 266.39000Q602.12520 271.88880 602.12520 281.39520L602.12520 281.39520L602.12520 289.13080L571.46240 289.13080Q572.58080 292.57920 576.07580 294.11700Q579.57080 295.65480 585.81520 295.65480L585.81520 295.65480Q589.54320 295.65480 593.41100 295.00240Q597.27880 294.35000 599.70200 293.32480L599.70200 293.32480L599.70200 303.85640Q593.17800 306.93200 581.52800 306.93200L581.52800 306.93200ZM571.46240 279.62440L587.02680 279.62440L587.02680 278.04000Q587.02680 272.07520 579.66400 272.07520L579.66400 272.07520Q575.28360 272.07520 573.37300 273.93920Q571.46240 275.80320 571.46240 279.62440L571.46240 279.62440Z" shape-rendering="geometricPrecision" style="fill: rgb(95, 38, 136);"></path></g></svg>
