<svg xmlns="http://www.w3.org/2000/svg" enable-background="new 0 0 3000 453" height="34" viewBox="0 0 3000 453" width="220"><g clip-rule="evenodd" fill="#000000" fill-rule="evenodd"><path d="m347.83 130.01-123.21-72.27c-8.62-5.06-22.73-5.06-31.34 0l-123.21 72.27c-8.62 5.06-15.67 17.35-15.67 27.32v135.98c0 9.97 7.05 22.27 15.67 27.32l123.21 72.27c8.62 5.06 22.73 5.06 31.34 0l123.21-72.27c8.62-5.06 15.67-17.35 15.67-27.32v-135.97c0-9.98-7.05-22.27-15.67-27.33zm-203.93 13.88c9.32 5.25 18.13 10.2 27.72 15.6-9.55 5.41-18.37 10.41-27.72 15.71zm-41.44-2.86c9.02 5.08 17.62 9.92 26.91 15.14-9.2 5.22-17.78 10.09-26.91 15.27zm24.28 38.22c9.07 5.12 17.84 10.07 27.21 15.36-9.24 5.24-17.94 10.18-27.21 15.44zm108.07 122.61c-17.75 10.07-35.68 20.24-54.04 30.66-.15-1.27-.33-2.04-.33-2.81-.02-8.48.03-16.95-.03-25.43-.02-2.04.67-3.25 2.58-4.28 7.11-3.84 14.1-7.9 21.13-11.9.85-.48 1.62-1.1 2.88-1.97-18.04-10.25-35.63-20.24-53.11-30.18v-30.69c27.21 15.34 54.06 30.46 80.93 45.61v30.99zm26.73-15.03v-30.87c-26.86-15.25-53.64-30.45-80.52-45.71v-30.83c45 25.36 89.81 50.62 135.41 76.33-18.49 10.46-36.35 20.58-54.89 31.08z" fill="#000000"/><path d="m479.63 348.98h34.89v-111.93h105.92v-28.71h-105.93v-91.03h123.9v-28.71h-158.78zm420.69-225.95c-11.15-11.81-24.55-20.99-40.19-27.53-15.65-6.54-32.94-9.81-51.88-9.81s-36.21 3.27-51.79 9.81c-15.59 6.54-28.95 15.72-40.1 27.53s-19.78 25.86-25.9 42.15c-6.11 16.29-9.17 34.19-9.17 53.69s3.06 37.4 9.17 53.69 14.75 30.32 25.9 42.06c11.15 11.75 24.52 20.87 40.1 27.35s32.85 9.72 51.79 9.72 36.24-3.24 51.88-9.72c15.65-6.48 29.04-15.6 40.19-27.35s19.78-25.77 25.9-42.06c6.11-16.29 9.17-34.19 9.17-53.69s-3.06-37.4-9.17-53.69-14.75-30.34-25.9-42.15zm-7.19 138.82c-4.32 12.66-10.43 23.38-18.34 32.16s-17.51 15.51-28.77 20.17c-11.27 4.66-23.86 7-37.76 7-13.79 0-26.32-2.33-37.59-7-11.27-4.66-20.89-11.38-28.86-20.17-7.97-8.78-14.12-19.5-18.43-32.16-4.32-12.66-6.47-26.98-6.47-42.97s2.16-30.34 6.47-43.06c4.32-12.72 10.46-23.47 18.43-32.25s17.59-15.54 28.86-20.26 23.8-7.09 37.59-7.09c13.91 0 26.49 2.36 37.76 7.09 11.27 4.72 20.86 11.48 28.77 20.26s14.03 19.53 18.34 32.25c4.32 12.72 6.47 27.07 6.47 43.06s-2.15 30.31-6.47 42.97zm146.38-173.25h-34.71v260.38h146.2v-29.62h-111.5v-230.76zm203.17 0h-34.71v260.38h146.2v-29.62h-111.5v-230.76zm363.08 34.43c-11.15-11.81-24.55-20.99-40.19-27.53-15.65-6.54-32.94-9.81-51.88-9.81s-36.21 3.27-51.79 9.81c-15.59 6.54-28.95 15.72-40.1 27.53s-19.78 25.86-25.9 42.15c-6.11 16.29-9.17 34.19-9.17 53.69s3.06 37.4 9.17 53.69 14.75 30.32 25.9 42.06c11.15 11.75 24.52 20.87 40.1 27.35s32.85 9.72 51.79 9.72 36.24-3.24 51.88-9.72c15.65-6.48 29.04-15.6 40.19-27.35s19.78-25.77 25.9-42.06c6.11-16.29 9.17-34.19 9.17-53.69s-3.06-37.4-9.17-53.69c-6.12-16.29-14.75-30.34-25.9-42.15zm-7.19 138.82c-4.32 12.66-10.43 23.38-18.34 32.16s-17.51 15.51-28.77 20.17c-11.27 4.66-23.86 7-37.76 7-13.79 0-26.32-2.33-37.59-7-11.27-4.66-20.89-11.38-28.86-20.17-7.97-8.78-14.12-19.5-18.43-32.16-4.32-12.66-6.47-26.98-6.47-42.97s2.16-30.34 6.47-43.06c4.32-12.72 10.46-23.47 18.43-32.25s17.59-15.54 28.86-20.26 23.8-7.09 37.59-7.09c13.91 0 26.49 2.36 37.76 7.09 11.27 4.72 20.86 11.48 28.77 20.26s14.03 19.53 18.34 32.25c4.32 12.72 6.47 27.07 6.47 43.06s-2.16 30.31-6.47 42.97zm404.49-170.71c-2.1 1.7-3.45 3.63-4.05 5.81l-53.41 180.98c-.84 3.15-1.62 6.54-2.34 10.18-.72 3.63-1.38 7.45-1.98 11.45-.84-4-1.71-7.81-2.61-11.45-.9-3.63-1.89-7.02-2.97-10.18l-60.42-180.98c-.96-2.42-2.4-4.42-4.32-6-1.92-1.57-4.44-2.36-7.55-2.36h-10.07c-3 0-5.55.88-7.64 2.63-2.1 1.76-3.51 3.67-4.23 5.72l-60.6 180.98c-1.08 3.15-2.07 6.63-2.97 10.45s-1.77 7.84-2.61 12.08c-.72-4.24-1.47-8.24-2.25-11.99s-1.59-7.27-2.43-10.54l-53.21-180.97c-.6-2.42-1.95-4.42-4.05-6-2.1-1.57-4.71-2.36-7.82-2.36h-28.95l80.39 260.38h31.29l65.64-198.6c.6-1.94 1.2-4 1.8-6.18s1.2-4.48 1.8-6.9c.6 2.42 1.17 4.72 1.71 6.9s1.11 4.24 1.71 6.18l65.28 198.6h31.29l80.39-260.38h-27.15c-3.02.01-5.57.86-7.67 2.55zm126.66 140.27h100.35v-27.61h-100.35v-86.49h123.9v-28.71h-158.79v260.38h158.79l.18-28.71h-124.08zm290 3.09c9.95-2.3 18.85-5.69 26.71-10.18 7.85-4.48 14.5-9.9 19.96-16.26 5.45-6.36 9.62-13.54 12.5-21.53s4.32-16.59 4.32-25.8c0-11.02-1.86-20.99-5.57-29.89-3.72-8.9-9.44-16.5-17.17-22.8s-17.53-11.11-29.4-14.45c-11.87-3.33-25.96-5-42.26-5h-72.83v260.38h34.71v-108.65h26.44c4.91 0 8.54.64 10.88 1.91s4.52 3.36 6.56 6.27l66.9 93.03c3 4.97 7.67 7.45 14.03 7.45h30.93l-75.17-103.39c-3.27-4.85-7.11-8.54-11.54-11.09zm-32.37-19.8h-36.69v-98.3h38.12c20.14 0 35.25 3.94 45.32 11.81 10.07 7.88 15.11 19.56 15.11 35.07 0 7.63-1.32 14.6-3.96 20.9s-6.56 11.72-11.78 16.26-11.69 8.06-19.42 10.54-16.63 3.72-26.7 3.72zm325.96 117.92h-109.88c-4.2 0-8.36.24-12.5.73s-8.12 1.21-11.96 2.18l79.67-82.13c7.31-7.51 14.3-14.87 20.95-22.08s12.5-14.63 17.53-22.26c5.04-7.63 9.02-15.6 11.96-23.89 2.94-8.3 4.41-17.29 4.41-26.98 0-11.63-1.98-21.77-5.93-30.44-3.96-8.66-9.32-15.87-16.09-21.62s-14.57-10.05-23.38-12.9c-8.81-2.84-18.07-4.27-27.78-4.27-10.43 0-20.14 1.54-29.13 4.63s-16.9 7.6-23.74 13.54c-6.83 5.94-12.47 13.2-16.9 21.8-4.44 8.6-7.43 18.41-8.99 29.44l8.81 1.45c2.4.24 4.28-.06 5.66-.91s2.49-2.6 3.33-5.27c1.32-7.27 3.69-13.96 7.1-20.08 3.42-6.12 7.73-11.38 12.95-15.81 5.22-4.42 11.21-7.87 17.98-10.36 6.77-2.48 14.18-3.72 22.21-3.72 7.31 0 14.39 1.09 21.22 3.27s12.83 5.51 17.98 9.99 9.29 10.21 12.41 17.17c3.12 6.97 4.68 15.17 4.68 24.62 0 8.36-1.26 16.23-3.78 23.62s-6.02 14.6-10.52 21.62c-4.5 7.03-9.8 13.99-15.92 20.9-6.11 6.9-12.77 14.05-19.96 21.44l-86.86 88.85c-1.08.97-1.95 2.15-2.61 3.54s-.99 2.76-.99 4.09v6.18h164.19v-10.16c0-1.82-.54-3.3-1.62-4.45s-2.59-1.73-4.5-1.73zm180.76-71.22v-169.9h-15.29l-127.86 170.8 1.62 8.54c.36 1.33 1.02 2.39 1.98 3.18s2.34 1.18 4.14 1.18h120.31v73.77h15.11v-73.77h41.72c1.68 0 2.91-.39 3.69-1.18s1.17-1.85 1.17-3.18v-9.45h-46.59zm-14.83-141.37c-.18 2.42-.27 4.66-.27 6.72v134.65h-109.16l110.06-148.81c-.25 2.53-.45 5.02-.63 7.44z" fill="#000000"/></g></svg>