<svg xmlns="http://www.w3.org/2000/svg" width="202" height="64" fill="none"><path fill="#236BE9" d="M147.206 38.4c-.312 1.722-.324 3.96-.324 6.653v7.89l6.228-5.388-1.296-.352v-1.161c1.261.07 2.557.088 3.8.088 1.008 0 2.034-.036 3.024-.088v1.161l-1.584.352c-2.395 1.584-4.699 3.434-6.932 5.3 2.16 2.342 6.736 7.219 8.931 9.244l.896.243 1.48-.278c.304-1.685.323-3.862.325-6.48v-8.3c-.002-2.598-.021-4.774-.325-6.471-.683-.123-1.423-.283-2.16-.407v-1.161c1.224-.07 3.798-.51 5.131-.845h1.674c-.304 1.683-.322 3.862-.324 6.478v10.75c0 2.596.021 4.772.324 6.471l1.872.352v1.162c-1.386-.035-2.808-.088-4.194-.088-1.123 0-2.272.046-3.403.073v.015c-2.413 0-3.962.123-5.258.387l-2.448-2.87-2.934-3.274-2.845-3.187v.8c0 2.675.013 4.912.323 6.648l1.872.352v1.161c-1.385-.035-2.808-.088-4.193-.088-1.388 0-2.81.07-4.196.088l.018-1.216 1.872-.352c.304-1.683.323-3.86.325-6.476v-8.304c-.002-2.596-.021-4.772-.325-6.47-.683-.122-1.422-.282-2.16-.406v-1.161c1.224-.07 3.798-.51 5.131-.845h1.675ZM9.614 45.654c6.572 0 9.616 4.261 9.616 9.136 0 3.999-2.648 9.175-9.616 9.175C3.637 63.965 0 60.514 0 54.792c0-5.264 4.123-9.138 9.614-9.138Zm60.244 0c3.456 0 7.417 1.99 7.417 6.901v.97H64.71c0 4.982 1.872 7.605 5.707 7.605 2.288 0 4.16-1.285 5.869-2.94l1.315 1.197c-1.62 1.92-4.357 4.578-8.318 4.578-6.77 0-9.093-4.754-9.093-8.416 0-6.656 5.006-9.895 9.669-9.895Zm108.369 0c3.456 0 7.418 1.99 7.418 6.901v.97h-12.567c0 4.982 1.872 7.605 5.708 7.605 2.288 0 4.16-1.285 5.87-2.94l1.314 1.197c-1.621 1.92-4.357 4.578-8.319 4.578-6.768 0-9.091-4.754-9.091-8.416 0-6.656 5.005-9.895 9.667-9.895Zm-47.099-.017c6.229 0 7.13 2.71 7.13 6.267 0 .8.105 3.187.22 5.682l.01.232.016.345.011.23c.048 1.079.098 2.148.138 3.089l1.765.916-.018 1.18a53.341 53.341 0 0 0-2.845-.088c-.864 0-1.747.035-2.611.088l-.323-3.839h-.072c-1.099 1.76-2.611 4.226-7.023 4.226-2.07 0-5.76-.95-5.76-4.754 0-5.352 7.021-6.656 12.476-6.656v-1.76c0-1.955-.736-2.87-3.637-2.87-2.322 0-3.637.528-4.736.968v1.726l-1.187.317a20.165 20.165 0 0 0-1.711-3.82c2.071-.67 4.573-1.48 8.157-1.48Zm-33.723.016-.234 3.029.072.035.058-.061.118-.123c1.475-1.528 3.223-2.88 5.819-2.88 2.756 0 3.856 1.456 4.608 3.115l.048.107.026.055c1.386-1.727 3.456-3.276 6.067-3.276 3.781 0 5.312 2.341 5.312 5.616v3.821c0 2.835 0 5.194.323 7.008l1.872.352v1.162a71.04 71.04 0 0 0-2.513-.08l-.176-.003-.768-.005a45.22 45.22 0 0 0-2.896.088c.07-1.392.16-2.941.16-4.947v-3.874c0-4.63-.736-6.269-3.186-6.269-3.205-.016-3.835 3.082-3.835 6.586 0 2.835 0 5.193.323 7.008l1.872.352v1.161c-1.385-.035-2.808-.088-4.193-.088-1.388 0-2.81.07-4.196.088v-1.179l1.872-.352c.301-1.669.324-3.822.325-6.645v-.662c0-4.63-.739-6.269-3.187-6.269-3.187 0-3.835 3.082-3.835 6.586 0 2.835 0 5.193.325 7.008l1.872.352v1.161c-1.386-.035-2.81-.088-4.196-.088-1.387 0-2.808.07-4.195.088V62.47l1.872-.352c.304-1.685.323-3.863.325-6.48v-2.571a37.87 37.87 0 0 0-.325-4.948c-.683-.123-1.422-.281-2.16-.404l-.017-1.215c1.224-.07 3.798-.512 5.13-.845h1.513v-.001Zm-51.168 0-.235 3.029.072.035c1.512-1.6 3.296-3.063 5.995-3.063 3.78 0 5.312 2.341 5.312 5.616v4.359c0 2.595.02 4.771.325 6.47l1.872.352v1.162a70.24 70.24 0 0 0-2.253-.075l-.176-.004-.175-.003a45.32 45.32 0 0 0-3.753.08c.054-1.389.163-2.939.163-4.945v-3.874c0-4.63-.74-6.269-3.187-6.269-3.312 0-4.123 3.082-4.123 6.586v.537c.001 2.597.02 4.772.324 6.47l1.872.353v1.161c-1.385-.035-2.808-.088-4.195-.088-1.385 0-2.808.07-4.195.088v-1.216l1.872-.352c.312-1.72.325-3.958.325-6.652v-2.396c0-1.656-.109-3.312-.325-4.948-.683-.124-1.422-.282-2.16-.405v-1.162c1.224-.07 3.798-.512 5.131-.845h1.512l.002-.001ZM26.339 38.4c-.297 1.646-.321 3.766-.323 6.304v4.013c1.512-1.6 3.294-3.063 5.995-3.063 3.781 0 5.312 2.341 5.312 5.616v3.821c0 2.835 0 5.194.323 7.008l1.872.352v1.162a75.87 75.87 0 0 0-3.456-.088c-1.099 0-2.09.035-2.899.088.072-1.392.162-2.941.162-4.947v-3.874c0-4.63-.738-6.269-3.187-6.269-3.312 0-4.124 3.082-4.124 6.586 0 2.835 0 5.193.325 7.008l1.872.352v1.161c-1.385-.035-2.808-.088-4.195-.088-1.386 0-2.808.07-4.195.088v-1.216l1.872-.352c.304-1.683.323-3.86.325-6.464v-8.315c0-2.597-.021-4.773-.324-6.47-.684-.123-1.424-.283-2.16-.407v-1.161c1.224-.07 3.799-.51 5.13-.845h1.675Zm166.237 7.272c-.162 1.392-.235 2.957-.36 4.613l.053.053c.649-1.584 2.521-4.666 5.87-4.666.72 0 1.44.158 2.088.475a25.95 25.95 0 0 0-1.584 4.42l-1.189-.194v-1.48a1.586 1.586 0 0 0-.737-.192c-1.189 0-3.997 1.161-3.997 7.253 0 2.078.126 4.192.251 6.144.811.124 1.584.23 2.395.352v1.163a150.74 150.74 0 0 0-4.896-.088c-1.712 0-3.187.07-3.926.088v-1.197l1.872-.352c.304-1.685.323-3.862.325-6.464v-2.57c0-1.654-.107-3.308-.325-4.947-.683-.123-1.422-.281-2.16-.405v-1.161c1.224-.07 3.798-.512 5.131-.845h1.189Zm-182.98 2.06c-3.924 0-5.294 3.24-5.294 7.06 0 3.997 1.837 7.096 5.295 7.096 2.971-.018 5.293-2.307 5.293-7.096 0-4.192-2.088-7.06-5.293-7.06Zm124.665 6.708h-.973c-2.358 0-7.184.915-7.184 4.138 0 1.284.973 2.552 3.098 2.552 3.006 0 4.896-2.552 5.059-6.69Zm-44.795-1.109a10.554 10.554 0 0 0-.973 2.27c-1.8-.035-3.475-.087-5.184-.087-1.712 0-3.386.07-5.096.088.413-.722.736-1.479.971-2.272 1.8.036 3.475.09 5.186.09 1.71 0 3.385-.073 5.096-.089ZM69.768 47.54c-3.098 0-4.555 2.042-4.86 4.295l8.047-.388c0-1.672-.198-3.908-3.187-3.908v.001Zm108.37 0c-3.096 0-4.556 2.042-4.861 4.295l8.048-.388c0-1.672-.199-3.908-3.187-3.908v.001ZM39.194 14.474l.17.172.01-.008 18.304 18.565V20.371h6.138v16.064l-8.046-.019-16.56-16.795L25.875 33.13H20.8l18.394-18.656ZM73.12 20.37v16.064h-5.04V20.371h5.04Zm-6.48 0v16.064H65.2V20.371h1.44ZM66.182 0l.167.17.006-.007 33.962 34.427h-5.093L66.192 5.15l-15.87 16.096-2.544-2.582L66.18 0h.001Zm64.986 2.027c.685 0 1.368.056 2.053.165 6.982 1.131 11.734 7.776 10.617 14.86-.864 5.487-5.632 10.058-11.179 10.81v10.452h-3.6V27.802c-.673-.103-1.481-.218-2.133-.39a12.786 12.786 0 0 1-7.584 4.954V41.6h-3.6v-8.98a11.915 11.915 0 0 1-3.204-.657c-6.696-2.32-10.26-9.677-7.991-16.467 2.285-6.79 9.538-10.405 16.234-8.104l-.163-.054.003-.004c.046.016.093.032.141.052l.012.003c2.42-3.248 6.384-5.36 10.394-5.36v-.002Zm6.174 5.514c-4.067-3.45-10.304-2.72-13.705 1.406l.069-.083.009.006a9.607 9.607 0 0 0-1.573 2.666l-.048.128a10.001 10.001 0 0 0-2.91-1.384l-.005.014c-3.6-1.004-7.451.22-9.864 3.12-3.419 4.11-2.88 10.261 1.171 13.71 4.048 3.468 10.116 2.92 13.516-1.186l.004.003c.634-.818 1.248-1.864 1.6-2.815a9.506 9.506 0 0 0 2.914 1.37l-.082-.024c3.552.827 7.752-.408 10.092-3.222 3.401-4.127 2.88-10.26-1.188-13.71Z"/></svg>