<svg width="793" height="200" viewBox="0 0 793 200" fill="none" xmlns="http://www.w3.org/2000/svg">
<g clip-path="url(#clip0_2895_1849)">
<path fill-rule="evenodd" clip-rule="evenodd" d="M65.5035 2.08668C65.5035 0.428971 63.6026 -0.509117 62.2869 0.499278L0.995096 47.4743C0.501268 47.8528 0.211706 48.4395 0.211706 49.0617V84.1676C0.211706 85.8039 2.06958 86.7478 3.3911 85.7828L64.6829 41.0298C65.1986 40.6532 65.5035 40.0531 65.5035 39.4145V2.08668ZM73.5472 157.649C58.6242 160.416 44.2808 150.577 41.5101 135.672C38.7403 120.766 48.5914 106.441 63.5145 103.674C78.4375 100.907 92.7809 110.747 95.5516 125.652C98.3223 140.556 88.4703 154.882 73.5472 157.649ZM128.143 96.878C109.484 63.9558 67.67 52.3918 34.7477 71.05C1.82449 89.7082 -9.73857 131.522 8.91964 164.445C27.5779 197.367 69.3927 208.931 102.314 190.273C135.237 171.616 146.8 129.8 128.143 96.878ZM167 139.895C167 162.017 183.276 176.952 206.126 176.952C228.974 176.952 245.25 162.017 245.25 139.895V84.7619H220.015V139.433C220.015 148.221 214.37 153.9 206.126 153.9C197.88 153.9 192.235 148.221 192.235 139.433V84.7619H167V139.895ZM262.639 84.7619V174.071H288.722V84.7619H262.639ZM387.918 126.913L387.916 126.912C394.964 122.778 399.581 115.599 399.581 107.619C399.581 94.4239 387.644 84.7619 371.285 84.7619H329.613V174.071H372.137C389.167 174.071 402.067 163.111 402.067 148.64C402.067 138.894 396.612 130.903 387.918 126.913ZM375.982 112.131H375.984C375.984 116.425 372.881 119.333 367.851 119.333H355.697V104.929H367.85C372.88 104.929 375.982 107.837 375.982 112.131ZM378.882 145.223C378.882 150.35 375.24 153.905 369.67 153.905H355.697V136.619H369.67C375.24 136.619 378.882 140.174 378.882 145.223ZM491.593 104.17L473.686 104.169L471.228 109.613C465.469 104.817 458.131 102.048 449.916 102.048C428.588 102.048 413.343 117.566 413.343 139.369C413.343 161.248 428.588 176.952 449.916 176.952C458.017 176.952 465.25 174.262 470.962 169.592L473.02 174.57H491.593V104.17ZM468.407 140.913C468.407 150.001 461.655 156.786 452.468 156.786C443.281 156.786 436.528 150.001 436.528 140.913C436.528 131.88 443.225 125.095 452.468 125.095C461.655 125.095 468.407 131.88 468.407 140.913ZM547.423 174.071H575.639L551.791 137.514L573.447 104.223H546.572L530.018 131.587V79H506.083V174.071H530.018V144.533L547.423 174.071ZM653.888 138.835L653.889 138.832C653.889 118.213 638.441 102.048 616.132 102.048C594.407 102.048 578.537 117.894 578.537 139.445C578.537 160.921 594.536 176.952 616.132 176.952C633.496 176.952 647.498 166.929 652.369 150.885H628.645C626.353 155 621.701 157.478 616.132 157.478C608.604 157.478 603.562 153.308 602.002 145.245H653.395C653.706 143.071 653.888 140.953 653.888 138.835ZM601.722 133.738C603.72 126.299 608.724 122.214 615.921 122.214C623.373 122.214 628.537 126.253 630.704 133.738H601.722ZM715.176 126.619L705.355 104.929C696.879 104.929 690.762 107.28 685.74 112.893L681.914 105.256H665.481V174.071H690.009V139.078C690.009 130.3 693.646 126.619 702.33 126.619H715.176ZM793 104.929H766.986L753.084 143.098L738.165 104.929H711.852L740.903 168.493C737.622 177.116 734.828 179.493 725.564 179.493H718.905L727.197 200C745.348 200 754.059 192.34 763.535 171.134L793 104.929Z" fill="#1F2026"/>
</g>
<defs>
<clipPath id="clip0_2895_1849">
<rect width="793" height="200" fill="white"/>
</clipPath>
</defs>
</svg>
