<?xml version="1.0" encoding="UTF-8"?><svg id="b" xmlns="http://www.w3.org/2000/svg" viewBox="0 0 296.92538 67.84841"><g id="c"><g><g><g><path d="M52.05032,26.97301l.00046,.00023v-4.26855L29.37959,9.61543,6.70839,22.70458v.20331l-.00046-.00023v4.26855l3.90788,2.25621-3.90742,2.25598v.20331l-.00046-.00023v4.26855l3.90788,2.25615-3.90742,2.25592v.20331l-.00046-.00023v4.26855l22.6712,13.08927,22.6712-13.08915v-.20331l.00046,.00023v-4.26855l-3.90742-2.25621,3.90696-2.25586v-.20331l.00046,.00023v-4.26855l-3.90788-2.25621,3.90742-2.25598v-.20331Zm-41.55751,1.08367c-.27674-.3613-.27628-.82661,.00092-1.03916,.27766-.2126,.72696-.09202,1.0037,.26934s.27628,.82661-.00092,1.03921c-.2772,.21255-.72696,.09196-1.0037-.2694Zm0,8.84619c-.27674-.3613-.27628-.82655,.00092-1.03916,.27766-.2126,.72696-.09202,1.0037,.26934s.27628,.82661-.00092,1.03921c-.2772,.21255-.72696,.09196-1.0037-.2694Zm1.0037,9.17101c-.2772,.21255-.72696,.09196-1.0037-.26934-.27674-.36136-.27628-.82661,.00092-1.03921,.27766-.21255,.72696-.09196,1.0037,.26934,.27674,.36136,.27628,.82661-.00092,1.03921Zm3.18964,1.78229c-.27766,.2126-.72696,.09202-1.0037-.26934-.2772-.36136-.27674-.82661,.00092-1.03916,.2772-.2126,.7265-.09202,1.0037,.26934,.27674,.36136,.27628,.82661-.00092,1.03916Zm33.84364-4.94829l-19.15066,11.0565-19.1502-11.05633,4.08365-2.35758,15.06655,8.69881,15.06747-8.69899,4.08319,2.35758Zm-34.84642-5.26181c.2772-.2126,.7265-.09202,1.0037,.26934,.27674,.36136,.27628,.82661-.00092,1.03916-.27766,.2126-.72696,.09202-1.0037-.26934-.2772-.36136-.27674-.82661,.00092-1.03916Zm34.84642-3.72189l-19.15066,11.0565-19.1502-11.05633,4.08365-2.35763,15.06655,8.69876,15.06747-8.69893,4.08319,2.35763ZM13.68337,28.79982c.2772-.21255,.7265-.09196,1.0037,.2694,.27674,.36136,.27628,.82661-.00092,1.03916-.27766,.2126-.72696,.09202-1.0037-.26934-.2772-.36136-.27674-.82661,.00092-1.03921Zm15.69576,7.19705L10.22892,24.94053,29.37959,13.88403l19.1502,11.05633-19.15066,11.0565Z" fill="#5956e4"/><path d="M58.75881,16.9622l-.00037,33.92424-29.37901,16.96198L0,50.88661,.00014,16.96198,29.37914,0l29.37966,16.9622Zm-3.75935,31.75323l-.00057-29.58244L29.3798,4.34088,3.75991,19.13253v29.5833s25.61966,14.79125,25.61966,14.79125l25.61989-14.79165Z" fill="#5956e4"/></g><g><path d="M133.42372,30.10176c-2.47076-.7694-3.80951-1.33541-3.80951-2.12399,0-1.74887,2.79169-2.13149,3.86786-2.13149,2.40241,0,4.79398,.78024,6.56286,2.13983l.73189,.56267,4.12544-6.33362-.69772-.47015c-3.21933-2.16567-6.62454-3.21849-10.41071-3.21849-5.34748,0-9.4079,2.09768-11.23399,5.50211-1.87568-3.20463-5.6979-5.05698-10.87283-5.05698h-24.88565l-3.86932,7.05301h15.47253l.05595-.09638-.01865,.09638h12.79999c2.70083,0,4.31383,1.39626,4.31383,3.73449,0,3.6728-2.75418,6.14023-6.85295,6.14023h-4.13377c.69319-3.60469-2.06899-6.94865-5.73972-6.94865h-.95172l-3.97268,20.5937h7.97663l1.24705-6.59287h4.99487c7.59505,0,13.30473-3.82295,15.11737-9.68278,1.58195,1.85703,4.24381,3.24121,8.0331,4.17941,1.85474,.45431,3.9829,1.13118,3.9829,2.33322,0,2.10398-3.35604,2.88839-5.47169,2.88839-3.05928,0-5.44585-.85526-7.29642-2.61581l-.7469-.71022-4.0054,6.21192,.48682,.48682c1.20037,1.20037,4.71646,3.99207,11.42769,3.99207,6.83294,0,13.72757-3.22516,13.72757-10.43072,0-5.71676-5.03489-8.01247-9.95474-9.5021Z" fill="#5956e4"/><polygon points="88.04514 28.95073 82.64472 38.79444 79.19699 18.97166 71.07198 18.97166 77.06383 49.58861 84.71619 49.58861 96.70479 28.95073 88.04514 28.95073" fill="#5956e4"/></g></g><g><g><path d="M157.65942,49.20658c-1.40315,0-2.74397-.21101-4.02069-.63124-1.27672-.42112-2.45551-1.04524-3.53636-1.87413-1.08085-.82711-2.02815-1.84475-2.84191-3.05202l1.51533-1.55717c1.23577,1.79578,2.61042,3.08051,4.12664,3.85153,1.51533,.7728,3.12948,1.15831,4.84068,1.15831,1.48773,0,2.82143-.25997,4.00022-.77903s2.11095-1.23488,2.80006-2.14746c.68733-.91169,1.03099-1.94268,1.03099-3.09387,0-.78615-.13355-1.45924-.40064-2.02103-.2671-.5609-.64548-1.05236-1.13605-1.47348-.49146-.42112-1.08085-.79283-1.76818-1.11557-.68822-.3223-1.46013-.61699-2.31573-.88409-.85649-.26665-1.7753-.54043-2.75733-.82088-1.34706-.39308-2.54721-.79995-3.59957-1.22108s-1.9507-.92638-2.695-1.51577c-.74342-.58939-1.30432-1.29052-1.6836-2.10472-.37839-.81375-.56803-1.81047-.56803-2.98926,0-1.1503,.23148-2.2031,.69445-3.15753,.46297-.95353,1.11557-1.78198,1.95782-2.484,.84224-.70113,1.81626-1.24155,2.9256-1.62083,1.10845-.37883,2.30861-.56803,3.59957-.56803,1.51622,0,2.84191,.21768,3.97885,.65261,1.13605,.43537,2.13944,1.04568,3.00929,1.83095,.87074,.78615,1.656,1.71253,2.35757,2.7787l-1.55717,1.51577c-.61699-.95398-1.30432-1.78198-2.06288-2.484-.75766-.70113-1.60703-1.242-2.54632-1.62083-.94107-.37883-2.00055-.56847-3.17934-.56847-1.34706,0-2.54721,.24617-3.59957,.73674-1.05236,.49146-1.88748,1.17255-2.50448,2.04195-.61788,.87029-.92683,1.86701-.92683,2.98926,0,.78615,.14779,1.47348,.44249,2.06288s.75766,1.10177,1.38979,1.5367c.63035,.43537,1.43075,.828,2.39853,1.17879,.96867,.35123,2.12609,.69445,3.47404,1.03144,1.37466,.33654,2.62378,.73006,3.74648,1.17879,1.12181,.44917,2.0976,.98247,2.9256,1.59946,.828,.61788,1.46013,1.36175,1.89461,2.23115,.43537,.87074,.6535,1.9231,.6535,3.15797,0,1.57231-.43626,2.98258-1.30521,4.23081-.87074,1.24912-2.06377,2.23115-3.57909,2.94697-1.51533,.71582-3.24077,1.07373-5.17811,1.07373Z" fill="#5956e4"/><path d="M199.12706,48.78546V19.3158h10.60908c1.73969,0,3.29063,.39308,4.65282,1.17879,1.36041,.78571,2.43414,1.84564,3.2194,3.17845,.78704,1.33326,1.17879,2.84146,1.17879,4.52551s-.37215,3.15753-1.11468,4.42045c-.74431,1.26292-1.76818,2.25251-3.07339,2.96833-1.30521,.71537-2.78493,1.07328-4.44093,1.07328h-8.92637v12.12485h-2.10472Zm2.10472-14.22957h9.17922c1.2055,0,2.2721-.26665,3.19804-.79995,.92772-.53286,1.64888-1.27672,2.16882-2.23159,.51817-.95353,.77814-2.03439,.77814-3.24166,0-1.31857-.29381-2.49735-.8832-3.53636-.58939-1.03767-1.41027-1.85232-2.46263-2.44171s-2.25251-.88409-3.60046-.88409h-8.37793v13.13537Zm16.25194,14.22957l-7.32557-12.67195,1.76818-1.09465,7.99865,13.76661h-2.44126Z" fill="#5956e4"/><path d="M231.83927,48.78546l-11.07205-29.46966h2.35757l7.61938,20.37591c.33654,.87074,.62501,1.64175,.86361,2.31573s.47009,1.31946,.69445,1.93645c.22436,.61788,.44872,1.26337,.67308,1.93645,.22436,.67397,.47721,1.46013,.75855,2.35757h-1.13605c.39174-1.20639,.73541-2.25251,1.03099-3.1366,.29381-.88409,.59474-1.75304,.90457-2.60953,.30805-.8556,.70157-1.87324,1.17879-3.05202l7.91496-20.12395h2.27388l-11.62048,29.46966h-2.44126Z" fill="#5956e4"/><path d="M276.12745,48.78546V19.3158h10.60908c1.73969,0,3.29063,.39308,4.65282,1.17879,1.36041,.78571,2.43414,1.84564,3.2194,3.17845,.78704,1.33326,1.17879,2.84146,1.17879,4.52551s-.37215,3.15753-1.11468,4.42045c-.74431,1.26292-1.76818,2.25251-3.07339,2.96833-1.30521,.71537-2.78493,1.07328-4.44093,1.07328h-8.92637v12.12485h-2.10472Zm2.10472-14.22957h9.17922c1.2055,0,2.2721-.26665,3.19804-.79995,.92772-.53286,1.64888-1.27672,2.16882-2.23159,.51817-.95353,.77814-2.03439,.77814-3.24166,0-1.31857-.29381-2.49735-.8832-3.53636-.58939-1.03767-1.41027-1.85232-2.46263-2.44171s-2.25251-.88409-3.60046-.88409h-8.37793v13.13537Zm16.25194,14.22957l-7.32557-12.67195,1.76818-1.09465,7.99865,13.76661h-2.44126Z" fill="#5956e4"/></g><path d="M174.49897,48.78546V19.3158h17.13514v2.10472h-15.03042v25.26022h14.86126v2.10472h-16.96598Zm6.48886-14.14544v-2.10517h8.24597v2.10517h-8.24597Z" fill="#5956e4"/><path d="M251.49937,48.78546V19.3158h17.13514v2.10472h-15.03042v25.26022h14.86126v2.10472h-16.96598Zm6.48886-14.14544v-2.10517h8.24597v2.10517h-8.24597Z" fill="#5956e4"/></g></g></g></svg>