<svg version="1.1" xmlns="http://www.w3.org/2000/svg" xmlns:xlink="http://www.w3.org/1999/xlink" width="660" height="482.4710024226049"><defs><linearGradient id="7RJcw52QByma" x1="0px" x2="0px" y1="100px" y2="-50px" gradientUnits="userSpaceOnUse"><stop offset="0" stop-color="#FFFFFF"></stop><stop offset="1" stop-color="#FFFFFF"></stop></linearGradient><linearGradient id="roly7QSBdHTM" x1="0px" x2="0px" y1="100px" y2="-68.75px" gradientUnits="userSpaceOnUse"><stop offset="0" stop-color="#FFFFFF"></stop><stop offset="1" stop-color="#FFFFFF"></stop></linearGradient></defs><g transform="translate(0,0)"><g><rect fill="#FFFFFF" stroke="none" x="0" y="0" width="660" height="482.4710024226049"></rect></g><g transform="translate(0.5,0.5) matrix(1,0,0,1,7.549740838167622,35.669872981077816)"><g><g transform="translate(0,0) scale(1.5,1.5)"><g><path fill="#FFFFFF" stroke="none" d="M 0 0 L 100 0 Q 100 0 100 0 L 100 100 Q 100 100 100 100 L 0 100 Q 0 100 0 100 L 0 0 Q 0 0 0 0 Z"></path><g transform="scale(0.6666666666666666,0.6666666666666666)"><path fill="none" stroke="#333333" d="M 0 0 L 150 0 Q 150 0 150 0 L 150 150 Q 150 150 150 150 L 0 150 Q 0 150 0 150 L 0 0 Q 0 0 0 0 Z" stroke-miterlimit="10"></path></g></g><g><g transform="scale(0.6666666666666666,0.6666666666666666)"><path fill="rgb(0,0,0)" stroke="none" d="M 3 3 L 3 145.5 L 145.5 145.5 L 145.5 4.5 L 4.5 4.5 Z" fill-opacity="0" opacity="0"></path><path fill="none" stroke="#3C7626" d="M 3 3 M 3 3 L 3 7 M 3 7 M 3 9 L 3 13 M 3 13 M 3 15 L 3 19 M 3 19 M 3 21 L 3 25 M 3 25 M 3 27 L 3 31 M 3 31 M 3 33 L 3 37 M 3 37 M 3 39 L 3 43 M 3 43 M 3 45 L 3 49 M 3 49 M 3 51 L 3 55 M 3 55 M 3 57 L 3 61 M 3 61 M 3 63 L 3 67 M 3 67 M 3 69 L 3 73 M 3 73 M 3 75 L 3 79 M 3 79 M 3 81 L 3 85 M 3 85 M 3 87 L 3 91 M 3 91 M 3 93 L 3 97 M 3 97 M 3 99 L 3 103 M 3 103 M 3 105 L 3 109 M 3 109 M 3 111 L 3 115 M 3 115 M 3 117 L 3 121 M 3 121 M 3 123 L 3 127 M 3 127 M 3 129 L 3 133 M 3 133 M 3 135 L 3 139 M 3 139 M 3 141 L 3 145 M 3 145 M 4.5 145.5 L 8.5 145.5 M 8.5 145.5 M 10.5 145.5 L 14.5 145.5 M 14.5 145.5 M 16.5 145.5 L 20.5 145.5 M 20.5 145.5 M 22.5 145.5 L 26.5 145.5 M 26.5 145.5 M 28.5 145.5 L 32.5 145.5 M 32.5 145.5 M 34.5 145.5 L 38.5 145.5 M 38.5 145.5 M 40.5 145.5 L 44.5 145.5 M 44.5 145.5 M 46.5 145.5 L 50.5 145.5 M 50.5 145.5 M 52.5 145.5 L 56.5 145.5 M 56.5 145.5 M 58.5 145.5 L 62.5 145.5 M 62.5 145.5 M 64.5 145.5 L 68.5 145.5 M 68.5 145.5 M 70.5 145.5 L 74.5 145.5 M 74.5 145.5 M 76.5 145.5 L 80.5 145.5 M 80.5 145.5 M 82.5 145.5 L 86.5 145.5 M 86.5 145.5 M 88.5 145.5 L 92.5 145.5 M 92.5 145.5 M 94.5 145.5 L 98.5 145.5 M 98.5 145.5 M 100.5 145.5 L 104.5 145.5 M 104.5 145.5 M 106.5 145.5 L 110.5 145.5 M 110.5 145.5 M 112.5 145.5 L 116.5 145.5 M 116.5 145.5 M 118.5 145.5 L 122.5 145.5 M 122.5 145.5 M 124.5 145.5 L 128.5 145.5 M 128.5 145.5 M 130.5 145.5 L 134.5 145.5 M 134.5 145.5 M 136.5 145.5 L 140.5 145.5 M 140.5 145.5 M 142.5 145.5 L 145.5 145.5 L 145.5 144.5 M 145.5 144.5 M 145.5 142.5 L 145.5 138.5 M 145.5 138.5 M 145.5 136.5 L 145.5 132.5 M 145.5 132.5 M 145.5 130.5 L 145.5 126.5 M 145.5 126.5 M 145.5 124.5 L 145.5 120.5 M 145.5 120.5 M 145.5 118.5 L 145.5 114.5 M 145.5 114.5 M 145.5 112.5 L 145.5 108.5 M 145.5 108.5 M 145.5 106.5 L 145.5 102.5 M 145.5 102.5 M 145.5 100.5 L 145.5 96.5 M 145.5 96.5 M 145.5 94.5 L 145.5 90.5 M 145.5 90.5 M 145.5 88.5 L 145.5 84.5 M 145.5 84.5 M 145.5 82.5 L 145.5 78.5 M 145.5 78.5 M 145.5 76.5 L 145.5 72.5 M 145.5 72.5 M 145.5 70.5 L 145.5 66.5 M 145.5 66.5 M 145.5 64.5 L 145.5 60.5 M 145.5 60.5 M 145.5 58.5 L 145.5 54.5 M 145.5 54.5 M 145.5 52.5 L 145.5 48.5 M 145.5 48.5 M 145.5 46.5 L 145.5 42.5 M 145.5 42.5 M 145.5 40.5 L 145.5 36.5 M 145.5 36.5 M 145.5 34.5 L 145.5 30.5 M 145.5 30.5 M 145.5 28.5 L 145.5 24.5 M 145.5 24.5 M 145.5 22.5 L 145.5 18.5 M 145.5 18.5 M 145.5 16.5 L 145.5 12.5 M 145.5 12.5 M 145.5 10.5 L 145.5 6.5 M 145.5 6.5 M 145.5 4.5 L 145.5 4.5 L 141.5 4.5 M 141.5 4.5 M 139.5 4.5 L 135.5 4.5 M 135.5 4.5 M 133.5 4.5 L 129.5 4.5 M 129.5 4.5 M 127.5 4.5 L 123.5 4.5 M 123.5 4.5 M 121.5 4.5 L 117.5 4.5 M 117.5 4.5 M 115.5 4.5 L 111.5 4.5 M 111.5 4.5 M 109.5 4.5 L 105.5 4.5 M 105.5 4.5 M 103.5 4.5 L 99.5 4.5 M 99.5 4.5 M 97.5 4.5 L 93.5 4.5 M 93.5 4.5 M 91.5 4.5 L 87.5 4.5 M 87.5 4.5 M 85.5 4.5 L 81.5 4.5 M 81.5 4.5 M 79.5 4.5 L 75.5 4.5 M 75.5 4.5 M 73.5 4.5 L 69.5 4.5 M 69.5 4.5 M 67.5 4.5 L 63.5 4.5 M 63.5 4.5 M 61.5 4.5 L 57.5 4.5 M 57.5 4.5 M 55.5 4.5 L 51.5 4.5 M 51.5 4.5 M 49.5 4.5 L 45.5 4.5 M 45.5 4.5 M 43.5 4.5 L 39.5 4.5 M 39.5 4.5 M 37.5 4.5 L 33.5 4.5 M 33.5 4.5 M 31.5 4.5 L 27.5 4.5 M 27.5 4.5 M 25.5 4.5 L 21.5 4.5 M 21.5 4.5 M 19.5 4.5 L 15.5 4.5 M 15.5 4.5 M 13.5 4.5 L 9.5 4.5 M 9.5 4.5 M 7.5 4.5 L 4.5 4.5 Z" stroke-miterlimit="10" opacity="0"></path></g></g></g></g></g><g transform="scale(1,1) matrix(1,0,0,1,8.45883174725853,35.669872981077816) translate(2,5)"><text fill="#000000" stroke="none" font-family="Arial" font-size="12px" font-style="normal" font-weight="bold" text-decoration="none" x="0" y="11">&lt;html&gt;</text><text fill="#000000" stroke="none" font-family="Arial" font-size="12px" font-style="normal" font-weight="bold" text-decoration="none" x="0" y="25">&#160; ...</text><text fill="#000000" stroke="none" font-family="Arial" font-size="12px" font-style="normal" font-weight="bold" text-decoration="none" x="0" y="39">&#160; &lt;body&gt;</text><text fill="#000000" stroke="none" font-family="Arial" font-size="12px" font-style="normal" font-weight="bold" text-decoration="none" x="0" y="53">&#160; &#160; ...</text><text fill="rgb(255, 0, 0)" stroke="none" font-family="Arial" font-size="12px" font-style="normal" font-weight="bold" text-decoration="none" x="0" y="67">&#160; &#160; &lt;div&gt;</text><text fill="rgb(255, 0, 0)" stroke="none" font-family="Arial" font-size="12px" font-style="normal" font-weight="bold" text-decoration="none" x="0" y="81">&#160; &#160; &#160; &#160;My Content!</text><text fill="rgb(255, 0, 0)" stroke="none" font-family="Arial" font-size="12px" font-style="normal" font-weight="bold" text-decoration="none" x="0" y="95">&#160; &#160; &lt;/div&gt;</text><text fill="#000000" stroke="none" font-family="Arial" font-size="12px" font-style="normal" font-weight="bold" text-decoration="none" x="0" y="109">&#160; &#160; &#160;...</text><text fill="#000000" stroke="none" font-family="Arial" font-size="12px" font-style="normal" font-weight="bold" text-decoration="none" x="0" y="123">&#160; &lt;/body&gt;</text><text fill="#000000" stroke="none" font-family="Arial" font-size="12px" font-style="normal" font-weight="bold" text-decoration="none" x="0" y="137">&lt;/html&gt;</text></g><g transform="translate(0.5,0.5) matrix(0.9659258262890683,0.2588190451025208,-0.2588190451025208,0.9659258262890683,183.9112313156481,123.9929657839856)"><g><g transform="translate(0,0) scale(2.9,0.5)"><g><g transform="scale(0.3448275862068966,2)"><path fill="#FFFFFF" stroke="#333333" d="M 0 15 L 265 15 L 265 0 L 290 25 L 265 50 L 265 35 L 0 35 L 0 15 L 0 15 Z" stroke-miterlimit="10"></path></g></g></g></g></g><g transform="scale(1,1) matrix(0.9659258262890683,0.2588190451025208,-0.2588190451025208,0.9659258262890683,189.5136011081247,125.49411624558022) translate(2,18)"><text fill="#000000" stroke="none" font-family="Arial" font-size="12px" font-style="normal" font-weight="bold" text-decoration="none" x="74.19999999999996" y="11">AJAX HTTP Request</text></g><g transform="translate(0.5,0.5) matrix(1,0,0,1,7.549740838167622,282.9710024226049)"><g><g transform="translate(0,0) scale(1.5,1.5)"><g><path fill="#FFFFFF" stroke="none" d="M 0 0 L 100 0 Q 100 0 100 0 L 100 100 Q 100 100 100 100 L 0 100 Q 0 100 0 100 L 0 0 Q 0 0 0 0 Z"></path><g transform="scale(0.6666666666666666,0.6666666666666666)"><path fill="none" stroke="#333333" d="M 0 0 L 150 0 Q 150 0 150 0 L 150 150 Q 150 150 150 150 L 0 150 Q 0 150 0 150 L 0 0 Q 0 0 0 0 Z" stroke-miterlimit="10"></path></g></g><g><g transform="scale(0.6666666666666666,0.6666666666666666)"><path fill="rgb(0,0,0)" stroke="none" d="M 3 3 L 3 145.5 L 145.5 145.5 L 145.5 4.5 L 4.5 4.5 Z" fill-opacity="0" opacity="0"></path><path fill="none" stroke="#3C7626" d="M 3 3 M 3 3 L 3 7 M 3 7 M 3 9 L 3 13 M 3 13 M 3 15 L 3 19 M 3 19 M 3 21 L 3 25 M 3 25 M 3 27 L 3 31 M 3 31 M 3 33 L 3 37 M 3 37 M 3 39 L 3 43 M 3 43 M 3 45 L 3 49 M 3 49 M 3 51 L 3 55 M 3 55 M 3 57 L 3 61 M 3 61 M 3 63 L 3 67 M 3 67 M 3 69 L 3 73 M 3 73 M 3 75 L 3 79 M 3 79 M 3 81 L 3 85 M 3 85 M 3 87 L 3 91 M 3 91 M 3 93 L 3 97 M 3 97 M 3 99 L 3 103 M 3 103 M 3 105 L 3 109 M 3 109 M 3 111 L 3 115 M 3 115 M 3 117 L 3 121 M 3 121 M 3 123 L 3 127 M 3 127 M 3 129 L 3 133 M 3 133 M 3 135 L 3 139 M 3 139 M 3 141 L 3 145 M 3 145 M 4.5 145.5 L 8.5 145.5 M 8.5 145.5 M 10.5 145.5 L 14.5 145.5 M 14.5 145.5 M 16.5 145.5 L 20.5 145.5 M 20.5 145.5 M 22.5 145.5 L 26.5 145.5 M 26.5 145.5 M 28.5 145.5 L 32.5 145.5 M 32.5 145.5 M 34.5 145.5 L 38.5 145.5 M 38.5 145.5 M 40.5 145.5 L 44.5 145.5 M 44.5 145.5 M 46.5 145.5 L 50.5 145.5 M 50.5 145.5 M 52.5 145.5 L 56.5 145.5 M 56.5 145.5 M 58.5 145.5 L 62.5 145.5 M 62.5 145.5 M 64.5 145.5 L 68.5 145.5 M 68.5 145.5 M 70.5 145.5 L 74.5 145.5 M 74.5 145.5 M 76.5 145.5 L 80.5 145.5 M 80.5 145.5 M 82.5 145.5 L 86.5 145.5 M 86.5 145.5 M 88.5 145.5 L 92.5 145.5 M 92.5 145.5 M 94.5 145.5 L 98.5 145.5 M 98.5 145.5 M 100.5 145.5 L 104.5 145.5 M 104.5 145.5 M 106.5 145.5 L 110.5 145.5 M 110.5 145.5 M 112.5 145.5 L 116.5 145.5 M 116.5 145.5 M 118.5 145.5 L 122.5 145.5 M 122.5 145.5 M 124.5 145.5 L 128.5 145.5 M 128.5 145.5 M 130.5 145.5 L 134.5 145.5 M 134.5 145.5 M 136.5 145.5 L 140.5 145.5 M 140.5 145.5 M 142.5 145.5 L 145.5 145.5 L 145.5 144.5 M 145.5 144.5 M 145.5 142.5 L 145.5 138.5 M 145.5 138.5 M 145.5 136.5 L 145.5 132.5 M 145.5 132.5 M 145.5 130.5 L 145.5 126.5 M 145.5 126.5 M 145.5 124.5 L 145.5 120.5 M 145.5 120.5 M 145.5 118.5 L 145.5 114.5 M 145.5 114.5 M 145.5 112.5 L 145.5 108.5 M 145.5 108.5 M 145.5 106.5 L 145.5 102.5 M 145.5 102.5 M 145.5 100.5 L 145.5 96.5 M 145.5 96.5 M 145.5 94.5 L 145.5 90.5 M 145.5 90.5 M 145.5 88.5 L 145.5 84.5 M 145.5 84.5 M 145.5 82.5 L 145.5 78.5 M 145.5 78.5 M 145.5 76.5 L 145.5 72.5 M 145.5 72.5 M 145.5 70.5 L 145.5 66.5 M 145.5 66.5 M 145.5 64.5 L 145.5 60.5 M 145.5 60.5 M 145.5 58.5 L 145.5 54.5 M 145.5 54.5 M 145.5 52.5 L 145.5 48.5 M 145.5 48.5 M 145.5 46.5 L 145.5 42.5 M 145.5 42.5 M 145.5 40.5 L 145.5 36.5 M 145.5 36.5 M 145.5 34.5 L 145.5 30.5 M 145.5 30.5 M 145.5 28.5 L 145.5 24.5 M 145.5 24.5 M 145.5 22.5 L 145.5 18.5 M 145.5 18.5 M 145.5 16.5 L 145.5 12.5 M 145.5 12.5 M 145.5 10.5 L 145.5 6.5 M 145.5 6.5 M 145.5 4.5 L 145.5 4.5 L 141.5 4.5 M 141.5 4.5 M 139.5 4.5 L 135.5 4.5 M 135.5 4.5 M 133.5 4.5 L 129.5 4.5 M 129.5 4.5 M 127.5 4.5 L 123.5 4.5 M 123.5 4.5 M 121.5 4.5 L 117.5 4.5 M 117.5 4.5 M 115.5 4.5 L 111.5 4.5 M 111.5 4.5 M 109.5 4.5 L 105.5 4.5 M 105.5 4.5 M 103.5 4.5 L 99.5 4.5 M 99.5 4.5 M 97.5 4.5 L 93.5 4.5 M 93.5 4.5 M 91.5 4.5 L 87.5 4.5 M 87.5 4.5 M 85.5 4.5 L 81.5 4.5 M 81.5 4.5 M 79.5 4.5 L 75.5 4.5 M 75.5 4.5 M 73.5 4.5 L 69.5 4.5 M 69.5 4.5 M 67.5 4.5 L 63.5 4.5 M 63.5 4.5 M 61.5 4.5 L 57.5 4.5 M 57.5 4.5 M 55.5 4.5 L 51.5 4.5 M 51.5 4.5 M 49.5 4.5 L 45.5 4.5 M 45.5 4.5 M 43.5 4.5 L 39.5 4.5 M 39.5 4.5 M 37.5 4.5 L 33.5 4.5 M 33.5 4.5 M 31.5 4.5 L 27.5 4.5 M 27.5 4.5 M 25.5 4.5 L 21.5 4.5 M 21.5 4.5 M 19.5 4.5 L 15.5 4.5 M 15.5 4.5 M 13.5 4.5 L 9.5 4.5 M 9.5 4.5 M 7.5 4.5 L 4.5 4.5 Z" stroke-miterlimit="10" opacity="0"></path></g></g></g></g></g><g transform="scale(1,1) matrix(1,0,0,1,8.45883174725853,282.9710024226049) translate(2,5)"><text fill="#000000" stroke="none" font-family="Arial" font-size="12px" font-style="normal" font-weight="bold" text-decoration="none" x="0" y="11">&lt;html&gt;</text><text fill="#000000" stroke="none" font-family="Arial" font-size="12px" font-style="normal" font-weight="bold" text-decoration="none" x="0" y="25">&#160; ...</text><text fill="#000000" stroke="none" font-family="Arial" font-size="12px" font-style="normal" font-weight="bold" text-decoration="none" x="0" y="39">&#160; &lt;body&gt;</text><text fill="#000000" stroke="none" font-family="Arial" font-size="12px" font-style="normal" font-weight="bold" text-decoration="none" x="0" y="53">&#160; &#160; ...</text><text fill="rgb(56, 118, 29)" stroke="none" font-family="Arial" font-size="12px" font-style="normal" font-weight="bold" text-decoration="none" x="0" y="67">&#160; &#160; &lt;div&gt;</text><text fill="rgb(56, 118, 29)" stroke="none" font-family="Arial" font-size="12px" font-style="normal" font-weight="bold" text-decoration="none" x="0" y="81">&#160; &#160; &#160; &#160;New Content!</text><text fill="rgb(56, 118, 29)" stroke="none" font-family="Arial" font-size="12px" font-style="normal" font-weight="bold" text-decoration="none" x="0" y="95">&#160; &#160; &lt;/div&gt;</text><text fill="#000000" stroke="none" font-family="Arial" font-size="12px" font-style="normal" font-weight="bold" text-decoration="none" x="0" y="109">&#160; &#160; &#160;...</text><text fill="#000000" stroke="none" font-family="Arial" font-size="12px" font-style="normal" font-weight="bold" text-decoration="none" x="0" y="123">&#160; &lt;/body&gt;</text><text fill="#000000" stroke="none" font-family="Arial" font-size="12px" font-style="normal" font-weight="bold" text-decoration="none" x="0" y="137">&lt;/html&gt;</text></g><g transform="translate(0.5,0.5) matrix(0.9659258262890683,-0.2588190451025208,0.2588190451025208,0.9659258262890683,158.64064992907674,309.6747111081514)"><g><g transform="translate(0,0) scale(3,0.5)"><g><g transform="scale(0.3333333333333333,2)"><path fill="url(#7RJcw52QByma)" stroke="#333333" d="M 0 25 L 25 0 L 25 15 L 300 15 L 300 35 L 25 35 L 25 50 L 0 25 L 0 25 Z" stroke-miterlimit="10"></path></g></g></g></g></g><g transform="scale(1,1) matrix(0.9659258262890683,-0.2588190451025208,0.2588190451025208,0.9659258262890683,160.57250158165488,309.1570730179464) translate(2,18)"><text fill="#000000" stroke="none" font-family="Arial" font-size="12px" font-style="normal" font-weight="bold" text-decoration="none" x="77.5" y="11">AJAX HTTP Response</text></g><g transform="translate(0.5,0.5) matrix(1,0,0,1,270,340.84936490538894)"><g><g transform="translate(0,0) scale(1.2,0.7)"><g><path fill="#FFFFFF" stroke="none" d="M 0 0 L 100 0 Q 100 0 100 0 L 100 100 Q 100 100 100 100 L 0 100 Q 0 100 0 100 L 0 0 Q 0 0 0 0 Z"></path><g transform="scale(0.8333333333333334,1.4285714285714286)"><path fill="none" stroke="#333333" d="M 0 0 L 120 0 Q 120 0 120 0 L 120 70 Q 120 70 120 70 L 0 70 Q 0 70 0 70 L 0 0 Q 0 0 0 0 Z" stroke-miterlimit="10"></path></g></g><g><g transform="scale(0.8333333333333334,1.4285714285714286)"><path fill="rgb(0,0,0)" stroke="none" d="M 2.4 1.4 L 2.4 67.89999999999999 L 116.39999999999999 67.89999999999999 L 116.39999999999999 2.0999999999999996 L 3.5999999999999996 2.0999999999999996 Z" fill-opacity="0" opacity="0"></path><path fill="none" stroke="#3C7626" d="M 2.4 1.4 M 2.4 1.4 L 2.4 5.4 M 2.4 5.4 M 2.4 7.4 L 2.4 11.4 M 2.4 11.4 M 2.4 13.4 L 2.4 17.4 M 2.4 17.4 M 2.4 19.4 L 2.4 23.4 M 2.4 23.4 M 2.4 25.4 L 2.4 29.4 M 2.4 29.4 M 2.4 31.4 L 2.4 35.4 M 2.4 35.4 M 2.4 37.4 L 2.4 41.4 M 2.4 41.4 M 2.4 43.4 L 2.4 47.4 M 2.4 47.4 M 2.4 49.4 L 2.4 53.4 M 2.4 53.4 M 2.4 55.4 L 2.4 59.4 M 2.4 59.4 M 2.4 61.4 L 2.4 65.4 M 2.4 65.4 M 2.4 67.4 L 2.4 67.89999999999999 L 5.900000000000015 67.89999999999999 M 5.900000000000015 67.89999999999999 M 7.900000000000015 67.89999999999999 L 11.900000000000015 67.89999999999999 M 11.900000000000015 67.89999999999999 M 13.900000000000015 67.89999999999999 L 17.900000000000013 67.89999999999999 M 17.900000000000013 67.89999999999999 M 19.900000000000013 67.89999999999999 L 23.900000000000013 67.89999999999999 M 23.900000000000013 67.89999999999999 M 25.900000000000013 67.89999999999999 L 29.900000000000013 67.89999999999999 M 29.900000000000013 67.89999999999999 M 31.900000000000013 67.89999999999999 L 35.90000000000001 67.89999999999999 M 35.90000000000001 67.89999999999999 M 37.90000000000001 67.89999999999999 L 41.90000000000001 67.89999999999999 M 41.90000000000001 67.89999999999999 M 43.90000000000001 67.89999999999999 L 47.90000000000001 67.89999999999999 M 47.90000000000001 67.89999999999999 M 49.90000000000001 67.89999999999999 L 53.90000000000001 67.89999999999999 M 53.90000000000001 67.89999999999999 M 55.90000000000001 67.89999999999999 L 59.90000000000001 67.89999999999999 M 59.90000000000001 67.89999999999999 M 61.90000000000001 67.89999999999999 L 65.9 67.89999999999999 M 65.9 67.89999999999999 M 67.9 67.89999999999999 L 71.9 67.89999999999999 M 71.9 67.89999999999999 M 73.9 67.89999999999999 L 77.9 67.89999999999999 M 77.9 67.89999999999999 M 79.9 67.89999999999999 L 83.9 67.89999999999999 M 83.9 67.89999999999999 M 85.9 67.89999999999999 L 89.9 67.89999999999999 M 89.9 67.89999999999999 M 91.9 67.89999999999999 L 95.9 67.89999999999999 M 95.9 67.89999999999999 M 97.9 67.89999999999999 L 101.9 67.89999999999999 M 101.9 67.89999999999999 M 103.9 67.89999999999999 L 107.9 67.89999999999999 M 107.9 67.89999999999999 M 109.9 67.89999999999999 L 113.9 67.89999999999999 M 113.9 67.89999999999999 M 115.9 67.89999999999999 L 116.39999999999999 67.89999999999999 L 116.39999999999999 64.39999999999998 M 116.39999999999999 64.39999999999998 M 116.39999999999999 62.39999999999998 L 116.39999999999999 58.39999999999998 M 116.39999999999999 58.39999999999998 M 116.39999999999999 56.39999999999998 L 116.39999999999999 52.39999999999998 M 116.39999999999999 52.39999999999998 M 116.39999999999999 50.39999999999998 L 116.39999999999999 46.39999999999998 M 116.39999999999999 46.39999999999998 M 116.39999999999999 44.39999999999998 L 116.39999999999999 40.39999999999998 M 116.39999999999999 40.39999999999998 M 116.39999999999999 38.39999999999998 L 116.39999999999999 34.39999999999998 M 116.39999999999999 34.39999999999998 M 116.39999999999999 32.39999999999998 L 116.39999999999999 28.399999999999977 M 116.39999999999999 28.399999999999977 M 116.39999999999999 26.399999999999977 L 116.39999999999999 22.399999999999977 M 116.39999999999999 22.399999999999977 M 116.39999999999999 20.399999999999977 L 116.39999999999999 16.399999999999977 M 116.39999999999999 16.399999999999977 M 116.39999999999999 14.399999999999977 L 116.39999999999999 10.399999999999977 M 116.39999999999999 10.399999999999977 M 116.39999999999999 8.399999999999977 L 116.39999999999999 4.399999999999977 M 116.39999999999999 4.399999999999977 M 116.39999999999999 2.3999999999999773 L 116.39999999999999 2.0999999999999996 L 112.69999999999997 2.0999999999999996 M 112.69999999999997 2.0999999999999996 M 110.69999999999997 2.0999999999999996 L 106.69999999999997 2.0999999999999996 M 106.69999999999997 2.0999999999999996 M 104.69999999999997 2.0999999999999996 L 100.69999999999997 2.0999999999999996 M 100.69999999999997 2.0999999999999996 M 98.69999999999997 2.0999999999999996 L 94.69999999999997 2.0999999999999996 M 94.69999999999997 2.0999999999999996 M 92.69999999999997 2.0999999999999996 L 88.69999999999997 2.0999999999999996 M 88.69999999999997 2.0999999999999996 M 86.69999999999997 2.0999999999999996 L 82.69999999999997 2.0999999999999996 M 82.69999999999997 2.0999999999999996 M 80.69999999999997 2.0999999999999996 L 76.69999999999997 2.0999999999999996 M 76.69999999999997 2.0999999999999996 M 74.69999999999997 2.0999999999999996 L 70.69999999999997 2.0999999999999996 M 70.69999999999997 2.0999999999999996 M 68.69999999999997 2.0999999999999996 L 64.69999999999997 2.0999999999999996 M 64.69999999999997 2.0999999999999996 M 62.699999999999974 2.0999999999999996 L 58.699999999999974 2.0999999999999996 M 58.699999999999974 2.0999999999999996 M 56.699999999999974 2.0999999999999996 L 52.699999999999974 2.0999999999999996 M 52.699999999999974 2.0999999999999996 M 50.699999999999974 2.0999999999999996 L 46.699999999999974 2.0999999999999996 M 46.699999999999974 2.0999999999999996 M 44.699999999999974 2.0999999999999996 L 40.699999999999974 2.0999999999999996 M 40.699999999999974 2.0999999999999996 M 38.699999999999974 2.0999999999999996 L 34.699999999999974 2.0999999999999996 M 34.699999999999974 2.0999999999999996 M 32.699999999999974 2.0999999999999996 L 28.699999999999974 2.0999999999999996 M 28.699999999999974 2.0999999999999996 M 26.699999999999974 2.0999999999999996 L 22.699999999999974 2.0999999999999996 M 22.699999999999974 2.0999999999999996 M 20.699999999999974 2.0999999999999996 L 16.699999999999974 2.0999999999999996 M 16.699999999999974 2.0999999999999996 M 14.699999999999974 2.0999999999999996 L 10.699999999999974 2.0999999999999996 M 10.699999999999974 2.0999999999999996 M 8.699999999999974 2.0999999999999996 L 4.699999999999974 2.0999999999999996 M 4.699999999999974 2.0999999999999996 Z" stroke-miterlimit="10" opacity="0"></path></g></g></g></g></g><g transform="scale(1,1) matrix(1,0,0,1,270.72727272727275,340.84936490538894) translate(2,14)"><text fill="rgb(56, 118, 29)" stroke="none" font-family="Arial" font-size="12px" font-style="normal" font-weight="bold" text-decoration="none" x="0" y="11">&#160; &#160; &lt;div&gt;</text><text fill="rgb(56, 118, 29)" stroke="none" font-family="Arial" font-size="12px" font-style="normal" font-weight="bold" text-decoration="none" x="0" y="25">&#160; &#160; &#160; &#160;New Content!</text><text fill="rgb(56, 118, 29)" stroke="none" font-family="Arial" font-size="12px" font-style="normal" font-weight="bold" text-decoration="none" x="0" y="39">&#160; &#160; &lt;/div&gt;</text></g><g transform="translate(0.5,0.5) matrix(1,0,0,1,470,175.84936490538894)"><g><g transform="translate(0,0) scale(1.7,1.5)"><g><g transform="scale(0.5882352941176471,0.6666666666666666)"><path fill="url(#roly7QSBdHTM)" stroke="#333333" d="M 170 0 L 170 131.25 Q 170 150 85 150 Q 0 150 0 131.25 L 0 0 Q 0 -18.75 85 -18.75 Q 170 -18.75 170 0 Q 170 18.75 85 18.75 Q 0 18.75 0 0" stroke-miterlimit="10"></path></g></g></g></g></g><g transform="scale(1,1) matrix(1,0,0,1,472,175.84936490538894) translate(2,68)"><text fill="#000000" stroke="none" font-family="Arial" font-size="12px" font-style="normal" font-weight="bold" text-decoration="none" x="42" y="11">HTTP Server</text></g><g transform="scale(1,1) matrix(1,0,0,1,9,10) translate(2,0)"><text fill="#000000" stroke="none" font-family="Arial" font-size="12px" font-style="normal" font-weight="bold" text-decoration="none" x="30.5" y="11">Original Page</text></g><g transform="scale(1,1) matrix(1,0,0,1,255.63636363636363,110.66987298107782) translate(2,0)"><text fill="#000000" stroke="none" font-family="Arial" font-size="12px" font-style="normal" font-weight="bold" text-decoration="none" x="9" y="11">Partial View Request</text></g><g transform="scale(1,1) matrix(1,0,0,1,290,432.9710024226049) translate(2,0)"><text fill="#000000" stroke="none" font-family="Arial" font-size="12px" font-style="normal" font-weight="bold" text-decoration="none" x="3.5" y="11">Partial View Response</text></g><g transform="scale(1,1) matrix(1,0,0,1,7.549740838167622,448.4710024226049) translate(2,0)"><text fill="#000000" stroke="none" font-family="Arial" font-size="12px" font-style="normal" font-weight="bold" text-decoration="none" x="30" y="11">Updated Page</text></g></g></svg>