<?xml version="1.0" encoding="UTF-8" standalone="no"?>
<!-- Created with Inkscape (http://www.inkscape.org/) -->

<svg
   width="145.79346mm"
   height="90.219757mm"
   viewBox="0 0 145.79346 90.219757"
   version="1.1"
   id="svg1"
   xml:space="preserve"
   xmlns="http://www.w3.org/2000/svg"
   xmlns:svg="http://www.w3.org/2000/svg"><defs
     id="defs1" /><g
     id="layer1"
     style="fill:#000000"
     transform="translate(-31.715982,-117.29336)"><path
       style="fill:#ffffff;fill-opacity:1"
       d="m 133.06168,185.57246 v -6.86257 l 5.11009,-2.72858 c 2.81054,-1.50072 9.35477,-4.99076 14.54271,-7.75566 5.18795,-2.7649 9.43454,-5.14615 9.43688,-5.29167 0.002,-0.14552 -2.92843,-1.87192 -6.5128,-3.83645 -6.51328,-3.56982 -8.7381,-4.79246 -17.68209,-9.71714 l -4.76249,-2.6223 -0.0703,-7.47976 c -0.0387,-4.11387 0.0272,-7.43945 0.14647,-7.39018 0.11923,0.0493 10.12117,5.74505 22.22652,12.65729 l 22.00975,12.56771 0.003,5.45771 c 0.002,4.05003 -0.0827,5.52658 -0.3281,5.72473 -0.1819,0.14687 -5.8076,3.27293 -12.50156,6.9468 -12.97746,7.12247 -16.21311,8.90021 -25.43125,13.97251 -3.21865,1.77107 -5.92732,3.22012 -6.01927,3.22012 -0.0919,0 -0.16719,-3.08815 -0.16719,-6.86256 z"
       id="path5" /><path
       style="fill:#ffffff;fill-opacity:1"
       d="m 53.745373,180.62003 -22.02939,-12.60875 0.07129,-5.5763 0.07129,-5.57631 6.085416,-3.32337 c 3.34698,-1.82786 10.728855,-5.86618 16.404167,-8.97405 5.675313,-3.10787 12.164219,-6.65512 14.419792,-7.88278 2.255573,-1.22766 4.847172,-2.64566 5.75911,-3.15111 l 1.658069,-0.91901 -0.07057,6.92026 -0.07057,6.92026 -4.630208,2.50193 c -2.546615,1.37606 -5.999427,3.22774 -7.672917,4.11485 -3.855512,2.04378 -16.77456,8.99325 -16.881104,9.08076 -0.126307,0.10374 0.848623,0.65464 15.48964,8.7528 l 13.822078,7.64519 0.0024,7.34219 c 0.0013,4.0382 -0.08794,7.34218 -0.198351,7.34218 -0.110414,0 -10.113978,-5.67393 -22.230142,-12.60874 z"
       id="path4" /><path
       style="fill:#000000;fill-opacity:1"
       d="m 86.871265,207.07775 c 0.09255,-0.24119 5.046809,-20.08371 11.009456,-44.09449 5.962649,-24.01078 10.964409,-44.1136 11.115019,-44.67293 l 0.27384,-1.01697 h 6.55534 6.55533 l -4.40333,16.99948 c -2.42184,9.34971 -7.66828,29.64845 -11.65876,45.10829 l -7.255434,28.10882 -6.17987,0.003 c -5.646159,0.003 -6.165337,-0.0347 -6.011591,-0.43536 z"
       id="path1" /><path
       style="fill:#000000;fill-opacity:1;stroke-width:1.22835;stroke-dasharray:none"
       d="m 328.94494,782.87449 c 0.0318,-0.16905 19.0374,-76.38175 42.23477,-169.36154 l 42.17702,-169.05417 24.24862,-0.33367 c 22.72244,-0.31266 24.20653,-0.19659 23.57991,1.84423 -0.7036,2.29154 -81.43679,314.60161 -85.02523,328.9135 l -2.08083,8.29902 h -22.596 c -12.4278,0 -22.57001,-0.13832 -22.53826,-0.30737 z"
       transform="scale(0.26458333)"
       id="path2" /><path
       style="fill:#2a7fff;fill-opacity:1;stroke-width:1.22948"
       d="m 328.94865,782.87449 c 0.0338,-0.16905 19.02195,-76.38175 42.19589,-169.36154 l 42.13444,-169.05417 24.28749,-0.33367 c 22.75623,-0.31263 24.24601,-0.19635 23.62958,1.84423 -0.6291,2.08248 -84.53773,326.83336 -86.25486,333.83144 l -0.82962,3.38108 h -22.61218 c -12.43671,0 -22.58453,-0.13832 -22.55074,-0.30737 z"
       transform="scale(0.26458333)"
       id="path3" /></g></svg>
