<svg xmlns="http://www.w3.org/2000/svg" viewBox="0 0 1000 180.87"><g id="normal"><path d="m633.97,91.79v-.35c0-26.91,20.58-49.08,49.43-49.08,17.76,0,28.85,5.98,37.64,15.83l-16.36,17.59c-5.98-6.33-11.96-10.38-21.46-10.38-13.37,0-22.87,11.79-22.87,25.68v.35c0,14.42,9.32,26.03,23.92,26.03,8.97,0,15.13-3.87,21.64-10.03l15.65,15.83c-9.14,10.03-19.7,17.24-38.52,17.24-28.32,0-49.08-21.81-49.08-48.72" style="fill:#3e3a39;"/><path d="m752.28,43.68h26.64v13.32c6.14-7.89,14.2-15.07,27.69-15.07,12.27,0,21.55,5.43,26.46,14.9,8.24-9.64,18.05-14.9,30.84-14.9,19.81,0,31.72,11.92,31.72,34.52v61.16h-26.64v-52.4c0-12.62-5.61-19.1-15.6-19.1s-16.12,6.48-16.12,19.1v52.4h-26.64v-52.4c0-12.62-5.61-19.1-15.6-19.1s-16.12,6.48-16.12,19.1v52.4h-26.64V43.68h.01Z" style="fill:#3e3a39;"/><path d="m920.85,125.43l11.83-18.19c10.55,7.64,21.65,11.65,30.75,11.65,8,0,11.64-2.91,11.64-7.28v-.36c0-6-9.46-8-20.2-11.28-13.64-4.01-29.11-10.37-29.11-29.3v-.36c0-19.83,16.01-30.93,35.66-30.93,12.37,0,25.83,4.19,36.39,11.28l-10.55,19.1c-9.65-5.64-19.28-9.1-26.38-9.1-6.73,0-10.19,2.91-10.19,6.73v.36c0,5.46,9.28,8,19.83,11.65,13.65,4.55,29.48,11.1,29.48,28.93v.36c0,21.65-16.19,31.48-37.3,31.48-13.65,0-28.93-4.55-41.85-14.74" style="fill:#3e3a39;"/><path d="m434.9,138.51c-24.62,0-44.65-20.03-44.65-44.64s20.03-44.65,44.65-44.65,44.65,20.03,44.65,44.65-20.03,44.64-44.65,44.64m0-80.38c-19.7,0-35.73,16.03-35.73,35.74s16.03,35.74,35.73,35.74,35.74-16.03,35.74-35.74-16.03-35.74-35.74-35.74" style="fill:#898989;"/><path d="m349.29,135.29c-2.46,0-4.46-1.99-4.46-4.45V9.15c0-2.46,2-4.45,4.46-4.45s4.46,1.99,4.46,4.45v121.69c0,2.46-2,4.45-4.46,4.45" style="fill:#898989;"/><path d="m82.5,0C36.93,0,0,36.94,0,82.49s36.93,82.51,82.5,82.51,82.49-36.94,82.49-82.51S128.06,0,82.5,0" style="fill:#c40f32;"/><path d="m112.39,112.15c-10.54,13.14-24.37,15.73-35.43,15.04-14.52-.91-29.98-13.9-30.59-27.48-.48-10.71,4.93-25.72,25.33-27.67,5.14-.49,10.96,1.05,12,6.57,1.02,5.49-4.12,8.54-6.93,8.76-9.72.75-13.51,5.85-12.43,12.33,1.03,6.22,8.25,9.15,14.86,9.34,6.22.17,16.13-2.67,21.09-10.22,9.49-14.44,4.32-26.99-1.08-33.04-7.58-8.49-18.08-13.56-35.82-5.31-4.21,1.96-8.46,1.65-11.75-1.03-1.89-1.55-3.18-5.14-2.37-8.17.69-2.6,2.1-5.06,6.52-7.5,22.44-12.37,43.98-3.98,55.37,8.47,12.53,13.7,18.4,38.51,1.22,59.91" style="fill:#fff;"/><path d="m258,138.8c-25.38,0-43.11-20.61-43.11-50.12V9.16c0-2.46,1.99-4.45,4.45-4.45s4.45,1.99,4.45,4.45v79.52c0,24.65,13.75,41.22,34.22,41.22,18.87,0,34.22-15.35,34.22-34.22s-15.35-34.22-34.22-34.22c-1.81,0-3.62.14-5.4.42-2.45.37-4.7-1.27-5.09-3.7-.38-2.43,1.27-4.71,3.7-5.09,2.24-.35,4.52-.53,6.79-.53,23.77,0,43.11,19.34,43.11,43.11s-19.34,43.11-43.11,43.11l-.01.02Z" style="fill:#898989;"/><path d="m550.62,180.87c-10.81,0-20.98-3.98-28.65-11.21-1.79-1.69-1.87-4.5-.18-6.29s4.5-1.87,6.29-.18c6.01,5.67,14.01,8.79,22.54,8.79,17.21,0,31.75-13.6,31.75-29.69v-14.28c-7.91,6.47-17.91,10.13-28.33,10.13-24.64,0-44.69-20.05-44.69-44.69s20.05-44.69,44.69-44.69c14.41,0,28.02,7.01,36.4,18.76,1.43,2,.96,4.78-1.04,6.21-2.01,1.43-4.78.96-6.21-1.04-6.72-9.41-17.62-15.03-29.16-15.03-19.74,0-35.79,16.06-35.79,35.79s16.06,35.79,35.79,35.79c11.54,0,22.43-5.61,29.15-15.02,1.12-1.58,3.14-2.25,4.98-1.65,1.84.59,3.09,2.3,3.09,4.23v25.48c0,20.92-18.6,38.59-40.63,38.59h0Z" style="fill:#898989;"/></g></svg>