<?xml version="1.0" encoding="UTF-8"?>
<svg id="Layer_1" data-name="Layer 1" xmlns="http://www.w3.org/2000/svg" viewBox="0 0 870.84 1388.89">
  <defs>
    <style>
      .cls-1 {
        fill: #60a3d9;
      }

      .cls-1, .cls-2 {
        stroke-width: 0px;
      }

      .cls-2 {
        fill: #fff;
      }
    </style>
  </defs>
  <g id="Layer_1-2" data-name="Layer 1">
    <path class="cls-1" d="m246.54,1388.83H1.68c-.56-.7-1.12-1.4-1.68-1.95,1.68-.98,3.77-1.81,5.17-3.21,45.23-45.23,90.6-90.46,135.7-135.7,3.21-3.21,6.42-4.33,10.89-4.33,116.57.14,233.14.28,349.71,0,37.27-.14,73.29-7.4,106.52-25.13,30.02-15.92,55.14-37.83,75.25-65.06,18.57-25.13,31.13-53.19,37.27-83.76,3.07-14.94,4.75-30.57,4.47-45.79-.7-33.51-8.1-65.89-23.59-95.77-13.82-26.94-32.67-49.98-55.98-69.66-30.15-25.41-65.06-39.93-103.17-47.47-6-1.26-12.29-1.4-18.57-1.54-29.46-.14-58.77,0-88.51,0v-228.54c1.54-.14,3.21-.42,5.03-.42h46.77c33.78,0,67.15-2.37,98.84-15.36,21.92-8.93,42.3-20.66,60.59-36.02,24.15-20.38,43.56-44.53,57.1-72.87,9.49-19.82,16.89-40.63,18.99-62.68.98-10.05,3.07-20.1,2.51-30.15-1.4-32.53-7.26-63.8-21.64-93.54-12.98-26.8-30.43-49.98-52.35-69.66-27.92-24.85-60.45-41.46-97.03-49.28-12.15-2.65-24.85-4.19-37.41-4.19-122.02-.7-244.17-1.12-366.19-1.68-2.65,0-6-.98-7.82-2.79C95.35,95.37,48.3,48.33.56.58,2.93.3,4.47.02,6.14.02,182.33.02,358.37-.12,534.55.3c14.24,0,28.62,2.93,42.72,5.58,32.67,6.14,63.8,17.17,93.4,31.97,24.85,12.42,47.47,28.34,69.24,45.65,30.29,24.29,54.59,53.61,75.39,85.86,20.1,31.41,34.9,65.62,43.84,101.91,3.63,14.8,6.98,29.74,8.24,44.81,1.95,23.04,3.07,46.07,2.79,69.11-.28,24.85-5.44,49.14-11.87,73.29-12.43,46.35-33.78,88.51-62.82,126.34-11.03,14.24-23.17,27.78-36.16,40.35-23.04,22.2-48.58,41.32-76.92,56.4-8.24,4.33-16.33,8.66-23.31,12.29,15.64,9.35,32.81,18.43,48.72,29.18,15.22,10.33,29.74,21.92,43.7,33.92,37.69,32.67,65.62,72.73,86.7,117.69,12.84,27.36,22.2,55.98,26.66,85.86,2.79,19.27,4.61,38.67,5.58,58.08,2.65,51.93-8.1,101.63-28.2,149.38-13.26,31.69-30.85,60.73-52.49,87.25-18.01,22.06-38.53,41.6-61.29,59.19-34.9,26.94-73.29,46.91-115.45,59.19-18.85,5.44-38.25,9.35-57.8,12.29-16.61,2.37-33.51,2.93-50.26,2.93-86,.14-171.86,0-258.41,0Z"/>
    <path class="cls-2" d="m514.31,953.25c23.87,1.4,41.32,12.98,54.31,31.55,9.21,13.12,13.68,28.2,12.7,44.12-1.54,25.55-13.12,45.65-35.04,59.47-12.15,7.68-25.13,10.33-39.37,10.33-117.97-.28-235.93-.14-353.9-.14h-8.52v-7.54c0-99.4,0-198.66-.14-298.06,0-5.17,1.54-8.66,5.17-12.15,20.1-19.96,40.21-40.07,60.17-60.17,6.56-6.56,13.12-13.12,19.27-20.1,3.49-3.91,3.77-8.66-.28-12.84-26.25-26.66-52.49-53.19-79.02-79.72-3.77-3.77-5.31-7.4-5.31-12.7.14-99.12.14-198.24.14-297.36v-7.54c2.09-.14,4.05-.28,6.14-.28,121.88,0,243.75-.28,365.77.28,22.48.14,39.51,13.26,52.35,31.13,9.35,13.12,13.54,28.2,12.7,44.12-1.4,25.55-13.12,45.65-35.04,59.47-12.15,7.68-25.13,10.33-39.37,10.33-69.11-.28-138.21-.14-207.32-.14h-8.1v517.94c73.85,0,147.98,0,222.67,0Z"/>
  </g>
</svg>