<svg width="501" height="55" viewBox="0 0 501 55" fill="none" xmlns="http://www.w3.org/2000/svg">
<path d="M120.064 44.576C117.472 44.576 115.056 44.16 112.816 43.328C110.608 42.464 108.688 41.248 107.056 39.68C105.424 38.112 104.144 36.272 103.216 34.16C102.32 32.048 101.872 29.728 101.872 27.2C101.872 24.672 102.32 22.352 103.216 20.24C104.144 18.128 105.424 16.288 107.056 14.72C108.72 13.152 110.656 11.952 112.864 11.12C115.072 10.256 117.488 9.824 120.112 9.824C123.024 9.824 125.648 10.336 127.984 11.36C130.352 12.352 132.336 13.824 133.936 15.776L128.944 20.384C127.792 19.072 126.512 18.096 125.104 17.456C123.696 16.784 122.16 16.448 120.496 16.448C118.928 16.448 117.488 16.704 116.176 17.216C114.864 17.728 113.728 18.464 112.768 19.424C111.808 20.384 111.056 21.52 110.512 22.832C110 24.144 109.744 25.6 109.744 27.2C109.744 28.8 110 30.256 110.512 31.568C111.056 32.88 111.808 34.016 112.768 34.976C113.728 35.936 114.864 36.672 116.176 37.184C117.488 37.696 118.928 37.952 120.496 37.952C122.16 37.952 123.696 37.632 125.104 36.992C126.512 36.32 127.792 35.312 128.944 33.968L133.936 38.576C132.336 40.528 130.352 42.016 127.984 43.04C125.648 44.064 123.008 44.576 120.064 44.576Z" fill="white"/>
<path d="M150.056 44.384C147.304 44.384 144.856 43.808 142.712 42.656C140.6 41.504 138.92 39.936 137.672 37.952C136.456 35.936 135.848 33.648 135.848 31.088C135.848 28.496 136.456 26.208 137.672 24.224C138.92 22.208 140.6 20.64 142.712 19.52C144.856 18.368 147.304 17.792 150.056 17.792C152.776 17.792 155.208 18.368 157.352 19.52C159.496 20.64 161.176 22.192 162.392 24.176C163.608 26.16 164.216 28.464 164.216 31.088C164.216 33.648 163.608 35.936 162.392 37.952C161.176 39.936 159.496 41.504 157.352 42.656C155.208 43.808 152.776 44.384 150.056 44.384ZM150.056 38.24C151.304 38.24 152.424 37.952 153.416 37.376C154.408 36.8 155.192 35.984 155.768 34.928C156.344 33.84 156.632 32.56 156.632 31.088C156.632 29.584 156.344 28.304 155.768 27.248C155.192 26.192 154.408 25.376 153.416 24.8C152.424 24.224 151.304 23.936 150.056 23.936C148.808 23.936 147.688 24.224 146.696 24.8C145.704 25.376 144.904 26.192 144.296 27.248C143.72 28.304 143.432 29.584 143.432 31.088C143.432 32.56 143.72 33.84 144.296 34.928C144.904 35.984 145.704 36.8 146.696 37.376C147.688 37.952 148.808 38.24 150.056 38.24Z" fill="white"/>
<path d="M180.31 44.384C177.878 44.384 175.686 43.84 173.734 42.752C171.782 41.632 170.23 40.08 169.078 38.096C167.958 36.112 167.398 33.776 167.398 31.088C167.398 28.368 167.958 26.016 169.078 24.032C170.23 22.048 171.782 20.512 173.734 19.424C175.686 18.336 177.878 17.792 180.31 17.792C182.486 17.792 184.39 18.272 186.022 19.232C187.654 20.192 188.918 21.648 189.814 23.6C190.71 25.552 191.158 28.048 191.158 31.088C191.158 34.096 190.726 36.592 189.862 38.576C188.998 40.528 187.75 41.984 186.118 42.944C184.518 43.904 182.582 44.384 180.31 44.384ZM181.606 38.24C182.822 38.24 183.926 37.952 184.918 37.376C185.91 36.8 186.694 35.984 187.27 34.928C187.878 33.84 188.182 32.56 188.182 31.088C188.182 29.584 187.878 28.304 187.27 27.248C186.694 26.192 185.91 25.376 184.918 24.8C183.926 24.224 182.822 23.936 181.606 23.936C180.358 23.936 179.238 24.224 178.246 24.8C177.254 25.376 176.454 26.192 175.846 27.248C175.27 28.304 174.982 29.584 174.982 31.088C174.982 32.56 175.27 33.84 175.846 34.928C176.454 35.984 177.254 36.8 178.246 37.376C179.238 37.952 180.358 38.24 181.606 38.24ZM188.374 44V38.72L188.518 31.04L188.038 23.408V8.384H195.526V44H188.374Z" fill="white"/>
<path d="M215.272 44.384C212.328 44.384 209.736 43.808 207.496 42.656C205.288 41.504 203.576 39.936 202.36 37.952C201.144 35.936 200.536 33.648 200.536 31.088C200.536 28.496 201.128 26.208 202.312 24.224C203.528 22.208 205.176 20.64 207.256 19.52C209.336 18.368 211.688 17.792 214.312 17.792C216.84 17.792 219.112 18.336 221.128 19.424C223.176 20.48 224.792 22.016 225.976 24.032C227.16 26.016 227.752 28.4 227.752 31.184C227.752 31.472 227.736 31.808 227.704 32.192C227.672 32.544 227.64 32.88 227.608 33.2H206.632V28.832H223.672L220.792 30.128C220.792 28.784 220.52 27.616 219.976 26.624C219.432 25.632 218.68 24.864 217.72 24.32C216.76 23.744 215.64 23.456 214.36 23.456C213.08 23.456 211.944 23.744 210.952 24.32C209.992 24.864 209.24 25.648 208.696 26.672C208.152 27.664 207.88 28.848 207.88 30.224V31.376C207.88 32.784 208.184 34.032 208.792 35.12C209.432 36.176 210.312 36.992 211.432 37.568C212.584 38.112 213.928 38.384 215.464 38.384C216.84 38.384 218.04 38.176 219.064 37.76C220.12 37.344 221.08 36.72 221.944 35.888L225.928 40.208C224.744 41.552 223.256 42.592 221.464 43.328C219.672 44.032 217.608 44.384 215.272 44.384Z" fill="white"/>
<path d="M233.265 44V10.4H247.809C250.817 10.4 253.409 10.896 255.585 11.888C257.761 12.848 259.441 14.24 260.625 16.064C261.809 17.888 262.401 20.064 262.401 22.592C262.401 25.088 261.809 27.248 260.625 29.072C259.441 30.864 257.761 32.24 255.585 33.2C253.409 34.16 250.817 34.64 247.809 34.64H237.585L241.041 31.232V44H233.265ZM254.625 44L246.225 31.808H254.529L263.025 44H254.625ZM241.041 32.096L237.585 28.448H247.377C249.777 28.448 251.569 27.936 252.753 26.912C253.937 25.856 254.529 24.416 254.529 22.592C254.529 20.736 253.937 19.296 252.753 18.272C251.569 17.248 249.777 16.736 247.377 16.736H237.585L241.041 13.04V32.096Z" fill="white"/>
<path d="M280.85 44.384C277.906 44.384 275.314 43.808 273.074 42.656C270.866 41.504 269.154 39.936 267.938 37.952C266.722 35.936 266.114 33.648 266.114 31.088C266.114 28.496 266.706 26.208 267.89 24.224C269.106 22.208 270.754 20.64 272.834 19.52C274.914 18.368 277.266 17.792 279.89 17.792C282.418 17.792 284.69 18.336 286.706 19.424C288.754 20.48 290.37 22.016 291.554 24.032C292.738 26.016 293.33 28.4 293.33 31.184C293.33 31.472 293.314 31.808 293.282 32.192C293.25 32.544 293.218 32.88 293.186 33.2H272.21V28.832H289.25L286.37 30.128C286.37 28.784 286.098 27.616 285.554 26.624C285.01 25.632 284.258 24.864 283.298 24.32C282.338 23.744 281.218 23.456 279.938 23.456C278.658 23.456 277.522 23.744 276.53 24.32C275.57 24.864 274.818 25.648 274.274 26.672C273.73 27.664 273.458 28.848 273.458 30.224V31.376C273.458 32.784 273.762 34.032 274.37 35.12C275.01 36.176 275.89 36.992 277.01 37.568C278.162 38.112 279.506 38.384 281.042 38.384C282.418 38.384 283.618 38.176 284.642 37.76C285.698 37.344 286.658 36.72 287.522 35.888L291.506 40.208C290.322 41.552 288.834 42.592 287.042 43.328C285.25 44.032 283.186 44.384 280.85 44.384Z" fill="white"/>
<path d="M304.855 44L294.007 18.176H301.735L310.759 40.4H306.919L316.279 18.176H323.479L312.583 44H304.855Z" fill="white"/>
<path d="M326.534 44V18.176H334.022V44H326.534ZM330.278 14.576C328.902 14.576 327.782 14.176 326.918 13.376C326.054 12.576 325.622 11.584 325.622 10.4C325.622 9.216 326.054 8.224 326.918 7.424C327.782 6.624 328.902 6.224 330.278 6.224C331.654 6.224 332.774 6.608 333.638 7.376C334.502 8.112 334.934 9.072 334.934 10.256C334.934 11.504 334.502 12.544 333.638 13.376C332.806 14.176 331.686 14.576 330.278 14.576Z" fill="white"/>
<path d="M353.788 44.384C350.844 44.384 348.252 43.808 346.012 42.656C343.804 41.504 342.092 39.936 340.876 37.952C339.66 35.936 339.052 33.648 339.052 31.088C339.052 28.496 339.644 26.208 340.828 24.224C342.044 22.208 343.692 20.64 345.772 19.52C347.852 18.368 350.204 17.792 352.828 17.792C355.356 17.792 357.628 18.336 359.644 19.424C361.692 20.48 363.308 22.016 364.492 24.032C365.676 26.016 366.268 28.4 366.268 31.184C366.268 31.472 366.252 31.808 366.22 32.192C366.188 32.544 366.156 32.88 366.124 33.2H345.148V28.832H362.188L359.308 30.128C359.308 28.784 359.036 27.616 358.492 26.624C357.948 25.632 357.196 24.864 356.236 24.32C355.276 23.744 354.156 23.456 352.876 23.456C351.596 23.456 350.46 23.744 349.468 24.32C348.508 24.864 347.756 25.648 347.212 26.672C346.668 27.664 346.396 28.848 346.396 30.224V31.376C346.396 32.784 346.7 34.032 347.308 35.12C347.948 36.176 348.828 36.992 349.948 37.568C351.1 38.112 352.444 38.384 353.98 38.384C355.356 38.384 356.556 38.176 357.58 37.76C358.636 37.344 359.596 36.72 360.46 35.888L364.444 40.208C363.26 41.552 361.772 42.592 359.98 43.328C358.188 44.032 356.124 44.384 353.788 44.384Z" fill="white"/>
<path d="M376.688 44L367.376 18.176H374.432L382.16 40.4H378.8L386.864 18.176H393.2L401.024 40.4H397.664L405.632 18.176H412.256L402.896 44H395.648L388.784 24.944H390.992L383.888 44H376.688Z" fill="white"/>
<path d="M416.265 44V10.4H432.681C436.905 10.4 440.073 11.2 442.185 12.8C444.329 14.4 445.401 16.512 445.401 19.136C445.401 20.896 444.969 22.432 444.105 23.744C443.241 25.024 442.057 26.016 440.553 26.72C439.049 27.424 437.321 27.776 435.369 27.776L436.281 25.808C438.393 25.808 440.265 26.16 441.897 26.864C443.529 27.536 444.793 28.544 445.689 29.888C446.617 31.232 447.081 32.88 447.081 34.832C447.081 37.712 445.945 39.968 443.673 41.6C441.401 43.2 438.057 44 433.641 44H416.265ZM423.993 38.144H433.065C435.081 38.144 436.601 37.824 437.625 37.184C438.681 36.512 439.209 35.456 439.209 34.016C439.209 32.608 438.681 31.568 437.625 30.896C436.601 30.192 435.081 29.84 433.065 29.84H423.417V24.176H431.721C433.609 24.176 435.049 23.856 436.041 23.216C437.065 22.544 437.577 21.536 437.577 20.192C437.577 18.88 437.065 17.904 436.041 17.264C435.049 16.592 433.609 16.256 431.721 16.256H423.993V38.144Z" fill="white"/>
<path d="M464.728 44.384C461.976 44.384 459.528 43.808 457.384 42.656C455.272 41.504 453.592 39.936 452.344 37.952C451.128 35.936 450.52 33.648 450.52 31.088C450.52 28.496 451.128 26.208 452.344 24.224C453.592 22.208 455.272 20.64 457.384 19.52C459.528 18.368 461.976 17.792 464.728 17.792C467.448 17.792 469.88 18.368 472.024 19.52C474.168 20.64 475.848 22.192 477.064 24.176C478.28 26.16 478.888 28.464 478.888 31.088C478.888 33.648 478.28 35.936 477.064 37.952C475.848 39.936 474.168 41.504 472.024 42.656C469.88 43.808 467.448 44.384 464.728 44.384ZM464.728 38.24C465.976 38.24 467.096 37.952 468.088 37.376C469.08 36.8 469.864 35.984 470.44 34.928C471.016 33.84 471.304 32.56 471.304 31.088C471.304 29.584 471.016 28.304 470.44 27.248C469.864 26.192 469.08 25.376 468.088 24.8C467.096 24.224 465.976 23.936 464.728 23.936C463.48 23.936 462.36 24.224 461.368 24.8C460.376 25.376 459.576 26.192 458.968 27.248C458.392 28.304 458.104 29.584 458.104 31.088C458.104 32.56 458.392 33.84 458.968 34.928C459.576 35.984 460.376 36.8 461.368 37.376C462.36 37.952 463.48 38.24 464.728 38.24Z" fill="white"/>
<path d="M494.454 44.384C491.413 44.384 489.046 43.616 487.35 42.08C485.653 40.512 484.805 38.192 484.805 35.12V12.464H492.294V35.024C492.294 36.112 492.581 36.96 493.157 37.568C493.733 38.144 494.518 38.432 495.51 38.432C496.693 38.432 497.701 38.112 498.533 37.472L500.549 42.752C499.781 43.296 498.854 43.712 497.765 44C496.709 44.256 495.606 44.384 494.454 44.384ZM480.821 24.512V18.752H498.726V24.512H480.821Z" fill="white"/>
<path d="M78.7443 35.2008C78.6204 36.7233 78.641 38.2746 78.3449 39.763C77.5155 43.9319 75.2842 47.2473 71.8542 49.766C68.8403 51.9793 65.4377 52.9803 61.727 52.9827C50.0915 52.9902 38.4561 52.9957 26.8207 52.9761C20.1295 52.9648 13.9726 48.8604 11.4776 42.7332C10.541 40.433 10.0396 38.0251 10.2047 35.3704C10.2108 31.1459 10.2121 27.0673 10.2059 22.9887C10.205 22.3818 10.1687 21.775 10.1488 21.1682C10.303 19.2757 10.2829 17.3488 10.6494 15.4981C11.3204 12.1093 13.0851 9.28513 15.6761 6.9733C18.3214 4.6131 21.3805 3.16316 24.8973 2.69138C25.499 2.61067 26.1103 2.56566 26.7172 2.56489C38.3181 2.55029 49.9191 2.51554 61.5198 2.54934C67.6128 2.5671 72.498 5.06683 75.9674 10.0897C78.1166 13.2013 78.862 16.7479 78.7328 20.4951C78.7246 20.7327 78.7313 20.9708 78.7073 21.3349C78.6774 25.9415 78.6708 30.4219 78.6686 34.9024C78.6685 35.0018 78.718 35.1013 78.7443 35.2008Z" fill="#FCFAFA"/>
<path d="M81.0954 35.7651C80.9627 37.3967 80.9848 39.059 80.6678 40.654C79.7799 45.1213 77.3914 48.6739 73.7197 51.3729C70.4932 53.7446 66.8509 54.8172 62.8785 54.8198C50.423 54.8279 37.9675 54.8338 25.512 54.8128C18.3491 54.8007 11.7583 50.4025 9.08742 43.8368C8.08475 41.3719 7.54802 38.7916 7.72476 35.9469C7.73125 31.4201 7.73267 27.0495 7.72604 22.679C7.72505 22.0287 7.68621 21.3785 7.66488 20.7282C7.82999 18.7003 7.80852 16.6355 8.20077 14.6523C8.91905 11.0209 10.8081 7.99461 13.5818 5.51731C16.4135 2.98818 19.6882 1.43446 23.453 0.928918C24.0971 0.84243 24.7514 0.79419 25.4011 0.793372C37.8197 0.777724 50.2384 0.740485 62.6568 0.776709C69.1792 0.795735 74.4088 3.47439 78.1227 8.85682C80.4234 12.1911 81.2214 15.9915 81.0831 20.0069C81.0743 20.2615 81.0815 20.5167 81.0557 20.9068C81.0238 25.8431 81.0167 30.6443 81.0143 35.4454C81.0142 35.552 81.0672 35.6586 81.0954 35.7651ZM55.9662 8.88438C46.2968 8.88431 36.6273 8.88091 26.9579 8.88647C24.4709 8.8879 22.1023 9.35275 20.0393 10.8442C17.1796 12.9116 15.8553 15.7812 15.8315 19.2477C15.7938 24.7303 15.7945 30.2136 15.8438 35.6959C15.8555 36.9851 16.0176 38.2964 16.3012 39.5546C16.8308 41.9047 18.2783 43.662 20.2669 44.9693C22.1287 46.1932 24.2199 46.6413 26.4229 46.6413C38.5951 46.6412 50.7677 46.6946 62.9394 46.6128C68.1639 46.5776 72.6917 42.9166 72.7943 36.9833C72.9003 30.8489 72.9066 24.7095 72.7861 18.5756C72.6864 13.5085 69.0839 9.61148 64.0537 9.08558C61.4364 8.81194 58.7771 8.93876 55.9662 8.88438Z" fill="#0B1E3F"/>
<path d="M7.59587 20.7312C7.68621 21.3785 7.72505 22.0287 7.72604 22.679C7.73267 27.0495 7.73125 31.4201 7.71632 35.8675C6.74247 35.7085 5.75845 35.5477 4.8314 35.2241C-0.168688 33.4785 -1.2686 27.1641 1.6236 23.7154C3.14436 21.9021 5.15101 20.9218 7.59587 20.7312Z" fill="#5FA2D8"/>
<path d="M81.1693 35.7528C81.0672 35.6586 81.0142 35.552 81.0143 35.4454C81.0167 30.6443 81.0238 25.8431 81.0724 20.9842C84.3691 20.6113 88.1121 23.4864 88.6076 27.3221C89.0849 31.0178 86.7192 34.6412 83.1772 35.4728C82.5464 35.6209 81.8886 35.6541 81.1693 35.7528Z" fill="#5EA1D8"/>
<path d="M35.3847 40.8975C34.8015 39.8219 34.2015 38.8284 34.2426 37.5903C34.2722 36.6964 34.6455 36.0438 35.4451 35.7017C36.1719 35.3908 36.9315 35.1351 37.6992 34.9464C38.5768 34.7307 38.862 35.4612 39.1954 36.0442C39.5445 36.6547 39.7767 37.3528 40.2119 37.8898C41.9951 40.0901 44.4103 39.943 45.9648 37.5777C46.2435 37.1538 46.4712 36.6953 46.7074 36.2449C47.5233 34.6893 49.5776 34.5148 50.7257 35.8701C51.3219 36.5739 52.1756 37.1581 51.8135 38.2454C51.5314 39.0925 51.1857 39.9308 50.7639 40.7172C48.0675 45.7435 40.6638 45.7768 37.4998 43.1525C36.7273 42.5117 36.1046 41.6907 35.3847 40.8975Z" fill="#0C2041"/>
<path fill-rule="evenodd" clip-rule="evenodd" d="M59.2084 36.7964C64.9101 36.7964 69.5322 32.1793 69.5322 26.4839C69.5322 20.7884 64.9101 16.1714 59.2084 16.1714C53.5067 16.1714 48.8845 20.7884 48.8845 26.4839C48.8845 32.1793 53.5067 36.7964 59.2084 36.7964ZM59.1231 30.3191C61.1964 30.3191 62.8772 28.6402 62.8772 26.5691C62.8772 24.498 61.1964 22.8191 59.1231 22.8191C57.0497 22.8191 55.3689 24.498 55.3689 26.5691C55.3689 28.6402 57.0497 30.3191 59.1231 30.3191Z" fill="#B2213E"/>
<path fill-rule="evenodd" clip-rule="evenodd" d="M29.1754 36.6259C34.8771 36.6259 39.4992 32.0089 39.4992 26.3134C39.4992 20.618 34.8771 16.0009 29.1754 16.0009C23.4737 16.0009 18.8515 20.618 18.8515 26.3134C18.8515 32.0089 23.4737 36.6259 29.1754 36.6259ZM29.09 30.1487C31.1634 30.1487 32.8442 28.4697 32.8442 26.3987C32.8442 24.3276 31.1634 22.6487 29.09 22.6487C27.0167 22.6487 25.3359 24.3276 25.3359 26.3987C25.3359 28.4697 27.0167 30.1487 29.09 30.1487Z" fill="#B2213E"/>
</svg>
