<?xml version="1.0" encoding="UTF-8"?>
<svg id="Layer_1" data-name="Layer 1" xmlns="http://www.w3.org/2000/svg" viewBox="0 0 174 150">
  <defs>
    <style>
      .cls-1 {
        letter-spacing: -.08em;
      }

      .cls-2 {
        letter-spacing: -.04em;
      }

      .cls-3 {
        letter-spacing: 0em;
      }

      .cls-4 {
        letter-spacing: 0em;
      }

      .cls-5 {
        font-family: NeueKabel-ExtraBold, 'Neue Kabel';
        font-size: 32px;
        font-weight: 700;
      }

      .cls-5, .cls-6 {
      }

      .cls-6, .cls-7 {
        stroke-width: 0px;
      }

      .cls-7 {
        fill: #fff;
      }
    </style>
  </defs>
  <rect class="cls-7" x="-7" y="-7" width="188" height="162"/>
  <text class="cls-5" transform="translate(7.84 80.63)"><tspan class="cls-2" x="0" y="0">D</tspan><tspan class="cls-4" x="20.26" y="0">A</tspan><tspan x="36.85" y="0">S FI</tspan><tspan class="cls-1" x="88.45" y="0">L</tspan><tspan class="cls-3" x="100.79" y="0">TER</tspan></text>
  <text/>
  <g>
    <path class="cls-6" d="m50.03,94.97h-4.2l-.78,2.64h-3.42l4.45-12.66h3.69l4.45,12.66h-3.42l-.78-2.64Zm-.81-2.73l-1.28-4.32-1.28,4.32h2.57Z"/>
    <path class="cls-6" d="m58.66,90.05h3.54v2.89h-3.54v4.67h-3.2v-12.66h7.2l.42,2.89h-4.41v2.21Z"/>
    <path class="cls-6" d="m67.83,90.05h3.54v2.89h-3.54v4.67h-3.2v-12.66h7.2l.42,2.89h-4.41v2.21Z"/>
    <path class="cls-6" d="m77.09,97.61h-3.2v-12.66h3.2v12.66Z"/>
    <path class="cls-6" d="m86.93,94.53l-.45,3.07h-7.22v-12.66h3.2v9.59h4.47Z"/>
    <path class="cls-6" d="m91.58,97.61h-3.2v-12.66h3.2v12.66Z"/>
    <path class="cls-6" d="m101.27,94.97h-4.2l-.78,2.64h-3.42l4.45-12.66h3.69l4.45,12.66h-3.42l-.78-2.64Zm-.81-2.73l-1.28-4.32-1.28,4.32h2.57Z"/>
    <path class="cls-6" d="m110.68,87.93v9.68h-3.2v-9.68h-3.13l.43-2.98h8.61l.43,2.98h-3.15Z"/>
    <path class="cls-6" d="m123.05,94.81l-.4,2.8h-7.6v-12.66h7.42l.4,2.8h-4.67v2.03h3.78v2.8h-3.78v2.23h4.85Z"/>
    <path class="cls-6" d="m124.7,93.67c1.36.96,2.66,1.46,3.76,1.46.94,0,1.41-.49,1.41-1.09,0-.56-.36-.98-1.43-1.32l-.76-.25c-2.15-.71-3.11-2.1-3.11-3.91,0-2.22,1.75-3.89,4.32-3.89,1.16,0,2.37.29,3.64.89l-.42,2.88c-1.32-.69-2.41-1.03-3.27-1.03-.8,0-1.23.42-1.23,1s.36.94,1.43,1.28l.74.25c2.22.72,3.22,2.17,3.22,3.91,0,2.12-1.52,4.03-4.49,4.03-1.45,0-2.86-.43-4.25-1.28l.43-2.93Z"/>
  </g>
</svg>
