<svg fill="none" class="jetbrains-logo" viewBox="0 0 298 64" xmlns="http://www.w3.org/2000/svg">
    <style xmlns="http://www.w3.org/2000/svg">--&gt;@media (prefers-color-scheme:dark){.jetbrains-logo
        .currentColor{fill:#fff}}
    </style>
    <linearGradient id="a" x1=".85" x2="62.62" y1="62.72" y2="1.81" gradientUnits="userSpaceOnUse">
        <stop offset="0" stop-color="#ff9419"/>
        <stop offset=".43" stop-color="#ff021d"/>
        <stop offset=".99" stop-color="#e600ff"/>
    </linearGradient>
    <path fill="#000"
          d="M86.484 40.586c0 .846-.179 1.593-.537 2.25a3.718 3.718 0 01-1.514 1.524c-.657.358-1.394.538-2.24.538H78v6.104h5.079c1.912 0 3.624-.428 5.148-1.285s2.719-2.041 3.585-3.545c.866-1.503 1.305-3.196 1.305-5.088V21.018h-6.633zm17.856-1.823h13.891v-5.606H104.34v-6.363h15.355v-5.776H97.877v29.974h22.246v-5.776H104.34v-6.443zm17.865-11.8h8.882v24.02h6.633v-24.02h8.842v-5.945h-24.367v5.955zm47.022 9.002a7.85 7.85 0 00-1.673-.647 7.47 7.47 0 001.275-.488c1.096-.568 1.962-1.364 2.579-2.39.618-1.026.936-2.2.936-3.535 0-1.524-.418-2.888-1.244-4.093-.827-1.195-1.992-2.131-3.486-2.808-1.494-.667-3.206-1.006-5.118-1.006h-13.315v29.974h13.574c2.011 0 3.804-.348 5.387-1.055 1.573-.707 2.798-1.683 3.675-2.948.866-1.255 1.304-2.689 1.304-4.302 0-1.484-.338-2.808-1.026-3.983a7.05 7.05 0 00-2.858-2.729zm-13.603-9.918h5.886c.816 0 1.533.15 2.161.438a3.353 3.353 0 011.464 1.255c.348.537.527 1.175.527 1.902 0 .727-.179 1.414-.527 1.981-.349.568-.837.996-1.464 1.305-.628.309-1.345.458-2.161.458h-5.886v-7.35zm10.138 18.134c-.378.567-.916 1.006-1.603 1.314-.697.309-1.484.458-2.39.458h-6.145v-7.687h6.145c.886 0 1.673.169 2.37.497.687.329 1.235.787 1.613 1.385s.578 1.274.578 2.041c0 .767-.19 1.424-.568 1.992zm29.596-5.308c1.663-.797 2.947-1.922 3.864-3.366.916-1.444 1.374-3.117 1.374-5.029s-.448-3.525-1.344-4.959c-.897-1.434-2.171-2.54-3.814-3.326-1.644-.787-3.546-1.175-5.717-1.175h-13.124v29.974h6.642V40.078h4.322l6.084 10.914h7.578l-6.851-11.72c.339-.12.677-.25.996-.399zm-2.151-6.124a3.599 3.599 0 01-1.583 1.444c-.688.338-1.494.507-2.42.507h-5.975v-8.295h5.975c.926 0 1.732.17 2.42.498a3.637 3.637 0 011.583 1.434c.368.618.558 1.355.558 2.19 0 .837-.19 1.574-.558 2.202zm20.594-11.731l-10.706 29.974h6.742l2.121-6.612h11.114l2.27 6.612h6.612L220.99 21.018zm-.339 18.343l3.445-10.576.409-1.922.408 1.922 3.685 10.576zm20.693 11.631h6.851V21.018h-6.851zm31.02-9.7l-12.896-20.274h-6.463v29.974h6.055V30.717l12.826 20.275h6.533V21.018h-6.055zm31.528-3.355c-.647-1.245-1.564-2.29-2.729-3.137-1.165-.846-2.509-1.404-4.023-1.693l-5.098-1.045c-.797-.19-1.434-.518-1.902-.996-.469-.478-.708-1.076-.708-1.783 0-.647.17-1.205.518-1.683.339-.478.827-.846 1.444-1.115.618-.269 1.335-.398 2.151-.398.817 0 1.554.139 2.181.418s1.115.667 1.464 1.175.528 1.075.528 1.723h6.642c-.04-1.743-.528-3.287-1.444-4.621-.916-1.344-2.201-2.39-3.834-3.147-1.633-.757-3.505-1.135-5.597-1.135-2.091 0-3.943.388-5.566 1.175s-2.898 1.872-3.804 3.266c-.906 1.395-1.364 2.978-1.364 4.76 0 1.444.288 2.749.876 3.904a7.908 7.908 0 002.479 2.898c1.076.767 2.311 1.304 3.725 1.603l5.397 1.115c.886.21 1.584.598 2.101 1.156.518.557.767 1.244.767 2.08a3.03 3.03 0 01-.567 1.803c-.379.528-.907.936-1.584 1.225s-1.474.428-2.39.428-1.782-.159-2.529-.478c-.747-.318-1.325-.776-1.733-1.374-.418-.587-.617-1.275-.617-2.041h-6.642c.029 1.872.527 3.515 1.513 4.949.976 1.424 2.32 2.54 4.033 3.336 1.713.797 3.675 1.195 5.886 1.195 2.21 0 4.202-.408 5.915-1.225 1.723-.816 3.057-1.942 4.023-3.376s1.444-3.057 1.444-4.87c0-1.483-.329-2.847-.976-4.102z"
          class="currentColor"/>
    <path fill="url(#a)"
          d="M20.34 3.66L3.66 20.34A12.504 12.504 0 000 29.18V59c0 2.76 2.24 5 5 5h29.82c3.32 0 6.49-1.32 8.84-3.66l16.68-16.68c2.34-2.34 3.66-5.52 3.66-8.84V5c0-2.76-2.24-5-5-5H29.18c-3.32 0-6.49 1.32-8.84 3.66z"/>
    <path fill="#000" d="M48 16H8v40h40z"/>
    <path fill="#fff" d="M30 47H13v4h17z"/>
</svg>
