<svg width="154" height="35" viewBox="0 0 154 35" xmlns="http://www.w3.org/2000/svg"><g fill="none" fill-rule="evenodd"><path d="M34.04 13.048c.425 2.306.588 8.104.588 13.79 0 4.94-8.699 8.162-17.314 8.162C8.694 35 0 31.777 0 26.838c0-5.686.159-11.484.588-13.79.398-2.154 9.514-3.745 15.481-3.95V4.966a2.592 2.592 0 0 1-1.538-2.374C14.53 1.162 15.68 0 17.095 0c1.42 0 2.568 1.162 2.568 2.592a2.588 2.588 0 0 1-1.542 2.374v4.12c5.947.14 15.509 1.755 15.919 3.962zM21.747 32.593c.497-.269.68-.9.413-1.402a1.018 1.018 0 0 0-1.391-.418c-.016.004-1.372.715-3.467.715-2.076 0-3.407-.699-3.443-.715a1.018 1.018 0 0 0-1.387.41 1.044 1.044 0 0 0 .405 1.41c.072.04 1.777.968 4.425.968 2.644 0 4.37-.928 4.445-.968zM3.74 24.046c0 3.223 2.585 5.835 5.769 5.835 3.188 0 5.773-2.612 5.773-5.835 0-3.222-2.585-5.835-5.773-5.835-3.184 0-5.769 2.613-5.769 5.835zm21.373 5.835c3.189 0 5.773-2.612 5.773-5.835 0-3.222-2.584-5.835-5.773-5.835-3.189 0-5.773 2.613-5.773 5.835 0 3.223 2.584 5.835 5.773 5.835z" fill="#FFFFFE" fill-rule="nonzero"/><path d="M10.794 26.638a1.292 1.292 0 0 1-1.284-1.294c0-.716.577-1.298 1.284-1.298.708 0 1.284.582 1.284 1.298 0 .711-.576 1.294-1.284 1.294zM9.51 20.156c-2.12 0-3.844 1.744-3.844 3.89s1.725 3.89 3.844 3.89c2.122 0 3.848-1.744 3.848-3.89s-1.726-3.89-3.848-3.89zM26.395 26.638a1.292 1.292 0 0 1-1.283-1.294c0-.716.576-1.298 1.283-1.298.708 0 1.284.582 1.284 1.298 0 .711-.576 1.294-1.284 1.294zm-1.283-6.482c-2.118 0-3.843 1.744-3.843 3.89s1.725 3.89 3.843 3.89c2.122 0 3.847-1.744 3.847-3.89s-1.725-3.89-3.847-3.89z" fill="#FFFFFE" fill-rule="nonzero"/><g transform="translate(43 12)" fill="#FFF"><path fill-rule="nonzero" d="M11.69 3.082H7.015v11.974H4.676V3.082H0V.876h11.69v2.206M18.51 6.232h-3.118c-.526 0-.78.315-.78.946v7.878h-2.337V7.178c0-2.148.993-3.152 3.117-3.152h3.118v2.206M27.666 9.777L22.99 10.96c-.702.176-.78.414-.78.945 0 .63.254.945.78.945h3.897c.526 0 .778-.314.778-.945V9.777h.001zm2.34-2.6v4.726c0 2.145-.994 3.15-3.118 3.15H22.99c-2.123 0-3.117-1.005-3.117-3.15 0-.946.312-1.595.994-1.99.701-.413 1.111-.55 2.123-.806l4.677-1.181v-.747c0-.63-.254-.946-.778-.946H22.99c-.525 0-.779.315-.779.946v.787h-2.338v-.787c0-2.148.994-3.152 3.117-3.152h3.898c2.123 0 3.116 1.003 3.116 3.15zM40.04 7.178c0-.63-.254-.946-.779-.946h-3.898c-.527 0-.78.315-.78.946v7.878h-2.337V7.178c0-2.148.994-3.152 3.117-3.152h3.898c2.123 0 3.116 1.004 3.116 3.152v7.878H40.04V7.178M51.535 15.056h-3.898c-2.124 0-3.117-1.006-3.117-3.152v-.787h2.339v.787c0 .63.253.945.778.945h3.898c.526 0 .778-.314.778-.945 0-.452 0-.67-.778-.945l-3.898-.985c-1.014-.257-1.422-.393-2.124-.788-.682-.414-.993-1.063-.993-2.008 0-2.148.993-3.152 3.117-3.152h3.898c2.123 0 3.116 1.004 3.116 3.152v.787h-2.337v-.787c0-.63-.254-.946-.778-.946h-3.899c-.526 0-.777.315-.777.946 0 .45 0 .669.777.945l3.899.984c1.013.258 1.42.394 2.104.808.702.393 1.013 1.044 1.013 1.99-.001 2.145-.994 3.15-3.118 3.15M59.523 12.849h1.948v2.204h-1.948c-1.95 0-2.728-.787-2.728-2.757V.875h2.338v11.422c0 .394.059.552.39.552M70.726 7.178c0-.63-.254-.946-.78-.946H66.05c-.528 0-.78.315-.78.946v4.725c0 .63.254.946.78.946h3.897c.526 0 .778-.317.778-.946V7.178zm2.339 0v4.725c0 2.145-.957 3.15-3.118 3.15H66.05c-2.163 0-3.117-1.005-3.117-3.15V7.178c0-2.148.955-3.152 3.117-3.152h3.897c2.163 0 3.118 1.004 3.118 3.152zM82.904 9.777l-4.676 1.182c-.703.176-.78.414-.78.945 0 .63.253.945.78.945h3.897c.526 0 .779-.314.779-.945V9.777zm2.337-2.6v4.726c0 2.145-.992 3.15-3.116 3.15h-3.897c-2.123 0-3.118-1.005-3.118-3.15 0-.946.312-1.595.995-1.99.7-.413 1.109-.55 2.123-.806l4.676-1.181v-.747c0-.63-.254-.946-.779-.946h-3.897c-.527 0-.78.315-.78.946v.787H75.11v-.787c0-2.148.995-3.152 3.118-3.152h3.897c2.123 0 3.116 1.003 3.116 3.15zM95.178 11.904V6.233h-4.676c-.527 0-.779.314-.779.945v4.725c0 .63.253.946.78.946h3.896c.526 0 .78-.314.78-.945zM97.516.876v11.028c0 2.146-.955 3.152-3.117 3.152h-3.897c-2.164 0-3.117-1.006-3.117-3.152V7.18c0-2.148.954-3.151 3.117-3.151h4.676V.876h2.338zM102.192 4.122v10.931h-2.338V4.122h2.338z"/><circle cx="100.938" cy="1.494" r="1.494"/><path d="M110.765 12.849v2.204h-3.507c-1.947 0-2.726-.787-2.726-2.757V.875h2.337v3.151h3.507v2.206h-3.507v6.063c0 .395.06.553.39.553h3.506" fill-rule="nonzero"/></g></g></svg>