<?xml version="1.0" encoding="UTF-8"?>
<svg version="1.1" xmlns="http://www.w3.org/2000/svg" width="600" height="180" viewBox="0 0 600 180">
<style>
	svg {
		--broadband-map-primary: oklch(0.55 0.18 235);
		--broadband-map-secondary: oklch(0.15 0.01 240);
		--broadband-map-accent: oklch(0.28 0.02 240);
	}
	@media (prefers-color-scheme: dark) {
		svg {
			--broadband-map-primary: oklch(0.65 0.18 235);
			--broadband-map-secondary: oklch(0.85 0.01 240);
			--broadband-map-accent: oklch(0.72 0.02 240);
		}
	}
</style>
<path d="M0 0 C4.35024634 3.30997004 8.19200656 7.08985472 12 11 C13.03447266 12.03833984 13.03447266 12.03833984 14.08984375 13.09765625 C25.39228698 25.14205418 31.72670073 42.99668744 31.25 59.47265625 C29.68510486 75.2927681 24.97055501 88.63096158 15 101 C14.35417969 101.84691406 13.70835937 102.69382812 13.04296875 103.56640625 C7.28291714 110.42780616 -0.95863404 116.10473282 -9 120 C-9.99 120 -10.98 120 -12 120 C-13.37304602 105.87966258 -13.37304602 105.87966258 -10.13671875 101.44921875 C-7.15763059 99.17223975 -4.14054716 97.53942108 -0.76171875 95.94140625 C1.60282563 94.67786923 1.88205073 93.4331837 3 91 C4.60917381 88.62455294 6.29944627 86.31067606 8 84 C6.35 84.33 4.7 84.66 3 85 C2.84768995 81.19224887 2.82241193 78.44397017 4.25 74.875 C4.62125 73.451875 4.62125 73.451875 5 72 C3.69864875 70.30824337 2.36244796 68.64295195 1 67 C0.75 63.1875 0.75 63.1875 1 60 C-0.8871875 59.7215625 -0.8871875 59.7215625 -2.8125 59.4375 C-9.17436928 58.03384948 -16.69168036 54.53987211 -20.33984375 48.9453125 C-21.21902928 46.35457644 -20.72091408 44.5952907 -20 42 C-19.34 42 -18.68 42 -18 42 C-18 41.34 -18 40.68 -18 40 C-17.01 39.01 -17.01 39.01 -16 38 C-23.32901118 36.19889833 -30.47407567 34.6377902 -38 34 C-38 37.96 -38 41.92 -38 46 C-39.65 46 -41.3 46 -43 46 C-43 42.04 -43 38.08 -43 34 C-51.68975867 35.20833922 -60.35366532 36.51143689 -69 38 C-68.855625 38.65226562 -68.71125 39.30453125 -68.5625 39.9765625 C-67.55372706 44.72620177 -66.74284694 49.11409188 -67 54 C-68.98 54.99 -68.98 54.99 -71 56 C-72.57077907 50.97350697 -73.44854729 46.23880078 -74 41 C-75.64703306 41.81006526 -77.29259506 42.6231221 -78.9375 43.4375 C-80.31228516 44.11619141 -80.31228516 44.11619141 -81.71484375 44.80859375 C-83.90528904 45.80525394 -83.90528904 45.80525394 -85 47 C-84.175 47.433125 -83.35 47.86625 -82.5 48.3125 C-81.675 48.869375 -80.85 49.42625 -80 50 C-80 50.99 -80 51.98 -80 53 C-78.824375 53.4640625 -78.824375 53.4640625 -77.625 53.9375 C-75 55 -75 55 -73 56 C-74.8878636 60.3361867 -77.90881604 63.2841346 -81.125 66.68359375 C-83.07661856 69.09465584 -84.13156145 71.03003611 -85 74 C-84.44586908 77.24720222 -84.44586908 77.24720222 -83 80 C-81.515 80.495 -81.515 80.495 -80 81 C-78.91954937 84.2413519 -79.16342219 85.90292066 -79.5 89.25 C-79.56263459 92.88762432 -79.50343877 94.41351978 -77.10546875 97.20703125 C-74.80498506 98.97234588 -72.49356239 100.52281192 -70 102 C-69.01 102.66 -68.02 103.32 -67 104 C-66.7791436 106.95064148 -66.71939011 109.68368231 -66.8125 112.625 C-66.83280273 113.82769531 -66.83280273 113.82769531 -66.85351562 115.0546875 C-66.88890949 117.03674378 -66.94271766 119.01845551 -67 121 C-82.52948349 116.73700453 -95.2697451 102.51170604 -103 89 C-111.44971334 70.90566436 -112.73464328 51.85257049 -106 33 C-98.89436706 14.73956828 -84.78779151 1.96760269 -67.4375 -6.3125 C-65.9698139 -6.90430891 -64.48984959 -7.46643795 -63 -8 C-62.19304688 -8.29777344 -61.38609375 -8.59554688 -60.5546875 -8.90234375 C-40.43539815 -15.12155427 -17.57446295 -11.07599874 0 0 Z M-38 -5 C-38 -4.01 -38 -3.02 -38 -2 C-36.329375 -1.2884375 -36.329375 -1.2884375 -34.625 -0.5625 C-26.45306145 3.53070108 -17.98188728 11.29622066 -13 19 C-13 20.32 -13 21.64 -13 23 C-11.68 22.34 -10.36 21.68 -9 21 C-9.37125 19.906875 -9.7425 18.81375 -10.125 17.6875 C-10.41375 16.470625 -10.7025 15.25375 -11 14 C-8.17446016 9.76169024 -5.87819112 10.02284652 -1 9 C-10.60481361 0.3887878 -24.90726745 -5.65716418 -38 -5 Z M-53.25 -3.5 C-54.86648437 -3.08234375 -54.86648437 -3.08234375 -56.515625 -2.65625 C-57.33546875 -2.4396875 -58.1553125 -2.223125 -59 -2 C-59 -1.67 -59 -1.34 -59 -1 C-54.71 -0.67 -50.42 -0.34 -46 0 C-45 4 -45 4 -45.6484375 6.109375 C-47.36705697 8.51345541 -48.8990802 9.15963208 -51.625 10.25 C-52.44226563 10.58515625 -53.25953125 10.9203125 -54.1015625 11.265625 C-55.04128906 11.62914062 -55.04128906 11.62914062 -56 12 C-56 12.66 -56 13.32 -56 14 C-58.31 14 -60.62 14 -63 14 C-62.84402344 13.43410156 -62.68804687 12.86820313 -62.52734375 12.28515625 C-62.33269531 11.55167969 -62.13804688 10.81820313 -61.9375 10.0625 C-61.74027344 9.33160156 -61.54304688 8.60070312 -61.33984375 7.84765625 C-61.22769531 7.23792969 -61.11554688 6.62820312 -61 6 C-62.12534105 4.64381501 -62.12534105 4.64381501 -65.0625 4.9375 C-66.5165625 4.9684375 -66.5165625 4.9684375 -68 5 C-67.01 6.485 -67.01 6.485 -66 8 C-66.37931547 11.03452373 -67.25040681 12.37561021 -69 15 C-67.515 15.99 -67.515 15.99 -66 17 C-65.3125 19.625 -65.3125 19.625 -65 22 C-65.9590625 22.4640625 -65.9590625 22.4640625 -66.9375 22.9375 C-68.93610821 23.8345163 -68.93610821 23.8345163 -70 25 C-70.07148199 26.35243917 -70.08399454 27.70834367 -70.0625 29.0625 C-70.041875 30.361875 -70.02125 31.66125 -70 33 C-69.47535156 32.87882812 -68.95070312 32.75765625 -68.41015625 32.6328125 C-60.00102877 30.81386646 -51.54491436 29.94943493 -43 29 C-43 17.78 -43 6.56 -43 -5 C-46.79967569 -5 -49.60037637 -4.45207573 -53.25 -3.5 Z M-38 2 C-38 10.91 -38 19.82 -38 29 C-31.4 29.66 -24.8 30.32 -18 31 C-18.495 28.525 -18.495 28.525 -19 26 C-17.35 25.67 -15.7 25.34 -14 25 C-16.33214148 23.79371992 -18.49642139 22.8345262 -21 22 C-20.855625 21.175 -20.71125 20.35 -20.5625 19.5 C-21.35374477 13.17004182 -26.56986955 9.1486896 -31.1875 5.0625 C-33.9902209 2.73460617 -33.9902209 2.73460617 -38 2 Z M-84 12 C-84.33 12.99 -84.66 13.98 -85 15 C-83.02 15.66 -81.04 16.32 -79 17 C-79 16.01 -79 15.02 -79 14 C-78.38125 13.71125 -77.7625 13.4225 -77.125 13.125 C-74.86674235 12.06279958 -74.86674235 12.06279958 -73 10 C-77.13537997 10 -80.12137916 10.60955102 -84 12 Z M-77 26 C-77.99 27.1446875 -77.99 27.1446875 -79 28.3125 C-81.90438564 31.34464454 -85.00453063 32.15236461 -89.01171875 33.12890625 C-91.5881938 34.25769591 -91.90647268 35.48142351 -93 38 C-95.125 39.25 -95.125 39.25 -97 40 C-97 40.66 -97 41.32 -97 42 C-94.59380532 43.6186466 -94.59380532 43.6186466 -91 44 C-87.09022256 42.39379026 -83.5789651 40.23489961 -80 38 C-78.33414261 36.99865244 -76.66773012 35.99822544 -75 35 C-75.33 32.03 -75.66 29.06 -76 26 C-76.33 26 -76.66 26 -77 26 Z M-7 29 C-8.32 30.32 -9.64 31.64 -11 33 C-9.01432292 32.96744792 -7.02864583 32.93489583 -5.04296875 32.90234375 C-3 33 -3 33 0 34 C0 34.66 0 35.32 0 36 C2.10018513 36.41644184 4.20541042 36.80753303 6.3125 37.1875 C7.48425781 37.40792969 8.65601563 37.62835938 9.86328125 37.85546875 C10.89839844 37.90316406 11.93351562 37.95085938 13 38 C13.99 37.01 14.98 36.02 16 35 C11.38 33.35 6.76 31.7 2 30 C2 30.66 2 31.32 2 32 C-0.97 31.01 -3.94 30.02 -7 29 Z M-99 34 C-98.67 34.99 -98.34 35.98 -98 37 C-97.01 37 -96.02 37 -95 37 C-95 36.34 -95 35.68 -95 35 C-96.32 34.67 -97.64 34.34 -99 34 Z M-103 50 C-103 51.65 -103 53.3 -103 55 C-102.34 55 -101.68 55 -101 55 C-101.33 53.35 -101.66 51.7 -102 50 C-102.33 50 -102.66 50 -103 50 Z M-103 60 C-104.1931621 71.69298856 -98.53127294 83.61016439 -92 93 C-91.29875 94.010625 -90.5975 95.02125 -89.875 96.0625 C-87.82066889 98.18530882 -86.80805531 98.43489343 -84 99 C-84.43570313 98.34515625 -84.87140625 97.6903125 -85.3203125 97.015625 C-93.1451602 85.02429995 -97.99818529 73.91429405 -101 60 C-101.66 60 -102.32 60 -103 60 Z M23 60 C21.79438816 60.98267859 21.79438816 60.98267859 21.90234375 62.84765625 C21.91394531 63.57855469 21.92554688 64.30945313 21.9375 65.0625 C21.958125 66.361875 21.97875 67.66125 22 69 C24.29013653 65.5647952 24.17842973 64.014669 24 60 C23.67 60 23.34 60 23 60 Z M20 75 C19.54109375 75.72445312 19.0821875 76.44890625 18.609375 77.1953125 C13.91132495 84.59770228 9.12289837 91.88486337 4 99 C7.37832621 98.7179832 8.71358467 98.29868265 11.09765625 95.8125 C17.1033098 87.45123074 17.1033098 87.45123074 21 78 C20.67 77.01 20.34 76.02 20 75 Z "
	fill="var(--broadband-map-primary)" transform="translate(126,16)"/>
<path d="M0 0 C5.61 0 11.22 0 17 0 C17.53625 1.216875 18.0725 2.43375 18.625 3.6875 C21.34950262 9.82253108 24.1762747 15.91016578 27 22 C27.54269531 20.91460937 28.08539063 19.82921875 28.64453125 18.7109375 C31.76302083 12.47395833 34.88151042 6.23697917 38 0 C43.61 0 49.22 0 55 0 C55 16.17 55 32.34 55 49 C50.71 49 46.42 49 42 49 C41.67 39.43 41.34 29.86 41 20 C38.40953522 26.20676289 38.40953522 26.20676289 35.82446289 32.41577148 C35.5021167 33.18477783 35.17977051 33.95378418 34.84765625 34.74609375 C34.51773682 35.53685303 34.18781738 36.3276123 33.84790039 37.14233398 C33 39 33 39 32 40 C30.48071962 40.07179964 28.95832518 40.08392007 27.4375 40.0625 C26.61121094 40.05347656 25.78492188 40.04445312 24.93359375 40.03515625 C24.29550781 40.02355469 23.65742188 40.01195312 23 40 C21.86988348 37.7941576 20.74584212 35.58554973 19.625 33.375 C19.30789063 32.75753906 18.99078125 32.14007813 18.6640625 31.50390625 C18.2 30.58544922 18.2 30.58544922 17.7265625 29.6484375 C17.44377441 29.09333496 17.16098633 28.53823242 16.86962891 27.96630859 C15.72801711 25.38502241 14.8925422 22.67762661 14 20 C13.67 29.57 13.34 39.14 13 49 C8.71 49 4.42 49 0 49 C0 32.83 0 16.66 0 0 Z "
	fill="var(--broadband-map-secondary)" transform="translate(311,99)"/>
<path d="M0 0 C2.8125 2.4375 2.8125 2.4375 5 5 C5.721875 5.804375 6.44375 6.60875 7.1875 7.4375 C10.47095501 12.07962605 11.30643849 16.69731219 11.375 22.3125 C11.40335938 23.36050781 11.43171875 24.40851563 11.4609375 25.48828125 C10.35481576 33.91542908 5.47397182 40.68441991 0.6875 47.5 C0.14416016 48.29019531 -0.39917969 49.08039063 -0.95898438 49.89453125 C-4.32236534 54.7470124 -7.84288443 59.44415407 -11.50854492 64.07226562 C-12.74039693 65.66445804 -13.88333793 67.3250069 -15 69 C-15.66 69 -16.32 69 -17 69 C-18.33984375 67.375 -18.33984375 67.375 -19.9375 65 C-20.55238281 64.09636719 -21.16726562 63.19273437 -21.80078125 62.26171875 C-22.52652344 61.18535156 -23.25226563 60.10898438 -24 59 C-25.38953894 56.96984614 -26.78335388 54.94267879 -28.17797852 52.91601562 C-29.12135682 51.54463931 -30.06332109 50.17228886 -31.00366211 48.79882812 C-31.44846924 48.14978516 -31.89327637 47.50074219 -32.3515625 46.83203125 C-32.78863525 46.19426758 -33.22570801 45.55650391 -33.67602539 44.89941406 C-34.99612126 43.00556455 -36.35680404 41.14616416 -37.72265625 39.28515625 C-42.17346738 32.86468942 -44.17810019 25.80164128 -43 18 C-40.60630472 9.50624256 -36.43610408 2.95740272 -29 -2 C-19.72558602 -5.86433916 -8.49824282 -5.48733499 0 0 Z M-29 14 C-31.53021191 18.30770846 -31.51877894 22.11837519 -31 27 C-29.42370537 32.12295756 -26.71172417 34.51030369 -22.18359375 37.0859375 C-17.45451009 39.06555391 -13.53919959 38.59199984 -8.75 36.75 C-4.93293986 34.32096173 -2.65206638 32.36623431 -0.6875 28.25 C0.46531642 22.80032238 -0.15297955 18.76180253 -2.5625 13.75 C-6.36401988 9.46110578 -10.45395197 7.35644672 -16.125 6.5625 C-21.57847551 7.39237671 -25.45836154 9.8259261 -29 14 Z "
	fill="var(--broadband-map-accent)" transform="translate(102,106)"/>
<path d="M0 0 C31.44444444 0 31.44444444 0 37 5 C39.32250299 8.90602776 39.3997464 12.52284036 39 17 C38.46375 17.886875 37.9275 18.77375 37.375 19.6875 C36.694375 20.8321875 36.694375 20.8321875 36 22 C36.776179 24.4837728 38.07522228 26.10126076 39.625 28.1875 C41.57410366 32.17430294 41.69205024 35.64008348 41 40 C38.77961286 44.44077427 36.50461946 46.91249342 32 49 C28.15406997 49.96657081 24.56319134 50.11641323 20.60546875 50.09765625 C19.52160889 50.09515869 18.43774902 50.09266113 17.32104492 50.09008789 C15.27494019 50.07643188 15.27494019 50.07643188 13.1875 50.0625 C6.6596875 50.0315625 6.6596875 50.0315625 0 50 C0 33.5 0 17 0 0 Z M14 10 C14 12.97 14 15.94 14 19 C15.8871875 19.061875 15.8871875 19.061875 17.8125 19.125 C18.52019531 19.14820313 19.22789062 19.17140625 19.95703125 19.1953125 C22.31359719 19.13254462 22.31359719 19.13254462 25 17 C25.5 14.5 25.5 14.5 25 12 C21.91111478 9.94074319 21.29064073 9.7609626 17.8125 9.875 C16.554375 9.91625 15.29625 9.9575 14 10 Z M14 29 C14 32.63 14 36.26 14 40 C15.423125 40.020625 16.84625 40.04125 18.3125 40.0625 C19.11300781 40.07410156 19.91351563 40.08570313 20.73828125 40.09765625 C23.16861334 40.09657855 23.16861334 40.09657855 26 39 C26.76522801 35.64541845 26.76522801 35.64541845 27 32 C25.9183906 30.16778211 25.9183906 30.16778211 24 29 C21.48710325 28.63786432 21.48710325 28.63786432 18.8125 28.8125 C17.224375 28.874375 15.63625 28.93625 14 29 Z "
	fill="var(--broadband-map-secondary)" transform="translate(186,19)"/>
<path d="M0 0 C4.29 0 8.58 0 13 0 C13 17.16 13 34.32 13 52 C8.71 52 4.42 52 0 52 C-0.33 51.01 -0.66 50.02 -1 49 C-1.79277344 49.72703125 -1.79277344 49.72703125 -2.6015625 50.46875 C-7.20682745 53.40891915 -12.74647913 52.69262837 -18 52 C-21.73195576 50.35850066 -23.55390746 47.66144755 -25.8125 44.3125 C-28.44309096 36.97453574 -28.5671515 30.33471857 -26 23 C-23.81196565 19.13447265 -21.82491986 16.28049345 -18 14 C-14.90625 13.6015625 -14.90625 13.6015625 -11.5 13.625 C-10.3759375 13.61726563 -9.251875 13.60953125 -8.09375 13.6015625 C-5 14 -5 14 -1 17 C-0.67 11.39 -0.34 5.78 0 0 Z M-12.3125 24.875 C-14.69842031 29.29337095 -14.78092242 33.08099381 -14 38 C-12.68944108 41.28904021 -12.68944108 41.28904021 -10 43 C-6.00561826 42.93113135 -3.8685771 42.8685771 -1 40 C0.3078259 34.72650847 0.41958439 29.96014801 -2 25 C-6.07005556 22.28662963 -8.38209046 21.68818145 -12.3125 24.875 Z "
	fill="var(--broadband-map-secondary)" transform="translate(571,17)"/>
<path d="M0 0 C4.7665852 2.0125582 7.3511077 5.41732639 10.08984375 9.70703125 C12.38246256 15.48285633 11.83725088 23.63595603 10.34765625 29.62109375 C8.57866131 33.63739556 6.17663729 36.40951106 2.1328125 38.37890625 C-2.15438011 39.62737443 -6.61080128 39.74609657 -11 39 C-12.32 38.01 -13.64 37.02 -15 36 C-15.33 41.28 -15.66 46.56 -16 52 C-20.29 52 -24.58 52 -29 52 C-29 35.17 -29 18.34 -29 1 C-24.71 1 -20.42 1 -16 1 C-15.67 1.66 -15.34 2.32 -15 3 C-14.195625 2.505 -13.39125 2.01 -12.5625 1.5 C-8.17643454 -0.34676441 -4.69306712 -0.63443315 0 0 Z M-14.375 11.9375 C-16.52879516 15.99657549 -16.69472401 19.48429395 -16 24 C-14.75279537 27.1753569 -14.75279537 27.1753569 -12 29 C-7.94857881 29.25860135 -6.45662331 29.30441554 -3 27 C-1.5034674 22.51040221 -1.09696201 16.4980898 -3 12 C-7.22269017 9.18487322 -10.2982004 8.6116898 -14.375 11.9375 Z "
	fill="var(--broadband-map-secondary)" transform="translate(450,110)"/>
<path d="M0 0 C3.96 0 7.92 0 12 0 C12.33 5.61 12.66 11.22 13 17 C14.32 16.01 15.64 15.02 17 14 C21.93049604 13.23558201 27.4532341 12.83672159 32.078125 14.94921875 C33.625 16.1875 33.625 16.1875 36 19 C36.598125 19.70125 37.19625 20.4025 37.8125 21.125 C40.51387736 27.66517677 40.64929639 35.10338762 38.87109375 41.921875 C37.11916512 46.10136393 34.08760697 49.95619651 30 52 C27.87856978 52.14867166 25.75144008 52.2213289 23.625 52.25 C21.91183594 52.28867188 21.91183594 52.28867188 20.1640625 52.328125 C16.77063765 51.97621427 15.45291079 51.29582784 13 49 C12.67 49.99 12.34 50.98 12 52 C8.04 52 4.08 52 0 52 C0 34.84 0 17.68 0 0 Z M14.75 24.4375 C12.2303799 28.12694371 11.92115258 31.5845444 12 36 C13.01099154 39.95971687 13.53523689 40.69015792 17 43 C20.63939932 42.68269476 20.63939932 42.68269476 24 42 C26.76579214 36.055673 26.76579214 36.055673 26.375 29.6875 C25.02528536 25.61733952 25.02528536 25.61733952 22 23 C18.82323714 22.42981179 17.47680974 22.69537155 14.75 24.4375 Z "
	fill="var(--broadband-map-secondary)" transform="translate(407,17)"/>
<path d="M0 0 C3.96 0 7.92 0 12 0 C12 17.16 12 34.32 12 52 C8.04 52 4.08 52 0 52 C-0.33 51.01 -0.66 50.02 -1 49 C-1.79277344 49.72703125 -1.79277344 49.72703125 -2.6015625 50.46875 C-7.20969972 53.41075291 -12.7433539 52.68650229 -18 52 C-21.85199919 50.370865 -23.61573914 47.58919998 -25.875 44.125 C-28.23974229 37.69629941 -28.25353002 29.11777874 -26.2734375 22.61328125 C-24.27054389 18.85989119 -21.49010214 16.3365938 -18 14 C-14.80859375 13.50390625 -14.80859375 13.50390625 -11.4375 13.5625 C-9.76494141 13.56443359 -9.76494141 13.56443359 -8.05859375 13.56640625 C-5 14 -5 14 -1 17 C-0.67 11.39 -0.34 5.78 0 0 Z M-11.75 24.875 C-14.50587932 28.70261017 -14.67624864 30.99742527 -14.4140625 35.61328125 C-13.80057012 39.14954394 -12.88768173 40.85274948 -10 43 C-6.39418221 43.41349769 -6.39418221 43.41349769 -3 42 C-0.22106623 38.52633279 0.21507235 35.68804736 -0.0625 31.375 C-0.53789668 28.31075834 -0.97815437 27.0308852 -2.8125 24.4375 C-6.34353428 22.11710604 -8.35807488 22.56232378 -11.75 24.875 Z "
	fill="var(--broadband-map-secondary)" transform="translate(384,17)"/>
<path d="M0 0 C1.03769531 -0.02900391 2.07539063 -0.05800781 3.14453125 -0.08789062 C9.34499801 -0.13936321 13.06654868 0.10585325 17.75 4.3125 C21.28554298 9.18911101 21.87789526 13.24502892 21.84765625 19.171875 C21.84443359 20.28691406 21.84121094 21.40195312 21.83789062 22.55078125 C21.82532227 24.28908203 21.82532227 24.28908203 21.8125 26.0625 C21.80798828 27.23683594 21.80347656 28.41117188 21.79882812 29.62109375 C21.78705106 32.51825095 21.76911588 35.41538193 21.75 38.3125 C17.46 38.3125 13.17 38.3125 8.75 38.3125 C8.42 37.3225 8.09 36.3325 7.75 35.3125 C6.97849609 36.04533203 6.97849609 36.04533203 6.19140625 36.79296875 C2.905155 38.83833153 0.53125656 38.67754347 -3.3125 38.625 C-4.54097656 38.62113281 -5.76945312 38.61726563 -7.03515625 38.61328125 C-10.25 38.3125 -10.25 38.3125 -13.25 36.3125 C-13.25 35.6525 -13.25 34.9925 -13.25 34.3125 C-13.91 34.3125 -14.57 34.3125 -15.25 34.3125 C-17.35407119 30.10435762 -16.76887433 24.88469852 -16.25 20.3125 C-13.80998629 16.37699401 -11.39761701 15.14527027 -7.0625 14 C-2.13145938 13.11174858 2.75668232 13.12485967 7.75 13.3125 C6.14615595 10.232239 6.14615595 10.232239 3.9375 9.73046875 C-2.19143684 9.08474148 -7.25639541 9.87741158 -13.25 11.3125 C-13.25 8.0125 -13.25 4.7125 -13.25 1.3125 C-9.29074904 -0.66712548 -4.35355114 0.03996528 0 0 Z M-3.25 23.3125 C-3.41687448 25.72895782 -3.41687448 25.72895782 -3.25 28.3125 C-2.59 28.9725 -1.93 29.6325 -1.25 30.3125 C1.82099161 30.11647926 4.00527983 29.82610012 6.5625 28.0625 C8.05406662 25.86440182 8.39715325 23.92356596 8.75 21.3125 C4.28160785 21.09971942 0.92737474 21.72111915 -3.25 23.3125 Z "
	fill="var(--broadband-map-secondary)" transform="translate(328.25,30.6875)"/>
<path d="M0 0 C1.03318359 -0.02900391 2.06636719 -0.05800781 3.13085938 -0.08789062 C9.10492223 -0.13770642 13.15924098 -0.02858138 17.6875 4.3125 C20.32930159 8.71931534 21.05081288 11.91176389 20.98046875 17.0234375 C20.9659668 18.88935547 20.9659668 18.88935547 20.95117188 20.79296875 C20.92603516 22.07816406 20.90089844 23.36335938 20.875 24.6875 C20.85469727 26.65009766 20.85469727 26.65009766 20.83398438 28.65234375 C20.79872639 31.87257301 20.74492244 35.09258971 20.6875 38.3125 C16.3975 38.3125 12.1075 38.3125 7.6875 38.3125 C7.3575 37.6525 7.0275 36.9925 6.6875 36.3125 C5.6975 36.9725 4.7075 37.6325 3.6875 38.3125 C0.5078125 38.6484375 0.5078125 38.6484375 -3.1875 38.6875 C-4.40179688 38.71585938 -5.61609375 38.74421875 -6.8671875 38.7734375 C-10.88580932 38.23579875 -12.46034294 37.12822439 -15.3125 34.3125 C-17.7365074 30.45612459 -17.55011305 26.83910607 -16.90234375 22.46484375 C-15.91421135 18.85914209 -14.3619922 17.40902589 -11.3125 15.3125 C-5.15979364 13.00675205 1.20181435 13.06877904 7.6875 13.3125 C6.08568225 10.24016186 6.08568225 10.24016186 3.91015625 9.73046875 C-2.44657266 9.0522644 -8.09687815 9.90672384 -14.3125 11.3125 C-14.3125 8.0125 -14.3125 4.7125 -14.3125 1.3125 C-9.62568022 -0.24977326 -4.90946957 0.04543001 0 0 Z M-3.3125 23.3125 C-4.64583333 26.3125 -4.64583333 26.3125 -3.3125 29.3125 C-0.56288489 30.25857807 -0.56288489 30.25857807 2.6875 30.3125 C5.66708785 28.24964781 5.66708785 28.24964781 7.6875 25.3125 C7.6875 23.9925 7.6875 22.6725 7.6875 21.3125 C3.60836213 21.07255071 0.44657641 21.68926246 -3.3125 23.3125 Z "
	fill="var(--broadband-map-secondary)" transform="translate(468.3125,30.6875)"/>
<path d="M0 0 C0 0.66 0 1.32 0 2 C0.66 2 1.32 2 2 2 C4.24734928 5.59264833 4.23200508 8.55142073 4.1953125 12.734375 C4.18886719 14.02988281 4.18242187 15.32539063 4.17578125 16.66015625 C4.15907193 18.02344019 4.14214206 19.38672144 4.125 20.75 C4.1149634 22.12889985 4.10583873 23.50780665 4.09765625 24.88671875 C4.07408093 28.25798882 4.0411727 31.62890636 4 35 C0.04 35 -3.92 35 -8 35 C-8 34.01 -8 33.02 -8 32 C-8.7425 32.66 -9.485 33.32 -10.25 34 C-15.0267948 37.17315655 -20.51190683 36.84200882 -26 36 C-29.54469144 34.5875559 -31.36889418 32.46165202 -32.90234375 28.91015625 C-34.01919474 25.04413358 -34.34375812 21.9396772 -32.9375 18.125 C-30.581378 14.32480323 -28.50390656 12.77086562 -24.26171875 11.46484375 C-21.26565856 10.84907318 -18.30020397 10.65101428 -15.25 10.4375 C-13.49429687 10.31181641 -13.49429687 10.31181641 -11.703125 10.18359375 C-10.81109375 10.12300781 -9.9190625 10.06242187 -9 10 C-10.75253701 7.78596158 -11.61200048 7.05745853 -14.453125 6.63671875 C-20.00723588 6.73756155 -24.75384442 7.13470024 -30 9 C-30 5.37 -30 1.74 -30 -2 C-19.83341516 -3.62665357 -9.47133345 -4.54624006 0 0 Z M-20 21 C-19.67 22.98 -19.34 24.96 -19 27 C-15.40372208 27.32693436 -13.62364112 27.47194463 -10.6875 25.25 C-9.0157148 23.02095307 -8.56500338 21.66278819 -8 19 C-9.4370809 18.94577053 -10.87475462 18.90710277 -12.3125 18.875 C-13.51326172 18.84019531 -13.51326172 18.84019531 -14.73828125 18.8046875 C-17.28388576 18.84182678 -17.28388576 18.84182678 -20 21 Z "
	fill="var(--broadband-map-secondary)" transform="translate(407,113)"/>
<path d="M0 0 C3.96 0 7.92 0 12 0 C12.66 0.99 13.32 1.98 14 3 C14.52722656 2.5153125 15.05445313 2.030625 15.59765625 1.53125 C20.20430579 -1.40502092 25.74644834 -0.69336215 31 0 C35.37129289 2.74277201 36.44630429 5.58639918 37.60961914 10.5078125 C38.41330873 15.63855878 38.20211906 20.82115838 38.125 26 C38.11597656 27.15628906 38.10695313 28.31257813 38.09765625 29.50390625 C38.07425029 32.33602786 38.03838498 35.1680418 38 38 C33.38 38 28.76 38 24 38 C24 29.09 24 20.18 24 11 C19.28941438 9.6278958 19.28941438 9.6278958 16 11 C12.35550868 16.46673699 12.89187328 22.47086792 13 28.8125 C13.04547241 31.54766562 13.04743536 34.26357241 13 37 C12.505 37.495 12.505 37.495 12 38 C8.04 38 4.08 38 0 38 C0 25.46 0 12.92 0 0 Z "
	fill="var(--broadband-map-secondary)" transform="translate(499,31)"/>
<path d="M0 0 C0.81597656 -0.01933594 1.63195312 -0.03867187 2.47265625 -0.05859375 C8.47380136 -0.01043047 12.1436017 1.48896426 16.5 5.625 C20.73320697 10.5584367 21.12466296 16.43604109 20.87890625 22.72265625 C20.10130044 28.67895639 18.07267383 32.51949732 13.44140625 36.30859375 C9.08785698 39.29127675 5.15284228 39.37210527 0 39.25 C-0.81597656 39.26933594 -1.63195312 39.28867188 -2.47265625 39.30859375 C-8.47380136 39.26043047 -12.1436017 37.76103574 -16.5 33.625 C-20.73320697 28.6915633 -21.12466296 22.81395891 -20.87890625 16.52734375 C-20.10130044 10.57104361 -18.07267383 6.73050268 -13.44140625 2.94140625 C-9.08785698 -0.04127675 -5.15284228 -0.12210527 0 0 Z M-6.5 12.625 C-7.92714233 17.89922164 -7.92878712 22.64598641 -5.5 27.625 C-2.60420618 29.99722995 -2.60420618 29.99722995 1.0625 29.375 C4.54592612 28.9391556 4.54592612 28.9391556 6.5 26.625 C7.8078259 21.35150847 7.91958439 16.58514801 5.5 11.625 C1.09487369 8.68824913 -2.88575782 8.36535743 -6.5 12.625 Z "
	fill="var(--broadband-map-secondary)" transform="translate(286.5,30.375)"/>
<path d="M0 0 C6.99550906 6.38360874 6.99550906 6.38360874 7.4375 11.6875 C7.125 14.9375 7.125 14.9375 6.125 15.9375 C2.875 16.375 2.875 16.375 -0.875 15.9375 C-3.25 13.375 -3.25 13.375 -4.4609375 11.71875 C-10.85537209 3.66388212 -20.92749496 -1.05740409 -30.953125 -2.5078125 C-41.55841882 -2.92425074 -50.79032077 0.29789244 -58.921875 7.0546875 C-60.82286406 8.88724096 -62.39229137 10.78497878 -64 12.875 C-66.34116408 15.78510619 -66.63760841 15.89793474 -70.625 16.5625 C-72.23375 16.253125 -72.23375 16.253125 -73.875 15.9375 C-75.875 12.9375 -75.875 12.9375 -75.71484375 10.51953125 C-74.75232385 7.56034216 -73.51928111 5.92318248 -71.4375 3.625 C-70.82003906 2.92761719 -70.20257813 2.23023437 -69.56640625 1.51171875 C-67.875 -0.0625 -67.875 -0.0625 -65.875 -0.0625 C-65.875 -0.7225 -65.875 -1.3825 -65.875 -2.0625 C-45.39050593 -17.61471893 -19.41977222 -15.90377135 0 0 Z "
	fill="var(--broadband-map-accent)" transform="translate(119.875,79.0625)"/>
<path d="M0 0 C3.71893619 2.71950497 6.67634367 5.38851259 9.3125 9.1875 C9.6875 12.375 9.6875 12.375 9.3125 15.1875 C7.3125 17.1875 7.3125 17.1875 4.125 17.8125 C-0.85312535 16.99641388 -2.03568254 14.99173084 -5.05859375 11.1640625 C-7.8916691 7.72632598 -11.30400019 5.81371426 -15.6875 5.1875 C-23.6796565 4.80078275 -29.21998535 6.15721083 -35.6875 11.1875 C-37.42240246 13.77193323 -37.42240246 13.77193323 -38.6875 16.1875 C-41.47613007 17.58181504 -43.60828868 17.44410094 -46.6875 17.1875 C-48.6875 14.1875 -48.6875 14.1875 -48.625 11.375 C-46.51084951 4.18688832 -41.41677203 0.95927961 -35.15234375 -2.5546875 C-23.67939767 -8.40934461 -10.3736148 -7.25743012 0 0 Z "
	fill="var(--broadband-map-accent)" transform="translate(105.6875,89.8125)"/>
<path d="M0 0 C4.29 0 8.58 0 13 0 C13.33 0.99 13.66 1.98 14 3 C14.55171875 2.50886719 15.1034375 2.01773438 15.671875 1.51171875 C18.46370069 -0.30109424 19.96185741 -0.3172951 23.25 -0.1875 C24.8175 -0.125625 26.385 -0.06375 28 0 C28 3.63 28 7.26 28 11 C25.75390625 10.96744792 23.5078125 10.93489583 21.26171875 10.90234375 C18.83138666 10.90342145 18.83138666 10.90342145 16 12 C13.98536504 15.01306061 13.71054152 17.63114297 13.5859375 21.203125 C13.52792969 22.67265625 13.52792969 22.67265625 13.46875 24.171875 C13.42234375 25.69554687 13.42234375 25.69554687 13.375 27.25 C13.31699219 28.796875 13.31699219 28.796875 13.2578125 30.375 C13.16368744 32.91637663 13.08076069 35.45816358 13 38 C8.71 38 4.42 38 0 38 C0 25.46 0 12.92 0 0 Z "
	fill="var(--broadband-map-secondary)" transform="translate(236,31)"/>
</svg>
