<svg xmlns="http://www.w3.org/2000/svg" viewBox="0 50 174 50">
    <style>
        svg {
        --dasfilter-wordmark: oklch(0 0 0);
        }
        @media (prefers-color-scheme: dark) {
        svg {
        --dasfilter-wordmark: oklch(1 0 0);
        }
        }
    </style>
    <g id="wordmark">
        <!-- DAS FILTER -->
        <text transform="translate(7.84 80.63)" font-family="NeueKabel-ExtraBold, 'Neue Kabel'" font-size="32" font-weight="700" fill="var(--dasfilter-wordmark)">
            <tspan letter-spacing="-.08em" x="0" y="0">D</tspan>
            <tspan letter-spacing="0em" x="20.26" y="0">A</tspan>
            <tspan x="36.85" y="0">S FI</tspan>
            <tspan letter-spacing="-.04em" x="88.45" y="0">L</tspan>
            <tspan letter-spacing="0em" x="100.79" y="0">TER</tspan>
        </text>
        <!-- AFFILIATES -->
        <path d="m50.03,94.97h-4.2l-.78,2.64h-3.42l4.45-12.66h3.69l4.45,12.66h-3.42l-.78-2.64Zm-.81-2.73l-1.28-4.32-1.28,4.32h2.57Z"
              fill="var(--dasfilter-wordmark)"/>
        <path d="m58.66,90.05h3.54v2.89h-3.54v4.67h-3.2v-12.66h7.2l.42,2.89h-4.41v2.21Z"
              fill="var(--dasfilter-wordmark)"/>
        <path d="m67.83,90.05h3.54v2.89h-3.54v4.67h-3.2v-12.66h7.2l.42,2.89h-4.41v2.21Z"
              fill="var(--dasfilter-wordmark)"/>
        <path d="m77.09,97.61h-3.2v-12.66h3.2v12.66Z"
              fill="var(--dasfilter-wordmark)"/>
        <path d="m86.93,94.53l-.45,3.07h-7.22v-12.66h3.2v9.59h4.47Z"
              fill="var(--dasfilter-wordmark)"/>
        <path d="m91.58,97.61h-3.2v-12.66h3.2v12.66Z"
              fill="var(--dasfilter-wordmark)"/>
        <path d="m101.27,94.97h-4.2l-.78,2.64h-3.42l4.45-12.66h3.69l4.45,12.66h-3.42l-.78-2.64Zm-.81-2.73l-1.28-4.32-1.28,4.32h2.57Z"
              fill="var(--dasfilter-wordmark)"/>
        <path d="m110.68,87.93v9.68h-3.2v-9.68h-3.13l.43-2.98h8.61l.43,2.98h-3.15Z"
              fill="var(--dasfilter-wordmark)"/>
        <path d="m123.05,94.81l-.4,2.8h-7.6v-12.66h7.42l.4,2.8h-4.67v2.03h3.78v2.8h-3.78v2.23h4.85Z"
              fill="var(--dasfilter-wordmark)"/>
        <path d="m124.7,93.67c1.36.96,2.66,1.46,3.76,1.46.94,0,1.41-.49,1.41-1.09,0-.56-.36-.98-1.43-1.32l-.76-.25c-2.15-.71-3.11-2.1-3.11-3.91,0-2.22,1.75-3.89,4.32-3.89,1.16,0,2.37.29,3.64.89l-.42,2.88c-1.32-.69-2.41-1.03-3.27-1.03-.8,0-1.23.42-1.23,1s.36.94,1.43,1.28l.74.25c2.22.72,3.22,2.17,3.22,3.91,0,2.12-1.52,4.03-4.49,4.03-1.45,0-2.86-.43-4.25-1.28l.43-2.93Z"
              fill="var(--dasfilter-wordmark)"/>
    </g>
</svg>
