<svg xmlns:xlink="http://www.w3.org/1999/xlink" id="svg" version="1.1" xmlns="http://www.w3.org/2000/svg" width="400"
     height="55.73033707865169" viewBox="0 0 400 55.73">
    <style>
        svg {
        --exchange-rate-api-text: oklch(0 0 0);
        }
        @media (prefers-color-scheme: dark) {
        svg {
        --exchange-rate-api-text: oklch(1 0 0);
        }
        }
    </style>
    <g id="svgg">
        <path id="path0"
              d="M9.106 0.917 C 9.036 1.101,8.745 1.167,8.005 1.167 C 7.446 1.167,7.000 1.241,7.000 1.333 C 7.000 1.425,6.810 1.500,6.578 1.500 C 6.346 1.500,6.113 1.613,6.060 1.750 C 6.008 1.887,5.785 2.000,5.566 2.000 C 5.322 2.000,5.167 2.097,5.167 2.250 C 5.167 2.387,5.054 2.500,4.917 2.500 C 4.779 2.500,4.667 2.612,4.667 2.750 C 4.667 2.892,4.517 3.000,4.321 3.000 C 3.961 3.000,3.000 3.840,3.000 4.154 C 3.000 4.253,2.887 4.333,2.750 4.333 C 2.594 4.333,2.500 4.491,2.500 4.750 C 2.500 5.009,2.406 5.167,2.250 5.167 C 2.112 5.167,2.000 5.247,2.000 5.345 C 2.000 5.443,1.887 5.637,1.748 5.775 C 1.610 5.914,1.540 6.096,1.592 6.181 C 1.645 6.266,1.571 6.381,1.427 6.436 C 1.253 6.503,1.167 6.750,1.167 7.184 C 1.167 7.650,1.096 7.833,0.917 7.833 C 0.716 7.833,0.667 8.090,0.667 9.146 C 0.667 10.114,0.600 10.514,0.415 10.668 C 0.196 10.850,0.169 11.821,0.207 18.064 L 0.250 25.250 0.875 25.302 C 1.352 25.341,1.500 25.292,1.500 25.093 C 1.500 24.950,1.613 24.833,1.750 24.833 C 1.887 24.833,2.000 24.758,2.000 24.667 C 2.000 24.575,2.112 24.500,2.250 24.500 C 2.387 24.500,2.500 24.396,2.500 24.268 C 2.500 24.140,2.617 23.991,2.761 23.936 C 2.904 23.881,2.974 23.760,2.917 23.668 C 2.860 23.576,2.931 23.500,3.073 23.500 C 3.216 23.500,3.333 23.425,3.333 23.333 C 3.333 23.242,3.446 23.167,3.583 23.167 C 3.721 23.167,3.833 23.054,3.833 22.917 C 3.833 22.779,3.946 22.667,4.083 22.667 C 4.221 22.667,4.333 22.586,4.333 22.488 C 4.333 22.257,4.757 21.833,4.988 21.833 C 5.086 21.833,5.167 21.721,5.167 21.583 C 5.167 21.446,5.279 21.333,5.417 21.333 C 5.554 21.333,5.667 21.259,5.667 21.169 C 5.667 20.912,6.210 20.340,6.363 20.435 C 6.438 20.482,6.500 20.403,6.500 20.260 C 6.500 20.117,6.612 20.000,6.750 20.000 C 6.888 20.000,7.000 19.887,7.000 19.750 C 7.000 19.612,7.075 19.500,7.167 19.500 C 7.258 19.500,7.333 19.387,7.333 19.250 C 7.333 19.112,7.446 19.000,7.583 19.000 C 7.721 19.000,7.833 18.925,7.833 18.833 C 7.833 18.742,7.946 18.667,8.083 18.667 C 8.221 18.667,8.333 18.554,8.333 18.417 C 8.333 18.279,8.446 18.167,8.583 18.167 C 8.721 18.167,8.833 18.247,8.833 18.345 C 8.833 18.576,9.257 19.000,9.488 19.000 C 9.586 19.000,9.667 19.112,9.667 19.250 C 9.667 19.387,9.779 19.500,9.917 19.500 C 10.054 19.500,10.167 19.581,10.167 19.679 C 10.167 19.913,11.087 20.833,11.321 20.833 C 11.419 20.833,11.500 20.914,11.500 21.013 C 11.500 21.246,12.421 22.167,12.654 22.167 C 12.753 22.167,12.833 22.279,12.833 22.417 C 12.833 22.554,12.946 22.667,13.083 22.667 C 13.221 22.667,13.333 22.747,13.333 22.845 C 13.333 23.076,13.757 23.500,13.988 23.500 C 14.086 23.500,14.167 23.613,14.167 23.750 C 14.167 23.887,14.279 24.000,14.417 24.000 C 14.554 24.000,14.667 24.080,14.667 24.179 C 14.667 24.409,15.091 24.833,15.321 24.833 C 15.420 24.833,15.500 24.951,15.500 25.094 C 15.500 25.281,15.631 25.340,15.958 25.303 C 16.216 25.273,16.398 25.159,16.375 25.042 C 16.352 24.927,16.390 24.851,16.458 24.872 C 16.713 24.951,17.333 24.247,17.333 23.880 C 17.333 23.671,17.400 23.500,17.482 23.500 C 17.564 23.500,17.678 23.313,17.735 23.083 C 17.793 22.854,17.913 22.667,18.003 22.667 C 18.093 22.667,18.167 22.562,18.167 22.434 C 18.167 22.307,18.279 22.159,18.417 22.106 C 18.554 22.054,18.667 21.858,18.667 21.672 C 18.667 21.486,18.727 21.333,18.801 21.333 C 18.969 21.333,19.500 20.152,19.500 19.777 C 19.500 19.625,19.612 19.500,19.750 19.500 C 19.887 19.500,20.000 19.387,20.000 19.250 C 20.000 19.112,20.074 19.000,20.163 19.000 C 20.253 19.000,20.374 18.813,20.432 18.583 C 20.489 18.354,20.603 18.167,20.685 18.167 C 20.766 18.167,20.833 17.979,20.833 17.750 C 20.833 17.491,20.928 17.333,21.083 17.333 C 21.250 17.333,21.333 17.167,21.333 16.833 C 21.333 16.500,21.417 16.333,21.583 16.333 C 21.721 16.333,21.833 16.221,21.833 16.083 C 21.833 15.946,21.908 15.833,22.000 15.833 C 22.092 15.833,22.167 15.646,22.167 15.417 C 22.167 15.157,22.261 15.000,22.417 15.000 C 22.572 15.000,22.667 14.843,22.667 14.583 C 22.667 14.324,22.761 14.167,22.917 14.167 C 23.083 14.167,23.167 14.000,23.167 13.667 C 23.167 13.392,23.252 13.167,23.357 13.167 C 23.637 13.167,23.989 12.638,23.995 12.208 C 23.998 11.988,24.103 11.833,24.250 11.833 C 24.406 11.833,24.500 11.676,24.500 11.417 C 24.500 11.157,24.594 11.000,24.750 11.000 C 24.906 11.000,25.000 10.843,25.000 10.583 C 25.000 10.354,25.075 10.167,25.167 10.167 C 25.258 10.167,25.333 10.319,25.333 10.505 C 25.333 10.691,25.446 10.887,25.583 10.940 C 25.721 10.992,25.833 11.180,25.833 11.356 C 25.833 11.533,25.946 11.720,26.083 11.773 C 26.221 11.826,26.333 11.973,26.333 12.101 C 26.333 12.229,26.408 12.333,26.500 12.333 C 26.592 12.333,26.667 12.486,26.667 12.672 C 26.667 12.858,26.779 13.054,26.917 13.106 C 27.054 13.159,27.167 13.384,27.167 13.606 C 27.167 13.829,27.279 14.054,27.417 14.106 C 27.554 14.159,27.667 14.299,27.667 14.417 C 27.667 14.535,27.779 14.674,27.917 14.727 C 28.054 14.780,28.167 14.975,28.167 15.161 C 28.167 15.348,28.242 15.500,28.333 15.500 C 28.425 15.500,28.500 15.688,28.500 15.917 C 28.500 16.176,28.594 16.333,28.750 16.333 C 28.897 16.333,29.001 16.487,29.003 16.708 C 29.004 16.915,29.192 17.260,29.420 17.476 C 29.647 17.692,29.833 18.013,29.833 18.189 C 29.833 18.366,29.946 18.554,30.083 18.606 C 30.221 18.659,30.333 18.882,30.333 19.101 C 30.333 19.345,30.431 19.500,30.583 19.500 C 30.739 19.500,30.833 19.657,30.833 19.917 C 30.833 20.146,30.908 20.333,31.000 20.333 C 31.092 20.333,31.167 20.446,31.167 20.583 C 31.167 20.721,31.279 20.833,31.417 20.833 C 31.573 20.833,31.667 20.991,31.667 21.255 C 31.667 21.487,31.779 21.720,31.917 21.773 C 32.054 21.826,32.167 22.048,32.167 22.268 C 32.167 22.511,32.264 22.667,32.417 22.667 C 32.572 22.667,32.667 22.824,32.667 23.083 C 32.667 23.313,32.742 23.500,32.833 23.500 C 32.925 23.500,33.000 23.613,33.000 23.750 C 33.000 23.887,33.112 24.000,33.250 24.000 C 33.406 24.000,33.500 24.157,33.500 24.417 C 33.500 24.676,33.594 24.833,33.750 24.833 C 33.918 24.833,34.000 25.001,34.000 25.343 C 34.000 25.641,34.069 25.810,34.167 25.750 C 34.258 25.693,34.333 25.755,34.333 25.886 C 34.333 26.018,34.446 26.219,34.583 26.333 C 34.721 26.447,34.833 26.682,34.833 26.854 C 34.833 27.026,34.946 27.167,35.083 27.167 C 35.239 27.167,35.333 27.324,35.333 27.583 C 35.333 27.813,35.394 28.000,35.468 28.000 C 35.542 28.000,35.735 28.300,35.897 28.667 C 36.058 29.033,36.298 29.333,36.429 29.333 C 36.560 29.333,36.667 29.477,36.667 29.653 C 36.667 29.996,37.168 31.047,37.375 31.139 C 37.444 31.169,37.500 31.341,37.500 31.519 C 37.500 31.698,37.612 31.887,37.750 31.940 C 37.887 31.992,38.000 32.140,38.000 32.268 C 38.000 32.396,38.112 32.500,38.250 32.500 C 38.407 32.500,38.500 32.659,38.500 32.929 C 38.500 33.164,38.613 33.470,38.752 33.609 C 38.890 33.747,38.960 33.930,38.908 34.015 C 38.855 34.100,38.929 34.214,39.073 34.269 C 39.216 34.324,39.333 34.465,39.333 34.583 C 39.333 34.701,39.446 34.841,39.583 34.894 C 39.721 34.946,39.833 35.142,39.833 35.328 C 39.833 35.578,39.942 35.667,40.250 35.667 C 40.509 35.667,40.667 35.572,40.667 35.417 C 40.667 35.279,40.779 35.167,40.917 35.167 C 41.072 35.167,41.167 35.009,41.167 34.750 C 41.167 34.521,41.242 34.333,41.333 34.333 C 41.425 34.333,41.500 34.221,41.500 34.083 C 41.500 33.946,41.612 33.833,41.750 33.833 C 41.906 33.833,42.000 33.676,42.000 33.417 C 42.000 33.157,42.094 33.000,42.250 33.000 C 42.406 33.000,42.500 32.843,42.500 32.583 C 42.500 32.354,42.564 32.167,42.642 32.167 C 42.719 32.167,42.922 31.829,43.092 31.417 C 43.262 31.004,43.499 30.667,43.618 30.667 C 43.736 30.667,43.833 30.487,43.833 30.268 C 43.833 30.048,43.951 29.824,44.094 29.769 C 44.237 29.714,44.312 29.600,44.259 29.515 C 44.207 29.430,44.277 29.247,44.416 29.108 C 44.555 28.969,44.684 28.668,44.703 28.439 C 44.722 28.211,44.778 28.037,44.827 28.053 C 45.024 28.119,45.667 27.312,45.667 27.000 C 45.667 26.817,45.742 26.667,45.833 26.667 C 45.925 26.667,46.000 26.479,46.000 26.250 C 46.000 25.991,46.094 25.833,46.250 25.833 C 46.387 25.833,46.500 25.721,46.500 25.583 C 46.500 25.446,46.574 25.333,46.663 25.333 C 46.753 25.333,46.874 25.146,46.932 24.917 C 46.989 24.688,47.103 24.500,47.185 24.500 C 47.266 24.500,47.333 24.275,47.333 24.000 C 47.333 23.667,47.417 23.500,47.583 23.500 C 47.739 23.500,47.833 23.343,47.833 23.083 C 47.833 22.840,47.929 22.667,48.064 22.667 C 48.191 22.667,48.344 22.535,48.404 22.375 C 48.611 21.827,48.912 21.333,49.040 21.333 C 49.109 21.333,49.167 21.154,49.167 20.934 C 49.167 20.715,49.279 20.492,49.417 20.440 C 49.554 20.387,49.667 20.209,49.667 20.045 C 49.667 19.881,49.854 19.544,50.083 19.297 C 50.313 19.050,50.500 18.695,50.500 18.507 C 50.500 18.316,50.609 18.167,50.750 18.167 C 50.903 18.167,51.000 18.011,51.000 17.768 C 51.000 17.548,51.113 17.326,51.250 17.273 C 51.388 17.220,51.500 17.036,51.500 16.863 C 51.500 16.690,51.687 16.346,51.917 16.099 C 52.146 15.852,52.333 15.503,52.333 15.325 C 52.333 15.146,52.446 15.000,52.583 15.000 C 52.721 15.000,52.833 14.854,52.833 14.675 C 52.833 14.497,53.021 14.148,53.250 13.901 C 53.479 13.654,53.667 13.320,53.667 13.160 C 53.667 13.000,53.779 12.826,53.917 12.773 C 54.054 12.720,54.167 12.487,54.167 12.255 C 54.167 11.991,54.260 11.833,54.417 11.833 C 54.572 11.833,54.667 11.676,54.667 11.417 C 54.667 11.188,54.742 11.000,54.833 11.000 C 54.934 11.000,55.000 10.306,55.000 9.250 C 55.000 8.194,54.934 7.500,54.833 7.500 C 54.742 7.500,54.667 7.310,54.667 7.078 C 54.667 6.846,54.554 6.613,54.417 6.560 C 54.279 6.508,54.167 6.285,54.167 6.066 C 54.167 5.846,54.073 5.666,53.958 5.665 C 53.844 5.664,53.607 5.364,53.432 4.998 C 53.256 4.632,53.050 4.333,52.973 4.333 C 52.896 4.333,52.833 4.221,52.833 4.083 C 52.833 3.946,52.758 3.833,52.667 3.833 C 52.575 3.833,52.200 3.533,51.833 3.167 C 51.467 2.800,51.017 2.500,50.833 2.500 C 50.648 2.500,50.500 2.389,50.500 2.250 C 50.500 2.097,50.345 2.000,50.101 2.000 C 49.882 2.000,49.657 1.883,49.602 1.739 C 49.547 1.596,49.438 1.519,49.359 1.567 C 49.280 1.616,49.073 1.548,48.900 1.417 C 48.726 1.285,48.227 1.175,47.792 1.172 C 47.201 1.168,47.000 1.103,47.000 0.917 C 47.000 0.537,9.252 0.537,9.106 0.917 "
              stroke="none" fill="#ec1c24" fill-rule="evenodd"></path>
        <path id="path1"
              d="M24.583 16.972 C 24.537 17.018,24.500 17.195,24.500 17.366 C 24.500 17.537,24.387 17.720,24.250 17.773 C 24.113 17.826,24.000 17.973,24.000 18.101 C 24.000 18.229,23.925 18.333,23.833 18.333 C 23.742 18.333,23.667 18.521,23.667 18.750 C 23.667 18.979,23.572 19.167,23.456 19.167 C 23.256 19.167,22.979 19.568,22.738 20.208 C 22.677 20.369,22.562 20.500,22.481 20.500 C 22.400 20.500,22.333 20.688,22.333 20.917 C 22.333 21.176,22.239 21.333,22.083 21.333 C 21.946 21.333,21.833 21.437,21.833 21.563 C 21.833 21.689,21.721 21.886,21.583 22.000 C 21.446 22.114,21.333 22.353,21.333 22.530 C 21.333 22.708,21.258 22.807,21.167 22.750 C 21.010 22.653,20.926 22.986,20.988 23.458 C 21.002 23.573,20.936 23.667,20.841 23.667 C 20.583 23.667,20.000 24.296,20.000 24.575 C 20.000 24.708,19.813 25.018,19.583 25.266 C 19.354 25.513,19.167 25.846,19.167 26.007 C 19.167 26.167,19.054 26.341,18.917 26.394 C 18.779 26.446,18.667 26.601,18.667 26.736 C 18.667 26.872,18.479 27.185,18.250 27.432 C 18.021 27.680,17.833 28.021,17.833 28.191 C 17.833 28.361,17.767 28.500,17.686 28.500 C 17.605 28.500,17.409 28.697,17.252 28.937 C 17.061 29.229,17.040 29.331,17.191 29.245 C 17.315 29.173,17.207 29.341,16.950 29.617 C 16.693 29.894,16.471 30.280,16.456 30.476 C 16.415 31.015,15.775 30.928,15.131 30.297 C 14.830 30.002,14.602 29.702,14.625 29.630 C 14.648 29.559,14.592 29.500,14.500 29.500 C 14.408 29.500,14.042 29.200,13.686 28.833 C 13.330 28.467,12.971 28.167,12.888 28.167 C 12.805 28.167,12.725 28.005,12.710 27.807 C 12.682 27.428,12.360 27.131,12.132 27.272 C 12.058 27.317,11.953 27.237,11.898 27.094 C 11.843 26.951,11.693 26.833,11.566 26.833 C 11.437 26.833,11.333 26.669,11.333 26.464 C 11.333 25.935,8.457 23.167,7.907 23.167 C 7.683 23.167,7.500 23.263,7.500 23.381 C 7.500 23.498,7.275 23.728,7.000 23.890 C 6.725 24.053,6.500 24.240,6.500 24.306 C 6.500 24.372,6.275 24.672,6.000 24.973 C 5.725 25.274,5.500 25.482,5.500 25.434 C 5.500 25.386,4.336 26.518,2.914 27.949 L 0.328 30.550 0.337 38.198 C 0.342 43.054,0.404 45.809,0.506 45.746 C 0.636 45.666,0.777 47.468,0.686 48.042 C 0.676 48.110,0.779 48.167,0.917 48.167 C 1.096 48.167,1.167 48.350,1.167 48.816 C 1.167 49.238,1.254 49.498,1.417 49.560 C 1.554 49.613,1.667 49.795,1.667 49.966 C 1.667 50.136,1.854 50.451,2.083 50.667 C 2.312 50.882,2.500 51.144,2.500 51.249 C 2.500 51.592,4.305 53.371,4.518 53.239 C 4.645 53.161,4.675 53.186,4.599 53.308 C 4.534 53.413,4.554 53.500,4.645 53.500 C 4.735 53.500,4.930 53.621,5.078 53.768 C 5.225 53.915,5.530 54.047,5.756 54.060 C 5.982 54.073,6.166 54.177,6.167 54.292 C 6.167 54.412,6.378 54.500,6.667 54.500 C 7.000 54.500,7.167 54.583,7.167 54.750 C 7.167 54.923,7.341 55.000,7.736 55.000 C 8.049 55.000,8.337 55.094,8.375 55.208 C 8.475 55.507,47.118 55.515,47.303 55.216 C 47.371 55.106,47.706 54.997,48.047 54.974 C 48.422 54.948,48.667 54.847,48.667 54.716 C 48.667 54.587,48.868 54.500,49.167 54.500 C 49.442 54.500,49.667 54.426,49.667 54.337 C 49.667 54.247,49.854 54.126,50.083 54.068 C 50.313 54.011,50.500 53.897,50.500 53.815 C 50.500 53.734,50.596 53.667,50.713 53.667 C 50.830 53.667,51.172 53.442,51.473 53.167 C 51.774 52.892,52.080 52.667,52.153 52.667 C 52.226 52.667,52.278 52.460,52.268 52.208 C 52.253 51.826,52.319 51.750,52.667 51.750 C 52.997 51.750,53.094 51.655,53.136 51.292 C 53.165 51.040,53.269 50.833,53.367 50.833 C 53.632 50.833,54.167 50.158,54.167 49.822 C 54.167 49.660,54.257 49.498,54.367 49.461 C 54.479 49.424,54.560 49.127,54.551 48.792 C 54.540 48.417,54.622 48.156,54.767 48.100 C 54.935 48.035,55.000 47.692,55.000 46.859 C 55.000 46.039,55.072 45.648,55.250 45.500 C 55.701 45.126,55.619 19.227,55.167 19.083 C 54.720 18.942,54.167 19.132,54.167 19.428 C 54.167 19.559,54.093 19.667,54.003 19.667 C 53.913 19.667,53.793 19.854,53.735 20.083 C 53.678 20.313,53.564 20.500,53.482 20.500 C 53.400 20.500,53.333 20.688,53.333 20.917 C 53.333 21.176,53.239 21.333,53.083 21.333 C 52.863 21.333,52.747 21.647,52.818 22.054 C 52.831 22.130,52.765 22.144,52.671 22.086 C 52.577 22.028,52.500 22.088,52.500 22.220 C 52.500 22.351,52.387 22.553,52.250 22.667 C 52.113 22.781,52.000 23.006,52.000 23.167 C 52.000 23.328,51.892 23.549,51.760 23.658 C 51.628 23.768,51.495 24.021,51.464 24.220 C 51.434 24.420,51.336 24.571,51.246 24.556 C 51.157 24.541,50.858 24.991,50.583 25.556 C 50.308 26.121,49.990 26.682,49.875 26.803 C 49.760 26.925,49.667 27.135,49.667 27.270 C 49.667 27.405,49.474 27.694,49.239 27.912 C 49.003 28.131,48.816 28.352,48.822 28.405 C 48.871 28.817,48.797 29.000,48.583 29.000 C 48.428 29.000,48.333 29.157,48.333 29.417 C 48.333 29.646,48.260 29.833,48.171 29.833 C 48.081 29.833,47.855 30.171,47.667 30.583 C 47.479 30.996,47.252 31.333,47.163 31.333 C 47.073 31.333,47.000 31.513,47.000 31.732 C 47.000 31.952,46.887 32.174,46.750 32.227 C 46.612 32.280,46.500 32.485,46.500 32.684 C 46.500 32.882,46.335 33.187,46.134 33.362 C 45.932 33.536,45.750 33.802,45.728 33.952 C 45.706 34.102,45.570 34.291,45.427 34.371 C 45.284 34.451,45.167 34.692,45.167 34.907 C 45.167 35.122,45.046 35.344,44.898 35.401 C 44.727 35.466,44.661 35.625,44.715 35.835 C 44.772 36.050,44.720 36.167,44.568 36.167 C 44.439 36.167,44.333 36.271,44.333 36.399 C 44.333 36.527,44.211 36.678,44.062 36.735 C 43.855 36.815,43.813 36.978,43.886 37.428 C 43.961 37.887,43.919 38.041,43.699 38.124 C 43.288 38.280,43.000 38.604,43.000 38.910 C 43.000 39.057,42.887 39.220,42.750 39.273 C 42.612 39.326,42.500 39.465,42.500 39.583 C 42.500 39.701,42.383 39.843,42.239 39.898 C 42.096 39.953,42.022 40.067,42.074 40.152 C 42.127 40.237,42.069 40.407,41.946 40.530 C 41.823 40.653,41.671 40.962,41.607 41.217 C 41.543 41.472,41.436 41.646,41.369 41.605 C 41.302 41.564,41.104 41.823,40.930 42.182 C 40.593 42.875,40.167 43.053,40.167 42.500 C 40.167 42.317,40.110 42.166,40.042 42.165 C 39.973 42.164,39.769 41.827,39.588 41.415 C 39.407 41.003,39.163 40.667,39.046 40.667 C 38.929 40.667,38.833 40.526,38.833 40.354 C 38.833 40.182,38.721 39.947,38.583 39.833 C 38.446 39.719,38.328 39.504,38.321 39.355 C 38.314 39.205,38.164 38.858,37.986 38.583 C 37.808 38.308,37.617 37.952,37.562 37.792 C 37.506 37.631,37.357 37.500,37.231 37.500 C 37.104 37.500,37.000 37.413,37.000 37.306 C 37.000 36.995,36.449 35.833,36.301 35.833 C 36.227 35.833,36.167 35.748,36.167 35.643 C 36.167 35.539,36.035 35.346,35.875 35.214 C 35.715 35.083,35.683 35.026,35.804 35.088 C 36.025 35.202,35.746 34.549,35.481 34.333 C 35.424 34.287,35.326 34.081,35.261 33.875 C 35.197 33.669,35.074 33.500,34.989 33.500 C 34.903 33.500,34.833 33.348,34.833 33.161 C 34.833 32.975,34.721 32.780,34.583 32.727 C 34.446 32.674,34.333 32.527,34.333 32.399 C 34.333 32.271,34.213 32.167,34.066 32.167 C 33.904 32.167,33.833 32.074,33.887 31.933 C 33.937 31.804,33.872 31.561,33.744 31.391 C 33.616 31.222,33.508 30.950,33.505 30.786 C 33.502 30.623,33.387 30.446,33.250 30.394 C 33.112 30.341,33.000 30.153,33.000 29.977 C 33.000 29.801,32.887 29.613,32.750 29.560 C 32.612 29.508,32.500 29.360,32.500 29.232 C 32.500 29.104,32.425 29.000,32.333 29.000 C 32.242 29.000,32.167 28.848,32.167 28.661 C 32.167 28.475,32.054 28.280,31.917 28.227 C 31.779 28.174,31.667 27.949,31.667 27.727 C 31.667 27.505,31.561 27.282,31.432 27.233 C 31.303 27.183,31.104 26.904,30.990 26.613 C 30.875 26.322,30.677 25.997,30.548 25.892 C 30.420 25.786,30.303 25.542,30.289 25.350 C 30.274 25.157,30.166 25.000,30.048 25.000 C 29.865 25.000,29.798 24.804,29.845 24.405 C 29.851 24.352,29.645 24.114,29.387 23.875 C 29.127 23.633,28.941 23.305,28.970 23.136 C 28.998 22.968,28.904 22.786,28.761 22.731 C 28.617 22.676,28.500 22.452,28.500 22.232 C 28.500 21.989,28.403 21.833,28.250 21.833 C 28.094 21.833,28.000 21.676,28.000 21.417 C 28.000 21.188,27.925 21.000,27.833 21.000 C 27.742 21.000,27.667 20.887,27.667 20.750 C 27.667 20.612,27.564 20.500,27.438 20.500 C 27.311 20.500,27.162 20.270,27.106 19.989 C 27.049 19.705,26.929 19.524,26.835 19.582 C 26.736 19.644,26.667 19.478,26.667 19.177 C 26.667 18.896,26.593 18.667,26.503 18.667 C 26.413 18.667,26.293 18.479,26.235 18.250 C 26.178 18.021,26.064 17.833,25.982 17.833 C 25.900 17.833,25.833 17.721,25.833 17.583 C 25.833 17.446,25.718 17.333,25.578 17.333 C 25.438 17.333,25.284 17.233,25.238 17.111 C 25.154 16.893,24.748 16.807,24.583 16.972 M54.442 18.792 C 54.400 18.860,54.576 18.917,54.833 18.917 C 55.091 18.917,55.267 18.860,55.224 18.792 C 55.182 18.723,55.006 18.667,54.833 18.667 C 54.661 18.667,54.485 18.723,54.442 18.792 "
              stroke="none" fill="var(--exchange-rate-api-text)" fill-rule="evenodd"></path>
        <path id="path2"
              d="M126.167 11.667 C 126.167 11.758,126.054 11.833,125.917 11.833 C 125.696 11.833,125.667 13.620,125.667 26.917 L 125.667 42.000 128.583 42.000 L 131.500 42.000 131.500 33.917 L 131.500 25.833 131.917 25.833 C 132.176 25.833,132.333 25.739,132.333 25.583 C 132.333 25.376,132.657 25.333,134.250 25.333 L 136.167 25.333 136.814 26.000 C 137.170 26.367,137.545 26.667,137.647 26.667 C 137.753 26.667,137.833 26.953,137.833 27.333 C 137.833 27.700,137.908 28.000,138.000 28.000 C 138.108 28.000,138.167 30.444,138.167 35.000 L 138.167 42.000 141.083 42.000 L 144.000 42.000 144.000 35.010 C 144.000 29.906,143.948 27.988,143.808 27.901 C 143.693 27.830,143.660 27.855,143.727 27.963 C 143.788 28.062,143.781 28.179,143.711 28.223 C 143.641 28.266,143.583 27.659,143.583 26.873 C 143.583 25.879,143.520 25.424,143.375 25.375 C 143.260 25.337,143.167 25.130,143.167 24.915 C 143.167 24.700,143.054 24.411,142.917 24.274 C 142.779 24.136,142.667 23.906,142.667 23.762 C 142.667 23.618,142.554 23.500,142.417 23.500 C 142.275 23.500,142.167 23.350,142.167 23.154 C 142.167 22.706,141.294 21.833,140.846 21.833 C 140.656 21.833,140.498 21.740,140.496 21.625 C 140.491 21.377,139.458 20.833,138.993 20.833 C 138.814 20.833,138.667 20.758,138.667 20.667 C 138.667 20.561,137.444 20.500,135.333 20.500 C 133.222 20.500,132.000 20.561,132.000 20.667 C 132.000 20.758,131.887 20.833,131.750 20.833 C 131.534 20.833,131.500 20.204,131.500 16.167 L 131.500 11.500 128.833 11.500 C 127.167 11.500,126.167 11.563,126.167 11.667 M66.333 28.083 L 66.333 42.000 76.000 42.000 L 85.667 42.000 85.667 39.500 L 85.667 37.000 78.917 37.000 L 72.167 37.000 72.167 33.417 L 72.167 29.833 77.750 29.833 L 83.333 29.833 83.333 27.436 C 83.333 24.519,84.065 24.839,77.375 24.836 L 72.167 24.833 72.167 21.917 L 72.167 19.000 78.417 19.000 L 84.667 19.000 84.667 16.583 L 84.667 14.167 75.500 14.167 L 66.333 14.167 66.333 28.083 M234.434 14.430 C 234.379 14.575,234.333 20.838,234.333 28.347 L 234.333 42.000 237.250 42.000 L 240.167 42.000 240.167 36.833 L 240.167 31.667 241.689 31.667 C 243.099 31.667,243.240 31.697,243.598 32.083 C 243.810 32.313,244.063 32.500,244.159 32.500 C 244.255 32.500,244.333 32.598,244.333 32.717 C 244.333 33.099,244.743 33.831,244.958 33.832 C 245.073 33.833,245.167 33.946,245.167 34.083 C 245.167 34.221,245.279 34.333,245.417 34.333 C 245.572 34.333,245.667 34.491,245.667 34.750 C 245.667 34.979,245.742 35.167,245.833 35.167 C 245.925 35.167,246.000 35.279,246.000 35.417 C 246.000 35.554,246.112 35.667,246.250 35.667 C 246.390 35.667,246.500 35.815,246.500 36.005 C 246.500 36.191,246.612 36.387,246.750 36.440 C 246.887 36.492,247.000 36.632,247.000 36.750 C 247.000 36.868,247.112 37.008,247.250 37.060 C 247.387 37.113,247.502 37.290,247.505 37.453 C 247.512 37.818,247.886 38.333,248.143 38.333 C 248.248 38.333,248.333 38.558,248.333 38.833 C 248.333 39.167,248.417 39.333,248.583 39.333 C 248.739 39.333,248.833 39.491,248.833 39.750 C 248.833 39.979,248.908 40.167,249.000 40.167 C 249.092 40.167,249.167 40.279,249.167 40.417 C 249.167 40.554,249.279 40.667,249.417 40.667 C 249.572 40.667,249.667 40.824,249.667 41.083 C 249.667 41.343,249.761 41.500,249.917 41.500 C 250.054 41.500,250.167 41.612,250.167 41.750 C 250.167 41.963,250.620 42.000,253.250 42.000 L 256.333 42.000 256.333 41.333 C 256.333 40.967,256.258 40.667,256.167 40.667 C 256.075 40.667,256.000 40.477,256.000 40.245 C 256.000 40.013,255.887 39.780,255.750 39.727 C 255.612 39.674,255.500 39.452,255.500 39.232 C 255.500 38.989,255.403 38.833,255.250 38.833 C 255.094 38.833,255.000 38.676,255.000 38.417 C 255.000 38.188,254.933 38.000,254.851 38.000 C 254.770 38.000,254.656 37.813,254.598 37.583 C 254.541 37.354,254.420 37.167,254.330 37.167 C 254.240 37.167,254.167 37.054,254.167 36.917 C 254.167 36.779,254.054 36.667,253.917 36.667 C 253.750 36.667,253.667 36.500,253.667 36.167 C 253.667 35.892,253.597 35.667,253.511 35.667 C 253.426 35.667,253.305 35.507,253.243 35.311 C 253.154 35.032,253.099 35.005,252.984 35.186 C 252.883 35.346,252.838 35.250,252.836 34.875 C 252.834 34.551,252.749 34.333,252.623 34.333 C 252.423 34.333,252.146 33.932,251.904 33.292 C 251.844 33.131,251.728 33.000,251.647 33.000 C 251.566 33.000,251.500 32.887,251.500 32.750 C 251.500 32.612,251.387 32.500,251.250 32.500 C 251.094 32.500,251.000 32.343,251.000 32.083 C 251.000 31.824,250.906 31.667,250.750 31.667 C 250.612 31.667,250.500 31.586,250.500 31.488 C 250.500 31.270,250.165 30.921,249.830 30.790 C 249.623 30.709,249.626 30.691,249.849 30.680 C 250.289 30.658,251.177 30.152,251.073 29.983 C 251.019 29.896,251.037 29.836,251.113 29.849 C 251.520 29.920,251.833 29.804,251.833 29.583 C 251.833 29.446,251.946 29.333,252.083 29.333 C 252.221 29.333,252.333 29.258,252.333 29.167 C 252.333 29.075,252.446 29.000,252.583 29.000 C 252.721 29.000,252.833 28.921,252.833 28.825 C 252.833 28.729,253.021 28.477,253.250 28.265 C 253.479 28.052,253.667 27.793,253.667 27.689 C 253.667 27.585,253.779 27.500,253.917 27.500 C 254.070 27.500,254.167 27.344,254.167 27.097 C 254.167 26.876,254.251 26.666,254.354 26.632 C 254.458 26.597,254.580 26.179,254.626 25.701 C 254.672 25.224,254.775 24.833,254.855 24.833 C 255.059 24.833,255.039 21.210,254.833 21.083 C 254.742 21.027,254.667 20.682,254.667 20.318 C 254.667 19.884,254.581 19.623,254.417 19.560 C 254.279 19.508,254.167 19.285,254.167 19.066 C 254.167 18.822,254.069 18.667,253.917 18.667 C 253.759 18.667,253.667 18.508,253.667 18.238 C 253.667 17.799,253.330 17.333,253.012 17.333 C 252.914 17.333,252.833 17.221,252.833 17.083 C 252.833 16.946,252.721 16.833,252.583 16.833 C 252.446 16.833,252.333 16.721,252.333 16.583 C 252.333 16.446,252.221 16.333,252.083 16.333 C 251.946 16.333,251.833 16.258,251.833 16.167 C 251.833 16.075,251.646 16.000,251.417 16.000 C 251.157 16.000,251.000 15.906,251.000 15.750 C 251.000 15.597,250.845 15.500,250.601 15.500 C 250.382 15.500,250.159 15.387,250.106 15.250 C 250.054 15.112,249.821 15.000,249.589 15.000 C 249.357 15.000,249.167 14.925,249.167 14.833 C 249.167 14.742,248.754 14.667,248.250 14.667 C 247.546 14.667,247.333 14.609,247.333 14.417 C 247.333 14.027,234.584 14.040,234.434 14.430 M334.952 14.500 C 334.904 14.683,334.937 14.833,335.025 14.833 C 335.114 14.833,335.139 14.910,335.082 15.003 C 335.024 15.096,334.907 15.129,334.822 15.076 C 334.736 15.023,334.667 15.210,334.667 15.490 C 334.667 15.832,334.584 16.000,334.417 16.000 C 334.261 16.000,334.167 16.157,334.167 16.417 C 334.167 16.676,334.072 16.833,333.917 16.833 C 333.763 16.833,333.667 16.990,333.667 17.240 C 333.667 17.464,333.592 17.693,333.500 17.750 C 333.408 17.807,333.333 18.036,333.333 18.260 C 333.333 18.510,333.237 18.667,333.083 18.667 C 332.926 18.667,332.833 18.825,332.833 19.095 C 332.833 19.331,332.721 19.636,332.583 19.774 C 332.446 19.911,332.333 20.174,332.333 20.357 C 332.333 20.540,332.221 20.803,332.083 20.940 C 331.946 21.078,331.833 21.335,331.833 21.512 C 331.833 21.689,331.758 21.833,331.667 21.833 C 331.575 21.833,331.500 22.133,331.500 22.500 C 331.500 22.981,331.431 23.167,331.250 23.167 C 331.097 23.167,331.000 23.322,331.000 23.566 C 331.000 23.785,330.897 24.004,330.771 24.052 C 330.517 24.150,330.305 25.167,330.539 25.167 C 330.620 25.167,330.639 25.243,330.582 25.336 C 330.524 25.429,330.407 25.462,330.322 25.410 C 330.236 25.357,330.167 25.543,330.167 25.823 C 330.167 26.166,330.084 26.333,329.917 26.333 C 329.734 26.333,329.666 26.524,329.664 27.042 C 329.662 27.493,329.610 27.669,329.521 27.528 C 329.358 27.271,329.167 27.623,329.167 28.180 C 329.167 28.356,329.092 28.500,329.000 28.500 C 328.908 28.500,328.833 28.800,328.833 29.167 C 328.833 29.648,328.764 29.833,328.583 29.833 C 328.419 29.833,328.333 29.998,328.333 30.316 C 328.333 30.590,328.226 30.839,328.083 30.894 C 327.926 30.954,327.833 31.209,327.833 31.578 C 327.833 31.902,327.758 32.167,327.667 32.167 C 327.575 32.167,327.500 32.345,327.500 32.563 C 327.500 32.781,327.387 33.053,327.250 33.167 C 327.112 33.281,327.000 33.582,327.000 33.836 C 327.000 34.093,326.889 34.340,326.750 34.394 C 326.602 34.450,326.500 34.701,326.500 35.007 C 326.500 35.291,326.387 35.636,326.250 35.774 C 326.112 35.911,326.000 36.243,326.000 36.512 C 326.000 36.780,325.925 37.000,325.833 37.000 C 325.742 37.000,325.667 37.216,325.667 37.480 C 325.667 37.743,325.554 38.053,325.417 38.167 C 325.279 38.281,325.167 38.558,325.167 38.782 C 325.167 39.007,325.054 39.303,324.917 39.440 C 324.779 39.578,324.667 39.910,324.667 40.179 C 324.667 40.447,324.592 40.667,324.500 40.667 C 324.408 40.667,324.333 40.967,324.333 41.333 L 324.333 42.000 327.417 42.000 L 330.500 42.000 330.500 41.520 C 330.500 41.257,330.612 40.947,330.750 40.833 C 330.887 40.719,331.000 40.418,331.000 40.164 C 331.000 39.907,331.111 39.660,331.250 39.606 C 331.407 39.546,331.500 39.291,331.500 38.922 C 331.500 38.598,331.575 38.333,331.667 38.333 C 331.758 38.333,331.833 38.033,331.833 37.667 C 331.833 37.185,331.903 37.000,332.083 37.000 C 332.264 37.000,332.333 36.815,332.333 36.333 L 332.333 35.667 337.750 35.667 C 342.454 35.667,343.167 35.700,343.167 35.917 C 343.167 36.054,343.279 36.167,343.417 36.167 C 343.597 36.167,343.667 36.352,343.667 36.833 C 343.667 37.200,343.742 37.500,343.833 37.500 C 343.925 37.500,344.000 37.720,344.000 37.988 C 344.000 38.257,344.113 38.589,344.250 38.726 C 344.387 38.864,344.500 39.132,344.500 39.321 C 344.500 39.517,344.608 39.667,344.750 39.667 C 344.931 39.667,345.000 39.852,345.000 40.333 C 345.000 40.700,345.075 41.000,345.167 41.000 C 345.258 41.000,345.333 41.225,345.333 41.500 L 345.333 42.000 348.500 42.000 L 351.667 42.000 351.667 41.333 C 351.667 40.852,351.597 40.667,351.417 40.667 C 351.236 40.667,351.167 40.481,351.167 40.000 C 351.167 39.633,351.092 39.333,351.000 39.333 C 350.908 39.333,350.833 39.033,350.833 38.667 C 350.833 38.185,350.764 38.000,350.583 38.000 C 350.403 38.000,350.333 37.815,350.333 37.333 C 350.333 36.852,350.264 36.667,350.083 36.667 C 349.916 36.667,349.833 36.499,349.833 36.157 C 349.833 35.876,349.764 35.690,349.678 35.743 C 349.593 35.796,349.476 35.763,349.418 35.669 C 349.361 35.576,349.380 35.500,349.461 35.500 C 349.695 35.500,349.483 34.483,349.229 34.386 C 349.096 34.335,349.000 34.057,349.000 33.727 C 349.000 33.373,348.905 33.120,348.750 33.060 C 348.613 33.008,348.500 32.785,348.500 32.566 C 348.500 32.346,348.425 32.167,348.333 32.167 C 348.242 32.167,348.167 31.947,348.167 31.679 C 348.167 31.410,348.054 31.078,347.917 30.940 C 347.779 30.803,347.667 30.458,347.667 30.173 C 347.667 29.867,347.565 29.617,347.417 29.560 C 347.274 29.506,347.167 29.257,347.167 28.982 C 347.167 28.665,347.081 28.500,346.917 28.500 C 346.736 28.500,346.667 28.315,346.667 27.833 C 346.667 27.467,346.592 27.167,346.500 27.167 C 346.408 27.167,346.333 26.979,346.333 26.750 C 346.333 26.491,346.239 26.333,346.083 26.333 C 345.903 26.333,345.833 26.148,345.833 25.667 C 345.833 25.185,345.764 25.000,345.583 25.000 C 345.417 25.000,345.333 24.833,345.333 24.500 C 345.333 24.225,345.268 24.000,345.188 24.000 C 345.108 24.000,344.995 23.700,344.936 23.333 C 344.877 22.967,344.755 22.667,344.665 22.667 C 344.574 22.667,344.500 22.479,344.500 22.250 C 344.500 21.991,344.406 21.833,344.250 21.833 C 344.083 21.833,344.000 21.667,344.000 21.333 C 344.000 21.058,343.925 20.833,343.833 20.833 C 343.742 20.833,343.667 20.660,343.667 20.449 C 343.667 20.237,343.557 19.918,343.422 19.740 C 343.287 19.562,343.175 19.248,343.172 19.042 C 343.169 18.822,343.063 18.667,342.917 18.667 C 342.760 18.667,342.667 18.509,342.667 18.245 C 342.667 18.013,342.554 17.780,342.417 17.727 C 342.279 17.674,342.167 17.452,342.167 17.232 C 342.167 17.013,342.092 16.833,342.000 16.833 C 341.908 16.833,341.833 16.689,341.833 16.514 C 341.833 15.957,341.642 15.604,341.479 15.861 C 341.390 16.003,341.338 15.826,341.336 15.375 C 341.334 14.858,341.266 14.667,341.083 14.667 C 340.946 14.667,340.833 14.554,340.833 14.417 C 340.833 13.970,335.069 14.052,334.952 14.500 M353.611 14.278 C 353.550 14.339,353.500 20.601,353.500 28.194 L 353.500 42.000 356.417 42.000 L 359.333 42.000 359.333 37.250 L 359.333 32.500 362.917 32.500 C 365.194 32.500,366.500 32.439,366.500 32.333 C 366.500 32.242,366.877 32.167,367.339 32.167 C 367.930 32.167,368.205 32.093,368.273 31.917 C 368.332 31.762,368.586 31.667,368.940 31.667 C 369.293 31.667,369.547 31.572,369.606 31.417 C 369.659 31.279,369.882 31.167,370.101 31.167 C 370.345 31.167,370.500 31.069,370.500 30.917 C 370.500 30.779,370.613 30.667,370.750 30.667 C 370.887 30.667,371.000 30.592,371.000 30.500 C 371.000 30.408,371.152 30.333,371.339 30.333 C 371.525 30.333,371.720 30.221,371.773 30.083 C 371.826 29.946,371.973 29.833,372.101 29.833 C 372.229 29.833,372.333 29.729,372.333 29.601 C 372.333 29.473,372.446 29.326,372.583 29.273 C 372.721 29.220,372.833 29.059,372.833 28.914 C 372.833 28.769,373.021 28.477,373.250 28.265 C 373.547 27.989,373.667 27.705,373.667 27.273 C 373.667 26.845,373.740 26.667,373.917 26.667 C 374.131 26.667,374.167 26.185,374.167 23.333 C 374.167 20.481,374.131 20.000,373.917 20.000 C 373.736 20.000,373.667 19.815,373.667 19.333 C 373.667 18.967,373.604 18.667,373.527 18.667 C 373.450 18.667,373.244 18.368,373.068 18.002 C 372.893 17.636,372.656 17.336,372.542 17.335 C 372.427 17.334,372.333 17.221,372.333 17.083 C 372.333 16.946,372.221 16.833,372.083 16.833 C 371.946 16.833,371.833 16.740,371.832 16.625 C 371.831 16.410,371.099 16.000,370.717 16.000 C 370.598 16.000,370.500 15.887,370.500 15.750 C 370.500 15.597,370.345 15.500,370.101 15.500 C 369.882 15.500,369.659 15.387,369.606 15.250 C 369.546 15.093,369.291 15.000,368.922 15.000 C 368.598 15.000,368.333 14.925,368.333 14.833 C 368.333 14.740,367.883 14.667,367.316 14.667 C 366.479 14.667,366.315 14.622,366.394 14.417 C 366.495 14.154,353.872 14.016,353.611 14.278 M377.333 28.083 L 377.333 42.000 380.250 42.000 L 383.167 42.000 383.167 28.083 L 383.167 14.167 380.250 14.167 L 377.333 14.167 377.333 28.083 M280.742 14.824 C 280.655 14.911,280.133 15.005,279.583 15.033 L 278.583 15.083 278.540 26.157 C 278.512 33.428,278.555 37.289,278.665 37.399 C 278.758 37.491,278.833 37.852,278.833 38.200 C 278.833 38.652,278.905 38.833,279.083 38.833 C 279.239 38.833,279.333 38.991,279.333 39.250 C 279.333 39.509,279.428 39.667,279.583 39.667 C 279.721 39.667,279.836 39.798,279.839 39.958 C 279.847 40.391,280.420 41.000,280.818 41.000 C 281.017 41.000,281.167 41.108,281.167 41.250 C 281.167 41.387,281.279 41.500,281.417 41.500 C 281.554 41.500,281.667 41.612,281.667 41.750 C 281.667 41.929,281.850 42.000,282.316 42.000 C 282.749 42.000,282.997 42.086,283.064 42.260 C 283.196 42.605,290.010 42.555,290.125 42.208 C 290.163 42.094,290.453 42.000,290.769 42.000 C 291.126 42.000,291.380 41.905,291.440 41.750 C 291.492 41.612,291.680 41.500,291.856 41.500 C 292.292 41.500,292.460 41.005,292.110 40.749 C 291.900 40.596,291.833 40.279,291.833 39.440 C 291.833 38.813,291.761 38.333,291.667 38.333 C 291.575 38.333,291.500 38.033,291.500 37.667 L 291.500 37.000 290.595 37.000 C 290.013 37.000,289.601 37.089,289.440 37.250 C 289.147 37.543,285.500 37.623,285.500 37.337 C 285.500 37.247,285.313 37.126,285.083 37.068 C 284.784 36.993,284.667 36.851,284.667 36.565 C 284.667 36.346,284.601 36.167,284.521 36.167 C 284.441 36.167,284.338 35.776,284.292 35.299 C 284.246 34.821,284.124 34.403,284.021 34.368 C 283.888 34.324,283.833 32.999,283.833 29.819 L 283.833 25.333 287.667 25.333 L 291.500 25.333 291.500 23.083 L 291.500 20.833 287.667 20.833 L 283.833 20.833 283.833 17.750 L 283.833 14.667 282.367 14.667 C 281.560 14.667,280.829 14.738,280.742 14.824 M25.333 17.069 C 25.333 17.215,25.452 17.333,25.597 17.333 C 25.742 17.333,25.831 17.244,25.795 17.135 C 25.692 16.826,25.333 16.775,25.333 17.069 M24.101 17.597 C 24.039 17.760,24.076 17.836,24.198 17.795 C 24.447 17.712,24.584 17.333,24.365 17.333 C 24.276 17.333,24.157 17.452,24.101 17.597 M246.106 19.750 C 246.159 19.887,246.382 20.000,246.601 20.000 C 246.821 20.000,247.000 20.067,247.000 20.149 C 247.000 20.230,247.188 20.344,247.417 20.402 C 247.646 20.459,247.833 20.580,247.833 20.670 C 247.833 20.760,247.946 20.833,248.083 20.833 C 248.236 20.833,248.333 20.989,248.333 21.232 C 248.333 21.452,248.446 21.674,248.583 21.727 C 248.770 21.798,248.833 22.096,248.833 22.894 C 248.833 23.692,248.770 23.989,248.583 24.060 C 248.446 24.113,248.333 24.346,248.333 24.578 C 248.333 24.810,248.253 25.000,248.155 25.000 C 247.924 25.000,247.500 25.424,247.500 25.655 C 247.500 25.753,247.208 25.833,246.851 25.833 C 246.428 25.833,246.169 25.920,246.106 26.083 C 246.028 26.287,245.626 26.333,243.932 26.333 C 242.726 26.333,241.810 26.403,241.750 26.500 C 241.693 26.592,241.314 26.667,240.907 26.667 L 240.167 26.667 240.167 23.083 L 240.167 19.500 243.089 19.500 C 245.532 19.500,246.026 19.541,246.106 19.750 M365.227 19.750 C 365.283 19.897,365.534 20.000,365.836 20.000 C 366.169 20.000,366.485 20.146,366.735 20.417 C 366.948 20.646,367.207 20.833,367.311 20.833 C 367.415 20.833,367.500 20.946,367.500 21.083 C 367.500 21.221,367.575 21.333,367.667 21.333 C 367.758 21.333,367.833 21.521,367.833 21.750 C 367.833 22.009,367.928 22.167,368.083 22.167 C 368.282 22.167,368.333 22.407,368.333 23.333 C 368.333 24.259,368.282 24.500,368.083 24.500 C 367.928 24.500,367.833 24.657,367.833 24.917 C 367.833 25.146,367.758 25.333,367.667 25.333 C 367.575 25.333,367.500 25.446,367.500 25.583 C 367.500 25.721,367.387 25.833,367.250 25.833 C 367.113 25.833,367.000 25.946,367.000 26.083 C 367.000 26.221,366.854 26.333,366.677 26.333 C 366.499 26.333,366.307 26.408,366.250 26.500 C 366.193 26.592,365.926 26.667,365.657 26.667 C 365.332 26.667,365.167 26.751,365.167 26.917 C 365.167 27.124,364.842 27.167,363.245 27.167 C 361.690 27.167,361.305 27.214,361.227 27.417 C 361.158 27.596,360.877 27.667,360.232 27.667 L 359.333 27.667 359.333 23.583 L 359.333 19.500 362.232 19.500 C 364.655 19.500,365.147 19.541,365.227 19.750 M27.167 20.236 C 27.167 20.381,27.285 20.500,27.431 20.500 C 27.576 20.500,27.665 20.411,27.628 20.302 C 27.525 19.993,27.167 19.942,27.167 20.236 M114.000 20.667 C 114.000 20.758,113.700 20.833,113.333 20.833 C 112.852 20.833,112.667 20.903,112.667 21.083 C 112.667 21.250,112.500 21.333,112.167 21.333 C 111.833 21.333,111.667 21.417,111.667 21.583 C 111.667 21.728,111.516 21.833,111.311 21.833 C 111.115 21.833,110.781 22.021,110.569 22.250 C 110.356 22.479,110.104 22.667,110.008 22.667 C 109.912 22.667,109.833 22.748,109.833 22.846 C 109.833 22.945,109.533 23.306,109.167 23.648 C 108.781 24.008,108.500 24.423,108.500 24.635 C 108.500 24.836,108.430 25.000,108.344 25.000 C 108.259 25.000,108.165 25.206,108.136 25.458 C 108.106 25.716,107.992 25.898,107.875 25.875 C 107.753 25.851,107.667 26.006,107.667 26.250 C 107.667 26.509,107.572 26.667,107.417 26.667 C 107.244 26.667,107.167 26.840,107.167 27.231 C 107.167 27.541,107.055 28.010,106.918 28.273 C 106.559 28.961,106.559 34.206,106.918 34.894 C 107.055 35.157,107.167 35.625,107.167 35.936 C 107.167 36.326,107.244 36.500,107.417 36.500 C 107.583 36.500,107.667 36.667,107.667 37.000 C 107.667 37.333,107.750 37.500,107.917 37.500 C 108.072 37.500,108.167 37.657,108.167 37.917 C 108.167 38.146,108.233 38.333,108.314 38.333 C 108.395 38.333,108.502 38.491,108.553 38.683 C 108.604 38.882,108.723 38.985,108.826 38.921 C 108.926 38.859,108.998 38.870,108.984 38.946 C 108.914 39.353,109.029 39.667,109.250 39.667 C 109.388 39.667,109.500 39.779,109.500 39.917 C 109.500 40.054,109.604 40.167,109.732 40.167 C 109.860 40.167,110.008 40.279,110.060 40.417 C 110.113 40.554,110.309 40.667,110.495 40.667 C 110.681 40.667,110.833 40.742,110.833 40.833 C 110.833 40.925,110.946 41.000,111.083 41.000 C 111.221 41.000,111.333 41.112,111.333 41.250 C 111.333 41.403,111.489 41.500,111.732 41.500 C 111.952 41.500,112.174 41.612,112.227 41.750 C 112.287 41.905,112.540 42.000,112.898 42.000 C 113.214 42.000,113.503 42.094,113.542 42.208 C 113.595 42.368,114.587 42.417,117.750 42.417 C 120.913 42.417,121.905 42.368,121.958 42.208 C 121.998 42.089,122.307 42.000,122.681 42.000 C 123.318 42.000,123.333 41.986,123.333 41.407 C 123.333 40.981,123.392 40.847,123.542 40.931 C 123.708 41.025,123.708 41.004,123.542 40.824 C 123.418 40.691,123.333 40.144,123.333 39.477 C 123.333 38.807,123.256 38.305,123.141 38.234 C 123.022 38.160,122.994 38.188,123.067 38.308 C 123.133 38.413,123.119 38.500,123.037 38.500 C 122.955 38.500,122.894 38.181,122.902 37.792 L 122.917 37.083 121.985 37.034 C 121.302 36.998,120.996 37.054,120.840 37.242 C 120.527 37.619,115.750 37.625,115.606 37.250 C 115.554 37.112,115.358 37.000,115.172 37.000 C 114.986 37.000,114.833 36.943,114.833 36.873 C 114.833 36.803,114.671 36.672,114.472 36.581 C 114.273 36.491,114.029 36.267,113.930 36.085 C 113.831 35.902,113.581 35.587,113.375 35.384 C 113.153 35.166,113.000 34.814,113.000 34.522 C 113.000 34.250,112.906 33.997,112.792 33.958 C 112.638 33.907,112.583 33.270,112.583 31.536 C 112.583 29.877,112.645 29.122,112.792 28.975 C 112.906 28.861,113.000 28.519,113.000 28.217 C 113.000 27.839,113.078 27.667,113.250 27.667 C 113.388 27.667,113.500 27.586,113.500 27.487 C 113.500 27.204,114.944 25.833,115.242 25.833 C 115.390 25.833,115.554 25.721,115.606 25.583 C 115.685 25.378,116.105 25.333,117.940 25.333 C 119.775 25.333,120.194 25.378,120.273 25.583 C 120.344 25.769,120.641 25.833,121.434 25.833 L 122.500 25.833 122.500 25.192 C 122.500 24.840,122.621 24.308,122.770 24.010 C 122.945 23.659,123.009 23.240,122.952 22.818 C 122.903 22.451,122.935 22.167,123.026 22.167 C 123.114 22.167,123.133 22.253,123.067 22.359 C 122.994 22.478,123.022 22.506,123.141 22.433 C 123.247 22.367,123.333 22.026,123.333 21.675 C 123.333 20.954,123.164 20.833,122.153 20.833 C 121.794 20.833,121.500 20.758,121.500 20.667 C 121.500 20.560,120.139 20.500,117.750 20.500 C 115.361 20.500,114.000 20.560,114.000 20.667 M150.333 20.667 C 150.333 20.758,149.967 20.833,149.519 20.833 C 148.838 20.833,148.661 20.900,148.436 21.244 C 148.133 21.706,148.082 22.167,148.333 22.167 C 148.429 22.167,148.500 22.690,148.500 23.403 C 148.500 24.823,148.643 25.435,148.851 24.904 C 148.944 24.667,148.980 24.747,148.988 25.208 L 149.000 25.833 150.005 25.833 C 150.745 25.833,151.036 25.767,151.106 25.583 C 151.186 25.375,151.660 25.333,153.934 25.333 C 156.252 25.333,156.667 25.371,156.667 25.583 C 156.667 25.721,156.747 25.833,156.845 25.833 C 157.076 25.833,157.500 26.257,157.500 26.488 C 157.500 26.586,157.612 26.667,157.750 26.667 C 157.906 26.667,158.000 26.825,158.000 27.089 C 158.000 27.321,158.112 27.554,158.250 27.606 C 158.413 27.669,158.500 27.928,158.500 28.351 L 158.500 29.000 154.917 29.000 C 152.639 29.000,151.333 29.061,151.333 29.167 C 151.333 29.258,151.123 29.333,150.865 29.333 C 150.608 29.333,150.251 29.443,150.074 29.578 C 149.896 29.713,149.616 29.825,149.453 29.828 C 149.290 29.831,149.113 29.946,149.060 30.083 C 149.008 30.221,148.860 30.333,148.732 30.333 C 148.604 30.333,148.500 30.414,148.500 30.512 C 148.500 30.743,148.076 31.167,147.845 31.167 C 147.747 31.167,147.667 31.279,147.667 31.417 C 147.667 31.554,147.554 31.667,147.417 31.667 C 147.279 31.667,147.167 31.779,147.167 31.917 C 147.167 32.054,147.093 32.167,147.002 32.167 C 146.911 32.167,146.789 32.467,146.731 32.833 C 146.672 33.200,146.559 33.500,146.479 33.500 C 146.399 33.500,146.333 34.475,146.333 35.667 C 146.333 37.000,146.397 37.833,146.500 37.833 C 146.592 37.833,146.667 38.053,146.667 38.321 C 146.667 38.590,146.779 38.922,146.917 39.060 C 147.054 39.197,147.167 39.390,147.167 39.488 C 147.167 39.586,147.279 39.667,147.417 39.667 C 147.559 39.667,147.667 39.816,147.667 40.015 C 147.667 40.413,148.276 40.986,148.708 40.994 C 148.869 40.998,149.000 41.112,149.000 41.250 C 149.000 41.406,149.157 41.500,149.417 41.500 C 149.676 41.500,149.833 41.594,149.833 41.750 C 149.833 41.937,150.034 42.001,150.625 42.003 C 151.163 42.004,151.340 42.053,151.178 42.156 C 150.721 42.445,152.030 42.522,156.548 42.469 C 159.796 42.431,161.046 42.362,161.136 42.216 C 161.210 42.097,161.765 41.996,162.505 41.966 L 163.750 41.917 163.793 33.888 C 163.831 26.913,163.804 25.827,163.585 25.609 C 163.443 25.467,163.333 25.061,163.333 24.679 C 163.333 24.305,163.260 24.000,163.170 24.000 C 163.080 24.000,162.959 23.813,162.902 23.583 C 162.844 23.354,162.730 23.167,162.649 23.167 C 162.567 23.167,162.500 23.054,162.500 22.917 C 162.500 22.779,162.387 22.667,162.250 22.667 C 162.112 22.667,162.000 22.554,162.000 22.417 C 162.000 22.279,161.905 22.167,161.790 22.167 C 161.674 22.167,161.438 21.979,161.266 21.750 C 161.087 21.512,160.785 21.333,160.560 21.333 C 160.321 21.333,160.167 21.235,160.167 21.083 C 160.167 20.903,159.981 20.833,159.500 20.833 C 159.133 20.833,158.833 20.758,158.833 20.667 C 158.833 20.560,157.306 20.500,154.583 20.500 C 151.861 20.500,150.333 20.560,150.333 20.667 M168.333 20.667 C 168.333 20.758,168.221 20.833,168.083 20.833 C 167.864 20.833,167.833 22.120,167.833 31.417 L 167.833 42.000 170.750 42.000 L 173.667 42.000 173.667 33.667 L 173.667 25.333 176.167 25.333 C 178.278 25.333,178.667 25.372,178.667 25.583 C 178.667 25.721,178.767 25.833,178.890 25.833 C 179.013 25.833,179.256 26.096,179.428 26.417 C 179.601 26.738,179.800 27.000,179.871 27.000 C 179.942 27.000,180.000 27.225,180.000 27.500 C 180.000 27.833,180.083 28.000,180.250 28.000 C 180.468 28.000,180.500 28.889,180.500 35.000 L 180.500 42.000 183.417 42.000 L 186.333 42.000 186.333 35.115 C 186.333 29.320,186.295 28.179,186.089 27.907 C 185.936 27.704,185.842 27.192,185.839 26.536 C 185.835 25.763,185.768 25.464,185.583 25.394 C 185.442 25.340,185.333 25.091,185.333 24.825 C 185.333 24.566,185.259 24.307,185.169 24.251 C 185.071 24.191,185.048 24.265,185.114 24.435 C 185.188 24.630,185.161 24.683,185.028 24.600 C 184.914 24.530,184.875 24.310,184.934 24.075 C 185.005 23.790,184.956 23.639,184.768 23.567 C 184.620 23.511,184.500 23.349,184.500 23.207 C 184.500 22.836,183.411 21.833,183.008 21.833 C 182.816 21.833,182.667 21.724,182.667 21.583 C 182.667 21.428,182.509 21.333,182.250 21.333 C 181.991 21.333,181.833 21.239,181.833 21.083 C 181.833 20.917,181.667 20.833,181.333 20.833 C 181.058 20.833,180.833 20.758,180.833 20.667 C 180.833 20.559,178.639 20.500,174.583 20.500 C 170.528 20.500,168.333 20.559,168.333 20.667 M195.833 20.667 C 195.833 20.758,195.608 20.833,195.333 20.833 C 195.000 20.833,194.833 20.917,194.833 21.083 C 194.833 21.239,194.676 21.333,194.417 21.333 C 194.157 21.333,194.000 21.428,194.000 21.583 C 194.000 21.741,193.841 21.833,193.571 21.833 C 193.132 21.833,192.667 22.170,192.667 22.488 C 192.667 22.586,192.554 22.667,192.417 22.667 C 192.279 22.667,192.167 22.779,192.167 22.917 C 192.167 23.054,192.086 23.167,191.987 23.167 C 191.754 23.167,190.833 24.087,190.833 24.321 C 190.833 24.419,190.721 24.500,190.583 24.500 C 190.431 24.500,190.333 24.655,190.333 24.899 C 190.333 25.118,190.221 25.341,190.083 25.394 C 189.946 25.446,189.833 25.679,189.833 25.911 C 189.833 26.143,189.758 26.333,189.667 26.333 C 189.575 26.333,189.500 26.700,189.500 27.149 C 189.500 27.720,189.425 27.993,189.250 28.060 C 189.039 28.141,189.000 28.699,189.000 31.661 C 189.000 34.666,189.036 35.167,189.250 35.167 C 189.431 35.167,189.500 35.352,189.500 35.833 C 189.500 36.200,189.575 36.500,189.667 36.500 C 189.758 36.500,189.833 36.725,189.833 37.000 C 189.833 37.333,189.917 37.500,190.083 37.500 C 190.239 37.500,190.333 37.657,190.333 37.917 C 190.333 38.176,190.428 38.333,190.583 38.333 C 190.728 38.333,190.833 38.484,190.833 38.689 C 190.833 38.885,191.021 39.219,191.250 39.431 C 191.479 39.644,191.667 39.896,191.667 39.992 C 191.667 40.088,191.771 40.167,191.899 40.167 C 192.027 40.167,192.174 40.279,192.227 40.417 C 192.280 40.554,192.475 40.667,192.661 40.667 C 192.848 40.667,193.000 40.742,193.000 40.833 C 193.000 40.925,193.225 41.000,193.500 41.000 C 193.833 41.000,194.000 41.083,194.000 41.250 C 194.000 41.406,194.157 41.500,194.417 41.500 C 194.676 41.500,194.833 41.594,194.833 41.750 C 194.833 41.964,195.315 42.000,198.167 42.000 C 201.019 42.000,201.500 41.964,201.500 41.750 C 201.500 41.583,201.667 41.500,202.000 41.500 C 202.333 41.500,202.500 41.583,202.500 41.750 C 202.500 41.887,202.387 42.000,202.250 42.000 C 202.106 42.000,202.000 42.151,202.000 42.356 C 202.000 42.552,201.813 42.886,201.583 43.098 C 201.354 43.310,201.167 43.563,201.167 43.659 C 201.167 43.755,200.985 43.833,200.764 43.833 C 200.542 43.833,200.335 43.912,200.303 44.008 C 200.224 44.246,194.108 44.242,194.029 44.004 C 193.998 43.910,193.641 43.833,193.236 43.833 C 192.693 43.833,192.500 43.768,192.500 43.583 C 192.500 43.394,192.296 43.333,191.667 43.333 C 190.852 43.333,190.833 43.344,190.833 43.833 C 190.833 44.167,190.750 44.333,190.583 44.333 C 190.387 44.333,190.333 44.563,190.333 45.399 C 190.333 46.192,190.269 46.489,190.083 46.560 C 189.829 46.658,189.746 47.411,189.935 47.904 C 189.992 48.053,190.321 48.214,190.685 48.272 C 191.042 48.329,191.333 48.441,191.333 48.521 C 191.333 48.601,191.700 48.667,192.149 48.667 C 192.720 48.667,192.993 48.742,193.060 48.917 C 193.142 49.130,193.773 49.167,197.328 49.167 C 200.925 49.167,201.500 49.132,201.500 48.917 C 201.500 48.732,201.693 48.667,202.240 48.667 C 202.647 48.667,203.034 48.580,203.099 48.474 C 203.173 48.355,203.145 48.327,203.026 48.401 C 202.920 48.466,202.833 48.455,202.833 48.377 C 202.833 48.298,203.110 48.233,203.447 48.233 C 203.785 48.233,204.091 48.143,204.128 48.033 C 204.164 47.923,204.301 47.833,204.431 47.833 C 204.560 47.833,204.667 47.721,204.667 47.583 C 204.667 47.446,204.779 47.333,204.917 47.333 C 205.054 47.333,205.173 47.202,205.180 47.042 C 205.187 46.881,205.229 46.839,205.274 46.948 C 205.388 47.228,206.000 46.679,206.000 46.296 C 206.000 46.133,206.112 46.000,206.250 46.000 C 206.387 46.000,206.500 45.887,206.500 45.750 C 206.500 45.612,206.612 45.500,206.750 45.500 C 206.906 45.500,207.000 45.343,207.000 45.083 C 207.000 44.854,207.075 44.667,207.167 44.667 C 207.259 44.667,207.333 44.224,207.333 43.672 C 207.333 42.856,207.378 42.694,207.583 42.773 C 207.804 42.858,207.833 41.604,207.833 32.101 L 207.833 21.333 207.434 21.333 C 207.215 21.333,206.992 21.221,206.940 21.083 C 206.868 20.896,206.569 20.833,205.755 20.833 C 205.141 20.833,204.667 20.761,204.667 20.667 C 204.667 20.560,203.083 20.500,200.250 20.500 C 197.417 20.500,195.833 20.560,195.833 20.667 M218.167 20.667 C 218.167 20.758,217.946 20.833,217.677 20.833 C 217.407 20.833,217.137 20.913,217.077 21.010 C 217.017 21.108,216.806 21.257,216.609 21.343 C 215.796 21.697,214.667 22.652,214.667 22.987 C 214.667 23.086,214.586 23.167,214.487 23.167 C 214.264 23.167,213.333 24.083,213.333 24.303 C 213.333 24.392,213.221 24.508,213.083 24.560 C 212.946 24.613,212.833 24.801,212.833 24.977 C 212.833 25.153,212.721 25.341,212.583 25.394 C 212.446 25.446,212.333 25.673,212.333 25.898 C 212.333 26.122,212.251 26.333,212.150 26.367 C 212.050 26.400,211.927 26.783,211.878 27.218 C 211.829 27.652,211.724 28.048,211.645 28.097 C 211.436 28.226,211.458 35.167,211.667 35.167 C 211.758 35.167,211.833 35.386,211.833 35.655 C 211.833 35.923,211.946 36.255,212.083 36.393 C 212.221 36.530,212.333 36.836,212.333 37.071 C 212.333 37.341,212.426 37.500,212.583 37.500 C 212.739 37.500,212.833 37.657,212.833 37.917 C 212.833 38.176,212.928 38.333,213.083 38.333 C 213.221 38.333,213.333 38.446,213.333 38.583 C 213.333 38.721,213.408 38.833,213.500 38.833 C 213.592 38.833,213.667 38.967,213.667 39.130 C 213.667 39.541,214.613 40.339,214.966 40.226 C 215.209 40.148,215.213 40.162,215.000 40.318 C 214.788 40.472,214.807 40.516,215.125 40.603 C 215.331 40.659,215.500 40.772,215.500 40.853 C 215.500 40.934,215.603 41.000,215.730 41.000 C 215.856 41.000,216.053 41.112,216.167 41.250 C 216.281 41.387,216.483 41.500,216.616 41.500 C 216.748 41.500,216.970 41.612,217.107 41.750 C 217.245 41.887,217.528 42.000,217.736 42.000 C 217.945 42.000,218.349 42.117,218.635 42.259 C 219.317 42.599,226.510 42.553,226.625 42.208 C 226.668 42.080,227.005 42.000,227.506 42.000 C 228.028 42.000,228.364 41.917,228.450 41.766 C 228.523 41.637,228.771 41.506,229.000 41.474 C 229.527 41.401,229.737 38.927,229.256 38.447 C 229.100 38.291,229.000 37.892,229.000 37.429 L 229.000 36.667 228.083 36.667 C 227.579 36.667,227.167 36.742,227.167 36.833 C 227.167 36.925,226.902 37.000,226.578 37.000 C 226.209 37.000,225.954 37.093,225.894 37.250 C 225.814 37.458,225.352 37.500,223.167 37.500 C 220.982 37.500,220.519 37.458,220.440 37.250 C 220.387 37.112,220.154 37.000,219.922 37.000 C 219.690 37.000,219.500 36.925,219.500 36.833 C 219.500 36.742,219.387 36.667,219.250 36.667 C 219.112 36.667,219.000 36.588,219.000 36.492 C 219.000 36.396,218.732 36.041,218.405 35.704 C 218.078 35.367,217.768 34.882,217.717 34.626 C 217.666 34.369,217.558 34.119,217.478 34.070 C 217.399 34.021,217.333 33.760,217.333 33.490 L 217.333 33.000 224.083 33.000 L 230.833 33.000 230.833 30.161 C 230.833 27.792,230.792 27.307,230.583 27.227 C 230.419 27.164,230.333 26.903,230.333 26.464 C 230.333 25.940,230.280 25.818,230.083 25.894 C 229.946 25.946,229.833 25.923,229.833 25.842 C 229.833 25.761,229.927 25.657,230.042 25.610 C 230.208 25.543,230.208 25.524,230.042 25.513 C 229.924 25.506,229.833 25.282,229.833 25.000 C 229.833 24.725,229.767 24.500,229.686 24.500 C 229.605 24.500,229.493 24.331,229.436 24.125 C 229.350 23.809,229.306 23.789,229.160 24.000 C 229.005 24.222,228.989 24.222,229.013 24.000 C 229.073 23.439,228.987 23.167,228.750 23.167 C 228.612 23.167,228.500 23.094,228.500 23.006 C 228.500 22.664,227.500 21.833,227.089 21.833 C 226.825 21.833,226.667 21.740,226.667 21.583 C 226.667 21.446,226.586 21.333,226.488 21.333 C 226.390 21.333,226.197 21.221,226.060 21.083 C 225.922 20.946,225.632 20.833,225.415 20.833 C 225.197 20.833,224.973 20.758,224.917 20.667 C 224.854 20.565,223.526 20.500,221.490 20.500 C 219.386 20.500,218.167 20.561,218.167 20.667 M260.917 20.667 C 260.860 20.758,260.443 20.833,259.990 20.833 C 259.397 20.833,259.167 20.898,259.167 21.066 C 259.167 21.193,259.054 21.341,258.917 21.394 C 258.779 21.446,258.667 21.607,258.667 21.750 C 258.667 21.893,258.779 22.054,258.917 22.106 C 259.111 22.181,259.167 22.510,259.167 23.591 C 259.167 24.355,259.242 25.027,259.333 25.083 C 259.425 25.140,259.500 25.332,259.500 25.510 C 259.500 25.937,261.565 26.005,261.727 25.583 C 261.807 25.375,262.273 25.333,264.495 25.333 C 266.759 25.333,267.167 25.372,267.167 25.583 C 267.167 25.721,267.279 25.833,267.417 25.833 C 267.554 25.833,267.667 25.908,267.667 26.000 C 267.667 26.092,267.779 26.167,267.917 26.167 C 268.054 26.167,268.167 26.279,268.167 26.417 C 268.167 26.554,268.242 26.667,268.333 26.667 C 268.425 26.667,268.500 26.857,268.500 27.089 C 268.500 27.321,268.612 27.554,268.750 27.606 C 268.913 27.669,269.000 27.928,269.000 28.351 L 269.000 29.000 265.417 29.000 C 263.446 29.000,261.833 29.065,261.833 29.145 C 261.833 29.225,261.533 29.339,261.167 29.397 C 260.800 29.456,260.500 29.578,260.500 29.669 C 260.500 29.759,260.350 29.833,260.167 29.833 C 259.819 29.833,259.167 30.377,259.167 30.667 C 259.167 30.758,259.054 30.833,258.917 30.833 C 258.779 30.833,258.667 30.908,258.667 31.000 C 258.667 31.092,258.554 31.167,258.417 31.167 C 258.279 31.167,258.167 31.279,258.167 31.417 C 258.167 31.554,258.092 31.667,258.000 31.667 C 257.908 31.667,257.833 31.771,257.833 31.899 C 257.833 32.027,257.721 32.174,257.583 32.227 C 257.426 32.287,257.333 32.542,257.333 32.911 C 257.333 33.323,257.258 33.500,257.083 33.500 C 256.874 33.500,256.833 33.852,256.833 35.667 C 256.833 37.481,256.874 37.833,257.083 37.833 C 257.259 37.833,257.333 38.010,257.333 38.425 C 257.333 38.831,257.456 39.131,257.727 39.383 C 257.943 39.585,258.173 39.919,258.238 40.125 C 258.303 40.331,258.426 40.509,258.511 40.521 C 258.597 40.532,258.735 40.551,258.819 40.563 C 258.903 40.574,259.035 40.652,259.111 40.735 C 259.193 40.825,259.154 40.831,259.016 40.751 C 258.858 40.660,258.821 40.678,258.901 40.808 C 258.966 40.913,259.128 41.000,259.260 41.000 C 259.392 41.000,259.500 41.112,259.500 41.250 C 259.500 41.417,259.667 41.500,260.000 41.500 C 260.333 41.500,260.500 41.583,260.500 41.750 C 260.500 41.906,260.658 42.000,260.923 42.000 C 261.155 42.000,261.522 42.116,261.738 42.258 C 262.261 42.600,271.510 42.554,271.625 42.208 C 271.673 42.065,272.106 42.000,273.014 42.000 L 274.333 42.000 274.333 33.843 C 274.333 28.648,274.274 25.649,274.169 25.585 C 274.070 25.524,274.047 25.604,274.112 25.783 C 274.171 25.948,274.157 26.026,274.080 25.956 C 274.003 25.886,273.934 25.442,273.927 24.970 C 273.920 24.442,273.835 24.084,273.707 24.041 C 273.593 24.003,273.500 23.826,273.500 23.648 C 273.500 23.469,273.387 23.280,273.250 23.227 C 273.112 23.174,273.000 23.027,273.000 22.899 C 273.000 22.771,272.887 22.667,272.750 22.667 C 272.612 22.667,272.500 22.586,272.500 22.488 C 272.500 22.257,272.076 21.833,271.845 21.833 C 271.747 21.833,271.667 21.721,271.667 21.583 C 271.667 21.431,271.511 21.333,271.268 21.333 C 271.048 21.333,270.826 21.221,270.773 21.083 C 270.713 20.926,270.458 20.833,270.089 20.833 C 269.765 20.833,269.500 20.758,269.500 20.667 C 269.500 20.560,267.976 20.500,265.260 20.500 C 262.613 20.500,260.981 20.563,260.917 20.667 M299.500 20.667 C 299.500 20.758,299.294 20.836,299.042 20.839 C 298.565 20.845,297.833 21.337,297.833 21.652 C 297.833 21.752,297.754 21.833,297.657 21.833 C 297.560 21.833,297.530 21.753,297.591 21.654 C 297.764 21.375,296.980 21.867,296.464 22.362 C 296.209 22.607,296.000 22.888,296.000 22.987 C 296.000 23.086,295.919 23.167,295.821 23.167 C 295.597 23.167,294.667 24.083,294.667 24.303 C 294.667 24.392,294.554 24.508,294.417 24.560 C 294.279 24.613,294.167 24.801,294.167 24.977 C 294.167 25.153,294.054 25.341,293.917 25.394 C 293.779 25.446,293.667 25.679,293.667 25.911 C 293.667 26.143,293.592 26.333,293.500 26.333 C 293.408 26.333,293.333 26.700,293.333 27.149 C 293.333 27.720,293.258 27.993,293.083 28.060 C 292.872 28.141,292.833 28.691,292.833 31.583 C 292.833 34.476,292.872 35.025,293.083 35.106 C 293.246 35.169,293.333 35.428,293.333 35.851 C 293.333 36.208,293.408 36.500,293.500 36.500 C 293.592 36.500,293.667 36.725,293.667 37.000 C 293.667 37.333,293.750 37.500,293.917 37.500 C 294.072 37.500,294.167 37.657,294.167 37.917 C 294.167 38.176,294.261 38.333,294.417 38.333 C 294.554 38.333,294.667 38.446,294.667 38.583 C 294.667 38.721,294.742 38.833,294.833 38.833 C 294.925 38.833,295.000 38.943,295.000 39.078 C 295.000 39.489,295.948 40.341,296.284 40.232 C 296.535 40.151,296.543 40.164,296.333 40.318 C 296.121 40.472,296.140 40.516,296.458 40.603 C 296.665 40.659,296.833 40.772,296.833 40.853 C 296.833 40.934,296.937 41.000,297.063 41.000 C 297.189 41.000,297.386 41.112,297.500 41.250 C 297.614 41.387,297.816 41.500,297.949 41.500 C 298.082 41.500,298.303 41.612,298.440 41.750 C 298.578 41.887,298.861 42.000,299.070 42.000 C 299.278 42.000,299.682 42.117,299.968 42.259 C 300.650 42.599,307.844 42.553,307.959 42.208 C 308.001 42.079,308.341 42.000,308.852 42.000 C 309.432 42.000,309.706 41.926,309.773 41.750 C 309.828 41.607,310.076 41.500,310.351 41.500 L 310.833 41.500 310.833 39.995 C 310.833 38.811,310.780 38.469,310.583 38.394 C 310.408 38.326,310.333 38.053,310.333 37.482 L 310.333 36.667 309.417 36.667 C 308.912 36.667,308.500 36.742,308.500 36.833 C 308.500 36.925,308.235 37.000,307.911 37.000 C 307.542 37.000,307.287 37.093,307.227 37.250 C 307.147 37.458,306.685 37.500,304.500 37.500 C 302.315 37.500,301.853 37.458,301.773 37.250 C 301.720 37.112,301.515 37.000,301.317 37.000 C 300.899 37.000,299.167 35.256,299.167 34.835 C 299.167 34.686,299.057 34.418,298.922 34.240 C 298.787 34.062,298.675 33.710,298.672 33.458 L 298.667 33.000 305.417 33.000 L 312.167 33.000 312.167 30.161 C 312.167 27.792,312.125 27.307,311.917 27.227 C 311.754 27.164,311.667 26.905,311.667 26.482 C 311.667 26.017,311.596 25.833,311.417 25.833 C 311.236 25.833,311.167 25.648,311.167 25.167 C 311.167 24.800,311.100 24.500,311.019 24.500 C 310.938 24.500,310.831 24.342,310.781 24.150 C 310.729 23.952,310.610 23.849,310.507 23.912 C 310.407 23.974,310.336 23.963,310.349 23.887 C 310.420 23.480,310.304 23.167,310.083 23.167 C 309.946 23.167,309.833 23.086,309.833 22.987 C 309.833 22.673,308.872 21.833,308.513 21.833 C 308.322 21.833,308.167 21.764,308.167 21.680 C 308.167 21.449,307.093 20.833,306.689 20.833 C 306.493 20.833,306.333 20.758,306.333 20.667 C 306.333 20.561,305.083 20.500,302.917 20.500 C 300.750 20.500,299.500 20.561,299.500 20.667 M86.375 20.942 C 86.128 21.044,86.092 21.667,86.333 21.667 C 86.425 21.667,86.500 21.779,86.500 21.917 C 86.500 22.054,86.612 22.167,86.750 22.167 C 86.888 22.167,87.000 22.271,87.000 22.399 C 87.000 22.527,87.112 22.674,87.250 22.727 C 87.388 22.780,87.500 22.975,87.500 23.161 C 87.500 23.348,87.575 23.500,87.667 23.500 C 87.758 23.500,87.833 23.613,87.833 23.750 C 87.833 23.887,87.946 24.000,88.083 24.000 C 88.239 24.000,88.333 24.157,88.333 24.417 C 88.333 24.676,88.428 24.833,88.583 24.833 C 88.721 24.833,88.833 24.946,88.833 25.083 C 88.833 25.221,88.900 25.333,88.982 25.333 C 89.064 25.333,89.178 25.521,89.235 25.750 C 89.293 25.979,89.413 26.167,89.503 26.167 C 89.593 26.167,89.667 26.279,89.667 26.417 C 89.667 26.554,89.779 26.667,89.917 26.667 C 90.054 26.667,90.167 26.764,90.167 26.883 C 90.167 27.266,90.576 27.997,90.792 27.999 C 90.906 27.999,91.000 28.113,91.000 28.250 C 91.000 28.387,91.112 28.500,91.250 28.500 C 91.394 28.500,91.500 28.651,91.500 28.856 C 91.500 29.052,91.688 29.386,91.917 29.598 C 92.146 29.810,92.333 30.138,92.333 30.325 C 92.333 30.518,92.443 30.667,92.583 30.667 C 92.750 30.667,92.833 30.833,92.833 31.167 C 92.833 31.500,92.750 31.667,92.583 31.667 C 92.446 31.667,92.333 31.779,92.333 31.917 C 92.333 32.054,92.266 32.167,92.185 32.167 C 92.103 32.167,91.989 32.354,91.932 32.583 C 91.874 32.813,91.753 33.000,91.663 33.000 C 91.574 33.000,91.500 33.112,91.500 33.250 C 91.500 33.387,91.418 33.500,91.318 33.500 C 91.086 33.500,90.513 34.182,90.506 34.467 C 90.502 34.586,90.236 34.956,89.912 35.288 C 89.589 35.621,89.285 36.053,89.236 36.248 C 89.187 36.443,88.964 36.740,88.740 36.908 C 88.510 37.081,88.333 37.384,88.333 37.607 C 88.333 37.823,88.248 38.000,88.143 38.000 C 87.890 38.000,87.512 38.513,87.505 38.867 C 87.502 39.023,87.384 39.215,87.242 39.295 C 87.100 39.374,86.972 39.597,86.957 39.791 C 86.943 39.985,86.871 40.107,86.798 40.061 C 86.724 40.016,86.613 40.115,86.550 40.281 C 86.487 40.447,86.337 40.682,86.218 40.804 C 86.098 40.925,86.000 41.243,86.000 41.512 L 86.000 42.000 88.917 42.000 C 91.398 42.000,91.833 41.963,91.833 41.750 C 91.833 41.612,91.946 41.500,92.083 41.500 C 92.239 41.500,92.333 41.343,92.333 41.083 C 92.333 40.854,92.427 40.666,92.542 40.665 C 92.656 40.664,92.893 40.364,93.068 39.998 C 93.244 39.632,93.450 39.333,93.527 39.333 C 93.604 39.333,93.667 39.221,93.667 39.083 C 93.667 38.946,93.737 38.833,93.822 38.833 C 93.908 38.833,94.029 38.672,94.092 38.474 C 94.154 38.276,94.384 37.949,94.603 37.747 C 94.821 37.544,95.000 37.256,95.000 37.106 C 95.000 36.807,95.568 36.167,95.833 36.167 C 95.925 36.167,96.000 36.054,96.000 35.917 C 96.000 35.442,96.709 36.013,96.911 36.650 C 96.973 36.843,97.092 37.000,97.178 37.000 C 97.263 37.000,97.333 37.112,97.333 37.250 C 97.333 37.387,97.446 37.500,97.583 37.500 C 97.721 37.500,97.833 37.612,97.833 37.750 C 97.833 37.887,97.908 38.000,98.000 38.000 C 98.092 38.000,98.167 38.152,98.167 38.339 C 98.167 38.525,98.279 38.720,98.417 38.773 C 98.554 38.826,98.667 38.973,98.667 39.101 C 98.667 39.229,98.779 39.333,98.917 39.333 C 99.061 39.333,99.167 39.484,99.167 39.689 C 99.167 39.885,99.354 40.219,99.583 40.431 C 99.813 40.644,100.000 40.971,100.000 41.159 C 100.000 41.351,100.109 41.500,100.250 41.500 C 100.388 41.500,100.500 41.612,100.500 41.750 C 100.500 41.963,100.954 42.000,103.583 42.000 L 106.667 42.000 106.667 41.583 C 106.667 41.354,106.592 41.167,106.500 41.167 C 106.408 41.167,106.333 40.983,106.333 40.758 C 106.333 40.534,106.240 40.290,106.125 40.217 C 105.881 40.061,105.532 39.540,105.392 39.125 C 105.339 38.965,105.228 38.833,105.147 38.833 C 105.066 38.833,105.000 38.681,105.000 38.495 C 105.000 38.309,104.888 38.113,104.750 38.060 C 104.612 38.008,104.500 37.860,104.500 37.732 C 104.500 37.604,104.388 37.500,104.250 37.500 C 104.106 37.500,104.000 37.349,104.000 37.144 C 104.000 36.948,103.827 36.628,103.616 36.432 C 103.404 36.236,103.180 35.942,103.117 35.777 C 103.054 35.613,102.925 35.527,102.830 35.585 C 102.736 35.644,102.669 35.630,102.682 35.554 C 102.753 35.147,102.637 34.833,102.417 34.833 C 102.279 34.833,102.167 34.721,102.167 34.583 C 102.167 34.446,102.100 34.333,102.018 34.333 C 101.936 34.333,101.822 34.146,101.765 33.917 C 101.707 33.688,101.587 33.500,101.497 33.500 C 101.407 33.500,101.333 33.387,101.333 33.250 C 101.333 33.112,101.221 33.000,101.083 33.000 C 100.946 33.000,100.833 32.887,100.833 32.750 C 100.833 32.612,100.763 32.500,100.678 32.500 C 100.592 32.500,100.472 32.340,100.410 32.145 C 100.321 31.865,100.266 31.839,100.151 32.020 C 100.047 32.184,100.004 32.116,100.003 31.786 C 100.001 31.530,99.888 31.280,99.750 31.227 C 99.612 31.174,99.500 31.027,99.500 30.899 C 99.500 30.771,99.612 30.667,99.750 30.667 C 99.906 30.667,100.000 30.509,100.000 30.250 C 100.000 29.991,100.094 29.833,100.250 29.833 C 100.388 29.833,100.500 29.721,100.500 29.583 C 100.500 29.446,100.575 29.333,100.667 29.333 C 100.758 29.333,100.833 29.146,100.833 28.917 C 100.833 28.657,100.928 28.500,101.083 28.500 C 101.221 28.500,101.333 28.387,101.333 28.250 C 101.333 28.113,101.446 28.000,101.583 28.000 C 101.721 28.000,101.833 27.887,101.833 27.750 C 101.833 27.613,101.908 27.500,102.000 27.500 C 102.092 27.500,102.167 27.313,102.167 27.083 C 102.167 26.824,102.261 26.667,102.417 26.667 C 102.554 26.667,102.667 26.554,102.667 26.417 C 102.667 26.279,102.779 26.167,102.917 26.167 C 103.072 26.167,103.167 26.009,103.167 25.750 C 103.167 25.491,103.261 25.333,103.417 25.333 C 103.554 25.333,103.667 25.221,103.667 25.083 C 103.667 24.946,103.742 24.833,103.833 24.833 C 103.925 24.833,104.000 24.646,104.000 24.417 C 104.000 24.157,104.094 24.000,104.250 24.000 C 104.388 24.000,104.500 23.887,104.500 23.750 C 104.500 23.613,104.612 23.500,104.750 23.500 C 104.888 23.500,105.000 23.387,105.000 23.250 C 105.000 23.113,105.075 23.000,105.167 23.000 C 105.258 23.000,105.333 22.813,105.333 22.583 C 105.333 22.354,105.408 22.167,105.500 22.167 C 105.795 22.167,106.356 21.488,106.300 21.198 C 106.225 20.807,100.000 20.672,100.000 21.062 C 100.000 21.192,99.888 21.341,99.750 21.394 C 99.612 21.446,99.500 21.642,99.500 21.828 C 99.500 22.014,99.425 22.167,99.333 22.167 C 99.242 22.167,99.167 22.279,99.167 22.417 C 99.167 22.554,99.054 22.667,98.917 22.667 C 98.776 22.667,98.667 22.816,98.667 23.008 C 98.667 23.196,98.479 23.523,98.250 23.735 C 98.021 23.948,97.833 24.199,97.833 24.293 C 97.833 24.387,97.721 24.508,97.583 24.560 C 97.446 24.613,97.333 24.809,97.333 24.995 C 97.333 25.185,97.224 25.333,97.083 25.333 C 96.946 25.333,96.833 25.446,96.833 25.583 C 96.833 25.721,96.758 25.833,96.667 25.833 C 96.575 25.833,96.500 25.946,96.500 26.083 C 96.500 26.564,96.081 26.319,95.778 25.662 C 95.610 25.298,95.366 25.000,95.236 25.000 C 95.106 25.000,95.000 24.854,95.000 24.677 C 95.000 24.499,94.913 24.299,94.808 24.234 C 94.688 24.160,94.660 24.188,94.734 24.308 C 94.799 24.413,94.769 24.500,94.665 24.500 C 94.555 24.500,94.520 24.366,94.581 24.175 C 94.684 23.848,94.179 23.167,93.833 23.167 C 93.742 23.167,93.667 22.985,93.667 22.762 C 93.667 22.533,93.492 22.220,93.266 22.042 C 93.045 21.868,92.839 21.544,92.807 21.322 L 92.750 20.917 89.667 20.886 C 87.971 20.870,86.490 20.895,86.375 20.942 M52.833 21.167 C 52.833 21.258,52.946 21.333,53.083 21.333 C 53.221 21.333,53.333 21.258,53.333 21.167 C 53.333 21.075,53.221 21.000,53.083 21.000 C 52.946 21.000,52.833 21.075,52.833 21.167 M338.167 21.750 C 338.167 22.009,338.261 22.167,338.417 22.167 C 338.597 22.167,338.667 22.352,338.667 22.833 C 338.667 23.315,338.736 23.500,338.917 23.500 C 339.083 23.500,339.167 23.667,339.167 24.000 C 339.167 24.275,339.242 24.500,339.333 24.500 C 339.425 24.500,339.500 24.673,339.500 24.885 C 339.500 25.096,339.610 25.415,339.745 25.593 C 339.879 25.771,339.992 26.085,339.995 26.292 C 339.998 26.512,340.103 26.667,340.250 26.667 C 340.431 26.667,340.500 26.852,340.500 27.333 C 340.500 27.700,340.575 28.000,340.667 28.000 C 340.758 28.000,340.833 28.190,340.833 28.422 C 340.833 28.654,340.946 28.887,341.083 28.940 C 341.238 28.999,341.333 29.253,341.333 29.606 C 341.333 29.960,341.428 30.214,341.583 30.273 C 341.721 30.326,341.833 30.473,341.833 30.601 C 341.833 30.793,341.165 30.833,338.000 30.833 L 334.167 30.833 334.167 30.351 C 334.167 30.076,334.274 29.828,334.417 29.773 C 334.574 29.713,334.667 29.458,334.667 29.089 C 334.667 28.765,334.742 28.500,334.833 28.500 C 334.925 28.500,335.000 28.310,335.000 28.078 C 335.000 27.846,335.112 27.613,335.250 27.560 C 335.402 27.502,335.500 27.250,335.500 26.917 C 335.500 26.584,335.598 26.331,335.750 26.273 C 335.887 26.220,336.000 25.987,336.000 25.755 C 336.000 25.523,336.075 25.333,336.167 25.333 C 336.258 25.333,336.333 25.033,336.333 24.667 C 336.333 24.185,336.403 24.000,336.583 24.000 C 336.736 24.000,336.833 23.845,336.833 23.601 C 336.833 23.382,336.946 23.159,337.083 23.106 C 337.240 23.046,337.333 22.791,337.333 22.422 C 337.333 22.098,337.408 21.833,337.500 21.833 C 337.592 21.833,337.667 21.721,337.667 21.583 C 337.667 21.446,337.779 21.333,337.917 21.333 C 338.072 21.333,338.167 21.491,338.167 21.750 M20.833 22.889 C 20.833 23.042,20.758 23.167,20.667 23.167 C 20.575 23.167,20.500 23.279,20.500 23.417 C 20.500 23.554,20.567 23.667,20.649 23.667 C 20.822 23.667,21.060 22.837,20.925 22.703 C 20.874 22.652,20.833 22.736,20.833 22.889 M29.000 23.399 C 29.000 23.527,29.113 23.674,29.250 23.727 C 29.529 23.834,29.543 23.807,29.399 23.430 C 29.274 23.105,29.000 23.083,29.000 23.399 M51.111 24.111 C 50.919 24.303,50.990 24.500,51.250 24.500 C 51.387 24.500,51.500 24.387,51.500 24.250 C 51.500 23.990,51.303 23.919,51.111 24.111 M30.333 25.566 C 30.333 25.693,30.448 25.842,30.587 25.895 C 30.794 25.975,30.809 25.932,30.665 25.663 C 30.458 25.277,30.333 25.240,30.333 25.566 M202.500 31.000 L 202.500 36.667 201.875 36.669 C 201.403 36.671,201.311 36.712,201.500 36.838 C 201.671 36.951,201.002 36.998,199.375 36.985 C 198.013 36.975,197.040 36.903,197.094 36.817 C 197.145 36.734,197.069 36.667,196.927 36.667 C 196.784 36.667,196.667 36.554,196.667 36.417 C 196.667 36.279,196.554 36.167,196.417 36.167 C 196.279 36.167,196.167 36.054,196.167 35.917 C 196.167 35.779,196.054 35.667,195.917 35.667 C 195.779 35.667,195.667 35.554,195.667 35.417 C 195.667 35.279,195.592 35.167,195.500 35.167 C 195.408 35.167,195.333 34.985,195.333 34.762 C 195.333 34.539,195.221 34.245,195.083 34.107 C 194.705 33.729,194.716 29.081,195.096 28.935 C 195.284 28.863,195.346 28.655,195.313 28.209 C 195.282 27.791,195.333 27.597,195.466 27.625 C 195.577 27.648,195.667 27.554,195.667 27.417 C 195.667 27.279,195.779 27.167,195.917 27.167 C 196.054 27.167,196.167 27.086,196.167 26.987 C 196.167 26.754,197.087 25.833,197.321 25.833 C 197.419 25.833,197.500 25.721,197.500 25.583 C 197.500 25.372,197.889 25.333,200.000 25.333 L 202.500 25.333 202.500 31.000 M223.167 25.583 C 223.167 25.722,223.315 25.833,223.500 25.833 C 223.929 25.833,224.500 26.404,224.500 26.833 C 224.500 27.017,224.605 27.167,224.732 27.167 C 224.882 27.167,224.988 27.405,225.029 27.833 L 225.092 28.500 221.213 28.500 C 217.875 28.500,217.333 28.465,217.333 28.250 C 217.333 28.113,217.408 28.000,217.500 28.000 C 217.592 28.000,217.667 27.848,217.667 27.661 C 217.667 27.475,217.779 27.280,217.917 27.227 C 218.054 27.174,218.167 27.039,218.167 26.926 C 218.167 26.691,219.081 25.833,219.332 25.833 C 219.424 25.833,219.500 25.721,219.500 25.583 C 219.500 25.376,219.815 25.333,221.333 25.333 C 222.852 25.333,223.167 25.376,223.167 25.583 M304.500 25.583 C 304.500 25.722,304.648 25.833,304.833 25.833 C 305.221 25.833,305.833 26.390,305.833 26.742 C 305.833 26.875,305.936 27.043,306.062 27.117 C 306.188 27.190,306.323 27.531,306.362 27.875 L 306.433 28.500 302.550 28.500 C 299.209 28.500,298.667 28.465,298.667 28.250 C 298.667 28.113,298.740 28.000,298.830 28.000 C 298.920 28.000,299.041 27.813,299.098 27.583 C 299.156 27.354,299.270 27.167,299.351 27.167 C 299.433 27.167,299.500 27.067,299.500 26.944 C 299.500 26.695,300.404 25.833,300.665 25.833 C 300.758 25.833,300.833 25.721,300.833 25.583 C 300.833 25.376,301.148 25.333,302.667 25.333 C 304.185 25.333,304.500 25.376,304.500 25.583 M11.364 26.250 C 11.468 26.479,11.616 26.667,11.693 26.667 C 11.770 26.667,11.833 26.771,11.833 26.899 C 11.833 27.026,12.016 27.176,12.239 27.232 C 12.462 27.288,12.692 27.484,12.750 27.667 C 12.808 27.850,12.926 28.000,13.011 28.000 C 13.097 28.000,13.167 28.113,13.167 28.250 C 13.167 28.387,13.279 28.500,13.417 28.500 C 13.554 28.500,13.667 28.613,13.667 28.750 C 13.667 28.887,13.739 29.000,13.828 29.000 C 14.045 29.000,15.000 29.945,15.000 30.161 C 15.000 30.256,15.112 30.333,15.250 30.333 C 15.387 30.333,15.500 30.446,15.500 30.583 C 15.500 30.721,15.575 30.833,15.667 30.833 C 16.054 30.833,15.750 30.417,14.333 29.009 C 13.508 28.189,12.833 27.439,12.833 27.342 C 12.833 27.246,12.761 27.167,12.672 27.167 C 12.455 27.167,11.500 26.221,11.500 26.006 C 11.500 25.911,11.427 25.833,11.337 25.833 C 11.238 25.833,11.248 25.997,11.364 26.250 M49.278 27.278 C 49.064 27.492,49.166 27.823,49.417 27.727 C 49.554 27.674,49.667 27.527,49.667 27.399 C 49.667 27.154,49.465 27.091,49.278 27.278 M313.500 30.750 L 313.500 33.000 319.083 33.000 L 324.667 33.000 324.667 30.750 L 324.667 28.500 319.083 28.500 L 313.500 28.500 313.500 30.750 M0.278 30.444 C 0.139 30.583,0.134 45.443,0.272 45.958 C 0.385 46.379,0.667 46.469,0.667 46.083 C 0.667 45.946,0.590 45.833,0.497 45.833 C 0.383 45.833,0.342 43.267,0.372 38.083 C 0.396 33.821,0.410 30.333,0.403 30.333 C 0.395 30.333,0.339 30.383,0.278 30.444 M33.884 31.555 C 33.948 31.723,34.000 31.929,34.000 32.014 C 34.000 32.098,34.075 32.167,34.167 32.167 C 34.424 32.167,34.364 31.840,34.051 31.530 C 33.787 31.268,33.776 31.269,33.884 31.555 M46.101 32.930 C 45.945 33.338,45.979 33.378,46.250 33.107 C 46.533 32.824,46.569 32.667,46.351 32.667 C 46.269 32.667,46.157 32.785,46.101 32.930 M158.500 35.667 L 158.500 37.500 155.750 37.500 C 153.417 37.500,153.000 37.462,153.000 37.250 C 153.000 37.112,152.920 37.000,152.821 37.000 C 152.417 37.000,152.167 36.496,152.167 35.679 C 152.167 35.214,152.242 34.833,152.333 34.833 C 152.425 34.833,152.500 34.721,152.500 34.583 C 152.500 34.427,152.658 34.333,152.922 34.333 C 153.154 34.333,153.387 34.221,153.440 34.083 C 153.519 33.877,153.965 33.833,156.018 33.833 L 158.500 33.833 158.500 35.667 M269.000 35.667 L 269.000 37.500 266.409 37.500 C 263.859 37.500,263.811 37.493,263.431 37.083 C 263.219 36.854,262.960 36.667,262.856 36.667 C 262.738 36.667,262.667 36.323,262.667 35.750 C 262.667 35.046,262.725 34.833,262.917 34.833 C 263.054 34.833,263.167 34.721,263.167 34.583 C 263.167 34.428,263.324 34.333,263.583 34.333 C 263.843 34.333,264.000 34.239,264.000 34.083 C 264.000 33.872,264.389 33.833,266.500 33.833 L 269.000 33.833 269.000 35.667 M44.333 35.917 C 44.333 36.054,44.408 36.167,44.500 36.167 C 44.592 36.167,44.667 36.054,44.667 35.917 C 44.667 35.779,44.592 35.667,44.500 35.667 C 44.408 35.667,44.333 35.779,44.333 35.917 M37.000 37.255 C 37.000 37.390,37.112 37.500,37.250 37.500 C 37.387 37.500,37.500 37.433,37.500 37.351 C 37.500 37.269,37.387 37.159,37.250 37.106 C 37.098 37.048,37.000 37.106,37.000 37.255 M43.238 37.888 C 43.070 38.251,43.083 38.263,43.445 38.095 C 43.657 37.997,43.831 37.823,43.832 37.708 C 43.834 37.357,43.427 37.480,43.238 37.888 M38.833 40.403 C 38.833 40.548,38.952 40.667,39.097 40.667 C 39.392 40.667,39.340 40.308,39.031 40.205 C 38.922 40.169,38.833 40.258,38.833 40.403 M41.519 40.861 C 41.509 41.014,41.406 41.172,41.292 41.213 C 41.177 41.254,41.141 41.349,41.211 41.424 C 41.407 41.634,41.708 41.241,41.618 40.893 C 41.553 40.640,41.535 40.634,41.519 40.861 M55.197 45.772 C 54.913 46.080,55.001 46.543,55.306 46.352 C 55.429 46.275,55.504 46.060,55.473 45.873 C 55.425 45.582,55.385 45.567,55.197 45.772 M0.705 48.365 C 0.808 48.674,1.167 48.725,1.167 48.431 C 1.167 48.285,1.048 48.167,0.903 48.167 C 0.758 48.167,0.669 48.256,0.705 48.365 M54.667 48.417 C 54.667 48.554,54.742 48.667,54.833 48.667 C 54.925 48.667,55.000 48.554,55.000 48.417 C 55.000 48.279,54.925 48.167,54.833 48.167 C 54.742 48.167,54.667 48.279,54.667 48.417 M1.272 49.612 C 1.376 49.688,1.503 49.900,1.553 50.083 C 1.625 50.346,1.638 50.331,1.614 50.013 C 1.597 49.791,1.471 49.579,1.333 49.542 C 1.168 49.497,1.147 49.521,1.272 49.612 M2.038 51.031 C 2.121 51.280,2.500 51.417,2.500 51.198 C 2.500 51.109,2.381 50.990,2.236 50.934 C 2.074 50.872,1.998 50.909,2.038 51.031 M53.355 50.986 C 53.229 51.064,53.154 51.209,53.188 51.309 C 53.225 51.418,53.341 51.433,53.479 51.347 C 53.604 51.269,53.679 51.124,53.645 51.025 C 53.608 50.916,53.493 50.900,53.355 50.986 M52.333 52.083 C 52.333 52.221,52.446 52.333,52.583 52.333 C 52.721 52.333,52.833 52.221,52.833 52.083 C 52.833 51.946,52.721 51.833,52.583 51.833 C 52.446 51.833,52.333 51.946,52.333 52.083 M5.636 54.252 C 5.848 54.407,6.067 54.489,6.122 54.434 C 6.255 54.300,6.165 54.231,5.667 54.089 L 5.250 53.969 5.636 54.252 M49.838 54.160 C 49.703 54.245,49.651 54.373,49.722 54.444 C 49.793 54.516,49.904 54.493,49.967 54.395 C 50.031 54.297,50.196 54.174,50.333 54.121 C 50.556 54.037,50.556 54.025,50.333 54.016 C 50.196 54.010,49.973 54.075,49.838 54.160 M6.667 54.750 C 6.781 54.887,6.938 55.000,7.015 55.000 C 7.093 55.000,7.113 54.887,7.060 54.750 C 7.008 54.612,6.851 54.500,6.712 54.500 C 6.506 54.500,6.498 54.546,6.667 54.750 M48.667 54.764 C 48.667 54.909,48.756 54.998,48.865 54.962 C 49.174 54.859,49.225 54.500,48.931 54.500 C 48.785 54.500,48.667 54.619,48.667 54.764 "
              stroke="none" fill="var(--exchange-rate-api-text)" fill-rule="evenodd"></path>
        <path id="path3" d="" stroke="none" fill="#501414" fill-rule="evenodd"></path>
        <path id="path4"
              d="M54.442 18.958 C 54.400 19.027,54.576 19.083,54.833 19.083 C 55.091 19.083,55.267 19.027,55.224 18.958 C 55.182 18.890,55.006 18.833,54.833 18.833 C 54.661 18.833,54.485 18.890,54.442 18.958 "
              stroke="none" fill="var(--exchange-rate-api-text)" fill-rule="evenodd"></path>
    </g>
</svg>