<svg xmlns="http://www.w3.org/2000/svg" viewBox="0 0 1125 417">
    <style>
        svg {
            --github-logo: oklch(0 0 0);
            --github-wordmark: oklch(0 0 0);
        }
        @media (prefers-color-scheme: dark) {
            svg {
                --github-logo: oklch(1 0 0);
                --github-wordmark: oklch(1 0 0);
            }
        }
    </style>
    <g id="logo">
        <!-- GitHub Octocat logo -->
        <path d="M0 0 C1.02222656 0.35707031 2.04445313 0.71414062 3.09765625 1.08203125 C16.34923964 6.1294042 28.52862779 14.5354905 39 24 C39.97453125 24.88042969 40.9490625 25.76085937 41.953125 26.66796875 C58.70942739 42.34469575 69.98729801 63.00219084 76 85 C76.17934082 85.65597168 76.35868164 86.31194336 76.54345703 86.98779297 C81.79160618 107.42274114 80.7505608 130.81091695 75 151 C74.79632813 151.72541992 74.59265625 152.45083984 74.3828125 153.19824219 C69.79871331 168.91010066 61.92637521 183.78564343 51 196 C50.29230469 196.82628906 49.58460938 197.65257812 48.85546875 198.50390625 C37.27392197 211.78921823 23.99656038 221.90833538 8.125 229.5 C7.44816162 229.82621338 6.77132324 230.15242676 6.07397461 230.48852539 C1.27701271 232.68564733 -3.71761178 234.48572746 -9 235 C-12.09902977 233.7087376 -13.50039817 232.99920366 -15 230 C-15.09749572 228.60285968 -15.13547416 227.20130468 -15.1418457 225.80078125 C-15.15239738 224.49802246 -15.15239738 224.49802246 -15.16316223 223.16894531 C-15.16732651 222.22631836 -15.17149078 221.28369141 -15.17578125 220.3125 C-15.19899917 218.31379178 -15.22311728 216.31509385 -15.24804688 214.31640625 C-15.28301034 211.16773799 -15.31241657 208.01944326 -15.32592773 204.87060547 C-15.34152704 201.82994067 -15.38183361 198.79037085 -15.42578125 195.75 C-15.42291862 194.36035034 -15.42291862 194.36035034 -15.41999817 192.94262695 C-15.56691432 184.9805343 -17.19736583 177.7059571 -23 172 C-23 171.34 -23 170.68 -23 170 C-22.45698242 169.90501221 -21.91396484 169.81002441 -21.35449219 169.7121582 C-3.58253466 166.54396645 12.19807878 162.82172913 23.43359375 147.51953125 C32.33586502 133.20041661 34.76418303 115.43633013 31.72265625 99 C30.13797611 92.42143598 28.04774258 87.08503464 23.6875 81.875 C21.33725805 78.900383 20.98530552 78.41879281 21.125 74.4375 C21.26808594 73.78265625 21.41117188 73.1278125 21.55859375 72.453125 C23.2449011 63.08143461 22.14225138 53.20020461 20 44 C9.37007145 46.12319204 -4.01664218 49.01664218 -12 57 C-16.04216914 56.65744329 -20.00934972 56.16982576 -24.0078125 55.484375 C-38.43721034 53.09653139 -52.74355827 53.0540689 -67.08886719 56.02026367 C-74.27407377 57.4675408 -78.46447317 56.648249 -84.5625 52.6875 C-91.97117394 48.19795444 -100.1820895 44.59401885 -109 45 C-112.24041702 54.62481007 -113.04240565 63.74462868 -111.125 73.75 C-110.49156013 78.51381491 -112.57566635 80.963674 -115.3671875 84.6640625 C-123.47517932 96.26353405 -123.5162846 111.80804132 -121.68359375 125.33544922 C-118.99175732 139.37285349 -112.89588071 151.49805097 -101 159.6875 C-90.91534883 165.74659083 -79.59569626 168.55323715 -68 170 C-68 173.44375102 -68.98771197 174.48232491 -70.9375 177.18359375 C-72.17833597 179.30487584 -72.69484412 181.3133852 -73.3125 183.6875 C-74.42053943 187.11549698 -74.77577034 187.83556492 -77.8125 190.0625 C-83.564036 191.92988182 -90.04079864 191.22316011 -96 191 C-95.67 191.99 -95.34 192.98 -95 194 C-96.98 194.99 -96.98 194.99 -99 196 C-100.485 195.01 -100.485 195.01 -102 194 C-101.67 193.01 -101.34 192.02 -101 191 C-100.34 190.67 -99.68 190.34 -99 190 C-100.98 189.01 -100.98 189.01 -103 188 C-103.66 188.99 -104.32 189.98 -105 191 C-106.32 190.67 -107.64 190.34 -109 190 C-109.625 188.125 -109.625 188.125 -110 186 C-109.34 185.34 -108.68 184.68 -108 184 C-108.66 183.01 -109.32 182.02 -110 181 C-110.33 181.99 -110.66 182.98 -111 184 C-112.32 183.67 -113.64 183.34 -115 183 C-115.33 181.68 -115.66 180.36 -116 179 C-114.68 178.67 -113.36 178.34 -112 178 C-116.48690179 172.05593717 -120.69173327 168.00367243 -128 166 C-130.44985484 165.73029121 -132.52876728 165.78968232 -135 166 C-132.66099513 169.21613169 -130.19639934 171.70449134 -127.125 174.1875 C-121.60518569 178.89527458 -118.49802227 184.82419279 -115.4375 191.3125 C-111.7186657 198.26510326 -105.49418216 201.83527261 -98.25 204.25 C-90.53116952 205.94036404 -82.74052777 205.03372433 -75 204 C-74.91309747 208.43737712 -74.85964074 212.87453634 -74.8125 217.3125 C-74.78736328 218.57513672 -74.76222656 219.83777344 -74.73632812 221.13867188 C-74.72666016 222.34716797 -74.71699219 223.55566406 -74.70703125 224.80078125 C-74.6913208 225.91622314 -74.67561035 227.03166504 -74.65942383 228.1809082 C-75 231 -75 231 -76.39819336 232.84082031 C-78.93467045 234.67639313 -80.91529819 235.14925161 -84.015625 234.72265625 C-112.89037639 226.1914797 -138.11562981 204.88946075 -153 179 C-169.20666696 148.91910779 -174.24733984 114.65715689 -164.74609375 81.52734375 C-155.12530069 49.83611383 -134.0936221 22.87829447 -104.91845703 6.85693359 C-71.82830532 -10.38376566 -35.07051045 -12.57102258 0 0 Z"
              fill="var(--github-logo)"
              transform="translate(307,95)"/>
    </g>
    <g id="wordmark">
        <!-- GitHub text -->
        <path d="M0 0 C-0.64656856 8.89031769 -2.87022567 17.37193748 -5 26 C-8.88070583 27.04082874 -11.04800647 26.86359223 -14.8125 25.5625 C-21.22272346 23.84035041 -27.44093293 23.62294078 -34.0625 23.5625 C-35.06708252 23.5406665 -36.07166504 23.51883301 -37.10668945 23.49633789 C-45.56802054 23.51774849 -55.27653268 25.19690979 -61.6640625 31.2890625 C-72.32506086 44.9426218 -73.49244996 63.56656457 -71.77294922 80.19580078 C-70.32600129 91.44218442 -67.63612421 102.27761517 -58.3359375 109.58984375 C-48.55850285 115.49227503 -37.85200353 113.96267773 -27 113 C-26.67 104.09 -26.34 95.18 -26 86 C-32.1630183 86.07906775 -32.1630183 86.07906775 -38.32568359 86.18017578 C-39.47544678 86.18766846 -39.47544678 86.18766846 -40.6484375 86.1953125 C-41.43395996 86.20578613 -42.21948242 86.21625977 -43.02880859 86.22705078 C-45 86 -45 86 -47 84 C-47.24291992 81.50976562 -47.24291992 81.50976562 -47.23046875 78.40625 C-47.22853516 77.29378906 -47.22660156 76.18132812 -47.22460938 75.03515625 C-47.20624023 73.28525391 -47.20624023 73.28525391 -47.1875 71.5 C-47.18685547 70.33339844 -47.18621094 69.16679687 -47.18554688 67.96484375 C-47.14026365 59.2805273 -47.14026365 59.2805273 -46 57 C-38.75513449 56.97473261 -31.51028026 56.9571682 -24.26538086 56.94506836 C-21.79857967 56.94002644 -19.33178148 56.93319309 -16.86499023 56.92456055 C-13.32795471 56.91248875 -9.79095855 56.90677044 -6.25390625 56.90234375 C-5.14350479 56.89718246 -4.03310333 56.89202118 -2.88905334 56.88670349 C-1.35757912 56.88659019 -1.35757912 56.88659019 0.20483398 56.88647461 C1.10862289 56.884254 2.0124118 56.88203339 2.94358826 56.87974548 C5 57 5 57 6 58 C6.13141481 60.30378493 6.19146178 62.61165338 6.22460938 64.91894531 C6.24169449 66.00439384 6.24169449 66.00439384 6.25912476 67.11177063 C6.3698205 74.68871933 6.41721766 82.26665111 6.45996094 89.84423828 C6.48224044 93.44140299 6.52400859 97.03753084 6.58300781 100.63427734 C6.65404991 104.97329364 6.69078587 109.31133377 6.70307922 113.65090179 C6.71348914 115.30479551 6.73593605 116.95865917 6.77067566 118.61222076 C7.02830728 131.54481265 7.02830728 131.54481265 4.51737976 135.09809875 C2.67651367 136.45922852 2.67651367 136.45922852 -1 138 C-2.16917969 138.49886719 -3.33835937 138.99773437 -4.54296875 139.51171875 C-28.41675944 147.21376698 -53.91981578 148.18070965 -76.7890625 136.5859375 C-90.49613451 128.84206298 -97.86163248 116.35985183 -102.2109375 101.5234375 C-104.56982358 90.99019373 -105.40414469 80.77505506 -105.375 70 C-105.37478851 69.27688629 -105.37457703 68.55377258 -105.37435913 67.80874634 C-105.31167851 46.27840031 -101.93266974 24.37793919 -86.97265625 7.74609375 C-67.32081441 -10.98179169 -23.17383579 -15.44922386 0 0 Z"
              fill="var(--github-wordmark)"
              transform="translate(531,139)"/>
        <path d="M0 0 C1.29349365 0.00523682 2.5869873 0.01047363 3.91967773 0.01586914 C5.17594971 0.0183667 6.43222168 0.02086426 7.7265625 0.0234375 C9.33587646 0.0325415 10.94519043 0.04164551 12.60327148 0.05102539 C17.69764648 0.07165039 22.79202148 0.09227539 28.04077148 0.11352539 C28.04077148 17.60352539 28.04077148 35.09352539 28.04077148 53.11352539 C41.24077148 53.11352539 54.44077148 53.11352539 68.04077148 53.11352539 C68.02916992 49.45516602 68.01756836 45.79680664 68.00561523 42.02758789 C67.99782332 38.49633877 67.99174732 34.9650906 67.98583984 31.43383789 C67.9808016 28.97387261 67.97397089 26.51391034 67.96533203 24.05395508 C67.95324426 20.52432515 67.94753819 16.9947347 67.94311523 13.46508789 C67.93795395 12.35984772 67.93279266 11.25460754 67.92747498 10.11587524 C67.92739944 9.09496796 67.92732391 8.07406067 67.92724609 7.0222168 C67.92502548 6.1206485 67.92280487 5.2190802 67.92051697 4.29019165 C68.04077148 2.11352539 68.04077148 2.11352539 69.04077148 0.11352539 C79.27077148 0.11352539 89.50077148 0.11352539 100.04077148 0.11352539 C100.04077148 47.63352539 100.04077148 95.15352539 100.04077148 144.11352539 C89.81077148 144.11352539 79.58077148 144.11352539 69.04077148 144.11352539 C67.70027622 141.43253486 67.92096628 139.38041333 67.92724609 136.37866211 C67.92735939 134.57702103 67.92735939 134.57702103 67.92747498 132.73898315 C67.93263626 131.43687897 67.93779755 130.13477478 67.94311523 128.79321289 C67.9449801 127.45085706 67.94640368 126.10850055 67.94740295 124.7661438 C67.9512227 121.23156864 67.96104836 117.69703452 67.97210693 114.16247559 C67.98233271 110.55632085 67.98695783 106.9501593 67.99194336 103.34399414 C68.00214056 96.26713497 68.0217135 89.19038852 68.04077148 82.11352539 C54.84077148 82.11352539 41.64077148 82.11352539 28.04077148 82.11352539 C28.05237305 86.50536133 28.06397461 90.89719727 28.07592773 95.42211914 C28.08235461 98.91479209 28.08777886 102.40746337 28.09252167 105.90013885 C28.09781151 109.5921293 28.10488523 113.28409694 28.11621094 116.97607422 C28.12704311 120.5292337 28.13304902 124.08237102 28.13564873 127.63554573 C28.13750238 128.99398205 28.14112187 130.35241711 28.14650154 131.71084404 C28.15371623 133.60734763 28.15417957 135.50387332 28.15429688 137.40039062 C28.15651749 138.48182846 28.1587381 139.5632663 28.161026 140.67747498 C28.04077148 143.11352539 28.04077148 143.11352539 27.04077148 144.11352539 C24.83426492 144.2136494 22.62454762 144.24433719 20.41577148 144.24633789 C19.75367676 144.24729462 19.09158203 144.24825134 18.40942383 144.24923706 C17.00724187 144.24991865 15.60505678 144.24806581 14.20288086 144.24389648 C12.04981435 144.23854785 9.89695646 144.24384209 7.74389648 144.25024414 C6.38452102 144.24958336 5.02514569 144.24830218 3.66577148 144.24633789 C2.42053711 144.24520996 1.17530273 144.24408203 -0.10766602 144.24291992 C-2.95922852 144.11352539 -2.95922852 144.11352539 -3.95922852 143.11352539 C-4.057872 141.28089191 -4.08554996 139.44441709 -4.08621216 137.60913086 C-4.08903198 136.41439148 -4.09185181 135.2196521 -4.09475708 133.9887085 C-4.09281249 132.65270981 -4.0907643 131.31671127 -4.08862305 129.98071289 C-4.08997706 128.58319045 -4.09175699 127.18566837 -4.09393311 125.78814697 C-4.09850743 121.98246645 -4.09671788 118.17681292 -4.09355402 114.3711319 C-4.09103041 110.3970787 -4.09336796 106.42302789 -4.09494019 102.44897461 C-4.09676188 95.77400292 -4.09435558 89.09904228 -4.08959961 82.42407227 C-4.08415699 74.69591575 -4.08591964 66.96778562 -4.09142601 59.23962975 C-4.09595715 52.61629192 -4.09660769 45.99296206 -4.09398735 39.36962318 C-4.09242457 35.40858147 -4.09223081 31.44755216 -4.09552383 27.48651123 C-4.09840256 23.76344309 -4.09642685 20.0404091 -4.09062958 16.31734467 C-4.08930198 14.94709073 -4.08969609 13.57683394 -4.09189224 12.20658112 C-4.09460374 10.34369506 -4.09060893 8.48080276 -4.08621216 6.61791992 C-4.08583513 5.5729837 -4.08545811 4.52804749 -4.08506966 3.45144653 C-3.89608353 -0.0596045 -3.57578154 0.13717832 0 0 Z"
              fill="var(--github-wordmark)"
              transform="translate(676.959228515625,136.886474609375)"/>
        <path d="M0 0 C0.66209473 -0.00095673 1.32418945 -0.00191345 2.00634766 -0.00289917 C3.40852961 -0.00358076 4.8107147 -0.00172792 6.21289062 0.00244141 C8.36595713 0.00779004 10.51881502 0.0024958 12.671875 -0.00390625 C14.03125046 -0.00324546 15.3906258 -0.00196429 16.75 0 C18.61785156 0.00169189 18.61785156 0.00169189 20.5234375 0.00341797 C23.375 0.1328125 23.375 0.1328125 24.375 1.1328125 C24.46804018 2.60635598 24.49246265 4.08431841 24.48852539 5.56079102 C24.48844986 6.50169083 24.48837433 7.44259064 24.48829651 8.41200256 C24.48313522 9.43490891 24.47797394 10.45781525 24.47265625 11.51171875 C24.4712413 12.55351791 24.46982635 13.59531708 24.46836853 14.66868591 C24.4627508 18.01092344 24.4501953 21.35309507 24.4375 24.6953125 C24.43248728 26.95507716 24.42792398 29.21484287 24.42382812 31.47460938 C24.41277561 37.02736641 24.39602024 42.58008475 24.375 48.1328125 C24.99024536 47.85367004 25.60549072 47.57452759 26.23937988 47.28692627 C27.04790405 46.9231488 27.85642822 46.55937134 28.68945312 46.18457031 C29.49032349 45.82292786 30.29119385 45.4612854 31.11633301 45.08868408 C41.80002181 40.56732943 54.75100458 41.03502353 65.5390625 44.91015625 C74.57505247 48.97460733 79.9090355 56.0171989 83.375 65.1328125 C89.98449779 84.19152499 88.86821962 111.37956446 80.66015625 129.88671875 C76.02107757 137.99453104 70.07618657 142.9577557 61.29296875 145.80859375 C47.50127701 149.46152832 32.59056146 146.90627952 20.16796875 140.21875 C18.375 139.1328125 18.375 139.1328125 17.375 138.1328125 C17.25125 138.9371875 17.1275 139.7415625 17 140.5703125 C16.79375 141.4159375 16.5875 142.2615625 16.375 143.1328125 C13.93783785 144.35139357 12.34225943 144.26206825 9.62109375 144.265625 C8.68458984 144.26691406 7.74808594 144.26820313 6.78320312 144.26953125 C5.80287109 144.26566406 4.82253906 144.26179687 3.8125 144.2578125 C2.82830078 144.26167969 1.84410156 144.26554688 0.83007812 144.26953125 C-0.10513672 144.26824219 -1.04035156 144.26695312 -2.00390625 144.265625 C-2.8657251 144.26449707 -3.72754395 144.26336914 -4.61547852 144.26220703 C-6.625 144.1328125 -6.625 144.1328125 -7.625 143.1328125 C-7.72364348 141.30017902 -7.75132145 139.4637042 -7.75198364 137.62841797 C-7.75480347 136.43367859 -7.75762329 135.23893921 -7.76052856 134.00799561 C-7.75858397 132.67199692 -7.75653579 131.33599838 -7.75439453 130 C-7.75574855 128.60247756 -7.75752848 127.20495548 -7.75970459 125.80743408 C-7.76427892 122.00175356 -7.76248937 118.19610003 -7.7593255 114.39041901 C-7.7568019 110.41636581 -7.75913944 106.442315 -7.76071167 102.46826172 C-7.76253336 95.79329003 -7.76012706 89.11832939 -7.75537109 82.44335938 C-7.74992847 74.71520286 -7.75169113 66.98707273 -7.7571975 59.25891685 C-7.76172863 52.63557903 -7.76237918 46.01224917 -7.75975883 39.38891029 C-7.75819606 35.42786857 -7.7580023 31.46683927 -7.76129532 27.50579834 C-7.76417404 23.78273019 -7.76219833 20.05969621 -7.75640106 16.33663177 C-7.75507347 14.96637784 -7.75546757 13.59612105 -7.75766373 12.22586823 C-7.76037522 10.36298217 -7.75638042 8.50008987 -7.75198364 6.63720703 C-7.75160662 5.59227081 -7.75122959 4.54733459 -7.75084114 3.47073364 C-7.49243016 -1.33011683 -4.07847316 0.00369427 0 0 Z M23.375 73.1328125 C23.375 87.3228125 23.375 101.5128125 23.375 116.1328125 C31.58756149 120.23909324 36.3711852 121.9398794 45.25 120.5078125 C49.79714157 118.50707021 51.62234148 116.02973416 53.43359375 111.46484375 C54.50737283 107.66428958 54.91333916 103.99383612 55.125 100.0703125 C55.16520264 99.3280542 55.20540527 98.5857959 55.24682617 97.82104492 C55.61171196 88.90001827 55.72247912 79.02436126 49.375 72.1328125 C45.52204638 68.63012739 41.55250897 68.74849861 36.58203125 68.63671875 C32.10322209 69.20635344 32.10322209 69.20635344 23.375 73.1328125 Z"
              fill="var(--github-wordmark)"
              transform="translate(900.625,136.8671875)"/>
        <path d="M0 0 C1.79715454 0.00616333 1.79715454 0.00616333 3.63061523 0.01245117 C4.92805664 0.01438477 6.22549805 0.01631836 7.56225586 0.01831055 C8.23893311 0.02451416 8.91561035 0.03071777 9.61279297 0.03710938 C11.68461369 0.0553794 13.75598795 0.05761897 15.82788086 0.05737305 C25.98662641 0.10283735 25.98662641 0.10283735 27.12670898 1.24291992 C27.23982492 3.16372075 27.28354632 5.08863954 27.30029297 7.01269531 C27.31378281 8.24810562 27.32727264 9.48351593 27.34117126 10.75636292 C27.34623121 11.42134859 27.35129116 12.08633427 27.35650444 12.77147102 C27.37290173 14.8531445 27.39614455 16.93463642 27.42140198 19.01622009 C27.4921719 24.93666513 27.55199232 30.85718907 27.60351562 36.77783203 C27.63549446 40.39713424 27.67682964 44.01623576 27.72371101 47.63537407 C27.73963477 49.01031274 27.75200027 50.38529772 27.76061821 51.76030159 C27.75328776 62.18492046 27.75328776 62.18492046 30.12670898 72.24291992 C34.69780971 75.32141633 38.27386008 75.64472888 43.65429688 74.76660156 C46.15677161 74.23655236 48.49743672 73.51827311 50.91577148 72.68823242 C51.70935059 72.41769043 52.50292969 72.14714844 53.32055664 71.8684082 C53.91658691 71.66199707 54.51261719 71.45558594 55.12670898 71.24291992 C55.12448837 70.3681752 55.12226776 69.49343048 55.11997986 68.59217834 C55.0999792 60.36616646 55.08473601 52.14016269 55.07489681 43.91413212 C55.06966842 39.68460621 55.06257159 35.45510032 55.05126953 31.22558594 C55.04043907 27.14723449 55.03443181 23.06890235 55.03183174 18.99053764 C55.02997778 17.43114353 55.02635771 15.87175052 55.02097893 14.31236458 C55.01376637 12.1356283 55.01271813 9.95897278 55.01318359 7.78222656 C55.01096298 6.54090469 55.00874237 5.29958282 55.00645447 4.02064514 C55.12670898 1.24291992 55.12670898 1.24291992 56.12670898 0.24291992 C58.26024072 0.14288703 60.3970844 0.11210945 62.53295898 0.11010742 C63.83362305 0.10881836 65.13428711 0.1075293 66.47436523 0.10620117 C67.49554443 0.10934326 67.49554443 0.10934326 68.53735352 0.11254883 C70.61799413 0.11789752 72.69841887 0.11260312 74.77905273 0.10620117 C76.73004883 0.10813477 76.73004883 0.10813477 78.72045898 0.11010742 C79.92379883 0.11123535 81.12713867 0.11236328 82.36694336 0.11352539 C85.12670898 0.24291992 85.12670898 0.24291992 86.12670898 1.24291992 C86.22201879 4.28694414 86.25222537 7.30823701 86.24023438 10.35253906 C86.2403804 11.308535 86.24052643 12.26453094 86.24067688 13.24949646 C86.23997734 16.42571237 86.23218301 19.60187044 86.22436523 22.77807617 C86.2225012 24.97383085 86.22107723 27.16958594 86.22007751 29.36534119 C86.21625117 35.15712625 86.20641989 40.94888642 86.19537354 46.74066162 C86.18516192 52.64570784 86.18058043 58.55075806 86.17553711 64.45581055 C86.16479773 76.0515264 86.14719999 87.6472172 86.12670898 99.24291992 C79.19670898 99.24291992 72.26670898 99.24291992 65.12670898 99.24291992 C64.46670898 97.59291992 63.80670898 95.94291992 63.12670898 94.24291992 C62.14831055 94.6528418 61.16991211 95.06276367 60.16186523 95.48510742 C43.50914265 102.37691669 27.50491614 105.46331832 10.04077148 98.39916992 C3.80385415 95.23985808 -0.38582705 90.26503995 -2.68579102 83.74291992 C-4.5687232 77.62624326 -4.99868624 71.42351994 -5.01855469 65.05419922 C-5.0219133 64.37363968 -5.02527191 63.69308014 -5.0287323 62.99189758 C-5.03814817 60.76695887 -5.04017981 58.54209599 -5.04125977 56.31713867 C-5.04447593 54.76251698 -5.04784027 53.2078956 -5.05134583 51.65327454 C-5.05731145 48.40800269 -5.05918808 45.1627574 -5.05859375 41.91748047 C-5.05849159 37.75328328 -5.07220996 33.58925456 -5.08936596 29.42509747 C-5.10045759 26.22100535 -5.10251393 23.01695458 -5.10198402 19.81284523 C-5.10316588 18.27660345 -5.10759914 16.74036066 -5.11531639 15.2041378 C-5.12507084 13.06419161 -5.12225795 10.92461968 -5.11621094 8.78466797 C-5.11763596 7.56668015 -5.11906097 6.34869232 -5.12052917 5.09379578 C-4.77749358 1.13829025 -3.95371953 0.33426382 0 0 Z"
              fill="var(--github-wordmark)"
              transform="translate(793.873291015625,181.757080078125)"/>
        <path d="M0 0 C1.30066406 -0.00128906 2.60132813 -0.00257813 3.94140625 -0.00390625 C4.96258545 -0.00076416 4.96258545 -0.00076416 6.00439453 0.00244141 C8.08503515 0.0077901 10.16545989 0.0024957 12.24609375 -0.00390625 C14.19708984 -0.00197266 14.19708984 -0.00197266 16.1875 0 C17.39083984 0.00112793 18.59417969 0.00225586 19.83398438 0.00341797 C22.59375 0.1328125 22.59375 0.1328125 23.59375 1.1328125 C23.68133003 3.13246232 23.70071576 5.1351736 23.69140625 7.13671875 C23.68818359 8.35166016 23.68496094 9.56660156 23.68164062 10.81835938 C23.66907227 12.73745117 23.66907227 12.73745117 23.65625 14.6953125 C23.65173828 15.97857422 23.64722656 17.26183594 23.64257812 18.58398438 C23.63074545 21.76697272 23.61426068 24.94987012 23.59375 28.1328125 C24.22466553 28.12757568 24.85558105 28.12233887 25.50561523 28.11694336 C28.34748347 28.09623424 31.18933588 28.08317184 34.03125 28.0703125 C35.52108398 28.05774414 35.52108398 28.05774414 37.04101562 28.04492188 C38.45737305 28.04008789 38.45737305 28.04008789 39.90234375 28.03515625 C41.21416626 28.02730103 41.21416626 28.02730103 42.55249023 28.01928711 C44.59375 28.1328125 44.59375 28.1328125 45.59375 29.1328125 C45.69334621 30.97440273 45.72455411 32.81978217 45.7265625 34.6640625 C45.72785156 35.78425781 45.72914063 36.90445313 45.73046875 38.05859375 C45.72660156 39.23808594 45.72273437 40.41757813 45.71875 41.6328125 C45.72261719 42.81230469 45.72648438 43.99179688 45.73046875 45.20703125 C45.72917969 46.32722656 45.72789062 47.44742188 45.7265625 48.6015625 C45.72543457 49.63732422 45.72430664 50.67308594 45.72314453 51.74023438 C45.59375 54.1328125 45.59375 54.1328125 44.59375 55.1328125 C43.03202255 55.21966853 41.46645656 55.23983469 39.90234375 55.23046875 C38.95810547 55.22724609 38.01386719 55.22402344 37.04101562 55.22070312 C36.04779297 55.21232422 35.05457031 55.20394531 34.03125 55.1953125 C33.03416016 55.19080078 32.03707031 55.18628906 31.00976562 55.18164062 C28.53770151 55.16981257 26.06575482 55.15333099 23.59375 55.1328125 C23.6626898 60.88071567 23.75068778 66.62789578 23.85620117 72.37524414 C23.88941354 74.32958952 23.91745695 76.28402997 23.94018555 78.23852539 C23.97379933 81.05135532 24.02611854 83.86331697 24.08203125 86.67578125 C24.08842117 87.54679977 24.0948111 88.4178183 24.10139465 89.31523132 C24.21548936 94.04448744 24.50103099 97.30542461 27.59375 101.1328125 C31.26246618 102.96717059 35.84648709 102.50618088 39.91601562 102.65039062 C41.81321625 102.74171818 43.70521711 102.92994684 45.59375 103.1328125 C47.41564994 106.77661239 46.82135405 111.05863735 46.84375 115.0703125 C46.864375 115.99005859 46.885 116.90980469 46.90625 117.85742188 C46.91398438 119.18290039 46.91398438 119.18290039 46.921875 120.53515625 C46.9312207 121.34460693 46.94056641 122.15405762 46.95019531 122.98803711 C46.50756404 125.65140406 45.70274328 126.49860384 43.59375 128.1328125 C33.3416319 131.46517593 18.69833175 131.2440076 8.6171875 127.265625 C0.86873465 122.92768807 -4.41446942 116.82987657 -6.94017029 108.33758545 C-7.46976269 105.83236805 -7.52611433 103.55800364 -7.51977539 100.99707031 C-7.51969986 99.97631409 -7.51962433 98.95555786 -7.51954651 97.90386963 C-7.51438522 96.80895203 -7.50922394 95.71403442 -7.50390625 94.5859375 C-7.5024913 93.459599 -7.50107635 92.3332605 -7.49961853 91.17279053 C-7.49402199 87.57610415 -7.4814701 83.97948006 -7.46875 80.3828125 C-7.46373455 77.94401132 -7.45917172 75.50520916 -7.45507812 73.06640625 C-7.44405369 67.08851767 -7.4267914 61.11067565 -7.40625 55.1328125 C-12.68625 55.1328125 -17.96625 55.1328125 -23.40625 55.1328125 C-23.40625 47.8728125 -23.40625 40.6128125 -23.40625 33.1328125 C-18.12625 31.8128125 -12.84625 30.4928125 -7.40625 29.1328125 C-7.42365234 26.11833984 -7.42365234 26.11833984 -7.44140625 23.04296875 C-7.4483574 21.10359826 -7.45527396 19.16422747 -7.46118164 17.22485352 C-7.46622057 15.87360864 -7.47305177 14.52236924 -7.48168945 13.17114258 C-7.49377419 11.23260816 -7.49894828 9.2940345 -7.50390625 7.35546875 C-7.51176147 5.60375366 -7.51176147 5.60375366 -7.51977539 3.81665039 C-7.3053626 -1.25225236 -4.43767926 0.00415958 0 0 Z"
              fill="var(--github-wordmark)"
              transform="translate(615.40625,153.8671875)"/>
        <path d="M0 0 C0.66209473 -0.00095673 1.32418945 -0.00191345 2.00634766 -0.00289917 C3.40852961 -0.00358076 4.8107147 -0.00172792 6.21289062 0.00244141 C8.36595713 0.00779004 10.51881502 0.0024958 12.671875 -0.00390625 C14.03125046 -0.00324546 15.3906258 -0.00196429 16.75 0 C18.61785156 0.00169189 18.61785156 0.00169189 20.5234375 0.00341797 C23.375 0.1328125 23.375 0.1328125 24.375 1.1328125 C24.47561458 4.10515 24.51114885 7.05429028 24.50439453 10.02709961 C24.50614685 10.96037582 24.50789917 11.89365204 24.50970459 12.85520935 C24.51412518 15.95687694 24.51118415 19.05848803 24.5078125 22.16015625 C24.50848554 24.30627961 24.50945556 26.4524029 24.51071167 28.598526 C24.51218897 33.10369592 24.51003327 37.60884605 24.50537109 42.11401367 C24.49967721 47.89930009 24.50295046 53.68454008 24.50894356 59.46982479 C24.51255122 63.9040614 24.51140957 68.33828694 24.50881577 72.77252388 C24.50814689 74.90605233 24.50897356 77.03958177 24.51129532 79.17310905 C24.51382481 82.15181018 24.50997685 85.13043541 24.50439453 88.10913086 C24.50641876 88.99804016 24.50844299 89.88694946 24.51052856 90.80279541 C24.48926306 96.90428638 24.48926306 96.90428638 23.375 99.1328125 C19.12085377 99.15746872 14.86674502 99.17565149 10.61254883 99.18774414 C9.16429927 99.19278351 7.71605483 99.19961503 6.26782227 99.20825195 C4.19025412 99.22033497 2.11275303 99.22604461 0.03515625 99.23046875 C-1.21644287 99.23570557 -2.46804199 99.24094238 -3.75756836 99.24633789 C-6.625 99.1328125 -6.625 99.1328125 -7.625 98.1328125 C-7.72562747 95.12467764 -7.7611474 92.13946221 -7.75439453 89.13085938 C-7.75614685 88.1862233 -7.75789917 87.24158722 -7.75970459 86.26832581 C-7.7641248 83.1293863 -7.76118452 79.99050263 -7.7578125 76.8515625 C-7.75848549 74.68062326 -7.75945547 72.5096841 -7.76071167 70.33874512 C-7.76218887 65.78230067 -7.76003337 61.22587578 -7.75537109 56.66943359 C-7.7496738 50.81454664 -7.75295268 44.95970552 -7.75894356 39.10482025 C-7.76254857 34.62001192 -7.76141086 30.13521454 -7.75881577 25.65040588 C-7.75814633 23.49093114 -7.7589755 21.33145541 -7.76129532 19.17198181 C-7.76382086 16.15954942 -7.75998264 13.14719237 -7.75439453 10.13476562 C-7.75641876 9.23291031 -7.75844299 8.33105499 -7.76052856 7.40187073 C-7.7346208 -0.09625346 -7.37384664 0.00667921 0 0 Z"
              fill="var(--github-wordmark)"
              transform="translate(558.625,181.8671875)"/>
        <path d="M0 0 C4.95206942 2.61980447 7.83356306 6.00499668 10.25390625 10.9609375 C11.35151344 16.24940851 11.2812588 21.40079363 8.96484375 26.3671875 C5.55074478 31.56542852 1.61259237 33.56784117 -4.37109375 35.1484375 C-9.88780535 35.33544467 -14.49393036 34.29242783 -18.89453125 30.828125 C-22.93489048 26.59067508 -24.74670003 22.10886841 -25.05859375 16.2734375 C-24.60821321 10.25371711 -22.32318956 6.44111068 -18.05859375 2.2734375 C-12.71312416 -1.45595989 -6.16843245 -2.17709381 0 0 Z"
              fill="var(--github-wordmark)"
              transform="translate(574.05859375,140.7265625)"/>
    </g>
</svg>
