<?xml version="1.0" encoding="UTF-8"?>
<svg version="1.1" xmlns="http://www.w3.org/2000/svg" viewBox="0 0 344 140">
<style>
	svg {
		--tracebit-brand-purple: oklch(0.52 0.12 271);
		--tracebit-text-dark: oklch(0.08 0.03 284);
	}
	@media (prefers-color-scheme: dark) {
		svg {
			--tracebit-brand-purple: oklch(0.66 0.13 271);
			--tracebit-text-dark: oklch(1 0 0);
		}
	}
</style>
    <path d="M0 0 C8.75368869 6.39692635 14.62659951 14.96681781 17.2109375 25.51953125 C18.19606935 37.09483047 16.26815468 47.17406236 9.61328125 56.91015625 C2.61941164 65.18602373 -6.30151019 69.93181457 -16.9140625 71.26953125 C-22.3726083 71.6665164 -27.26942954 70.84016702 -32.5390625 69.45703125 C-32.5390625 68.13703125 -32.5390625 66.81703125 -32.5390625 65.45703125 C-31.08886719 65.50923828 -31.08886719 65.50923828 -29.609375 65.5625 C-17.1734605 65.82106852 -7.20548132 64.19846293 2.37109375 55.77734375 C8.45359418 49.55278917 11.52935588 41.52082779 11.8984375 32.83203125 C11.40800675 24.06755907 8.27245097 16.05183567 2.4609375 9.45703125 C-0.36041258 7.06410841 -3.28258547 5.20277151 -6.5390625 3.45703125 C-7.16554687 3.11671875 -7.79203125 2.77640625 -8.4375 2.42578125 C-15.99195786 -1.01675651 -25.15843082 -0.75103265 -32.8515625 2.08203125 C-41.74237895 6.23203958 -47.49686361 11.39041691 -51.5390625 20.45703125 C-52.77698148 24.418372 -53.74152994 28.38541764 -54.5390625 32.45703125 C-56.4765625 33.01953125 -56.4765625 33.01953125 -58.5390625 33.45703125 C-59.5390625 32.45703125 -59.5390625 32.45703125 -59.55859375 30.48828125 C-58.62060162 19.02000007 -53.6534077 10.05967533 -45.2890625 2.20703125 C-32.62571125 -8.1436367 -13.65685886 -8.29916807 0 0 Z "
          fill="var(--tracebit-brand-purple)" transform="translate(83.5390625,36.54296875)"/>
    <path d="M0 0 C2.64 0 5.28 0 8 0 C8.33 4.29 8.66 8.58 9 13 C10.32 12.34 11.64 11.68 13 11 C17.65570345 10.27201728 21.14371687 10.57185844 25.375 12.6875 C29.02824355 15.9058336 30.77726715 18.42973341 31.46875 23.3046875 C31.56353525 34.13390214 31.56353525 34.13390214 28.75 38.25 C25.83526758 41.16473242 23.89324079 42.77334441 19.78125 43.265625 C19.0284375 43.26046875 18.275625 43.2553125 17.5 43.25 C16.7471875 43.25515625 15.994375 43.2603125 15.21875 43.265625 C12.7703279 42.97250404 11.12695946 42.21816769 9 41 C8.505 41.495 8.505 41.495 8 42 C5.36 42 2.72 42 0 42 C0 28.14 0 14.28 0 0 Z M11.3125 19.5625 C8.29950941 22.73835494 8 24.66015201 8 29 C9.58838934 32.57387602 10.71634358 33.81089572 14 36 C17.02609476 35.81086908 19.22036732 35.48390994 21.8125 33.875 C23.67554298 30.93335319 23.88105265 28.44947304 24 25 C22.41161066 21.42612398 21.28365642 20.18910428 18 18 C14.0582202 17.6649197 14.0582202 17.6649197 11.3125 19.5625 Z "
          fill="var(--tracebit-text-dark)" transform="translate(257,50)"/>
    <path d="M0 0 C0.680625 -0.00386719 1.36125 -0.00773437 2.0625 -0.01171875 C7.12155878 -0.00172061 7.12155878 -0.00172061 9.375 1.125 C9.045 2.445 8.715 3.765 8.375 5.125 C7.7459375 5.10179687 7.116875 5.07859375 6.46875 5.0546875 C-2.98853176 4.85528698 -10.00975766 6.27364453 -17.625 12.125 C-22.95656732 17.60066374 -24.80825496 22.94999915 -25.125 30.4375 C-24.92032143 37.85709817 -23.07818662 43.71435777 -17.72265625 49.00390625 C-10.62283618 54.65923318 -3.58846599 56.13199133 5.375 55.125 C13.72898226 52.74366453 19.16051363 47.68201004 23.375 40.125 C24.23727598 37.15331441 24.85993166 34.17474676 25.375 31.125 C27.025 30.795 28.675 30.465 30.375 30.125 C31.07991235 38.23149204 28.29937815 45.11085598 23.25 51.4375 C17.95542087 57.08657579 10.66342011 60.60215782 2.96484375 61.36328125 C-6.10105456 61.61696618 -13.84642422 59.70867746 -21 53.9375 C-26.72264961 48.48511926 -30.26457338 41.86963237 -30.86328125 33.98828125 C-31.09448797 22.92686501 -29.11182665 16.05596807 -21.55859375 7.91796875 C-14.8383035 1.68642688 -9.02653459 -0.05187664 0 0 Z "
          fill="var(--tracebit-brand-purple)" transform="translate(62.625,38.875)"/>
    <path d="M0 0 C0.495 0.33 0.99 0.66 1.5 1 C1.83 0.67 2.16 0.34 2.5 0 C5.14 0 7.78 0 10.5 0 C10.5 9.9 10.5 19.8 10.5 30 C6.83333333 30 3.16666667 30 -0.5 30 C-1.16 30.33 -1.82 30.66 -2.5 31 C-7.84012755 31.3501723 -11.17913597 31.48069602 -15.5 28 C-20.32513745 22.50470457 -20.8408778 19.19924413 -20.7890625 11.98828125 C-20.4089135 8.0583625 -19.11765134 5.9168115 -16.5 3 C-15.984375 2.401875 -15.46875 1.80375 -14.9375 1.1875 C-10.90856789 -2.14074826 -4.6339001 -1.85356004 0 0 Z M-10.5 8 C-12.80567313 11.22794238 -12.82369432 14.11566819 -12.5 18 C-11.63574999 20.59275002 -10.93273517 21.67544863 -8.75 23.3125 C-5.61963471 24.2690005 -3.62105404 23.92967567 -0.5 23 C1.6683679 21.19302675 2.36924769 19.88439412 2.78125 17.09765625 C2.92682117 13.84050122 2.75117979 11.54422288 1.375 8.5625 C-2.32615922 5.47820065 -6.61589663 5.08692248 -10.5 8 Z "
          fill="var(--tracebit-text-dark)" transform="translate(183.5,62)"/>
    <path d="M0 0 C4.41547482 2.20773741 7.0728317 4.43565402 9 9 C9.33 11.97 9.66 14.94 10 18 C2.74 18 -4.52 18 -12 18 C-10.44966997 22.01274233 -10.44966997 22.01274233 -7.75 23.3125 C-4.44256401 24.139359 -2.30665481 23.75777506 1 23 C1.94875 22.814375 2.8975 22.62875 3.875 22.4375 C4.926875 22.2209375 4.926875 22.2209375 6 22 C8 25 8 25 8 27 C6.36580327 30.26839346 4.40702322 30.80455325 1 32 C-4.96990823 32.71600196 -9.92235976 32.50598969 -15 29 C-19.88203652 23.59017574 -20.34514601 20.14420236 -20.28515625 12.98828125 C-19.80981716 8.00698805 -17.58239469 5.39058927 -13.9375 2.1875 C-9.54226397 -0.50635434 -5.00040693 -0.6154347 0 0 Z M-9.875 9.4375 C-10.57625 10.283125 -11.2775 11.12875 -12 12 C-7.71 12 -3.42 12 1 12 C-0.5268318 7.81522617 -0.5268318 7.81522617 -3.8125 6.9375 C-7.22279034 6.66869777 -7.22279034 6.66869777 -9.875 9.4375 Z "
          fill="var(--tracebit-text-dark)" transform="translate(245,61)"/>
    <path d="M0 0 C7.09326581 0.25793694 11.57441824 2.43052581 17 7 C21.79267442 12.65289803 23.3160964 18.73985736 22.9375 26 C22.06241787 32.62416823 18.95782756 37.48085309 14 41.875 C7.31040059 46.61346625 1.00810729 46.75713014 -7 46 C-13.66386239 44.27111616 -18.21190308 39.58245861 -22 34 C-24.14654079 28.68031194 -25.23931795 23.02083751 -23 17.5625 C-22.67 17.046875 -22.34 16.53125 -22 16 C-20.68 16.66 -19.36 17.32 -18 18 C-18.061875 19.175625 -18.12375 20.35125 -18.1875 21.5625 C-18.16740841 27.24841982 -16.34991961 31.30295821 -12.8125 35.75 C-8.6133105 39.1093516 -4.92822806 41.14284039 0.5625 40.875 C5.61236687 40.03335552 9.54517761 38.9628845 13 35 C16.27759999 29.76844616 17.6849843 25.20538105 16.60546875 19.0703125 C14.85749227 13.09336068 11.26140096 9.99177701 6 7 C3.68943969 5.91677957 1.37148612 4.94859445 -1 4 C-0.67 2.68 -0.34 1.36 0 0 Z "
          fill="var(--tracebit-brand-purple)" transform="translate(63,46)"/>
    <path d="M0 0 C2.82466233 1.02254801 4.54363566 2.17079251 7 4 C7.33 4.99 7.66 5.98 8 7 C6.68 8.32 5.36 9.64 4 11 C3.29875 10.690625 2.5975 10.38125 1.875 10.0625 C-3.68643476 7.93286429 -3.68643476 7.93286429 -9.3125 9 C-11.79281031 11.93962703 -11.93447897 14.19978046 -12 18 C-11.1155391 20.94707246 -11.1155391 20.94707246 -9 23 C-6.1403994 24.17110449 -6.1403994 24.17110449 -3 24 C-1.32983484 23.00585407 0.33720673 22.0064275 2 21 C5.36105951 21.96030272 6.01133714 23.01700571 8 26 C4.63281116 29.74132093 1.9456616 31.63997469 -3.109375 32.2578125 C-8.60273377 32.53432385 -11.70636434 31.69452371 -16 28 C-19.79543219 24.4097263 -20.70444108 21.33150069 -21.0234375 16.26953125 C-20.97837011 11.90550578 -20.43690515 8.53016582 -17.375 5.26953125 C-11.67347632 0.26881986 -7.60885068 -0.84038052 0 0 Z "
          fill="var(--tracebit-text-dark)" transform="translate(217,61)"/>
    <path d="M0 0 C2.64 0 5.28 0 8 0 C8 2.64 8 5.28 8 8 C10.31 8 12.62 8 15 8 C15 10.31 15 12.62 15 15 C12.69 15 10.38 15 8 15 C8 22.59 8 30.18 8 38 C5.36 38 2.72 38 0 38 C0 30.41 0 22.82 0 15 C-1.98 15 -3.96 15 -6 15 C-6 12.69 -6 10.38 -6 8 C-4.02 8 -2.04 8 0 8 C0 5.36 0 2.72 0 0 Z "
          fill="var(--tracebit-text-dark)" transform="translate(308,54)"/>
    <path d="M0 0 C2.64 0 5.28 0 8 0 C8 2.64 8 5.28 8 8 C9.98 8 11.96 8 14 8 C14 10.31 14 12.62 14 15 C12.02 15 10.04 15 8 15 C8 22.59 8 30.18 8 38 C5.36 38 2.72 38 0 38 C0 30.41 0 22.82 0 15 C-1.98 15 -3.96 15 -6 15 C-6 12.69 -6 10.38 -6 8 C-4.02 8 -2.04 8 0 8 C0 5.36 0 2.72 0 0 Z "
          fill="var(--tracebit-text-dark)" transform="translate(126,54)"/>
    <path d="M0 0 C-0.33 2.97 -0.66 5.94 -1 9 C-4.02734375 9.24414062 -4.02734375 9.24414062 -7.0546875 9.48828125 C-9.39519216 9.87393036 -9.39519216 9.87393036 -11 13 C-11.36351504 15.02542148 -11.36351504 15.02542148 -11.4140625 17.23046875 C-11.47207031 18.43413086 -11.47207031 18.43413086 -11.53125 19.66210938 C-11.57765625 20.91217773 -11.57765625 20.91217773 -11.625 22.1875 C-11.68300781 23.4549707 -11.68300781 23.4549707 -11.7421875 24.74804688 C-11.83636279 26.83167524 -11.91926675 28.91580753 -12 31 C-14.64 31 -17.28 31 -20 31 C-20 21.1 -20 11.2 -20 1 C-17.36 1 -14.72 1 -12 1 C-11.67 1.66 -11.34 2.32 -11 3 C-10.484375 2.505 -9.96875 2.01 -9.4375 1.5 C-6.19319983 -0.49649241 -3.73782666 -0.21564385 0 0 Z "
          fill="var(--tracebit-text-dark)" transform="translate(164,61)"/>
    <path d="M0 0 C4.004793 2.0023965 6.6587028 4.17998877 9 8 C10.28317892 11.84953676 10.06643637 14.94738135 10 19 C8.0625 19.5625 8.0625 19.5625 6 20 C4.47930961 18.47930961 4.55446492 16.78297256 4.1875 14.6875 C3.32330868 10.69061512 2.49640929 8.3975378 -1 6 C-4.5660707 4.55429566 -5.98008783 4.99325011 -9.6875 6.25 C-13.1849837 7.7611792 -13.1849837 7.7611792 -15 11 C-15.43806977 15.52672093 -15.6553404 17.865757 -13.375 21.8125 C-10.76257341 24.21868239 -8.24973719 25.5967044 -5 27 C-5.33 28.32 -5.66 29.64 -6 31 C-11.00833254 30.52301595 -14.10624603 29.20153104 -18 26 C-21.5383686 21.04628396 -21.85373486 15.88981129 -21 10 C-16.60585055 0.87368961 -9.55660943 -1.4221145 0 0 Z "
          fill="var(--tracebit-brand-purple)" transform="translate(68,54)"/>
    <path d="M0 0 C2.64 0 5.28 0 8 0 C8 9.9 8 19.8 8 30 C5.36 30 2.72 30 0 30 C0 20.1 0 10.2 0 0 Z " fill="var(--tracebit-text-dark)"
          transform="translate(292,62)"/>
    <path d="M0 0 C1.32 0 2.64 0 4 0 C4.21914063 0.7734375 4.43828125 1.546875 4.6640625 2.34375 C8.03703112 13.42244367 13.09099898 19.76426313 22 27 C21.67 28.32 21.34 29.64 21 31 C14.26903253 29.68372192 9.47396685 25.08639802 5.6875 19.5625 C1.60889142 12.91670183 -0.41557708 7.89596458 0 0 Z "
          fill="var(--tracebit-brand-purple)" transform="translate(25,72)"/>
    <path d="M0 0 C4.28887049 0.1046066 6.59065785 1.17889191 9.625 4.0625 C14.83993571 9.70432204 17.3651447 15.38173642 18 23 C16.68 23.33 15.36 23.66 14 24 C13.57589844 23.05898437 13.15179688 22.11796875 12.71484375 21.1484375 C9.3086991 13.83878647 6.46969469 9.01731425 0 4 C0 2.68 0 1.36 0 0 Z "
          fill="var(--tracebit-brand-purple)" transform="translate(75,43)"/>
    <path d="M0 0 C0 2.25 0 2.25 -1 5 C-2.905359 6.19307526 -4.86428655 7.05015453 -6.921875 7.953125 C-9.94251371 9.47480014 -11.76654081 11.48735841 -14 14 C-15.32 13.34 -16.64 12.68 -18 12 C-16.67915553 6.38641099 -12.56312373 4.00405646 -8 1 C-5.29120665 -0.35439668 -2.99066732 -0.06501451 0 0 Z "
          fill="var(--tracebit-brand-purple)" transform="translate(60,47)"/>
    <path d="M0 0 C3.625 0.375 3.625 0.375 7 1 C7.04241723 3.33294775 7.04092937 5.66702567 7 8 C6 9 6 9 2.5 9.125 C-1 9 -1 9 -2 8 C-2.1875 5.0625 -2.1875 5.0625 -2 2 C-1.34 1.34 -0.68 0.68 0 0 Z "
          fill="var(--tracebit-text-dark)" transform="translate(293,47)"/>
    <path d="M0 0 C1.67542976 0.28604898 3.34385343 0.61781233 5 1 C4.05322042 4.18462224 3.33558155 5.73697662 0.6875 7.8125 C-2.13944983 9.06161737 -3.94899661 9.26151458 -7 9 C-7 7.68 -7 6.36 -7 5 C-4.0625 2.8125 -4.0625 2.8125 -1 1 C-0.67 0.67 -0.34 0.34 0 0 Z "
          fill="var(--tracebit-brand-purple)" transform="translate(71,75)"/>
</svg>
