<?xml version="1.0" encoding="UTF-8"?>
<svg version="1.1" xmlns="http://www.w3.org/2000/svg" width="282" height="52" viewBox="0 0 282 52">
    <style>
        svg {
        --v7n-primary: oklch(0.45 0.15 340);
        --v7n-secondary: oklch(0.20 0.01 0);
        --v7n-accent-orange: oklch(0.70 0.15 60);
        --v7n-accent-purple: oklch(0.50 0.15 310);
        --v7n-accent-magenta: oklch(0.45 0.20 330);
        --v7n-accent-yellow: oklch(0.80 0.15 90);
        --v7n-accent-brown: oklch(0.65 0.10 40);
        }
        @media (prefers-color-scheme: dark) {
        svg {
        --v7n-primary: oklch(0.55 0.15 340);
        --v7n-secondary: oklch(0.85 0.01 0);
        --v7n-accent-orange: oklch(0.70 0.15 60);
        --v7n-accent-purple: oklch(0.50 0.15 310);
        --v7n-accent-magenta: oklch(0.45 0.20 330);
        --v7n-accent-yellow: oklch(0.80 0.15 90);
        --v7n-accent-brown: oklch(0.65 0.10 40);
        }
        }
    </style>
    <path d="M0 0 C0.95648438 -0.02578125 1.91296875 -0.0515625 2.8984375 -0.078125 C6.00392147 0.29560086 7.33036066 1.18373709 9.625 3.25 C8.20425676 6.495613 6.48737319 8.6126159 3.95703125 11.078125 C3.22806641 11.79613281 2.49910156 12.51414062 1.74804688 13.25390625 C0.98556641 13.99511719 0.22308594 14.73632812 -0.5625 15.5 C-6.08783987 20.89595203 -11.34195197 26.39293301 -16.375 32.25 C-18.01692213 34.08494571 -19.68048262 35.90101046 -21.375 37.6875 C-22.15875 38.53183594 -22.9425 39.37617187 -23.75 40.24609375 C-27.05485877 42.76899933 -29.23866537 43.22182973 -33.375 43.25 C-35.59765625 42.02734375 -35.59765625 42.02734375 -37.4375 40.1875 C-38.09878906 39.54554687 -38.76007812 38.90359375 -39.44140625 38.2421875 C-40.07949219 37.58476563 -40.71757813 36.92734375 -41.375 36.25 C-41.98214844 35.65445313 -42.58929688 35.05890625 -43.21484375 34.4453125 C-44.61894942 33.06433328 -45.99970683 31.6596755 -47.375 30.25 C-50.19978464 31.53562206 -52.25096369 32.87726167 -54.43359375 35.078125 C-54.98466797 35.63113281 -55.53574219 36.18414062 -56.10351562 36.75390625 C-56.66748047 37.33011719 -57.23144531 37.90632813 -57.8125 38.5 C-58.37259766 39.06074219 -58.93269531 39.62148438 -59.50976562 40.19921875 C-62.19181422 42.90943355 -64.75152127 45.65223899 -67.16015625 48.609375 C-69.79711675 51.75326441 -70.49381241 52.10900999 -74.5 52.75 C-80.12413317 52.0243054 -82.47419688 49.17097969 -86.375 45.25 C-87.35767737 44.31202033 -88.34215868 43.3759281 -89.328125 42.44140625 C-90.34507286 41.46230964 -91.36070476 40.48184432 -92.375 39.5 C-92.86838867 39.02844482 -93.36177734 38.55688965 -93.87011719 38.07104492 C-95.09755069 36.85425265 -96.2433709 35.55636595 -97.375 34.25 C-97.375 33.26 -97.375 32.27 -97.375 31.25 C-92.82284545 28.58532416 -89.6444336 27.68541783 -84.375 28.25 C-81.1875 29.625 -81.1875 29.625 -78.375 31.25 C-77.04502627 31.92334397 -75.71231832 32.59136357 -74.375 33.25 C-73.74932129 32.61908447 -73.12364258 31.98816895 -72.47900391 31.33813477 C-70.15890381 29.00100365 -67.83657708 26.66613222 -65.51269531 24.33276367 C-64.50690797 23.32194415 -63.50201952 22.31022938 -62.49804688 21.29760742 C-61.05573517 19.84318144 -59.61023328 18.39199385 -58.1640625 16.94140625 C-57.29475098 16.06685791 -56.42543945 15.19230957 -55.52978516 14.29125977 C-53.11650939 12.00512803 -51.99338822 11.36778823 -48.75 10.75 C-44.42915172 11.39012567 -42.69117468 13.17722164 -39.59765625 16.1328125 C-36.6274228 18.96210342 -33.50413832 21.59900854 -30.375 24.25 C-29.9625 23.80197021 -29.55 23.35394043 -29.125 22.89233398 C-27.21257518 20.82009576 -25.29383781 18.75380068 -23.375 16.6875 C-22.72660156 15.98302734 -22.07820313 15.27855469 -21.41015625 14.55273438 C-7.98290626 0.12841136 -7.98290626 0.12841136 0 0 Z"
          fill="var(--v7n-primary)" transform="translate(97.375,-0.25)"/>
    <path d="M0 0 C11 0 11 0 14.3125 2.5703125 C15.24261004 3.72849677 16.13763625 4.91552728 17 6.125 C17.48637939 6.74721436 17.97275879 7.36942871 18.47387695 8.01049805 C19.49135008 9.31830286 20.49425626 10.6375602 21.48291016 11.96728516 C23.50093059 14.67118572 25.60408958 17.30328733 27.70507812 19.94287109 C29.12195426 21.72983378 30.52253847 23.52829681 31.91796875 25.33203125 C33.38561271 27.23089263 33.38561271 27.23089263 35 29 C35.33 19.43 35.66 9.86 36 0 C40.29 0 44.58 0 49 0 C49 17.16 49 34.32 49 52 C37 52 37 52 34.24609375 50.3046875 C33.64925781 49.50289062 33.05242187 48.70109375 32.4375 47.875 C31.73238281 46.97394531 31.02726562 46.07289062 30.30078125 45.14453125 C29.54152344 44.10683594 28.78226562 43.06914063 28 42 C26.545519 40.13703076 25.07572125 38.28676683 23.60571289 36.43603516 C22.18331866 34.63629017 20.78242794 32.82138234 19.3828125 31.00390625 C17.01242908 27.897887 17.01242908 27.897887 14 25 C13.67 33.91 13.34 42.82 13 52 C8.71 52 4.42 52 0 52 C0 34.84 0 17.68 0 0 Z"
          fill="var(--v7n-secondary)" transform="translate(233,0)"/>
    <path d="M0 0 C4.62 0 9.24 0 14 0 C19.46198857 11.4841811 24.246601 23.20858571 29 35 C33.59686272 26.31580875 37.36909566 17.42324248 41.01538086 8.30419922 C41.38800049 7.37494629 41.76062012 6.44569336 42.14453125 5.48828125 C42.47815674 4.64821533 42.81178223 3.80814941 43.15551758 2.94262695 C44 1 44 1 45 0 C47.18639453 -0.07258946 49.37500389 -0.08373783 51.5625 -0.0625 C53.35880859 -0.04896484 53.35880859 -0.04896484 55.19140625 -0.03515625 C56.11824219 -0.02355469 57.04507813 -0.01195312 58 0 C55.95066672 6.50977704 53.50809066 12.76755917 50.8046875 19.03125 C50.21531906 20.40694153 50.21531906 20.40694153 49.61404419 21.8104248 C48.79049773 23.73048375 47.96518781 25.64978721 47.13818359 27.56835938 C45.86743268 30.5175625 44.60325212 33.46952002 43.33984375 36.421875 C42.53684237 38.29183163 41.73347042 40.16162918 40.9296875 42.03125 C40.55053192 42.91655396 40.17137634 43.80185791 39.7807312 44.71398926 C39.43011627 45.52573608 39.07950134 46.33748291 38.71826172 47.17382812 C38.40976288 47.89058716 38.10126404 48.60734619 37.78341675 49.3458252 C37 51 37 51 36 52 C32.40500204 52.11109388 28.82115727 52.06145187 25.22485352 52.02905273 C24.16065186 52.01946533 23.0964502 52.00987793 22 52 C17.14028351 41.7641807 12.51946657 31.44232871 8.06323242 21.0246582 C7.04334295 18.64275971 6.01692829 16.26373786 4.99023438 13.88476562 C4.33815173 12.36475055 3.68644407 10.84457455 3.03515625 9.32421875 C2.72900894 8.61601486 2.42286163 7.90781097 2.10743713 7.17814636 C0 2.22928192 0 2.22928192 0 0 Z"
          fill="var(--v7n-secondary)" transform="translate(123,0)"/>
    <path d="M0 0 C13.86 0 27.72 0 42 0 C42 11.25 42 11.25 40.34765625 14.99072266 C39.98728271 15.83083893 39.62690918 16.6709552 39.25561523 17.53652954 C38.86188721 18.40361542 38.46815918 19.27070129 38.0625 20.1640625 C37.66297119 21.08214691 37.26344238 22.00023132 36.85180664 22.94613647 C35.58483297 25.84689633 34.29299835 28.73576096 33 31.625 C32.13113845 33.60212976 31.26393412 35.57998867 30.3984375 37.55859375 C28.28468806 42.38103612 26.14858587 47.19298357 24 52 C19.05 52 14.1 52 9 52 C14.81554024 37.91399884 20.7227901 23.88701185 27 10 C21.72 10 16.44 10 11 10 C11 12.97 11 15.94 11 19 C7.37 19 3.74 19 0 19 C0 12.73 0 6.46 0 0 Z"
          fill="var(--v7n-secondary)" transform="translate(182,0)"/>
    <path d="M0 0 C0.95648438 -0.02578125 1.91296875 -0.0515625 2.8984375 -0.078125 C6.00392147 0.29560086 7.33036066 1.18373709 9.625 3.25 C8.20425676 6.495613 6.48737319 8.6126159 3.95703125 11.078125 C3.22806641 11.79613281 2.49910156 12.51414062 1.74804688 13.25390625 C0.98556641 13.99511719 0.22308594 14.73632812 -0.5625 15.5 C-6.08671251 20.89485107 -11.35159888 26.38518152 -16.375 32.25 C-17.375 33.25 -17.375 33.25 -20.5625 33.625 C-25.57845556 33.13162732 -26.90046335 31.80726371 -30.375 28.25 C-30.705 27.26 -31.035 26.27 -31.375 25.25 C-28.88149333 22.55641391 -26.37901126 19.87132058 -23.875 17.1875 C-23.17890625 16.43533203 -22.4828125 15.68316406 -21.765625 14.90820312 C-7.94498966 0.12780144 -7.94498966 0.12780144 0 0 Z"
          fill="var(--v7n-accent-orange)" transform="translate(97.375,-0.25)"/>
    <path d="M0 0 C0.66 0.33 1.32 0.66 2 1 C1.06725891 2.12894876 0.12859878 3.25300876 -0.8125 4.375 C-1.33457031 5.00148438 -1.85664062 5.62796875 -2.39453125 6.2734375 C-4 8 -4 8 -7 10 C-3.04 11.98 0.92 13.96 5 16 C3.57637849 17.66089177 2.15240876 19.32148649 0.7265625 20.98046875 C-0.41055215 22.31053272 -1.54096303 23.64636193 -2.6640625 24.98828125 C-3.18742187 25.61089844 -3.71078125 26.23351562 -4.25 26.875 C-4.72953125 27.44992188 -5.2090625 28.02484375 -5.703125 28.6171875 C-7.74916976 30.79881354 -9.13383646 31.02141383 -12.125 31.5 C-17.74913317 30.7743054 -20.09919688 27.92097969 -24 24 C-24.98267737 23.06202033 -25.96715868 22.1259281 -26.953125 21.19140625 C-27.97007286 20.21230964 -28.98570476 19.23184432 -30 18.25 C-30.49338867 17.77844482 -30.98677734 17.30688965 -31.49511719 16.82104492 C-32.72255069 15.60425265 -33.8683709 14.30636595 -35 13 C-35 12.01 -35 11.02 -35 10 C-30.44784545 7.33532416 -27.2694336 6.43541783 -22 7 C-18.8125 8.375 -18.8125 8.375 -16 10 C-14.68 10.66 -13.36 11.32 -12 12 C-8.04 8.04 -4.08 4.08 0 0 Z"
          fill="var(--v7n-accent-magenta)" transform="translate(35,21)"/>
    <path d="M0 0 C5.03405033 0.47194222 9.48120657 2.88335384 14 5 C12.5 7.5 12.5 7.5 10 10 C5.05135952 10.78549849 5.05135952 10.78549849 2 10 C-1 7.5 -1 7.5 -3 5 C-1.125 1.125 -1.125 1.125 0 0 Z"
          fill="var(--v7n-accent-purple)" transform="translate(26,32)"/>
    <path d="M0 0 C5.06998019 0.65419099 9.41990777 2.8546409 14 5 C13.01 5.99 12.02 6.98 11 8 C7.04 6.02 3.08 4.04 -1 2 C-0.67 1.34 -0.34 0.68 0 0 Z"
          fill="var(--v7n-accent-purple)" transform="translate(26,32)"/>
    <path d="M0 0 C0.66 0.33 1.32 0.66 2 1 C-2.10037573 6.24972347 -6.52964787 10.20962911 -12 14 C-10.41332422 10.09714233 -7.86649519 7.66479018 -4.875 4.75 C-3.96492188 3.85796875 -3.05484375 2.9659375 -2.1171875 2.046875 C-1.41851562 1.37140625 -0.71984375 0.6959375 0 0 Z"
          fill="var(--v7n-accent-magenta)" transform="translate(35,21)"/>
    <path d="M0 0 C0.33 0 0.66 0 1 0 C1 3.3 1 6.6 1 10 C-0.65 8.35 -2.3 6.7 -4 5 C-2.69254251 3.31295807 -1.35827971 1.64639965 0 0 Z"
          fill="var(--v7n-accent-brown)" transform="translate(70,21)"/>
    <path d="M0 0 C1.32 0.66 2.64 1.32 4 2 C2.63016497 5.16115776 2.0109362 5.9927092 -1 8 C-1.125 2.25 -1.125 2.25 0 0 Z"
          fill="var(--v7n-accent-yellow)" transform="translate(103,1)"/>
</svg>
