<?xml version="1.0" encoding="UTF-8" standalone="no"?>
<svg
   width="16"
   height="16"
   viewBox="0 0 256 256"
   version="1.1"
   id="svg287"
   sodipodi:docname="htmx_dark.svg"
   inkscape:version="1.2.1 (9c6d41e, 2022-07-14)"
   xmlns:inkscape="http://www.inkscape.org/namespaces/inkscape"
   xmlns:sodipodi="http://sodipodi.sourceforge.net/DTD/sodipodi-0.dtd"
   xmlns="http://www.w3.org/2000/svg"
   xmlns:svg="http://www.w3.org/2000/svg">
  <defs
     id="defs291" />
  <sodipodi:namedview
     id="namedview289"
     pagecolor="#505050"
     bordercolor="#eeeeee"
     borderopacity="1"
     inkscape:showpageshadow="0"
     inkscape:pageopacity="0"
     inkscape:pagecheckerboard="0"
     inkscape:deskcolor="#505050"
     showgrid="false"
     inkscape:zoom="27.40625"
     inkscape:cx="6.3854048"
     inkscape:cy="7.3705815"
     inkscape:window-width="1259"
     inkscape:window-height="820"
     inkscape:window-x="2060"
     inkscape:window-y="25"
     inkscape:window-maximized="0"
     inkscape:current-layer="svg287" />
  <path
     fill="#3d72d7"
     d="m 92.80931,211.93595 47.9447,-171.265771 a 2.3748439,2.8675381 0 0 1 2.49698,-1.93354 l 19.88084,2.45789 a 2.3748439,2.8675381 0 0 1 2.022,3.75238 L 118.33548,213.8531 a 2.3748439,2.8675381 0 0 1 -2.2527,1.96631 l -21.034331,-0.0983 a 2.3748439,2.8675381 0 0 1 -2.239139,-3.78515 z"
     id="path9"
     style="stroke-width:1.49119" />
  <path
     fill="#333333"
     d="m 33.763907,132.12007 c -1.592276,0.75375 -1.583229,1.4802 0.02714,2.17933 16.438443,7.17704 32.28883,13.91165 47.551159,20.20386 0.727419,0.30748 1.219852,1.12423 1.234919,2.04824 -0.214237,10.63702 -0.384508,19.1784 -0.401503,28.62622 -0.325692,1.01593 -1.52099,1.31634 -2.353315,0.90122 L 2.2395547,147.19513 c -0.35763,-0.18597 -0.58027,-0.61873 -0.5564,-1.08148 l 0.12381,-25.31188 c 0.0249,-0.63224 0.87445,-1.12426 1.70822,-1.57743 L 79.374479,79.963647 c 0.804287,-0.42127 2.617287,0.18269 2.875279,1.21475 -0.180356,10.46196 0.296376,20.583873 0.286657,29.345013 -0.018,0.48554 -0.274377,0.9112 -0.651386,1.08148 -16.752569,7.66439 -33.358905,14.70553 -48.121122,20.51518 z m 189.580383,-0.27856 -48.43324,-20.41687 c -0.0776,-10.64493 -0.0238,-13.917543 0.0176,-30.506823 0.1719,-0.5462 0.98658,-0.59914 1.44798,-0.44621 27.0655,12.61166 55.00987,27.040193 77.98987,38.588873 0.52473,0.26218 0.78709,0.73737 0.78709,1.42558 l 0.0407,25.7423 c -0.001,0.63571 -0.31626,1.2093 -0.80066,1.45835 l -77.22992,38.50694 c -1.24994,0.10087 -2.28748,-0.64701 -2.43862,-1.68019 -0.12039,-9.77693 -0.0127,-18.13379 -0.11264,-28.51909 0.0323,-0.59314 0.35336,-1.10357 0.81423,-1.29449 16.72794,-6.80562 32.70951,-13.7314 47.94471,-20.77736 1.56513,-0.72098 1.5561,-1.41465 -0.0271,-2.08101 z"
     id="path11"
     style="stroke-width:1.49119;fill:#f5f5f5;fill-opacity:1"
     sodipodi:nodetypes="ccccccccccccccccccccccccccccsc" />
</svg>
